<svg width="169" height="169" viewBox="0 0 169 169" fill="none" xmlns="http://www.w3.org/2000/svg">
<g clip-path="url(#clip0_331_2856)">
<path d="M148.932 144.948C145.499 148.566 142.25 150.898 139.683 152.741C109.509 174.405 73.8059 168.09 66.2183 166.548C55.0133 164.271 33.354 159.869 17.6952 141.442C-5.99574 113.563 -2.30695 69.6425 16.0698 40.649C19.431 35.3458 37.1868 5.91098 73.2743 1.19071C95.1143 -1.66595 120.573 4.0954 139.009 19.5519C177.708 51.9952 174.953 117.537 148.932 144.948Z" fill="url(#paint0_linear_331_2856)"/>
<g opacity="0.3">
<path d="M157.207 22.5715C157.411 22.4514 157.676 22.5018 157.82 22.6963C158.135 23.122 158.436 23.5675 158.715 24.0202C158.851 24.2405 158.782 24.5293 158.562 24.665C158.56 24.6668 158.557 24.668 158.554 24.6698C158.335 24.7989 158.051 24.7299 157.918 24.5119C157.652 24.0814 157.367 23.6582 157.067 23.2541C156.913 23.0464 156.957 22.7528 157.165 22.5985C157.179 22.5883 157.193 22.5793 157.207 22.5715ZM159.254 26.1036C159.269 26.0946 159.286 26.0855 159.303 26.0783C159.539 25.9739 159.816 26.0813 159.92 26.3179C160.135 26.8042 160.33 27.3049 160.502 27.8057C160.586 28.0506 160.456 28.316 160.211 28.4013C159.966 28.4853 159.7 28.3544 159.616 28.1101C159.452 27.6346 159.267 27.159 159.063 26.6967C158.967 26.4764 159.052 26.2224 159.254 26.1036ZM160.473 29.9989C160.518 29.9725 160.568 29.9533 160.622 29.9425C160.876 29.8932 161.122 30.0595 161.171 30.3141C161.272 30.8352 161.351 31.3672 161.407 31.8949C161.434 32.1525 161.247 32.383 160.99 32.4101C160.732 32.4371 160.502 32.2504 160.475 31.9928C160.422 31.4915 160.347 30.9865 160.252 30.4918C160.213 30.2913 160.307 30.0968 160.473 29.9989ZM160.791 34.0695C160.865 34.0257 160.952 34.0017 161.045 34.0053C161.303 34.0143 161.506 34.2311 161.497 34.4898C161.478 35.0206 161.437 35.5567 161.373 36.0833C161.342 36.3402 161.108 36.5233 160.852 36.4921C160.595 36.4609 160.412 36.2274 160.443 35.9704C160.504 35.4703 160.543 34.9605 160.561 34.4562C160.566 34.2911 160.658 34.1482 160.791 34.0695ZM160.193 38.1096C160.297 38.0483 160.425 38.0267 160.551 38.0604C160.801 38.1264 160.95 38.3834 160.884 38.6331C160.748 39.1453 160.589 39.6586 160.411 40.1593C160.324 40.4031 160.056 40.5304 159.812 40.4433C159.568 40.3562 159.441 40.0879 159.528 39.8441C159.698 39.3686 159.849 38.8805 159.978 38.3936C160.012 38.2693 160.091 38.1702 160.193 38.1096ZM158.718 41.9161C158.853 41.8362 159.025 41.826 159.173 41.9041C159.403 42.0241 159.491 42.3069 159.371 42.5363C159.126 43.0064 158.857 43.4723 158.572 43.9196C158.433 44.1381 158.144 44.2024 157.925 44.0637C157.707 43.925 157.643 43.635 157.781 43.4164C158.052 42.9908 158.307 42.5489 158.54 42.1022C158.584 42.0223 158.645 41.9593 158.718 41.9161ZM144.502 51.6034C144.557 51.5703 144.621 51.5487 144.689 51.5415C145.19 51.4881 145.694 51.4118 146.189 51.3152C146.443 51.2659 146.689 51.4317 146.738 51.6856C146.788 51.9396 146.623 52.1857 146.368 52.2356C145.847 52.3376 145.315 52.4175 144.788 52.4739C144.531 52.5016 144.301 52.3148 144.273 52.0579C144.254 51.8681 144.349 51.6934 144.502 51.6034ZM156.438 45.2987C156.605 45.1996 156.824 45.2128 156.98 45.3455C157.177 45.5136 157.2 45.809 157.033 46.0065C156.689 46.4106 156.323 46.8038 155.946 47.1767C155.761 47.3574 155.465 47.3568 155.284 47.1725C155.102 46.9882 155.104 46.6916 155.288 46.5097C155.646 46.156 155.993 45.782 156.32 45.3983C156.355 45.3581 156.394 45.3245 156.438 45.2987ZM148.484 50.7142C148.511 50.6986 148.54 50.6848 148.57 50.6746C149.046 50.5101 149.521 50.3233 149.983 50.1186C150.219 50.0135 150.496 50.1204 150.601 50.3576C150.705 50.5941 150.599 50.8721 150.362 50.976C149.876 51.1909 149.377 51.3878 148.876 51.5607C148.631 51.6454 148.364 51.5151 148.28 51.2708C148.206 51.0564 148.297 50.8253 148.484 50.7142ZM153.46 48.0869C153.663 47.9668 153.929 48.0172 154.073 48.2112C154.227 48.4189 154.184 48.7125 153.976 48.8668C153.551 49.1832 153.107 49.4852 152.655 49.7644C152.652 49.7662 152.65 49.768 152.647 49.7698C152.428 49.8989 152.145 49.8298 152.011 49.6125C151.874 49.3921 151.942 49.1033 152.162 48.9671C152.591 48.7017 153.013 48.4147 153.417 48.1139C153.431 48.1049 153.446 48.0953 153.46 48.0869Z" fill="#005655" fill-opacity="0.3"/>
<path d="M141.214 51.6547C141.293 51.6079 141.387 51.5839 141.486 51.5911C141.727 51.6091 141.972 51.6223 142.215 51.6307C142.474 51.6397 142.676 51.8565 142.668 52.1152C142.659 52.374 142.442 52.5769 142.184 52.5673C141.928 52.5589 141.671 52.5445 141.417 52.5259C141.159 52.5067 140.966 52.2816 140.985 52.0234C140.997 51.8649 141.087 51.7304 141.214 51.6547Z" fill="#005655" fill-opacity="0.3"/>
</g>
<g opacity="0.3">
<path d="M128.521 45.1096C128.716 44.9949 128.971 45.0345 129.12 45.2146C129.274 45.4008 129.434 45.5869 129.597 45.7676C129.77 45.9597 129.754 46.2563 129.562 46.4298C129.369 46.6039 129.073 46.5877 128.9 46.395C128.729 46.2047 128.56 46.009 128.398 45.8132C128.233 45.6139 128.26 45.3185 128.46 45.1534C128.479 45.1366 128.5 45.1222 128.521 45.1096Z" fill="#005655" fill-opacity="0.3"/>
<path d="M133.276 17.74C133.462 17.6307 133.65 17.5239 133.841 17.4194C134.068 17.2957 134.353 17.3792 134.476 17.6067C134.6 17.8337 134.516 18.1201 134.29 18.2425C133.849 18.4827 133.42 18.7403 133.009 19.011C132.792 19.1533 132.502 19.0933 132.36 18.8772C132.218 18.661 132.278 18.3698 132.494 18.2281C132.748 18.0606 133.012 17.8961 133.276 17.74ZM136.088 16.3861C136.111 16.3729 136.135 16.3609 136.16 16.3513C136.648 16.1652 137.15 15.9977 137.651 15.8542C137.899 15.7827 138.159 15.9262 138.23 16.1754C138.302 16.424 138.158 16.6845 137.91 16.7554C137.434 16.8923 136.957 17.0514 136.493 17.2279C136.251 17.3197 135.98 17.1985 135.889 16.9565C135.806 16.7398 135.895 16.5002 136.088 16.3861ZM130.534 19.7237C130.724 19.6114 130.973 19.6469 131.124 19.8192C131.294 20.0143 131.274 20.3103 131.08 20.4808C130.707 20.8068 130.344 21.1532 130 21.5111C129.82 21.6972 129.523 21.7026 129.337 21.5231C129.151 21.3436 129.146 21.0464 129.325 20.8602C129.688 20.4838 130.071 20.1188 130.463 19.7753C130.485 19.7549 130.509 19.7381 130.534 19.7237ZM139.976 15.3787C140.027 15.3487 140.085 15.3276 140.147 15.3186C140.664 15.2448 141.191 15.192 141.712 15.1619C141.97 15.1469 142.191 15.3445 142.206 15.6026C142.221 15.8614 142.024 16.0829 141.766 16.0973C141.271 16.1262 140.771 16.176 140.281 16.2462C140.024 16.2829 139.787 16.1051 139.751 15.8488C139.723 15.6555 139.817 15.4723 139.976 15.3787ZM127.825 22.6866C127.981 22.5948 128.184 22.5978 128.34 22.7119C128.548 22.8644 128.595 23.1573 128.442 23.3669C128.151 23.7667 127.872 24.1846 127.615 24.6097C127.48 24.8306 127.192 24.9015 126.971 24.767C126.75 24.6325 126.679 24.3443 126.814 24.1234C127.085 23.6761 127.378 23.236 127.685 22.8151C127.724 22.7611 127.772 22.7185 127.825 22.6866ZM125.833 26.1731C125.958 26.0993 126.115 26.0848 126.258 26.1467C126.495 26.25 126.604 26.5255 126.501 26.7633C126.303 27.219 126.123 27.6879 125.964 28.1574C125.881 28.403 125.616 28.5344 125.37 28.451C125.125 28.3681 124.993 28.1022 125.076 27.8566C125.243 27.3625 125.433 26.869 125.641 26.3898C125.682 26.2956 125.751 26.2217 125.833 26.1731ZM124.647 30.0108C124.741 29.955 124.856 29.9322 124.973 29.9544C125.227 30.003 125.393 30.2492 125.344 30.5031C125.251 30.9912 125.176 31.4884 125.124 31.9807C125.096 32.2383 124.866 32.4244 124.608 32.3968C124.351 32.3691 124.165 32.1386 124.192 31.881C124.248 31.3629 124.326 30.8393 124.425 30.326C124.451 30.1885 124.535 30.0768 124.647 30.0108ZM124.325 34.016C124.391 33.977 124.467 33.9542 124.548 33.9518C124.807 33.944 125.023 34.1475 125.031 34.4057C125.046 34.9022 125.082 35.4035 125.139 35.8958C125.168 36.1528 124.984 36.3858 124.727 36.4152C124.47 36.4446 124.237 36.2603 124.208 36.0033C124.148 35.4846 124.11 34.9568 124.094 34.4345C124.089 34.2574 124.183 34.1001 124.325 34.016ZM124.891 37.996C124.928 37.9744 124.968 37.957 125.012 37.9462C125.262 37.8813 125.518 38.032 125.583 38.283C125.706 38.7627 125.852 39.243 126.016 39.7119C126.102 39.9563 125.973 40.2235 125.729 40.3093C125.485 40.3952 125.218 40.2661 125.132 40.0217C124.959 39.5282 124.806 39.0227 124.675 38.5177C124.622 38.31 124.716 38.0993 124.891 37.996ZM126.315 41.7514C126.324 41.7466 126.332 41.7418 126.34 41.7376C126.571 41.62 126.853 41.7112 126.97 41.9418C127.137 42.2672 127.314 42.5914 127.5 42.9054C127.567 43.0189 127.635 43.1317 127.704 43.2434C127.84 43.4638 127.773 43.7526 127.552 43.8888C127.332 44.0311 127.044 43.9573 126.907 43.7375C126.835 43.6199 126.763 43.5016 126.693 43.3821C126.498 43.0519 126.31 42.7109 126.136 42.3686C126.023 42.1459 126.103 41.8763 126.315 41.7514Z" fill="#005655" fill-opacity="0.3"/>
<path d="M144.002 15.2545C144.083 15.2071 144.177 15.1831 144.277 15.1909C144.53 15.2113 144.787 15.2371 145.041 15.2678C145.298 15.299 145.481 15.5325 145.45 15.7895C145.419 16.0465 145.185 16.2296 144.929 16.1984C144.687 16.1689 144.443 16.1443 144.203 16.1251C143.945 16.1047 143.753 15.879 143.773 15.6208C143.786 15.4629 143.875 15.3296 144.002 15.2545Z" fill="#005655" fill-opacity="0.3"/>
</g>
<path d="M146.218 20.2587C146.131 20.2263 146.032 20.2533 145.973 20.3253L144.286 22.3895C143.051 22.2364 141.783 22.279 140.529 22.536L138.687 20.6123C138.622 20.5451 138.522 20.5259 138.437 20.5649L135.535 21.9038C135.451 21.9428 135.4 22.0316 135.409 22.1247L135.675 24.776C134.665 25.5637 133.809 26.501 133.124 27.5402L130.46 27.4832C130.366 27.4814 130.282 27.5384 130.25 27.6261L129.143 30.6262C129.111 30.7139 129.138 30.8124 129.21 30.8718L131.273 32.5595C131.12 33.7951 131.162 35.0643 131.419 36.3191L129.497 38.1623C129.43 38.2272 129.41 38.3275 129.449 38.4121L130.787 41.3162C130.826 41.4009 130.915 41.4519 131.008 41.4423L133.658 41.1763C134.445 42.1868 135.382 43.0435 136.42 43.7292L136.363 46.3949C136.361 46.4886 136.418 46.5726 136.506 46.605L139.504 47.7116C139.592 47.744 139.69 47.717 139.75 47.6449L141.436 45.5808C142.671 45.7339 143.939 45.6913 145.193 45.4343L147.035 47.3579C147.1 47.4252 147.2 47.4444 147.285 47.4054L150.187 46.0665C150.272 46.0275 150.323 45.9386 150.313 45.8456L150.047 43.1942C151.057 42.4065 151.913 41.4693 152.599 40.43L155.263 40.4871C155.356 40.4889 155.44 40.4318 155.473 40.3442L156.578 37.344C156.611 37.2564 156.584 37.1579 156.512 37.0985L154.449 35.4108C154.602 34.1752 154.559 32.9059 154.303 31.6511L156.225 29.8079C156.292 29.7431 156.311 29.6428 156.272 29.5581L154.934 26.6541C154.895 26.5694 154.807 26.5184 154.714 26.528L152.064 26.7939C151.277 25.7835 150.34 24.9267 149.302 24.2411L149.359 21.5753C149.36 21.4817 149.303 21.3976 149.216 21.3652L146.218 20.2587Z" fill="#005655" fill-opacity="0.3"/>
<path d="M141.23 31.2157C142.579 30.4196 144.348 30.7114 145.36 31.9662C146.473 33.3453 146.257 35.3734 144.879 36.4866C144.211 37.0263 143.373 37.2731 142.52 37.1818C141.667 37.0911 140.9 36.6727 140.361 36.005C139.248 34.6259 139.464 32.5978 140.842 31.4847C140.967 31.3844 141.096 31.2944 141.23 31.2157ZM144.108 36.1113C144.212 36.0501 144.312 35.9804 144.408 35.903C145.464 35.0492 145.63 33.4942 144.777 32.4369C143.923 31.3796 142.369 31.2133 141.313 32.0677C140.256 32.9214 140.091 34.4764 140.944 35.5337C141.357 36.0459 141.945 36.3665 142.599 36.4361C143.131 36.4932 143.655 36.3785 144.108 36.1113Z" fill="#005655" fill-opacity="0.16"/>
<path d="M138.816 27.2508C139.048 27.1139 139.288 26.9884 139.535 26.8737C139.613 26.8377 139.691 26.8029 139.77 26.7699C140.16 26.6048 140.562 26.4715 140.971 26.3712C140.976 26.37 140.982 26.3682 140.987 26.367C141.003 26.3634 141.019 26.3592 141.035 26.3556C141.065 26.3484 141.097 26.3412 141.127 26.3346C141.208 26.3166 141.289 26.3538 141.329 26.4223C141.339 26.4391 141.347 26.4571 141.351 26.4769C141.374 26.5778 141.31 26.678 141.209 26.7008C140.689 26.8167 140.179 26.9896 139.691 27.2148C137.27 28.3315 135.722 30.5812 135.387 33.047C135.2 34.4183 135.388 35.8568 136.009 37.2047C136.117 37.4412 136.237 37.67 136.368 37.8909C137.245 39.3787 138.596 40.5098 140.237 41.1156C142.123 41.8115 144.167 41.7316 145.992 40.8893C149.761 39.1499 151.412 34.6698 149.675 30.8994C149.568 30.667 149.449 30.4407 149.32 30.2215C148.76 29.2723 148 28.4564 147.089 27.835C147.065 27.8188 147.047 27.7983 147.033 27.7755C146.998 27.7149 146.997 27.6368 147.04 27.5744C147.098 27.4891 147.214 27.4663 147.3 27.5252C148.256 28.1778 149.055 29.0346 149.642 30.0306C149.778 30.2606 149.902 30.4977 150.015 30.7421C151.839 34.7004 150.103 39.4051 146.149 41.2297C144.233 42.1135 142.087 42.1981 140.108 41.4675C138.385 40.8316 136.966 39.6441 136.045 38.0818C135.908 37.8495 135.782 37.6093 135.668 37.3614C134.785 35.4437 134.701 33.2973 135.431 31.3166C136.067 29.5911 137.255 28.1724 138.816 27.2508Z" fill="#005655" fill-opacity="0.16"/>
<g opacity="0.3">
<path d="M164.704 3.80853C164.812 3.74489 164.952 3.7569 165.048 3.84696C165.228 4.01507 165.404 4.19038 165.573 4.3693C165.683 4.48517 165.678 4.66829 165.563 4.77876C165.447 4.88924 165.264 4.88383 165.153 4.76796C164.992 4.59805 164.824 4.43054 164.653 4.27023C164.537 4.16096 164.531 3.97784 164.639 3.86137C164.659 3.83915 164.681 3.82234 164.704 3.80853Z" fill="#005655" fill-opacity="0.3"/>
<path d="M166.182 5.47349C166.308 5.39904 166.473 5.43087 166.562 5.55154C166.813 5.89257 167.048 6.2498 167.263 6.61424C167.308 6.69109 167.353 6.76854 167.397 6.84659C167.475 6.98648 167.416 7.16179 167.287 7.24104C167.147 7.3191 166.971 7.26986 166.892 7.13057C166.85 7.05612 166.808 6.98168 166.765 6.90843C166.56 6.5608 166.334 6.21978 166.096 5.89497C166.001 5.76588 166.028 5.58517 166.157 5.4903C166.165 5.4843 166.174 5.4789 166.182 5.47349ZM167.653 8.0942C167.665 8.087 167.677 8.08099 167.69 8.07559C167.839 8.01495 168.007 8.08519 168.068 8.23349C168.263 8.7078 168.431 9.19832 168.565 9.69184C168.607 9.84614 168.516 10.0052 168.362 10.0473C168.208 10.0893 168.049 9.99864 168.007 9.84434C167.879 9.37363 167.719 8.90593 167.533 8.45323C167.477 8.31875 167.531 8.16625 167.653 8.0942ZM168.445 10.9935C168.477 10.9749 168.512 10.9623 168.551 10.9563C168.709 10.9334 168.856 11.0433 168.878 11.2018C168.951 11.7086 168.993 12.2261 169.002 12.7388C169.005 12.8991 168.878 13.0306 168.718 13.0336C168.559 13.0366 168.427 12.9093 168.424 12.7496C168.415 12.2609 168.375 11.768 168.305 11.2841C168.289 11.1646 168.347 11.0511 168.445 10.9935ZM168.5 13.999C168.552 13.9684 168.613 13.954 168.677 13.9606C168.836 13.9774 168.952 14.1203 168.935 14.2788C168.881 14.7892 168.795 15.3001 168.679 15.799C168.643 15.9545 168.487 16.0512 168.332 16.0152C168.176 15.9791 168.079 15.8236 168.116 15.6675C168.226 15.1926 168.308 14.7045 168.36 14.2182C168.37 14.1233 168.424 14.0441 168.5 13.999ZM167.821 16.9272C167.893 16.8845 167.983 16.8737 168.067 16.9043C168.217 16.959 168.294 17.1253 168.239 17.2754C168.063 17.7563 167.856 18.2312 167.623 18.6869C167.55 18.8298 167.375 18.8856 167.233 18.8124C167.091 18.7397 167.035 18.565 167.108 18.4227C167.33 17.988 167.528 17.5353 167.696 17.0761C167.72 17.0112 167.765 16.9596 167.821 16.9272ZM166.451 19.6007C166.545 19.5455 166.666 19.5455 166.761 19.6103C166.893 19.6998 166.927 19.8799 166.838 20.0126C166.55 20.4364 166.233 20.8465 165.896 21.2308C165.79 21.3508 165.607 21.3622 165.487 21.2572C165.367 21.1515 165.355 20.969 165.461 20.8489C165.782 20.4827 166.085 20.0918 166.359 19.6878C166.384 19.6505 166.416 19.6217 166.451 19.6007ZM164.471 21.8576C164.588 21.7885 164.741 21.8095 164.834 21.9146C164.941 22.0341 164.93 22.2172 164.81 22.3235C164.429 22.6627 164.021 22.9821 163.598 23.2733C163.465 23.3621 163.286 23.3303 163.195 23.1988C163.105 23.0674 163.138 22.8872 163.27 22.796C163.673 22.5186 164.062 22.2136 164.426 21.89C164.44 21.878 164.456 21.8666 164.471 21.8576ZM160.621 24.1727C160.636 24.1643 160.651 24.1565 160.667 24.1505C161.063 24.0028 161.456 23.831 161.839 23.6395C161.897 23.6107 161.953 23.5819 162.01 23.5525C162.151 23.4786 162.326 23.5333 162.4 23.6749C162.475 23.8166 162.421 23.9962 162.278 24.0658C162.218 24.097 162.158 24.1276 162.097 24.1577C161.698 24.3576 161.284 24.5377 160.87 24.692C160.72 24.7478 160.554 24.6716 160.498 24.5221C160.448 24.3894 160.503 24.2423 160.621 24.1727Z" fill="#005655" fill-opacity="0.3"/>
</g>
<g opacity="0.3">
<path d="M150.013 2.29329C150.149 2.21284 150.325 2.25667 150.407 2.39236C150.49 2.52865 150.446 2.70696 150.31 2.78982C149.899 3.03958 149.499 3.31696 149.123 3.61355C148.997 3.71082 148.816 3.691 148.717 3.56552C148.618 3.44004 148.64 3.25812 148.765 3.15906C149.159 2.84805 149.578 2.55747 150.009 2.29569C150.01 2.29449 150.011 2.29389 150.013 2.29329ZM151.321 1.60164C151.33 1.59624 151.339 1.59144 151.349 1.58723C151.807 1.3789 152.284 1.19638 152.763 1.04448C152.915 0.996449 153.078 1.0811 153.126 1.2336C153.175 1.3861 153.089 1.54881 152.938 1.59684C152.48 1.74153 152.026 1.91565 151.588 2.11438C151.442 2.18042 151.271 2.11618 151.205 1.97028C151.144 1.83459 151.196 1.67609 151.321 1.60164ZM147.692 4.12268C147.803 4.05724 147.947 4.07165 148.043 4.16651C148.156 4.27879 148.157 4.46191 148.045 4.57598C147.706 4.9182 147.385 5.28384 147.092 5.66269C146.993 5.78877 146.812 5.81218 146.686 5.71372C146.56 5.61586 146.537 5.43394 146.635 5.30726C146.942 4.9098 147.279 4.52675 147.634 4.16831C147.652 4.1503 147.671 4.13469 147.692 4.12268ZM154.141 0.713064C154.169 0.696253 154.201 0.684246 154.235 0.677641C154.73 0.585782 155.237 0.523341 155.739 0.492721C155.899 0.483115 156.035 0.604394 156.046 0.764098C156.055 0.923201 155.933 1.06069 155.774 1.0703C155.295 1.09972 154.813 1.15855 154.34 1.24621C154.183 1.27503 154.031 1.17116 154.003 1.01446C153.98 0.892581 154.039 0.773104 154.141 0.713064ZM145.883 6.45821C145.971 6.40597 146.084 6.40237 146.178 6.45881C146.315 6.54106 146.36 6.71878 146.278 6.85566C146.032 7.26813 145.809 7.69981 145.615 8.1393C145.55 8.2858 145.379 8.35184 145.233 8.287C145.087 8.22215 145.021 8.05104 145.085 7.90515C145.289 7.44465 145.523 6.99135 145.781 6.55907C145.807 6.51584 145.843 6.48222 145.883 6.45821ZM144.686 9.16056C144.754 9.12094 144.836 9.10833 144.917 9.13295C145.07 9.17978 145.156 9.34128 145.11 9.49438C144.97 9.95488 144.856 10.428 144.772 10.9005C144.744 11.0584 144.594 11.1629 144.437 11.1347C144.28 11.1064 144.175 10.9563 144.203 10.799C144.29 10.3037 144.41 9.80779 144.557 9.32507C144.578 9.25363 144.626 9.19599 144.686 9.16056ZM144.171 12.0719C144.218 12.0436 144.274 12.0292 144.334 12.0322C144.493 12.0406 144.616 12.1775 144.607 12.3372C144.58 12.8181 144.583 13.3045 144.616 13.783C144.626 13.9421 144.506 14.0808 144.346 14.091C144.187 14.1018 144.049 13.9811 144.038 13.8214C144.004 13.3195 144.001 12.8091 144.028 12.3048C144.034 12.2051 144.09 12.1199 144.171 12.0719Z" fill="#005655" fill-opacity="0.3"/>
<path d="M157.104 0.533318C157.152 0.505099 157.209 0.49009 157.269 0.493692C157.516 0.508702 157.764 0.531517 158.005 0.560936C158.164 0.580148 158.277 0.724843 158.258 0.883346C158.238 1.04185 158.094 1.15472 157.936 1.13611C157.705 1.10789 157.469 1.08628 157.233 1.07187C157.074 1.06226 156.952 0.924172 156.963 0.765069C156.968 0.664803 157.024 0.580148 157.104 0.533318Z" fill="#005655" fill-opacity="0.3"/>
</g>
<path d="M158.794 3.87721C158.735 3.8556 158.669 3.87361 158.63 3.92164L157.502 5.30254C156.676 5.19987 155.827 5.22869 154.988 5.4004L153.755 4.11317C153.712 4.06814 153.645 4.05553 153.589 4.08134L151.646 4.97713C151.589 5.00355 151.556 5.06238 151.562 5.12482L151.739 6.89898C151.064 7.42612 150.491 8.05293 150.032 8.74878L148.249 8.71096C148.187 8.70976 148.13 8.74818 148.109 8.80702L147.368 10.8147C147.347 10.8736 147.365 10.9396 147.413 10.9792L148.793 12.1086C148.691 12.9353 148.72 13.7843 148.891 14.6248L147.605 15.858C147.56 15.9012 147.547 15.9685 147.573 16.0249L148.468 17.9684C148.495 18.0254 148.553 18.059 148.616 18.053L150.389 17.8753C150.916 18.5514 151.542 19.1247 152.237 19.584L152.2 21.3678C152.198 21.4302 152.237 21.4867 152.296 21.5083L154.302 22.2492C154.361 22.2708 154.427 22.2528 154.466 22.2047L155.594 20.8238C156.421 20.9265 157.269 20.8977 158.108 20.726L159.341 22.0132C159.385 22.0583 159.452 22.0709 159.508 22.045L161.45 21.1493C161.507 21.1228 161.541 21.064 161.535 21.0016L161.357 19.2274C162.033 18.7003 162.606 18.0735 163.065 17.3776L164.848 17.4154C164.91 17.4166 164.966 17.3782 164.988 17.3194L165.728 15.3117C165.75 15.2528 165.732 15.1868 165.683 15.1472L164.303 14.0178C164.406 13.1911 164.377 12.3421 164.206 11.5022L165.492 10.269C165.537 10.2257 165.55 10.1585 165.524 10.1021L164.629 8.1586C164.602 8.10156 164.543 8.06794 164.481 8.07394L162.708 8.25166C162.181 7.57562 161.555 7.00225 160.86 6.54295L160.898 4.75919C160.899 4.69675 160.861 4.64031 160.802 4.61869L158.794 3.87721Z" fill="#005655" fill-opacity="0.3"/>
<path d="M155.44 11.1744C155.842 10.9373 156.308 10.8352 156.78 10.8856C157.361 10.9475 157.883 11.2327 158.25 11.6878C159.008 12.6268 158.861 14.0083 157.923 14.7666C156.981 15.5243 155.603 15.3778 154.845 14.4388C154.478 13.9837 154.31 13.4127 154.372 12.8315C154.434 12.2497 154.718 11.7274 155.174 11.3599C155.258 11.2903 155.348 11.2285 155.44 11.1744ZM157.365 14.4508C157.432 14.4111 157.497 14.3661 157.559 14.3163C158.25 13.7579 158.358 12.742 157.8 12.051C157.53 11.7166 157.146 11.5064 156.719 11.4614C156.291 11.4158 155.871 11.5401 155.537 11.8096C155.202 12.0798 154.993 12.4647 154.947 12.8921C154.902 13.3202 155.025 13.7399 155.296 14.0749C155.802 14.7035 156.689 14.8494 157.365 14.4508Z" fill="#005655" fill-opacity="0.16"/>
<path d="M153.764 8.41109C153.922 8.31803 154.085 8.23217 154.255 8.15412C154.591 7.99862 154.945 7.87734 155.305 7.79329C155.321 7.78969 155.337 7.78608 155.353 7.78248C155.479 7.75426 155.603 7.8125 155.665 7.91757C155.68 7.94339 155.692 7.9716 155.698 8.00222C155.733 8.15833 155.635 8.31263 155.479 8.34745C155.141 8.4225 154.811 8.53477 154.496 8.68007C154.479 8.68787 154.462 8.69628 154.445 8.70408C153.703 9.05471 153.077 9.57765 152.605 10.2237C152.349 10.5743 152.139 10.9616 151.981 11.3782C151.98 11.3818 151.979 11.3848 151.978 11.3884C151.974 11.3986 151.97 11.4088 151.966 11.4197C151.516 12.6414 151.568 13.9647 152.113 15.1475C152.183 15.3006 152.261 15.4489 152.345 15.5918C152.913 16.5548 153.787 17.2873 154.85 17.6799C156.071 18.1302 157.393 18.078 158.575 17.5334C159.755 16.9883 160.655 16.0156 161.105 14.7938C161.555 13.5727 161.504 12.2482 160.959 11.066C160.89 10.9153 160.813 10.7694 160.729 10.6277C160.367 10.0129 159.874 9.48519 159.285 9.08293C159.249 9.05831 159.22 9.02649 159.199 8.99107C159.144 8.89741 159.144 8.77673 159.209 8.68067C159.3 8.54858 159.479 8.51436 159.611 8.60502C160.271 9.05531 160.822 9.6461 161.228 10.3335C161.321 10.492 161.407 10.656 161.485 10.8241C162.094 12.1473 162.152 13.6279 161.648 14.995C161.144 16.3615 160.14 17.4506 158.817 18.0594C157.495 18.6694 156.015 18.7276 154.649 18.2233C153.46 17.7844 152.482 16.9649 151.847 15.8878C151.753 15.7281 151.666 15.5617 151.586 15.3906C150.408 12.8276 151.387 9.8142 153.764 8.41109Z" fill="#005655" fill-opacity="0.16"/>
<path d="M22.2513 1.66597C32.4837 7.43693 90.6614 43.4544 66.6914 104.154C66.6914 104.154 22.2909 90.3083 20.7687 2.54614C20.7555 1.77885 21.5829 1.28893 22.2513 1.66597Z" fill="#005655" fill-opacity="0.16"/>
<path opacity="0.61" d="M26.3197 10.964C28.3741 14.1088 30.3613 17.2927 32.3215 20.4946C34.2799 23.6971 36.2017 26.9224 38.0857 30.1699C41.8537 36.6649 45.4777 43.2446 48.8965 49.9329C52.3099 56.6231 55.5319 63.4177 58.3771 70.378C59.8105 73.8531 61.1191 77.3822 62.2915 80.9587C63.4585 84.5359 64.4869 88.167 65.2231 91.8708C65.2657 92.0858 65.1265 92.2947 64.9111 92.3373C64.6963 92.38 64.4875 92.2407 64.4449 92.0257L64.4443 92.0239V92.0221C63.7351 88.3574 62.7331 84.7478 61.5913 81.1863C60.4435 77.6248 59.1589 74.1047 57.7483 70.6338C54.9481 63.6831 51.7675 56.8855 48.3931 50.1893C45.0133 43.4943 41.4271 36.9033 37.6957 30.3956C35.8303 27.1415 33.9265 23.9096 31.9855 20.6993C30.0433 17.4908 28.0723 14.2967 26.0383 11.1483L26.0377 11.1471C25.9873 11.069 26.0095 10.9652 26.0875 10.9147C26.1655 10.8643 26.2687 10.8865 26.3197 10.964Z" fill="white"/>
<path d="M2.23026 24.7778C12.5568 29.2994 71.5793 58.0665 54.5508 118.337C54.5508 118.337 10.8222 109.407 0.899463 25.7619C0.813063 25.0306 1.55586 24.4824 2.23026 24.7778Z" fill="#005655" fill-opacity="0.2"/>
<path opacity="0.57" d="M7.85705 34.6105C10.3332 37.2306 12.7518 39.8981 15.1488 42.5879C17.544 45.2782 19.9086 47.9968 22.2408 50.7424C26.9052 56.2336 31.4484 61.8298 35.817 67.5629C40.1802 73.2991 44.3808 79.1667 48.2538 85.2553C50.1996 88.2926 52.0368 91.4027 53.7534 94.5805C55.4652 97.7602 57.0552 101.014 58.3811 104.387C58.4615 104.591 58.3614 104.822 58.1574 104.902C57.9534 104.982 57.7229 104.882 57.6432 104.678L57.6426 104.676L57.642 104.674C56.349 101.335 54.789 98.097 53.1048 94.9282C51.4152 91.7605 49.6032 88.6547 47.6802 85.6179C43.8534 79.5311 39.693 73.6533 35.3676 67.904C31.0368 62.157 26.529 56.5434 21.8976 51.033C19.5822 48.2778 17.2344 45.5496 14.8554 42.8484C12.4752 40.1491 10.071 37.4683 7.61405 34.8416L7.61285 34.8404C7.54925 34.7726 7.55285 34.6663 7.62065 34.6027C7.68725 34.5396 7.79345 34.5432 7.85705 34.6105Z" fill="white"/>
<path d="M25.671 50.6847C25.7094 50.0609 25.2318 49.5278 24.6084 49.4966C22.5516 49.3933 18.0012 49.9018 13.6572 55.4056C7.80546 62.8198 12.2736 73.2456 24.3288 73.6605C35.4072 74.0423 39.3516 65.7395 39.2694 60.6692C39.2592 60.0244 38.6214 59.5771 38.0058 59.7674L26.1162 63.4478C25.5078 63.6364 24.8988 63.1572 24.9384 62.5208L25.671 50.6847Z" fill="url(#paint1_linear_331_2856)" fill-opacity="0.2"/>
<path d="M28.6126 49.3173L26.5444 60.3885C26.4352 60.9721 27.0238 61.4392 27.5668 61.2002L37.828 56.6829C38.509 56.3833 38.8648 55.622 38.6464 54.9105C38.0338 52.9142 36.0952 49.2104 30.07 48.275C29.3842 48.1681 28.7398 48.6352 28.6126 49.3173Z" fill="url(#paint2_linear_331_2856)" fill-opacity="0.2"/>
<path opacity="0.6" d="M19.6082 71.6113C19.5686 71.6113 19.5284 71.6053 19.4888 71.5927C18.2846 71.2138 12.2942 68.9353 12.5876 61.2491C12.8486 54.4089 20.7716 51.0977 21.1088 50.9602C21.3122 50.8774 21.5431 50.9746 21.6259 51.1776C21.7087 51.3805 21.6115 51.6123 21.4088 51.6951C21.3308 51.7269 13.622 54.9534 13.3808 61.2792C13.1162 68.2101 18.1712 70.3457 19.727 70.835C19.9358 70.901 20.0522 71.1238 19.9862 71.3327C19.9334 71.5026 19.7768 71.6113 19.6082 71.6113Z" fill="white"/>
<path opacity="0.6" d="M27.9391 59.5879C27.9043 59.5879 27.8689 59.5831 27.8335 59.5735C27.6223 59.5153 27.4981 59.2967 27.5563 59.0854L29.8777 50.6367C29.9869 50.2398 30.2455 49.9126 30.6067 49.7151C30.9673 49.5188 31.3813 49.4779 31.7725 49.601C32.9929 49.9847 35.2987 50.9939 37.0333 53.4483C37.1599 53.6272 37.1173 53.8752 36.9385 54.0013C36.7597 54.128 36.5125 54.0853 36.3853 53.9064C34.7851 51.6423 32.6593 50.7111 31.5343 50.3581C31.3501 50.3005 31.1557 50.3191 30.9859 50.4121C30.8155 50.5052 30.6937 50.6595 30.6421 50.8468L28.3207 59.2955C28.2727 59.4726 28.1131 59.5879 27.9391 59.5879Z" fill="white"/>
<path d="M42.8428 9.23268C42.3106 34.3632 40.5845 121.049 41.4089 151.767C41.4965 155.021 43.7248 157.634 46.5046 157.74C60.2542 158.267 110.659 159.602 133.148 158.497C137.832 158.267 141.557 153.825 141.654 148.338C142.122 121.96 143.152 47.7694 140.702 13.7824C140.408 9.71059 137.678 6.46728 134.205 6.06081C119.23 4.30767 68.6092 0.0214788 49.1794 1.49724C45.6754 1.76381 42.9298 5.1236 42.8428 9.23268Z" fill="#005655" fill-opacity="0.7"/>
<path d="M48.9778 16.9432C48.238 37.2274 45.9034 104.708 46.6444 129.661C46.753 133.309 49.2082 136.258 52.3204 136.471C65.134 137.349 108.852 139.284 127.647 137.522C131.031 137.205 133.687 134.001 133.869 130.032C134.821 109.338 137.556 46.504 136.846 21.8304C136.733 17.8942 134.128 14.6797 130.777 14.3279C116.915 12.8707 70.4602 9.40409 54.4888 10.4242C51.4906 10.6157 49.1056 13.4315 48.9778 16.9432Z" fill="#005655"/>
<path opacity="0.5" d="M76.8232 5.88823C76.8232 6.65913 77.3368 7.29555 77.9944 7.33577C81.2422 7.5351 90.3904 8.09827 94.4788 8.37565C95.2852 8.43029 95.9176 7.58193 95.7646 6.65373L95.7388 6.49523C95.6344 5.86181 95.1856 5.3851 94.6372 5.32626C91.8736 5.02967 83.5342 4.20774 78.0088 4.43889C77.3452 4.46711 76.8232 5.11072 76.8232 5.88823Z" fill="white"/>
<path opacity="0.74" d="M56.0088 72.4382V84.3175C56.0088 85.2853 56.793 86.07 57.7602 86.07H115.295C116.099 86.07 116.799 86.6176 116.994 87.3975L118.027 91.5336C118.164 92.0823 118.925 92.1274 119.127 91.599L120.457 88.1048C120.716 87.4251 121.367 86.976 122.094 86.976H124.566C125.534 86.976 126.318 86.1913 126.318 85.2235V73.0121C126.318 72.0497 125.543 71.2674 124.581 71.2596L57.7746 70.6856C56.802 70.6772 56.0088 71.4643 56.0088 72.4382Z" fill="white" fill-opacity="0.5"/>
<path opacity="0.74" d="M126.319 95.0856V106.965C126.319 107.933 125.535 108.717 124.567 108.717H67.0329C66.2289 108.717 65.5287 109.265 65.3337 110.045L64.3005 114.181C64.1637 114.729 63.4023 114.775 63.2008 114.246L61.8706 110.752C61.612 110.073 60.9604 109.623 60.2338 109.623H57.7612C56.794 109.623 56.0098 108.839 56.0098 107.871V95.6596C56.0098 94.6972 56.785 93.9148 57.7462 93.907L124.553 93.3331C125.526 93.3247 126.319 94.1118 126.319 95.0856Z" fill="white" fill-opacity="0.5"/>
<path d="M64.1545 83.655C67.3211 83.655 69.8881 81.0188 69.8881 77.7669C69.8881 74.5151 67.3211 71.8789 64.1545 71.8789C60.9879 71.8789 58.4209 74.5151 58.4209 77.7669C58.4209 81.0188 60.9879 83.655 64.1545 83.655Z" fill="#005655"/>
<path d="M62.435 80.2452C62.8622 80.3689 64.67 80.8246 66.4502 80.2488C66.4982 80.2332 66.5474 80.2686 66.5474 80.319V80.4553C66.5474 80.4842 66.5306 80.5106 66.5042 80.5226C66.194 80.6637 64.262 81.461 62.378 80.3809C62.3552 80.3677 62.3408 80.3431 62.3408 80.3166C62.3402 80.2668 62.3876 80.2314 62.435 80.2452Z" fill="white"/>
<path d="M60.7012 74.5093C60.7012 74.6275 60.6052 74.7236 60.487 74.7236C60.3688 74.7236 60.2734 74.6275 60.2734 74.5093C60.2734 74.391 60.3694 74.2949 60.487 74.2949C60.6058 74.2955 60.7012 74.391 60.7012 74.5093Z" fill="white"/>
<path d="M60.4863 76.2773C60.4863 76.2773 60.9969 76.3427 61.2765 75.6751L61.1409 75.3953C61.0947 75.2999 60.9795 75.2608 60.8847 75.3083L60.5913 75.4548C60.5271 75.4872 60.4863 75.5526 60.4863 75.6247V76.2773Z" fill="white"/>
<path d="M60.5071 74.6157L60.7015 75.6513L60.9151 75.5085L60.5299 74.6085C60.5239 74.5959 60.5041 74.6019 60.5071 74.6157Z" fill="white"/>
<path d="M67.9746 74.5093C67.9746 74.6275 68.0706 74.7236 68.1888 74.7236C68.307 74.7236 68.4024 74.6275 68.4024 74.5093C68.4024 74.391 68.3064 74.2949 68.1888 74.2949C68.0706 74.2955 67.9746 74.391 67.9746 74.5093Z" fill="white"/>
<path d="M68.1877 76.2773C68.1877 76.2773 67.6771 76.3427 67.3975 75.6751L67.5331 75.3953C67.5793 75.2999 67.6945 75.2608 67.7893 75.3083L68.0827 75.4548C68.1469 75.4872 68.1877 75.5526 68.1877 75.6247V76.2773Z" fill="white"/>
<path d="M68.1681 74.6157L67.9743 75.6513L67.7607 75.5085L68.1459 74.6085C68.1507 74.5959 68.1705 74.6019 68.1681 74.6157Z" fill="white"/>
<path d="M64.4087 74.8662C62.0855 74.8662 59.8457 76.1318 59.8457 77.6484C59.8457 79.1656 62.0855 80.3598 64.4087 80.3598C66.7319 80.3598 68.6153 79.1302 68.6153 77.613C68.6153 76.0964 66.7319 74.8662 64.4087 74.8662ZM63.0539 79.2899C62.9753 79.2899 62.9111 79.2263 62.9111 79.147C62.9111 79.0684 62.9747 79.0041 63.0539 79.0041C63.1325 79.0041 63.1967 79.0678 63.1967 79.147C63.1961 79.2263 63.1325 79.2899 63.0539 79.2899ZM63.4817 79.3613C63.4031 79.3613 63.3389 79.2977 63.3389 79.2185C63.3389 79.1398 63.4025 79.0756 63.4817 79.0756C63.5603 79.0756 63.6245 79.1392 63.6245 79.2185C63.6239 79.2971 63.5603 79.3613 63.4817 79.3613ZM63.9095 79.4322C63.8309 79.4322 63.7667 79.3685 63.7667 79.2893C63.7667 79.2106 63.8303 79.1464 63.9095 79.1464C63.9881 79.1464 64.0523 79.21 64.0523 79.2893C64.0517 79.3685 63.9881 79.4322 63.9095 79.4322ZM64.3373 79.4322C64.2587 79.4322 64.1945 79.3685 64.1945 79.2893C64.1945 79.2106 64.2581 79.1464 64.3373 79.1464C64.4159 79.1464 64.4801 79.21 64.4801 79.2893C64.4795 79.3685 64.4159 79.4322 64.3373 79.4322ZM64.7651 79.4322C64.6865 79.4322 64.6223 79.3685 64.6223 79.2893C64.6223 79.2106 64.6859 79.1464 64.7651 79.1464C64.8437 79.1464 64.9079 79.21 64.9079 79.2893C64.9073 79.3685 64.8437 79.4322 64.7651 79.4322ZM65.1929 79.3613C65.1143 79.3613 65.0501 79.2977 65.0501 79.2185C65.0501 79.1398 65.1137 79.0756 65.1929 79.0756C65.2715 79.0756 65.3357 79.1392 65.3357 79.2185C65.3351 79.2971 65.2715 79.3613 65.1929 79.3613ZM65.6207 79.2899C65.5421 79.2899 65.4779 79.2263 65.4779 79.147C65.4779 79.0684 65.5415 79.0041 65.6207 79.0041C65.6999 79.0041 65.7635 79.0678 65.7635 79.147C65.7629 79.2263 65.6993 79.2899 65.6207 79.2899Z" fill="white"/>
<path opacity="0.74" d="M56.0088 117.731V129.61C56.0088 130.578 56.793 131.363 57.7602 131.363H115.295C116.099 131.363 116.799 131.911 116.994 132.69L118.027 136.827C118.164 137.375 118.925 137.42 119.127 136.892L120.457 133.398C120.716 132.718 121.367 132.269 122.094 132.269H124.566C125.534 132.269 126.318 131.484 126.318 130.516V118.305C126.318 117.343 125.543 116.56 124.581 116.553L57.7746 115.979C56.802 115.97 56.0088 116.757 56.0088 117.731Z" fill="white" fill-opacity="0.5"/>
<path d="M118.171 106.301C121.338 106.301 123.905 103.665 123.905 100.413C123.905 97.1616 121.338 94.5254 118.171 94.5254C115.005 94.5254 112.438 97.1616 112.438 100.413C112.438 103.665 115.005 106.301 118.171 106.301Z" fill="#005655"/>
<path d="M120.249 98.0271C120.249 99.085 119.392 100.227 118.335 100.227C117.278 100.227 116.421 99.085 116.421 98.0271C116.421 96.9692 117.278 96.2188 118.335 96.2188C119.392 96.2194 120.249 96.9698 120.249 98.0271Z" fill="white"/>
<path d="M115.959 104.3H120.631C121.123 104.3 121.558 103.981 121.708 103.513L121.96 102.727C122.144 102.151 121.845 101.528 121.277 101.32C119.376 100.624 117.409 100.713 115.395 101.384C114.831 101.572 114.518 102.176 114.673 102.75L114.867 103.464C115.002 103.957 115.449 104.3 115.959 104.3Z" fill="white"/>
<path d="M116.934 63.8407L66.6605 62.8158C64.4225 62.7702 62.6291 60.9006 62.6747 58.6611C62.7203 56.4217 64.5887 54.6271 66.8267 54.6727L117.1 55.6976C119.338 55.7432 121.131 57.6128 121.086 59.8523C121.04 62.0918 119.171 63.8863 116.934 63.8407Z" fill="#33C177" fill-opacity="0.5"/>
<path d="M129.535 52.5783C129.429 57.8035 125.069 61.9912 119.848 61.8849L64.6922 60.7604C59.4704 60.6541 55.2854 56.2917 55.3916 51.0665L55.649 38.43C55.8428 28.9084 63.7868 21.2775 73.3016 21.4714L112.845 22.2777C122.36 22.4716 129.986 30.4208 129.793 39.9418L129.535 52.5783Z" fill="#33C177"/>
<path d="M119.418 44.9889C119.362 47.7423 117.226 50.01 114.481 50.2123C99.626 51.3068 84.245 51.0354 68.4404 49.2595C65.6978 48.9515 63.641 46.5967 63.6974 43.8361L63.7562 40.9417C63.812 38.1973 65.9372 35.9356 68.672 35.7201C84.0896 34.5037 99.4886 34.5499 114.858 36.587C117.547 36.9437 119.534 39.2804 119.478 41.9947L119.418 44.9889Z" fill="#005655"/>
<path d="M79.9144 43.0006C80.0986 41.139 78.7397 39.4804 76.8792 39.2961C75.0188 39.1119 73.3613 40.4717 73.1772 42.3333C72.993 44.1949 74.3519 45.8535 76.2124 46.0378C78.0728 46.222 79.7302 44.8623 79.9144 43.0006Z" fill="#33C177"/>
<path d="M110.007 43.3482C109.969 45.2184 108.423 46.7044 106.554 46.6659C104.685 46.6281 103.2 45.0809 103.238 43.2101C103.276 41.3399 104.823 39.8539 106.692 39.8923C108.561 39.9308 110.045 41.478 110.007 43.3482Z" fill="#33C177"/>
<path d="M76.5568 47.3788C76.552 47.2665 76.6372 47.1741 76.7458 47.1693C76.858 47.1645 76.9504 47.2497 76.9552 47.362C76.96 47.4707 76.8754 47.5631 76.7626 47.5679C76.759 47.5679 76.7554 47.5679 76.7518 47.5679C76.6474 47.5655 76.5586 47.4839 76.5568 47.3788ZM75.538 47.4701C75.43 47.446 75.3634 47.3398 75.3838 47.2317C75.4078 47.1236 75.514 47.0534 75.622 47.0774C75.73 47.1014 75.7966 47.2041 75.7768 47.3158C75.7564 47.4094 75.6724 47.4767 75.5782 47.4743C75.5638 47.4743 75.5524 47.4707 75.538 47.4701ZM77.725 47.2287C77.6944 47.123 77.7514 47.012 77.86 46.9819C77.9656 46.9477 78.0766 47.0084 78.1072 47.114C78.1414 47.2197 78.0808 47.3308 77.9752 47.3644C77.9536 47.371 77.932 47.371 77.9134 47.3704C77.827 47.3686 77.752 47.3164 77.725 47.2287ZM74.3776 47.0666C74.2774 47.0174 74.2402 46.8973 74.2888 46.8006C74.3344 46.6998 74.4544 46.6589 74.5546 46.7082C74.6548 46.7574 74.692 46.8775 74.6434 46.9741C74.6092 47.0492 74.536 47.0876 74.4604 47.0864C74.4352 47.0858 74.4064 47.0816 74.3776 47.0666ZM78.823 46.7952C78.7636 46.6998 78.7948 46.5773 78.8902 46.5178C78.982 46.462 79.1044 46.4932 79.1638 46.5851C79.2196 46.6806 79.192 46.803 79.0966 46.8625C79.0636 46.8835 79.0234 46.8901 78.9874 46.8895C78.9226 46.8877 78.8578 46.8535 78.823 46.7952ZM73.3534 46.3864C73.2712 46.3161 73.2598 46.1888 73.3336 46.1036C73.4038 46.0219 73.531 46.0135 73.6162 46.0838C73.6978 46.1546 73.7062 46.2813 73.636 46.3665C73.5952 46.4128 73.537 46.4368 73.4788 46.4356C73.4356 46.435 73.3888 46.42 73.3534 46.3864ZM79.774 46.1012C79.696 46.0237 79.6948 45.897 79.7728 45.8154C79.8502 45.7373 79.9768 45.7361 80.0548 45.8136C80.1328 45.891 80.134 46.0177 80.0566 46.0964C80.0158 46.139 79.9648 46.1558 79.9108 46.1552C79.8598 46.1534 79.8136 46.1342 79.774 46.1012ZM72.529 45.4756C72.4654 45.3837 72.49 45.2612 72.5782 45.1976C72.67 45.1339 72.796 45.155 72.8596 45.2468C72.9232 45.3387 72.8986 45.4612 72.8068 45.5248C72.7738 45.5494 72.73 45.5632 72.6904 45.5626C72.628 45.5608 72.5674 45.5308 72.529 45.4756ZM80.527 45.1892C80.4304 45.1327 80.4004 45.0127 80.4526 44.916C80.509 44.8193 80.6326 44.7893 80.7256 44.8422C80.8222 44.8986 80.8558 45.0223 80.8 45.1153C80.7622 45.1832 80.6932 45.218 80.6206 45.2168C80.5918 45.2162 80.5558 45.2084 80.527 45.1892ZM71.9572 44.3883C71.9194 44.2862 71.9722 44.1679 72.0748 44.1301C72.1768 44.0923 72.2914 44.1451 72.3328 44.2472C72.3706 44.3492 72.3178 44.4681 72.2158 44.5053C72.19 44.5119 72.1648 44.5185 72.1396 44.5185C72.0634 44.5173 71.9884 44.4687 71.9572 44.3883ZM81.0304 44.1205C80.9224 44.0929 80.8594 43.983 80.8906 43.8749C80.9218 43.7705 81.0316 43.7074 81.136 43.735C81.244 43.7663 81.307 43.8761 81.2758 43.9806C81.2758 43.9806 81.2758 43.9806 81.2758 43.9842C81.2524 44.0707 81.1678 44.1307 81.0772 44.1289C81.0628 44.1289 81.0448 44.1247 81.0304 44.1205ZM71.674 43.1917C71.662 43.083 71.7436 42.9833 71.8522 42.9707C71.9614 42.9587 72.0604 43.0404 72.073 43.149C72.085 43.2583 72.0034 43.3574 71.8948 43.37C71.8876 43.37 71.8768 43.3694 71.8696 43.3694C71.7718 43.367 71.6866 43.2931 71.674 43.1917ZM81.0544 42.76C81.0544 42.7564 81.0544 42.7564 81.0544 42.7528C81.0544 42.7492 81.0544 42.7456 81.055 42.7384C81.0574 42.6297 81.1462 42.5409 81.2578 42.5433C81.3664 42.5457 81.4546 42.6375 81.4528 42.7462C81.4528 42.7498 81.4528 42.7534 81.4528 42.757C81.4528 42.7606 81.4528 42.7642 81.4528 42.7678C81.4504 42.8765 81.3622 42.9647 81.25 42.9629C81.1408 42.9605 81.052 42.8687 81.0544 42.76ZM81.0544 42.7384V42.742C81.0544 42.7384 81.0544 42.742 81.0544 42.7384ZM71.8684 42.189C71.7568 42.1722 71.6824 42.0731 71.6956 41.9645C71.7124 41.8528 71.815 41.779 71.923 41.7952C72.0316 41.8084 72.109 41.911 72.0922 42.0197C72.0796 42.1206 71.9914 42.195 71.89 42.1926C71.8828 42.1926 71.8756 42.189 71.8684 42.189ZM80.9326 41.6169C80.9056 41.5112 80.9734 41.4007 81.0784 41.3773C81.1876 41.3503 81.295 41.4181 81.3214 41.5232C81.3442 41.6325 81.2806 41.7399 81.1714 41.7664C81.1534 41.7694 81.139 41.7694 81.121 41.7688C81.0346 41.7675 80.9524 41.7075 80.9326 41.6169ZM72.1306 41.0393C72.0298 40.9973 71.9818 40.8808 72.0238 40.7763C72.0658 40.676 72.1822 40.6274 72.2866 40.6694C72.3868 40.7115 72.4354 40.8279 72.3934 40.9324C72.3592 41.0075 72.2824 41.0567 72.2026 41.0555C72.181 41.0549 72.1558 41.0471 72.1306 41.0393ZM80.5348 40.5626C80.4826 40.4635 80.521 40.341 80.6164 40.293C80.7154 40.2408 80.8336 40.2756 80.8864 40.3746C80.9386 40.4737 80.9038 40.592 80.8048 40.6442C80.7718 40.6616 80.7394 40.6682 80.707 40.6676C80.6374 40.6658 80.5696 40.628 80.5348 40.5626ZM72.6766 39.9928C72.5878 39.922 72.5686 39.7989 72.6352 39.7094C72.7024 39.6242 72.829 39.6049 72.9148 39.6716C73.0042 39.7388 73.0234 39.8619 72.9562 39.9514C72.9154 40.0048 72.8536 40.0324 72.7918 40.0312C72.7516 40.0306 72.7084 40.0192 72.6766 39.9928ZM79.8844 39.6368C79.81 39.5557 79.816 39.429 79.8976 39.3546C79.9822 39.2801 80.1088 39.2867 80.1832 39.3678C80.2576 39.4488 80.251 39.5755 80.17 39.65C80.1292 39.6854 80.0782 39.7022 80.0314 39.7016C79.9768 39.7004 79.9228 39.6812 79.8844 39.6368ZM73.4614 39.1114C73.3942 39.0268 73.408 38.9007 73.4926 38.8298C73.5808 38.7626 73.7032 38.7764 73.774 38.8611C73.8412 38.9493 73.8274 39.076 73.7428 39.1426C73.702 39.1745 73.6588 39.1877 73.6114 39.1871C73.5574 39.1859 73.5004 39.1595 73.4614 39.1114ZM79.027 38.9025C78.934 38.8424 78.9112 38.7152 78.9712 38.6263C79.0312 38.5332 79.1578 38.5068 79.2472 38.5669C79.3402 38.6305 79.3666 38.7536 79.3066 38.8466C79.2658 38.9037 79.1998 38.9349 79.1344 38.9337C79.099 38.9331 79.063 38.9247 79.027 38.9025ZM74.4406 38.454C74.3956 38.3513 74.4418 38.233 74.5402 38.188C74.6422 38.143 74.761 38.1892 74.806 38.2913C74.851 38.3898 74.8054 38.5086 74.7028 38.5537C74.677 38.5675 74.6482 38.5741 74.6194 38.5735C74.5432 38.5723 74.4718 38.5272 74.4406 38.454ZM78.0166 38.4042C77.9122 38.3657 77.857 38.2529 77.8912 38.1484C77.926 38.0439 78.0394 37.9887 78.1468 38.0271C78.1468 38.0271 78.1468 38.0271 78.1432 38.0271C78.2512 38.0619 78.307 38.1754 78.2686 38.2793C78.2416 38.3657 78.1606 38.4186 78.0778 38.4168C78.0562 38.4156 78.0346 38.4114 78.0166 38.4042ZM75.5524 38.0601C75.5326 37.9515 75.6076 37.8476 75.7162 37.832C75.8248 37.8122 75.9286 37.8836 75.9484 37.9923C75.9646 38.1016 75.8932 38.2048 75.7846 38.2246C75.7702 38.2276 75.7594 38.2276 75.745 38.2276C75.6544 38.2252 75.5686 38.1586 75.5524 38.0601ZM76.9108 38.1748C76.8028 38.1652 76.7176 38.0697 76.7272 37.9575C76.7368 37.8488 76.8322 37.7677 76.9444 37.7738C77.0524 37.7834 77.134 37.8788 77.128 37.9911C77.1184 38.0962 77.0266 38.1772 76.9252 38.1754C76.918 38.1754 76.9144 38.1754 76.9108 38.1748Z" fill="#005655"/>
<path d="M106.613 47.9925C106.608 47.8802 106.693 47.7877 106.802 47.7829C106.914 47.7781 107.006 47.8634 107.011 47.9756C107.016 48.0843 106.931 48.1768 106.819 48.1816C106.815 48.1816 106.811 48.1816 106.808 48.1816C106.703 48.1792 106.615 48.0975 106.613 47.9925ZM105.595 48.0843C105.487 48.0603 105.42 47.954 105.44 47.846C105.464 47.7379 105.571 47.6676 105.679 47.6917C105.787 47.7157 105.853 47.8183 105.833 47.93C105.813 48.0237 105.729 48.0909 105.635 48.0885C105.62 48.0879 105.609 48.0843 105.595 48.0843ZM107.781 47.8424C107.75 47.7367 107.807 47.6256 107.916 47.5956C108.022 47.5614 108.133 47.622 108.163 47.7271C108.197 47.8328 108.137 47.9438 108.031 47.9775C108.01 47.9841 107.988 47.9841 107.969 47.9835C107.884 47.9823 107.809 47.93 107.781 47.8424ZM104.434 47.6803C104.334 47.631 104.297 47.5109 104.345 47.4143C104.391 47.314 104.511 47.2726 104.611 47.3218C104.711 47.3711 104.749 47.4911 104.7 47.5878C104.666 47.6628 104.593 47.7013 104.517 47.7001C104.491 47.6995 104.462 47.6953 104.434 47.6803ZM108.879 47.4089C108.82 47.3134 108.851 47.1909 108.946 47.1315C109.038 47.0757 109.16 47.1069 109.22 47.1987C109.276 47.2942 109.248 47.4167 109.153 47.4761C109.12 47.4971 109.079 47.5037 109.043 47.5031C108.979 47.5013 108.914 47.4677 108.879 47.4089ZM103.409 47.0006C103.327 46.9304 103.316 46.8031 103.39 46.7178C103.46 46.6362 103.587 46.6278 103.672 46.698C103.754 46.7689 103.762 46.8955 103.692 46.9808C103.651 47.027 103.593 47.051 103.535 47.0498C103.492 47.0492 103.445 47.0336 103.409 47.0006ZM109.831 46.7148C109.753 46.6374 109.751 46.5107 109.829 46.429C109.907 46.351 110.033 46.3498 110.111 46.4278C110.189 46.5053 110.191 46.632 110.113 46.7106C110.072 46.7533 110.021 46.7701 109.967 46.7695C109.916 46.7677 109.87 46.7484 109.831 46.7148ZM102.585 46.0892C102.521 45.9974 102.546 45.8749 102.634 45.8112C102.726 45.7476 102.852 45.7686 102.916 45.8605C102.979 45.9523 102.955 46.0748 102.863 46.1385C102.83 46.1631 102.786 46.1769 102.746 46.1763C102.685 46.1745 102.623 46.1445 102.585 46.0892ZM110.584 45.8034C110.487 45.747 110.457 45.6269 110.509 45.5303C110.566 45.4336 110.689 45.4036 110.782 45.4564C110.879 45.5128 110.912 45.6365 110.857 45.7296C110.819 45.7974 110.75 45.8323 110.677 45.8311C110.648 45.8305 110.612 45.822 110.584 45.8034ZM102.014 45.0025C101.976 44.9004 102.029 44.7822 102.131 44.7443C102.233 44.7065 102.348 44.7594 102.389 44.8614C102.427 44.9635 102.374 45.0824 102.272 45.1196C102.247 45.1262 102.221 45.1328 102.196 45.1328C102.119 45.131 102.044 45.083 102.014 45.0025ZM111.086 44.7347C110.978 44.7071 110.915 44.5973 110.947 44.4892C110.978 44.3847 111.088 44.3217 111.192 44.3493C111.3 44.3805 111.363 44.4904 111.332 44.5948C111.332 44.5948 111.332 44.5948 111.332 44.5984C111.308 44.6849 111.224 44.7449 111.133 44.7431C111.119 44.7425 111.101 44.7389 111.086 44.7347ZM101.731 43.8053C101.719 43.6967 101.8 43.597 101.909 43.5844C102.017 43.5724 102.117 43.654 102.13 43.7627C102.142 43.8714 102.06 43.971 101.951 43.9836C101.944 43.9836 101.933 43.983 101.926 43.983C101.828 43.9812 101.743 43.9074 101.731 43.8053ZM111.11 43.3737C111.11 43.3701 111.11 43.3701 111.11 43.3664C111.11 43.3628 111.11 43.3592 111.111 43.352C111.113 43.2434 111.202 43.1545 111.314 43.1569C111.422 43.1593 111.511 43.2512 111.509 43.3598C111.509 43.3634 111.509 43.3671 111.509 43.3707C111.509 43.3743 111.509 43.3779 111.509 43.3815C111.506 43.4901 111.418 43.5784 111.306 43.5766C111.197 43.5748 111.108 43.4823 111.11 43.3737ZM111.111 43.352V43.3556C111.111 43.352 111.111 43.3556 111.111 43.352ZM101.924 42.8027C101.813 42.7859 101.738 42.6868 101.752 42.5781C101.768 42.4665 101.871 42.3926 101.979 42.4088C102.088 42.422 102.165 42.5247 102.148 42.6334C102.136 42.7342 102.047 42.8087 101.946 42.8063C101.939 42.8069 101.932 42.8033 101.924 42.8027ZM110.989 42.2311C110.962 42.1254 111.03 42.015 111.135 41.9916C111.244 41.9645 111.352 42.0324 111.378 42.1374C111.401 42.2467 111.337 42.3542 111.228 42.3806C111.21 42.3836 111.196 42.3836 111.178 42.383C111.091 42.3812 111.009 42.3218 110.989 42.2311ZM102.187 41.6535C102.086 41.6115 102.038 41.495 102.08 41.3906C102.122 41.2903 102.238 41.2417 102.343 41.2837C102.443 41.3257 102.491 41.4422 102.449 41.5467C102.415 41.6217 102.338 41.6709 102.259 41.6697C102.237 41.6685 102.212 41.6607 102.187 41.6535ZM110.591 41.1762C110.539 41.0772 110.577 40.9547 110.672 40.906C110.771 40.8538 110.89 40.8886 110.942 40.9877C110.995 41.0868 110.96 41.205 110.861 41.2573C110.828 41.2747 110.795 41.2813 110.763 41.2807C110.693 41.2801 110.626 41.2423 110.591 41.1762ZM102.733 40.6071C102.644 40.5362 102.625 40.4131 102.691 40.3237C102.758 40.2384 102.885 40.2192 102.971 40.2858C103.06 40.3531 103.079 40.4762 103.012 40.5656C102.971 40.6191 102.91 40.6467 102.848 40.6455C102.808 40.6449 102.765 40.6329 102.733 40.6071ZM109.94 40.251C109.866 40.17 109.872 40.0433 109.954 39.9688C110.038 39.8944 110.165 39.901 110.239 39.982C110.314 40.0631 110.307 40.1898 110.226 40.2642C110.185 40.2997 110.134 40.3165 110.087 40.3159C110.033 40.3141 109.979 40.2948 109.94 40.251ZM103.517 39.7251C103.45 39.6404 103.464 39.5143 103.549 39.4435C103.637 39.3762 103.759 39.3901 103.83 39.4747C103.897 39.563 103.883 39.6897 103.799 39.7563C103.758 39.7881 103.715 39.8013 103.667 39.8007C103.614 39.7995 103.556 39.7731 103.517 39.7251ZM109.083 39.5167C108.99 39.4567 108.967 39.3294 109.027 39.2406C109.087 39.1475 109.214 39.1211 109.303 39.1811C109.396 39.2448 109.423 39.3678 109.363 39.4609C109.322 39.5179 109.256 39.5492 109.19 39.548C109.155 39.5468 109.119 39.539 109.083 39.5167ZM104.497 39.0682C104.452 38.9656 104.498 38.8473 104.597 38.8023C104.699 38.7572 104.818 38.8035 104.863 38.9055C104.908 39.004 104.862 39.1229 104.759 39.1679C104.734 39.1817 104.705 39.1883 104.676 39.1877C104.6 39.1859 104.528 39.1409 104.497 39.0682ZM108.073 39.0178C107.969 38.9794 107.914 38.8665 107.948 38.7621C107.983 38.6576 108.096 38.6023 108.203 38.6408C108.203 38.6408 108.203 38.6408 108.2 38.6408C108.308 38.6756 108.364 38.7891 108.325 38.8929C108.298 38.9794 108.217 39.0322 108.134 39.0304C108.113 39.0298 108.091 39.0256 108.073 39.0178ZM105.609 38.6744C105.59 38.5657 105.664 38.4619 105.773 38.4462C105.881 38.4264 105.985 38.4979 106.004 38.6065C106.021 38.7158 105.949 38.8191 105.841 38.8389C105.826 38.8419 105.815 38.8419 105.801 38.8419C105.71 38.8395 105.625 38.7723 105.609 38.6744ZM106.967 38.7891C106.859 38.7795 106.774 38.684 106.783 38.5717C106.793 38.4631 106.888 38.382 107 38.388C107.108 38.3976 107.19 38.4931 107.184 38.6053C107.174 38.7104 107.083 38.7915 106.981 38.7897C106.974 38.7891 106.97 38.7891 106.967 38.7891Z" fill="#005655"/>
<path d="M61.3009 13.3311C61.2799 14.3692 60.4219 15.1935 59.3845 15.1725C58.3471 15.1515 57.5233 14.293 57.5443 13.2549C57.5653 12.2168 58.4233 11.3925 59.4607 11.4135C60.4987 11.4351 61.3225 12.2937 61.3009 13.3311Z" fill="#33C177"/>
<path d="M59.1064 28.8229C59.1064 28.8229 63.58 29.4888 66.1522 23.6794L65.0098 21.1962C64.621 20.3508 63.6172 19.9864 62.7772 20.3856L60.1762 21.6212C59.605 21.8926 59.236 22.4636 59.2228 23.0964L59.1064 28.8229Z" fill="#33C177" fill-opacity="0.8"/>
<path d="M59.777 14.1699C59.7302 14.0546 59.5574 14.1032 59.5778 14.2263L60.9554 22.5069C60.9866 22.6954 61.1102 22.8551 61.2848 22.9332C61.4594 23.0106 61.661 22.9956 61.8218 22.893L62.306 22.5838C62.7086 22.3268 62.8706 21.8195 62.6918 21.3764L59.777 14.1699Z" fill="#33C177" fill-opacity="0.8"/>
<path d="M125.16 14.6328C125.139 15.6709 125.962 16.5294 127 16.5505C128.037 16.5715 128.895 15.7471 128.916 14.7091C128.937 13.671 128.113 12.8124 127.076 12.7914C126.039 12.7704 125.181 13.5947 125.16 14.6328Z" fill="#33C177"/>
<path d="M126.722 30.202C126.722 30.202 122.225 30.6847 119.892 24.7757L121.134 22.3411C121.557 21.5126 122.575 21.1889 123.398 21.6218L125.947 22.9625C126.507 23.2567 126.852 23.8427 126.839 24.4755L126.722 30.202Z" fill="#33C177" fill-opacity="0.8"/>
<path d="M126.846 15.5976L125.139 23.7791C125.099 23.9743 124.963 24.1358 124.778 24.209C124.593 24.2823 124.384 24.2582 124.221 24.1448L123.78 23.8374C123.388 23.5642 123.247 23.0509 123.444 22.6156L126.649 15.5334C126.701 15.4199 126.872 15.4757 126.846 15.5976Z" fill="#33C177" fill-opacity="0.8"/>
<path d="M71.8834 31.0453C70.864 31.0242 70.012 30.2275 69.9412 29.19C69.8662 28.0931 70.6948 27.1427 71.791 27.0683C86.2762 26.0788 99.4912 26.3064 112.191 27.7641C113.283 27.889 114.066 28.8766 113.942 29.9688C113.816 31.0615 112.833 31.8462 111.738 31.7201C99.2818 30.2906 86.3038 30.0684 72.0628 31.0411C72.0016 31.0447 71.9422 31.0465 71.8834 31.0453Z" fill="#005655"/>
<path d="M91.6933 51.9014C83.6551 51.7375 75.5606 51.1737 67.463 50.2113C64.4942 49.8583 62.3042 47.1817 62.3696 43.9853L62.435 40.76C62.4998 37.5881 64.7762 35.0052 67.7306 34.7512C85.1551 33.2551 100.893 33.5487 115.843 35.6494C118.735 36.0559 120.869 38.7252 120.805 41.8581L120.737 45.1938C120.673 48.3825 118.386 50.9666 115.419 51.2044C107.605 51.8324 99.6769 52.0641 91.6933 51.9014ZM93.0655 34.2331C84.9871 34.0686 76.592 34.3664 67.7624 35.1247C64.9994 35.3618 62.87 37.788 62.8094 40.7678L62.744 43.9931C62.6828 46.9962 64.7306 49.5095 67.5074 49.8397C83.6228 51.7549 99.7327 52.0887 115.39 50.8315C118.164 50.6088 120.302 48.182 120.363 45.1866L120.431 41.8509C120.491 38.9071 118.496 36.4011 115.79 36.0211C108.442 34.9878 100.903 34.3928 93.0655 34.2331Z" fill="#005655"/>
<path d="M124.226 75.9471C124.361 75.6883 124.743 75.7292 124.821 76.0108C125.111 77.0524 125.81 78.8698 127.279 79.5152C127.353 79.5477 127.423 79.5807 127.491 79.6137C127.557 79.4138 127.559 79.182 127.399 78.9377C126.942 78.2394 127.767 77.286 127.767 77.286C127.767 77.286 127.821 78.1259 128.459 78.6549C129.009 79.1106 129.273 80.124 128.897 80.9556C128.102 84.0446 126.912 88.1308 131.549 91.116C136.185 94.1011 142.714 85.4825 142.714 85.4825L139.473 95.7624C139.473 95.7624 134.472 99.456 128.654 94.262C122.835 89.0687 126.692 81.5109 126.692 81.5109C126.692 81.5109 122.254 79.7194 124.226 75.9471Z" fill="url(#paint3_linear_331_2856)"/>
<path d="M143.526 70.3785C143.526 70.3785 142.182 64.3494 149.084 65.9458C149.084 65.9458 152.434 65.3983 152.604 68.5623C152.604 68.5623 154.763 69.9864 153.182 72.7242C153.182 72.7242 159.6 70.244 162.397 75.8727C165.193 81.5013 162.623 84.5988 159.928 85.4057C159.928 85.4057 162.111 86.5026 161.078 88.9792C160.045 91.4558 154.811 93.2018 151.72 90.1896C151.72 90.1896 142.924 91.3526 143.101 85.1355C143.101 85.1355 139.009 82.492 143.307 77.3538C147.603 72.2157 143.526 70.3785 143.526 70.3785Z" fill="black"/>
<path d="M143.147 84.3522C144.533 83.9361 148.571 83.1682 152.413 86.7147C153.064 87.3163 153.33 88.2301 153.098 89.0863C152.066 92.8867 149.344 104.115 151.731 108.973C151.731 108.973 147.525 113.612 142.937 109.873C142.937 109.873 140.878 100.895 138.182 96.9532C136.32 94.2322 141.15 86.7351 142.372 84.9238C142.558 84.65 142.83 84.447 143.147 84.3522Z" fill="#005655"/>
<path d="M146.975 76.8027C146.975 76.8027 149.026 82.6079 149.181 85.1692C149.181 85.1692 146.914 86.2007 144.778 84.4595C144.778 84.4595 144.554 78.6609 144.23 77.6229L146.975 76.8027Z" fill="url(#paint4_linear_331_2856)"/>
<path d="M144.127 68.8865C144.127 68.8865 138.762 76.3992 141.969 78.581C145.176 80.7629 148.995 75.4242 148.995 75.4242C148.995 75.4242 150.24 71.3121 148.938 69.9174C147.636 68.5227 144.127 68.8865 144.127 68.8865Z" fill="url(#paint5_linear_331_2856)"/>
<path d="M146.61 67.0913C146.61 67.0913 144.146 67.6755 143.8 68.7916C143.455 69.9077 147.295 70.9422 148.371 70.9927L149.238 75.4956C149.238 75.4956 151.801 71.2598 150.786 68.8138C149.771 66.3672 146.61 67.0913 146.61 67.0913Z" fill="#2D2A29"/>
<path d="M147.955 74.8723C147.955 74.8723 150.043 72.4528 150.873 74.03C151.704 75.6072 148.994 76.7918 148.056 76.0173L147.955 74.8723Z" fill="url(#paint6_linear_331_2856)"/>
<path d="M137.581 128.725C137.597 129.132 136.881 132.365 136.493 134.09C136.336 134.784 136.445 135.51 136.798 136.127L150.277 158.828C150.44 159.102 150.559 159.4 150.631 159.711C150.878 160.776 151.391 163.387 151.123 165.762L150.426 167.211L153.441 166.526L154.098 158.422L153.244 157.901C152.507 157.452 151.932 156.778 151.604 155.979C150.385 153.017 147.358 145.476 146.578 141.801C145.691 137.624 141.056 134.231 141.056 134.231L141.87 132.305L137.581 128.725Z" fill="url(#paint7_linear_331_2856)"/>
<path d="M156.792 163.738C156.792 163.738 155.164 161.155 154.972 160.149C154.78 159.143 154.247 157.367 153.243 157.902C153.243 157.902 152.769 162.787 152.932 164.696C153.096 166.604 150.776 166.543 150.776 166.543C150.776 166.543 150.137 166.633 149.668 167.102C149.345 167.425 149.577 167.986 150.033 168.015C150.792 168.065 151.998 168.077 153.264 167.832C153.706 167.746 154.034 167.37 154.061 166.92L154.395 161.297L156.45 163.893L156.792 163.738Z" fill="#005655"/>
<path d="M145.633 132.341C145.633 132.341 146.108 152.647 146.173 155.53C146.237 158.414 145.718 164.805 142.828 166.715L144.085 167.647C144.085 167.647 145.657 166.31 147.191 163.739C148.916 160.85 149.437 160.322 149.437 160.322L148.865 159.149C148.614 158.636 148.541 158.055 148.656 157.496C149.279 154.472 151.362 144.415 151.93 142.249C152.601 139.692 152.648 136.278 150.315 133.42C147.983 130.562 145.633 132.341 145.633 132.341Z" fill="url(#paint8_linear_331_2856)"/>
<path d="M148.301 168.562C148.391 168.563 148.467 168.499 148.479 168.411C148.575 167.734 148.976 165.019 149.303 164.317C149.678 163.512 150.904 160.125 149.303 159.837C149.303 159.837 145.322 165.657 144.557 166.442C143.793 167.227 142.829 166.716 142.829 166.716C142.829 166.716 142.084 166.937 141.522 167.655C141.255 167.996 141.504 168.498 141.938 168.502L144.619 168.528C145.398 168.535 146.098 168.062 146.388 167.339C146.86 166.159 147.671 164.429 148.616 163.661L148.125 168.366C148.114 168.47 148.196 168.562 148.301 168.562Z" fill="#005655"/>
<path d="M142.301 107.685C142.301 107.685 142.906 109.612 141.977 112.786L136.219 132.91C136.128 133.226 136.298 133.557 136.608 133.668C138.331 134.286 143.993 136.035 151.723 135.502C152.113 135.475 152.439 135.199 152.524 134.818C153.033 132.524 154.771 124.697 155.129 123.088C156.492 116.96 158.015 110.351 151.318 106.355C148.231 107.679 145.352 108.458 142.301 107.685Z" fill="#33C177"/>
<path d="M152.962 87.4738C152.962 87.4738 159.515 92.9224 161.141 100.368C162.767 107.814 151.566 108.605 151.566 108.605C151.566 108.605 150.045 106.906 148.24 107.512C146.435 108.118 148.1 104.547 150.212 104.556C152.324 104.566 151.346 106.237 154.334 104.882C157.244 103.563 159.043 99.4829 151.617 93.2982C151.187 92.9398 150.843 92.4829 150.636 91.9618C149.194 88.3282 150.338 85.9458 152.962 87.4738Z" fill="url(#paint9_linear_331_2856)"/>
<path d="M42.8648 138.554H40.6904V162.087H42.8648V138.554Z" fill="#005655"/>
<path d="M32.2529 162.542H51.2999V162.004C51.2999 161.519 50.9069 161.126 50.4221 161.126H33.1997C32.6771 161.126 32.2535 161.55 32.2535 162.073V162.542H32.2529Z" fill="#005655"/>
<path d="M28.6514 137.686C28.6514 139.054 29.7698 140.173 31.1366 140.173H51.6169C52.9837 140.173 54.1021 139.054 54.1021 137.686V135.437C54.1021 134.069 52.9837 132.95 51.6169 132.95H31.1366C29.7698 132.95 28.6514 134.069 28.6514 135.437V137.686Z" fill="#005655"/>
<path d="M53.8906 157.918C53.8906 157.918 60.1006 162.397 59.0224 165.406C59.0224 165.406 52.228 162.473 51.4072 160.162C50.5864 157.851 51.5458 156.83 51.5458 156.83L53.8906 157.918Z" fill="#005655" fill-opacity="0.9"/>
<path d="M52.9574 154.164L51.9422 157.101C51.7892 157.544 51.9422 158.049 52.3382 158.3C52.5368 158.425 52.808 158.541 53.1788 158.625C53.702 158.744 54.242 158.502 54.4934 158.028L55.7078 155.739L52.9574 154.164Z" fill="url(#paint10_linear_331_2856)"/>
<path d="M43.0767 127.725C43.0767 127.725 55.8315 129.936 61.3029 134.994C66.7743 140.052 56.2809 156.185 56.2809 156.185C56.2809 156.185 54.5619 156.174 52.4781 154.387C52.4781 154.387 58.7001 142.253 53.3379 138.715C47.3097 134.737 40.3623 133.841 40.3623 133.841L42.9531 128.114L43.0767 127.725Z" fill="#33C177" fill-opacity="0.9"/>
<path d="M57.9422 163.741C56.5766 163.108 52.7096 160.4 52.0574 160.28C51.4058 160.161 50.2748 160.927 50.2748 160.927C50.2748 160.927 50 161.422 50.294 162.286C51.2018 163.384 53.2166 165.479 55.9262 166.26C57.9188 166.834 59.3126 166.299 60.1808 165.672C59.7038 164.945 58.8518 164.162 57.9422 163.741Z" fill="#005655"/>
<path d="M55.9271 166.26C53.2181 165.479 51.2027 163.384 50.2949 162.285C50.4935 162.869 50.9519 163.62 51.9317 164.501C54.3605 166.685 58.9997 167.473 59.9873 167.321C60.7787 167.199 60.7043 166.468 60.1817 165.672C59.3141 166.299 57.9203 166.834 55.9271 166.26Z" fill="#005655"/>
<path d="M49.1191 159.016C49.1347 159.393 49.9033 160.684 50.3533 161.409C50.5669 161.753 50.9413 161.963 51.3463 161.965C51.6031 161.965 51.8983 161.943 52.1665 161.866C52.5691 161.75 52.7953 161.322 52.6771 160.919L51.7987 157.918L49.1191 159.016Z" fill="url(#paint11_linear_331_2856)"/>
<path d="M30.798 123.894C30.798 123.894 27.9654 131.473 30.798 133.778C33.6306 136.083 40.3884 138.678 41.898 143.269C43.4076 147.859 45.969 156.782 49.3974 159.942C49.3974 159.942 51.8064 159.708 52.7076 158.748C52.7076 158.748 50.7552 145.429 49.4676 142.011C48.3522 139.052 46.7094 134.779 43.5606 132.392C42.6594 131.709 42.816 130.626 43.2342 129.574L43.995 127.66L30.798 123.894Z" fill="#33C177"/>
<path d="M60.3418 117.954C55.5922 118.24 57.0724 110.648 57.1576 110.346L49.9492 115.441C49.9492 115.441 50.3308 119.501 56.3242 121.631C57.8404 122.17 59.2264 122.194 60.4516 121.93C59.9296 120.405 60.0358 119.037 60.3418 117.954Z" fill="#2EB674"/>
<path d="M69.5252 115.669C67.7552 114.437 65.75 115.669 65.75 115.669C63.3836 117.217 61.6328 117.876 60.341 117.954C60.0344 119.037 59.9282 120.405 60.4508 121.93C63.1022 121.36 64.9988 119.44 65.8226 118.455C66.119 118.1 66.6446 118.039 67.0076 118.325C67.376 118.617 67.7342 119.015 67.6694 119.435C67.5416 120.262 68.501 120.526 68.5736 120.226C68.6462 119.925 68.2454 118.146 68.2454 118.146C68.2454 118.146 70.1648 120.077 70.9142 120.819C71.6636 121.561 72.6056 120.819 72.6056 120.819C72.6056 120.819 71.2946 116.9 69.5252 115.669Z" fill="url(#paint12_linear_331_2856)"/>
<path d="M38.1943 98.6199C38.1943 98.6199 45.1038 95.8515 57.9636 106.475C57.9636 106.475 59.0376 108.7 57.8658 110.68C56.694 112.66 45.5292 122.309 43.9944 127.66C43.9944 127.66 37.3429 129.822 30.4639 124.694C30.4645 124.694 31.0711 109.802 38.1943 98.6199Z" fill="#005655"/>
<path d="M51.8541 96.1484L48.4527 100.275C48.1149 100.684 48.0405 101.255 48.2739 101.731C48.7461 102.695 49.8663 104.098 52.3509 103.904C53.0901 103.847 53.7447 103.401 54.0675 102.732L56.4459 97.8121L51.8541 96.1484Z" fill="url(#paint13_linear_331_2856)"/>
<path d="M32.8448 116.291C32.0426 113.022 40.1678 105.734 40.1678 105.734L38.1944 98.6191C38.1944 98.6191 20.6499 110.306 25.1211 119.705C25.7619 121.052 26.6133 121.996 27.6003 122.627C29.0133 118.821 31.2644 117.076 32.8448 116.291Z" fill="#2EB674"/>
<path d="M32.9102 116.024C32.8285 116.024 32.7548 115.969 32.7344 115.885C31.9591 112.71 39.3937 105.964 39.7107 105.678C39.785 105.611 39.8996 105.617 39.9671 105.692C40.034 105.768 40.0277 105.883 39.9529 105.95C39.8769 106.019 32.3629 112.835 33.0865 115.798C33.1103 115.896 33.0508 115.995 32.9533 116.019C32.9391 116.022 32.9243 116.024 32.9102 116.024Z" fill="url(#paint14_linear_331_2856)"/>
<path d="M45.1512 116.01C45.1512 116.01 35.5182 119.752 33.1668 116.937C33.0072 116.747 32.9034 116.529 32.8452 116.291C31.2648 117.077 29.013 118.822 27.6006 122.627C32.667 125.867 41.3274 120.825 43.6692 119.339C44.0544 119.095 44.5164 119.009 44.9634 119.101C45.8664 119.289 47.4269 119.564 48.2681 119.435C49.4993 119.245 51.2675 123.59 53.2625 122.25C53.2613 122.249 51.5531 114.696 45.1512 116.01Z" fill="url(#paint15_linear_331_2856)"/>
<path d="M59.256 90.0873C59.2902 90.22 58.4586 99.2402 58.4586 99.2402L53.322 98.6555L52.8408 89.9894C52.8402 89.9894 58.683 87.8664 59.256 90.0873Z" fill="url(#paint16_linear_331_2856)"/>
<path d="M54.1777 91.7853L54.0739 96.3675C54.0727 96.4264 54.0787 96.4834 54.0937 96.5404C54.1831 96.8887 54.5785 98.0654 55.7563 97.5869C56.8255 97.1528 57.8071 96.7728 58.5295 96.9103C58.8535 96.9721 59.0779 97.2693 59.0473 97.5977C58.9717 98.4173 58.7665 100.26 58.3447 101.835C58.2589 102.155 57.9415 102.352 57.6157 102.295C56.6347 102.122 54.5755 101.7 52.9987 100.971C52.7851 100.873 52.6417 100.668 52.6261 100.433C52.5493 99.2872 52.3021 95.8074 52.0837 94.8479C51.8785 93.9473 50.7001 93.5241 50.1925 93.3818C50.0263 93.3349 49.8877 93.2233 49.8061 93.0708C49.5193 92.531 49.0657 91.2594 50.6515 90.5443C50.9833 90.3948 51.1243 90.0034 50.9641 89.6762C50.6461 89.0247 50.4301 88.0005 51.6397 87.2902C52.8691 86.5685 53.9101 87.1521 54.4933 87.6552C54.7291 87.8588 55.0711 87.8564 55.3147 87.6618C55.4533 87.5514 55.6417 87.4991 55.8895 87.6186C56.2231 87.7789 56.6221 87.6006 56.7469 87.2524C56.9869 86.5823 57.5431 85.8319 58.8325 85.9099C61.1209 86.048 61.6483 88.5108 61.2157 90.0352C60.7831 91.5596 58.3111 91.269 57.0205 90.6656C56.0395 90.2069 54.9103 90.9244 54.4261 91.2948C54.2725 91.4113 54.1825 91.592 54.1777 91.7853Z" fill="black"/>
<path d="M52.0621 96.5166C52.0621 96.5166 52.7017 93.8281 51.6835 93.2986C50.6653 92.769 49.2961 93.2523 49.8115 95.0925C50.4517 97.3818 52.0621 96.5166 52.0621 96.5166Z" fill="url(#paint17_linear_331_2856)"/>
<path d="M50.0854 123.391C50.101 123.392 50.116 123.392 50.1316 123.392L70.3431 123.37C70.8429 123.369 71.2473 122.964 71.2467 122.464C71.2461 121.964 70.8393 121.551 70.3407 121.56L50.1292 121.582C49.6294 121.583 49.225 121.988 49.2256 122.488C49.2268 122.972 49.6078 123.367 50.0854 123.391Z" fill="#2EB674"/>
<path d="M88.5134 105.027H71.681C70.439 105.027 69.3092 105.744 68.7794 106.868L60.998 123.379H81.9164C82.7168 123.379 83.4356 122.89 83.7296 122.146L89.7638 106.867C90.1124 105.984 89.462 105.027 88.5134 105.027Z" fill="#2EB674"/>
<path d="M76.6549 113.494C76.2901 114.628 76.5595 115.729 77.2567 115.954C77.9539 116.178 78.8149 115.441 79.1797 114.307C79.5445 113.173 79.2751 112.071 78.5779 111.847C77.8807 111.622 77.0197 112.36 76.6549 113.494Z" fill="#005655"/>
<path d="M85.7854 166.769C85.8976 166.769 86.011 166.748 86.1208 166.702C86.5516 166.522 86.7508 166.038 86.5654 165.621L68.752 125.505C68.5666 125.088 68.0674 124.895 67.636 125.075C67.2052 125.254 67.006 125.738 67.1914 126.156L85.0042 166.271C85.1428 166.583 85.456 166.769 85.7854 166.769Z" fill="#BBE0D2"/>
<path d="M65.7175 166.769C66.0469 166.769 66.3601 166.583 66.4981 166.271L84.3109 126.156C84.4963 125.738 84.2971 125.254 83.8663 125.075C83.4355 124.895 82.9357 125.088 82.7503 125.505L64.9375 165.621C64.7521 166.038 64.9513 166.522 65.3821 166.702C65.4919 166.748 65.6059 166.769 65.7175 166.769Z" fill="#BBE0D2"/>
<path d="M30.6451 166.769C30.7573 166.769 30.8707 166.748 30.9805 166.702C31.4113 166.522 31.6105 166.038 31.4251 165.621L13.6124 125.505C13.427 125.088 12.9278 124.895 12.4964 125.075C12.0656 125.254 11.8664 125.738 12.0518 126.156L29.8645 166.271C30.0031 166.583 30.3163 166.769 30.6451 166.769Z" fill="#BBE0D2"/>
<path d="M10.5788 166.769C10.9082 166.769 11.2214 166.583 11.3594 166.271L29.1722 126.156C29.3576 125.738 29.1584 125.254 28.7276 125.075C28.2968 124.895 27.797 125.088 27.6116 125.505L9.79884 165.621C9.61344 166.038 9.81264 166.522 10.2434 166.702C10.3532 166.748 10.4666 166.769 10.5788 166.769Z" fill="#BBE0D2"/>
<path d="M8.48929 124.266C8.44369 124.003 8.5055 123.731 8.65789 123.524C8.81029 123.317 9.03709 123.197 9.27589 123.197H90.3123C90.6267 123.197 90.9201 123.377 91.0893 123.674C91.2585 123.971 91.2813 124.344 91.1493 124.664L90.2709 126.793C90.0699 127.281 89.6343 127.593 89.1549 127.593H9.83209C9.38629 127.593 9.00289 127.238 8.91829 126.748L8.48929 124.266Z" fill="#BBE0D2"/>
</g>
<defs>
<linearGradient id="paint0_linear_331_2856" x1="190.057" y1="218.212" x2="40.4507" y2="32.5309" gradientUnits="userSpaceOnUse">
<stop stop-color="#33C177" stop-opacity="0.3"/>
<stop offset="1" stop-color="#005655" stop-opacity="0"/>
</linearGradient>
<linearGradient id="paint1_linear_331_2856" x1="17.1456" y1="40.8829" x2="22.9966" y2="73.8538" gradientUnits="userSpaceOnUse">
<stop stop-color="#005655"/>
<stop offset="1" stop-color="#00A2A0"/>
</linearGradient>
<linearGradient id="paint2_linear_331_2856" x1="29.1442" y1="43.6348" x2="32.9915" y2="61.0704" gradientUnits="userSpaceOnUse">
<stop stop-color="#005655"/>
<stop offset="1" stop-color="#00A2A0"/>
</linearGradient>
<linearGradient id="paint3_linear_331_2856" x1="122.246" y1="68.71" x2="139.692" y2="96.6523" gradientUnits="userSpaceOnUse">
<stop stop-color="#FEBBBA"/>
<stop offset="1" stop-color="#FF928E"/>
</linearGradient>
<linearGradient id="paint4_linear_331_2856" x1="143.713" y1="88.0467" x2="146.984" y2="80.7862" gradientUnits="userSpaceOnUse">
<stop stop-color="#FEBBBA"/>
<stop offset="1" stop-color="#FF928E"/>
</linearGradient>
<linearGradient id="paint5_linear_331_2856" x1="143.545" y1="70.3977" x2="150.184" y2="84.7617" gradientUnits="userSpaceOnUse">
<stop stop-color="#FEBBBA"/>
<stop offset="1" stop-color="#FF928E"/>
</linearGradient>
<linearGradient id="paint6_linear_331_2856" x1="146.665" y1="68.9559" x2="153.304" y2="83.3198" gradientUnits="userSpaceOnUse">
<stop stop-color="#FEBBBA"/>
<stop offset="1" stop-color="#FF928E"/>
</linearGradient>
<linearGradient id="paint7_linear_331_2856" x1="162.051" y1="178.482" x2="137.68" y2="134.522" gradientUnits="userSpaceOnUse">
<stop stop-color="#FEBBBA"/>
<stop offset="1" stop-color="#FF928E"/>
</linearGradient>
<linearGradient id="paint8_linear_331_2856" x1="134.297" y1="145.859" x2="171.221" y2="158.046" gradientUnits="userSpaceOnUse">
<stop stop-color="#FEBBBA"/>
<stop offset="1" stop-color="#FF928E"/>
</linearGradient>
<linearGradient id="paint9_linear_331_2856" x1="159.712" y1="110.64" x2="124.784" y2="58.8854" gradientUnits="userSpaceOnUse">
<stop stop-color="#FEBBBA"/>
<stop offset="1" stop-color="#FF928E"/>
</linearGradient>
<linearGradient id="paint10_linear_331_2856" x1="51.8837" y1="156.41" x2="55.7079" y2="156.41" gradientUnits="userSpaceOnUse">
<stop stop-color="#FEBBBA"/>
<stop offset="1" stop-color="#FF928E"/>
</linearGradient>
<linearGradient id="paint11_linear_331_2856" x1="49.1194" y1="159.941" x2="52.7086" y2="159.941" gradientUnits="userSpaceOnUse">
<stop stop-color="#FEBBBA"/>
<stop offset="1" stop-color="#FF928E"/>
</linearGradient>
<linearGradient id="paint12_linear_331_2856" x1="60.0853" y1="118.525" x2="72.6056" y2="118.525" gradientUnits="userSpaceOnUse">
<stop stop-color="#FEBBBA"/>
<stop offset="1" stop-color="#FF928E"/>
</linearGradient>
<linearGradient id="paint13_linear_331_2856" x1="59.4862" y1="88.9011" x2="49.3727" y2="104.384" gradientUnits="userSpaceOnUse">
<stop stop-color="#FEBBBA"/>
<stop offset="1" stop-color="#FF928E"/>
</linearGradient>
<linearGradient id="paint14_linear_331_2856" x1="34.2515" y1="101.936" x2="38.1917" y2="115.394" gradientUnits="userSpaceOnUse">
<stop stop-color="#005655"/>
<stop offset="1" stop-color="#00A2A0"/>
</linearGradient>
<linearGradient id="paint15_linear_331_2856" x1="29.1926" y1="124.439" x2="61.6605" y2="112.406" gradientUnits="userSpaceOnUse">
<stop stop-color="#FEBBBA"/>
<stop offset="1" stop-color="#FF928E"/>
</linearGradient>
<linearGradient id="paint16_linear_331_2856" x1="63.1966" y1="89.0686" x2="49.4313" y2="99.1709" gradientUnits="userSpaceOnUse">
<stop stop-color="#FEBBBA"/>
<stop offset="1" stop-color="#FF928E"/>
</linearGradient>
<linearGradient id="paint17_linear_331_2856" x1="45.2879" y1="105.001" x2="51.2235" y2="94.641" gradientUnits="userSpaceOnUse">
<stop stop-color="#FEBBBA"/>
<stop offset="1" stop-color="#FF928E"/>
</linearGradient>
<clipPath id="clip0_331_2856">
<rect width="168.109" height="168.109" fill="white" transform="translate(0.891602 0.486328)"/>
</clipPath>
</defs>
</svg>
