<svg width="44" height="45" viewBox="0 0 44 45" fill="none" xmlns="http://www.w3.org/2000/svg">
<path d="M21.7452 0.846161C9.78717 0.846161 0.078125 10.5369 0.078125 22.5132C0.078125 34.4896 9.78717 44.1803 21.7452 44.1803C33.7032 44.1803 43.4306 34.4896 43.4306 22.5132C43.4306 10.5369 33.7215 0.846161 21.7452 0.846161ZM22.7509 40.944C22.2389 40.944 21.8001 40.6697 21.5441 40.2492C19.4597 40.1577 17.4118 39.6824 15.4919 38.8778C13.3709 37.9819 11.4693 36.702 9.84203 35.0747C8.21471 33.4473 6.9348 31.5458 6.03886 29.4248C5.10635 27.2306 4.64924 24.9085 4.64924 22.5132C4.64924 20.118 5.12464 17.7959 6.03886 15.6017C6.9348 13.4807 8.21471 11.5791 9.84203 9.95182C11.4693 8.3245 13.3709 7.04459 15.4919 6.14865C17.4484 5.32585 19.5145 4.85046 21.6538 4.75904C21.9098 4.42991 22.2937 4.22879 22.7509 4.22879C23.5188 4.22879 24.1405 4.85046 24.1405 5.6184C24.1405 6.38635 23.5188 7.00802 22.7509 7.00802C22.3303 7.00802 21.9463 6.80689 21.6904 6.51434C13.1881 6.88003 6.38626 13.9195 6.38626 22.5132C6.38626 31.1618 13.2612 38.2196 21.8183 38.5304C22.056 38.311 22.3852 38.183 22.7326 38.183C23.5005 38.183 24.1222 38.8047 24.1222 39.5726C24.1222 40.3406 23.5188 40.944 22.7509 40.944ZM31.7834 24.7074C31.436 24.9816 31.3811 25.2376 31.3811 25.5667C31.3811 25.5667 31.3811 25.5667 31.3811 25.585V25.6033C31.3811 25.6399 31.3811 25.713 31.3994 25.8044C31.3994 25.8227 31.3994 25.8227 31.3994 25.841C31.3994 25.8593 31.3994 25.8776 31.3994 25.9142C31.3994 25.9324 31.3994 25.9507 31.3994 25.9507C31.4177 26.1153 31.4543 26.3164 31.5091 26.5358C31.5822 26.8649 31.436 27.1575 31.308 27.45C31.2348 27.5963 31.18 27.7609 31.1434 27.9254C31.1068 28.1083 31.1434 28.2911 31.1617 28.4923C31.2531 29.2602 31.1434 30.1379 30.6132 30.7047C30.1012 31.2715 29.2967 31.4543 28.5653 31.4726C27.9071 31.4909 27.2488 31.4361 26.5906 31.4361C24.5244 31.4543 23.6651 32.3503 23.6468 34.5079C22.696 34.581 20.9773 34.4347 20.7213 34.4164H20.703H20.6847C20.2824 34.3799 19.8985 34.325 19.5145 34.2701C14.9617 33.5205 11.1037 29.5893 10.2809 24.8719C9.11065 18.1981 13.0235 12.1094 19.4414 10.8295C22.7691 10.1712 25.8775 10.7198 28.3459 13.4259C29.8087 15.0349 30.5766 16.9365 30.3755 19.1306C30.2658 20.3374 30.5583 21.2882 31.4543 22.0561C31.6371 22.2024 31.7834 22.4035 31.9296 22.5864C32.661 23.4823 32.661 24.0126 31.7834 24.7074ZM33.6667 30.2659C33.4107 30.2659 33.173 30.1379 33.0084 29.9184C32.7707 29.5893 32.789 29.1871 33.0816 28.858C33.6118 28.2546 33.8312 27.5598 33.7398 26.737C33.7032 26.4078 33.6118 26.097 33.4473 25.7679C33.2461 25.3839 33.3741 24.9268 33.7398 24.6891C33.8678 24.5977 34.0324 24.5611 34.1786 24.5611C34.4346 24.5611 34.6723 24.6708 34.8186 24.8719C34.8917 24.9634 34.9283 25.0548 34.9832 25.1645C35.7328 26.737 35.4403 28.6934 34.2701 29.955C34.1055 30.1561 33.8861 30.2659 33.6667 30.2659ZM36.2448 31.8932C36.0802 32.0577 35.8608 32.1492 35.6414 32.1492C35.3854 32.1492 35.166 32.0394 35.0014 31.82C34.7637 31.5092 34.782 31.0704 35.0563 30.7595C35.1294 30.6864 35.1843 30.6133 35.2574 30.5401C35.422 30.3573 35.5683 30.1927 35.6963 30.0099C36.8665 28.218 36.9396 26.3713 35.8974 24.5062C35.7694 24.2686 35.7328 24.0126 35.7877 23.7749C35.8425 23.5737 36.0071 23.3909 36.2082 23.2995C36.3179 23.2446 36.4459 23.2081 36.5739 23.2081C36.8665 23.2081 37.1224 23.3543 37.287 23.6103C38.2195 25.1462 38.4938 26.8101 38.1098 28.5471C37.8355 29.8087 37.2139 30.9424 36.2448 31.8932Z" fill="black"/>
<path d="M29.5162 28.4923C29.5162 28.5105 29.5162 28.5471 29.5162 28.5654C29.6259 29.4431 29.5711 29.6076 28.7117 29.7539C28.474 29.7905 28.1998 29.7539 27.9621 29.7722C26.993 29.827 26.0056 29.8087 25.0548 29.9916C23.9395 30.211 23.0801 30.8327 22.5681 31.8566C22.5133 31.9846 22.4402 32.1857 22.4036 32.2954C22.3304 32.5148 22.2573 32.8257 22.2573 32.8257L21.1602 32.7708C15.8212 32.5697 11.506 27.7975 11.7437 22.1658C11.9814 16.4428 16.644 12.0363 22.1659 12.3471C23.6652 12.4385 25.1097 12.7676 26.2799 13.8647C27.0661 14.5778 27.5781 15.4006 27.3404 16.5342C27.0661 17.7593 26.481 18.7466 25.256 19.1489C24.7074 19.3135 24.1406 19.4232 23.5738 19.5329C21.3431 19.9351 19.4781 20.9408 18.1982 22.9338C18.0702 23.1349 17.8873 23.2812 17.7045 23.4275C17.2108 23.848 17.0462 24.5245 17.3205 25.0914C17.5765 25.6033 18.1982 25.9142 18.7101 25.7862C19.3684 25.6216 19.7706 25.1096 19.6792 24.3783C19.6243 23.8846 19.7889 23.5372 20.0997 23.2081C21.142 22.0744 22.4219 21.4162 23.8846 21.2333C25.9142 20.9774 27.6329 20.2643 28.5654 18.2164C28.5837 18.1981 28.6386 18.1798 28.7849 18.125C28.6569 20.1546 28.474 22.2024 30.4487 23.4092C30.1196 23.8663 29.7357 24.1588 29.6625 24.5428C29.6077 24.7988 29.6259 25.0731 29.6625 25.3473C29.6625 25.3473 29.9002 26.4993 29.9002 26.7735C29.9368 26.9929 29.5345 27.9803 29.5162 28.4923Z" fill="black"/>
</svg>
