<svg width="16" height="70" viewBox="0 0 16 70" fill="none" xmlns="http://www.w3.org/2000/svg">
<path d="M9 1C9 0.447715 8.55228 -2.41411e-08 8 0C7.44772 2.41411e-08 7 0.447715 7 1L9 1ZM7.2929 69.7071C7.68342 70.0976 8.31659 70.0976 8.70711 69.7071L15.0711 63.3431C15.4616 62.9526 15.4616 62.3195 15.0711 61.9289C14.6805 61.5384 14.0474 61.5384 13.6569 61.9289L8 67.5858L2.34315 61.9289C1.95262 61.5384 1.31946 61.5384 0.928935 61.9289C0.53841 62.3195 0.538411 62.9526 0.928935 63.3431L7.2929 69.7071ZM7 1L7 69L9 69L9 1L7 1Z" fill="#005653"/>
</svg>
