<svg width="19" height="15" viewBox="0 0 19 15" fill="none" xmlns="http://www.w3.org/2000/svg">
<path d="M17.666 0.5H1.33268C1.02326 0.5 0.726517 0.622916 0.507724 0.841709C0.288932 1.0605 0.166016 1.35725 0.166016 1.66667V13.3333C0.166016 13.6428 0.288932 13.9395 0.507724 14.1583C0.726517 14.3771 1.02326 14.5 1.33268 14.5H17.666C17.9754 14.5 18.2722 14.3771 18.491 14.1583C18.7098 13.9395 18.8327 13.6428 18.8327 13.3333V1.66667C18.8327 1.35725 18.7098 1.0605 18.491 0.841709C18.2722 0.622916 17.9754 0.5 17.666 0.5ZM16.7677 13.3333H2.30102L6.38435 9.11L5.54435 8.29917L1.33268 12.6567V2.55333L8.58352 9.76917C8.8021 9.98646 9.0978 10.1084 9.40602 10.1084C9.71423 10.1084 10.0099 9.98646 10.2285 9.76917L17.666 2.3725V12.5808L13.3727 8.2875L12.5502 9.11L16.7677 13.3333ZM2.09685 1.66667H16.721L9.40602 8.94083L2.09685 1.66667Z" fill="#747474"/>
</svg>
