<svg width="44" height="49" viewBox="0 0 44 49" fill="none" xmlns="http://www.w3.org/2000/svg">
  <defs>
    <linearGradient id="gradient" x1="0%" y1="0%" x2="100%" y2="100%">
      <stop offset="0%" stop-color="#005653" /> 
      <stop offset="100%" stop-color="#33c275" />
    </linearGradient>
  </defs>
  <path d="M26.2318 48.9865C12.542 49.4658 1.01236 38.883 0.512827 25.3718C0.0132977 11.8605 10.7599 0.505693 24.4497 0.0131639C30.2011 -0.18651 35.8849 1.59724 40.4482 5.04495L43.0268 6.98844L39.0846 12.0602L36.5194 10.1167C33.1442 7.57415 28.9455 6.24299 24.6927 6.40273C14.5671 6.76214 6.64218 15.1751 6.9932 25.1455C7.35773 35.1292 15.8902 42.9431 26.0023 42.597C27.5414 42.5437 29.0535 42.3041 30.5116 41.8781L33.6168 40.9863L35.4394 47.1229L32.3342 48.0148C30.3631 48.5739 28.3109 48.9067 26.2318 48.9865Z" fill="url(#gradient)" />
  <path d="M43.4998 22.5757L43.4728 39.8009L36.9924 39.7876L37.0059 32.6925C34.8323 35.6743 31.5246 37.8308 27.6633 38.3766C19.4144 39.5347 12.1644 34.1701 11.1924 26.1965C10.4228 19.9267 13.7305 14.0829 19.4819 11.5537C25.2602 9.01118 32.0241 10.4621 36.2228 15.1611C36.5604 15.5339 36.8574 15.9598 37.3704 16.5855C33.2122 16.5855 29.3374 16.5455 25.4627 16.5722C21.4665 16.6121 18.3478 19.1945 17.5512 23.0283C16.7547 26.8221 19.2658 30.8289 23.1271 31.9471C26.8533 33.0386 31.0655 31.1883 32.4966 27.6873L24.0721 27.674L24.0856 21.2845L28.8919 21.2978V21.3111C32.3751 21.2978 34.4947 21.3244 38.248 21.3111H42.2847C42.9327 21.3244 43.4998 21.8835 43.4998 22.5757Z" fill="url(#gradient)" />
</svg>
