<svg width="237" height="170" viewBox="0 0 237 170" fill="none" xmlns="http://www.w3.org/2000/svg">
<path d="M217.467 169.189C217.467 169.189 262.787 105.566 214.672 88.1652C202.553 83.7818 198.325 22.4184 144.491 53.1001C123.082 65.3015 92.2551 50.5361 62.7343 58.6062C35.6221 66.0177 34.9996 87.3981 38.4274 95.0949C42.1727 103.505 27.2364 113.561 11.9386 120.466C-12.0567 131.298 5.58823 169.369 28.2565 169.551C50.9248 169.733 217.467 169.189 217.467 169.189Z" fill="#D6E4E4"/>
<path d="M20.1015 88.3332H26.956C28.7588 88.3332 30.2343 86.8577 30.2343 85.0549V79.4091C30.2343 77.6063 28.7588 76.1309 26.956 76.1309H20.1015C18.2987 76.1309 16.8232 77.6063 16.8232 79.4091V85.0549C16.8232 86.8577 18.2987 88.3332 20.1015 88.3332Z" fill="#005655"/>
<path d="M26.7381 78.9287H20.3253C19.3237 78.9287 18.5049 79.7475 18.5049 80.7491V82.3203C18.5049 83.2632 19.2348 84.0361 20.1562 84.1231L19.3804 86.3783L23.4345 84.1397H26.7381C27.7397 84.1397 28.5585 83.3209 28.5585 82.3193V80.7491C28.5585 79.7475 27.7387 78.9287 26.7381 78.9287Z" fill="white"/>
<path d="M26.9642 81.2876H19.8996C19.6915 81.2876 19.5205 81.1175 19.5205 80.9084V80.8899C19.5205 80.6817 19.6915 80.5107 19.8996 80.5107H26.9642C27.1724 80.5107 27.3434 80.6817 27.3434 80.8899V80.9084C27.3424 81.1175 27.1724 81.2876 26.9642 81.2876Z" fill="#005655"/>
<path d="M26.9642 82.5454H19.8996C19.6915 82.5454 19.5205 82.3753 19.5205 82.1662V82.1477C19.5205 81.9396 19.6915 81.7686 19.8996 81.7686H26.9642C27.1724 81.7686 27.3434 81.9396 27.3434 82.1477V82.1662C27.3424 82.3753 27.1724 82.5454 26.9642 82.5454Z" fill="#005655"/>
<path d="M188.692 58.96H181.838C180.035 58.96 178.56 60.4354 178.56 62.2382V67.884C178.56 69.6868 180.035 71.1623 181.838 71.1623H188.692C190.495 71.1623 191.971 69.6868 191.971 67.884V62.2382C191.971 60.4344 190.495 58.96 188.692 58.96Z" fill="#005655"/>
<path d="M188.827 64.9611C188.455 65.9431 185.261 68.5207 185.261 68.5207C185.261 68.5207 184.22 67.6755 183.256 66.7649C182.535 66.0906 181.86 65.3812 181.7 64.9611C181.322 63.9849 181.724 62.5896 183.12 62.3531C184.509 62.1167 185.261 63.5716 185.261 63.5716C185.261 63.5716 186.012 62.1167 187.407 62.3531C187.65 62.3942 187.863 62.4714 188.046 62.5779C188.915 63.0635 189.134 64.1569 188.827 64.9611Z" fill="white"/>
<path d="M188.83 64.9603C188.458 65.9424 185.264 68.52 185.264 68.52C185.264 68.52 184.223 67.6748 183.259 66.7641C187.062 65.7 187.878 63.4996 188.049 62.5771C188.918 63.0628 189.137 64.1562 188.83 64.9603Z" fill="#EEE7E6"/>
<path d="M16.8232 60.2945C16.8232 60.2945 24.3696 59.3545 28.9806 63.6021C33.5917 67.8497 42.1815 63.9783 45.6406 63.6021C51.6538 62.9474 56.3684 64.9154 57.7667 67.0777V73.5658H16.8232V60.2945Z" fill="#33C177"/>
<path d="M22.9826 49.8545H22.667V59.9853H22.9826V49.8545Z" fill="#D6E4E4"/>
<path d="M35.3957 54.2031H35.0791V64.3339H35.3957V54.2031Z" fill="#D6E4E4"/>
<path d="M48.1974 51.9092H47.8818V62.04H48.1974V51.9092Z" fill="#D6E4E4"/>
<path d="M26.5181 51.4085H24.0939C23.9493 51.4085 23.8301 51.2903 23.8301 51.1447C23.8301 51.0001 23.9483 50.8809 24.0939 50.8809H26.5181C26.6628 50.8809 26.782 50.9991 26.782 51.1447C26.782 51.2893 26.6637 51.4085 26.5181 51.4085Z" fill="#D6E4E4"/>
<path d="M26.5181 52.3558H24.0939C23.9493 52.3558 23.8301 52.2375 23.8301 52.0919C23.8301 51.9473 23.9483 51.8281 24.0939 51.8281H26.5181C26.6628 51.8281 26.782 51.9464 26.782 52.0919C26.782 52.2375 26.6637 52.3558 26.5181 52.3558Z" fill="#D6E4E4"/>
<path d="M38.7388 56.5735H36.3146C36.17 56.5735 36.0508 56.4553 36.0508 56.3097C36.0508 56.1651 36.169 56.0459 36.3146 56.0459H38.7388C38.8835 56.0459 39.0027 56.1641 39.0027 56.3097C39.0027 56.4553 38.8835 56.5735 38.7388 56.5735Z" fill="#D6E4E4"/>
<path d="M38.7388 57.5013H36.3146C36.17 57.5013 36.0508 57.383 36.0508 57.2375C36.0508 57.0928 36.169 56.9736 36.3146 56.9736H38.7388C38.8835 56.9736 39.0027 57.0919 39.0027 57.2375C39.0027 57.383 38.8835 57.5013 38.7388 57.5013Z" fill="#D6E4E4"/>
<path d="M51.7594 52.7532H49.3351C49.1905 52.7532 49.0713 52.635 49.0713 52.4894C49.0713 52.3448 49.1895 52.2256 49.3351 52.2256H51.7594C51.904 52.2256 52.0232 52.3438 52.0232 52.4894C52.0232 52.634 51.904 52.7532 51.7594 52.7532Z" fill="#D6E4E4"/>
<path d="M51.7594 53.681H49.3351C49.1905 53.681 49.0713 53.5627 49.0713 53.4171C49.0713 53.2725 49.1895 53.1533 49.3351 53.1533H51.7594C51.904 53.1533 52.0232 53.2715 52.0232 53.4171C52.0232 53.5627 51.904 53.681 51.7594 53.681Z" fill="#D6E4E4"/>
<path d="M205.885 131.478H168.837V109.588H169.297V131.018H205.885V131.478Z" fill="#33C177"/>
<path d="M180.42 123.562C175.886 119.952 171.062 123.562 171.062 123.562V129.734H204.968V113.78C195.753 114.013 184.956 127.172 180.42 123.562Z" fill="#33C177"/>
<path d="M171.45 111.256H187.25C187.464 111.256 187.637 111.081 187.637 110.868C187.637 110.655 187.463 110.48 187.25 110.48H171.45C171.237 110.48 171.062 110.655 171.062 110.868C171.063 111.082 171.237 111.256 171.45 111.256Z" fill="#33C177"/>
<path d="M171.45 113.154H187.25C187.464 113.154 187.637 112.979 187.637 112.766C187.637 112.553 187.463 112.378 187.25 112.378H171.45C171.237 112.378 171.062 112.553 171.062 112.766C171.063 112.979 171.237 113.154 171.45 113.154Z" fill="#33C177"/>
<path d="M171.38 114.945H181.841C182.016 114.945 182.159 114.802 182.159 114.627V114.487C182.159 114.312 182.016 114.169 181.841 114.169H171.38C171.205 114.169 171.062 114.312 171.062 114.487V114.627C171.062 114.802 171.205 114.945 171.38 114.945Z" fill="#33C177"/>
<path d="M150.892 18.1426H144.961V55.0905H150.892V18.1426Z" fill="#33C177"/>
<path d="M160.606 7.84277H154.675V55.0896H160.606V7.84277Z" fill="#33C177"/>
<path d="M171.214 27.0771H165.283V55.0903H171.214V27.0771Z" fill="#33C177"/>
<path d="M181.527 14.1514H175.596V55.0909H181.527V14.1514Z" fill="#33C177"/>
<path d="M191.902 32.5605H185.971V55.0911H191.902V32.5605Z" fill="#33C177"/>
<path d="M181.251 8.82617H176.228C175.943 8.82617 175.708 9.0597 175.708 9.346C175.708 9.6323 175.942 9.86583 176.228 9.86583H181.251C181.538 9.86583 181.771 9.6323 181.771 9.346C181.771 9.0597 181.537 8.82617 181.251 8.82617Z" fill="#33C177"/>
<path d="M177.372 10.7158H176.228C175.943 10.7158 175.708 10.9494 175.708 11.2357C175.708 11.521 175.942 11.7555 176.228 11.7555H177.372C177.657 11.7555 177.892 11.5219 177.892 11.2357C177.892 10.9494 177.657 10.7158 177.372 10.7158Z" fill="#33C177"/>
<path d="M160.553 0.77832H155.53C155.243 0.77832 155.01 1.01185 155.01 1.29815C155.01 1.58347 155.243 1.81798 155.53 1.81798H160.553C160.838 1.81798 161.073 1.58445 161.073 1.29815C161.073 1.01283 160.838 0.77832 160.553 0.77832Z" fill="#33C177"/>
<path d="M156.674 2.66992H155.53C155.243 2.66992 155.01 2.90345 155.01 3.18975C155.01 3.47507 155.243 3.70958 155.53 3.70958H156.674C156.96 3.70958 157.194 3.47605 157.194 3.18975C157.194 2.90345 156.959 2.66992 156.674 2.66992Z" fill="#33C177"/>
<path d="M170.76 21.5635H165.737C165.451 21.5635 165.217 21.797 165.217 22.0833C165.217 22.3686 165.45 22.6031 165.737 22.6031H170.76C171.045 22.6031 171.28 22.3696 171.28 22.0833C171.28 21.797 171.046 21.5635 170.76 21.5635Z" fill="#33C177"/>
<path d="M166.881 23.4551H165.737C165.451 23.4551 165.217 23.6886 165.217 23.9749C165.217 24.2602 165.45 24.4947 165.737 24.4947H166.881C167.167 24.4947 167.401 24.2612 167.401 23.9749C167.401 23.6896 167.167 23.4551 166.881 23.4551Z" fill="#33C177"/>
<path d="M191.452 27.0781H186.429C186.144 27.0781 185.909 27.3117 185.909 27.598C185.909 27.8833 186.143 28.1178 186.429 28.1178H191.452C191.739 28.1178 191.972 27.8843 191.972 27.598C191.972 27.3117 191.738 27.0781 191.452 27.0781Z" fill="#33C177"/>
<path d="M187.573 28.9697H186.429C186.144 28.9697 185.909 29.2033 185.909 29.4896C185.909 29.7749 186.143 30.0094 186.429 30.0094H187.573C187.859 30.0094 188.093 29.7759 188.093 29.4896C188.093 29.2033 187.859 28.9697 187.573 28.9697Z" fill="#33C177"/>
<path d="M141.886 47.3906H72.0723V152.678H141.886V47.3906Z" fill="#005655"/>
<path d="M135.028 53.2803H78.8203V115.93H135.028V53.2803Z" fill="#F3F9FF"/>
<path d="M99.4646 139.816C101.601 134.658 99.1518 128.745 93.994 126.608C88.8362 124.472 82.9229 126.921 80.7864 132.079C78.6499 137.237 81.0992 143.15 86.2571 145.286C91.4149 147.423 97.3281 144.974 99.4646 139.816Z" fill="#F3F9FF"/>
<path d="M98.6631 135.947C98.6631 131.228 94.8377 127.402 90.1192 127.402C85.3997 127.402 81.5742 131.229 81.5742 135.947C81.5742 140.666 85.3997 144.492 90.1192 144.492C92.0685 144.492 93.8645 143.84 95.3018 142.741L90.1192 135.947L98.1042 138.995C98.4648 138.048 98.6631 137.021 98.6631 135.947Z" fill="#2B8C8B"/>
<path d="M134.403 138.284C135.686 132.851 132.322 127.407 126.889 126.124C121.455 124.841 116.011 128.205 114.728 133.638C113.445 139.071 116.81 144.516 122.243 145.798C127.676 147.081 133.12 143.717 134.403 138.284Z" fill="#F3F9FF"/>
<path d="M124.561 127.401C119.841 127.401 116.016 131.228 116.016 135.946C116.016 138.282 116.952 140.398 118.471 141.94L124.562 135.946L132.547 138.994C132.908 138.047 133.106 137.02 133.106 135.946C133.105 131.228 129.279 127.401 124.561 127.401Z" fill="#2B8C8B"/>
<path d="M123.317 131.609H119.679C119.536 131.609 119.419 131.727 119.419 131.869C119.419 132.012 119.536 132.129 119.679 132.129H123.317C123.459 132.129 123.577 132.012 123.577 131.869C123.577 131.727 123.459 131.609 123.317 131.609Z" fill="#33C177"/>
<path d="M123.317 132.432H119.679C119.536 132.432 119.419 132.549 119.419 132.692C119.419 132.834 119.536 132.951 119.679 132.951H123.317C123.459 132.951 123.577 132.834 123.577 132.692C123.577 132.549 123.459 132.432 123.317 132.432Z" fill="#33C177"/>
<path d="M121.181 133.256H119.679C119.536 133.256 119.419 133.373 119.419 133.516C119.419 133.658 119.536 133.776 119.679 133.776H121.181C121.323 133.776 121.441 133.658 121.441 133.516C121.441 133.373 121.324 133.256 121.181 133.256Z" fill="#33C177"/>
<path d="M88.8011 131.609H85.1632C85.0206 131.609 84.9033 131.727 84.9033 131.869C84.9033 132.012 85.0206 132.129 85.1632 132.129H88.8011C88.9437 132.129 89.061 132.012 89.061 131.869C89.061 131.727 88.9437 131.609 88.8011 131.609Z" fill="#33C177"/>
<path d="M88.8011 132.432H85.1632C85.0206 132.432 84.9033 132.549 84.9033 132.692C84.9033 132.834 85.0206 132.951 85.1632 132.951H88.8011C88.9437 132.951 89.061 132.834 89.061 132.692C89.061 132.549 88.9437 132.432 88.8011 132.432Z" fill="#33C177"/>
<path d="M86.6651 133.256H85.1632C85.0206 133.256 84.9033 133.373 84.9033 133.516C84.9033 133.658 85.0206 133.776 85.1632 133.776H86.6651C86.8077 133.776 86.925 133.658 86.925 133.516C86.925 133.373 86.8077 133.256 86.6651 133.256Z" fill="#33C177"/>
<path d="M56.3311 160.058L57.5251 165.087L59.3142 165.076L59.3797 160.058H56.3311Z" fill="url(#paint0_linear_331_3076)"/>
<path d="M71.3721 160.271L74.7695 165.086L76.0935 163.386L74.0494 159.609L71.3721 160.271Z" fill="url(#paint1_linear_331_3076)"/>
<path d="M62.5445 93.9703C61.9269 93.6195 61.1872 93.5814 60.6694 93.6117C60.8023 93.4739 61.0651 93.4241 61.0651 93.4241C60.7446 93.3762 60.0274 93.6947 60.0274 93.6947C55.5629 91.975 54.8614 98.5481 54.9552 100.075C55.048 101.603 53.4553 102.101 51.1327 103.304C46.7014 105.6 46.3115 108.674 46.3115 108.674C46.3457 108.695 46.3819 108.718 46.42 108.744C46.6398 108.372 47.0922 107.672 47.4743 107.567C47.4596 107.601 47.0229 108.53 46.8607 109.063C48.1681 110.058 50.6138 112.261 52.3179 113.823C52.3101 113.519 52.3228 113.085 52.4342 112.856L52.6452 114.124C53.5569 114.963 54.1862 115.553 54.1862 115.553C54.0738 114.319 59.7675 107.806 62.7379 105.856C63.461 104.791 63.718 102.911 63.7375 102.762C63.6125 104.254 63.3574 105.09 63.1298 105.561C65.6459 103.244 64.1812 94.9005 62.5445 93.9703Z" fill="black"/>
<path d="M62.5632 105.951C62.5778 105.958 61.1288 106.71 60.0383 106.412C59.0133 106.133 58.343 104.803 58.3567 104.8C58.7905 104.714 58.9165 104.117 58.9068 101.553L59.1032 101.592L62.4039 102.246C62.4039 102.246 62.3287 103.284 62.3267 104.263C62.3247 105.084 62.3746 105.863 62.5632 105.951Z" fill="url(#paint2_linear_331_3076)"/>
<path d="M58.8291 95.0474C58.8291 95.0474 60.457 93.314 62.5021 94.9585C62.5011 94.9585 61.312 94.7523 58.8291 95.0474Z" fill="#2D2A29"/>
<path d="M62.4081 102.245C62.4081 102.245 62.3329 103.283 62.331 104.262C60.4842 104.21 59.508 102.525 59.1074 101.592L62.4081 102.245Z" fill="#C17170"/>
<path d="M58.7615 101.233C58.7615 101.233 57.7932 99.7041 57.5616 98.3958C57.3955 97.4616 57.8713 94.0016 61.3489 94.5C61.3489 94.5 62.3593 94.5997 63.308 95.2406C64.0634 95.7507 65.1529 96.8519 63.9344 99.8712L63.6178 100.891L58.7615 101.233Z" fill="black"/>
<path d="M75.5576 162.067L73.8076 162.12L71.9139 162.178C71.9139 162.178 67.5394 157.308 65.0858 149.5C65.0281 149.318 64.9685 149.134 64.904 148.949C63.5615 145.033 60.7777 140.119 59.31 135.67C59.0765 134.961 58.8664 134.294 58.6788 133.663C58.6182 133.46 58.5596 133.262 58.5039 133.067C57.4232 129.311 57.1095 126.843 56.8213 124.208L67.4153 124.293C67.4153 124.293 69.1252 142.288 75.5576 162.067Z" fill="#005655"/>
<path d="M65.9356 118.204C65.9092 123.245 66.6753 125.408 66.6753 125.408C66.6753 125.408 62.1394 127.713 56.7487 126.016C56.6851 125.997 52.2852 124.992 52.2852 124.992C52.3751 124.788 53.1773 121.391 53.2652 121.204C54.4036 118.76 55.2673 117.688 55.4022 116.937C55.6523 115.534 55.6582 114.083 55.5331 112.714C55.2038 109.09 54.2257 106.081 54.2257 106.081C55.6943 105.747 57.1082 105.175 58.6374 104.602C58.9892 105.039 60.0259 105.482 60.9581 105.462C62.032 105.438 62.3671 104.984 62.328 104.473C63.4722 105.11 64.3819 105.715 64.3819 105.715C65.3542 107.404 67.327 109.045 67.4697 111.636C67.5058 112.272 65.9365 118.063 65.9356 118.204Z" fill="#E7F1FD"/>
<path d="M56.8263 118.766C56.3631 119.422 55.4749 123.406 53.2666 123.906C54.405 121.067 55.2687 119.822 55.4036 118.949C55.6537 117.319 55.6596 115.634 55.5345 114.043C56.2742 112.747 56.8253 111.858 56.8253 111.858C56.8829 111.648 58.0008 108.195 58.3584 111.282C58.716 114.371 57.3432 118.034 56.8263 118.766Z" fill="#5F9AA8"/>
<path d="M63.0271 103.172C63.0271 103.172 58.6574 103.245 58.6545 100.522C58.6515 97.8 58.0858 95.9758 60.8755 95.8155C63.6651 95.6543 64.2084 96.693 64.4312 97.6007C64.652 98.5084 64.1635 103.083 63.0271 103.172Z" fill="url(#paint3_linear_331_3076)"/>
<path d="M64.2951 96.0863C63.6209 95.2685 63.1108 95.4463 62.8245 95.6925C61.8806 94.2816 58.8955 96.3218 58.8955 96.3218C58.6034 98.2751 57.1943 99.3939 57.1943 99.3939C57.1943 99.3939 57.9907 99.8863 59.8267 99.4134C61.2719 99.0421 62.3203 96.9853 62.7014 96.1254C62.9613 96.356 63.5095 96.8905 63.6736 97.4133C63.8915 98.106 63.9893 99.5336 64.4055 99.4847C64.4065 99.4847 65.3084 97.3146 64.2951 96.0863Z" fill="#2D2A29"/>
<path d="M57.4724 164.804C57.4724 164.804 57.616 165.799 57.2447 166.865C57.2447 166.865 56.9516 168.199 58.2658 168.224C59.579 168.248 59.9015 168.125 59.753 167.306C59.6044 166.488 59.3211 165.073 59.3211 165.073L57.4724 164.804Z" fill="url(#paint4_linear_331_3076)"/>
<path d="M59.867 168.879C59.867 168.879 59.866 168.88 59.8631 168.882H57.1447C57.1418 168.88 57.1408 168.879 57.1408 168.879C56.9923 168.181 57.2356 166.867 57.2356 166.867C58.7228 168.289 59.654 166.831 59.654 166.831C59.8953 167.44 59.867 168.879 59.867 168.879Z" fill="#005655"/>
<path d="M79.2597 167.504C79.2597 167.504 76.8374 164.754 76.0938 163.386L74.293 164.308L78.3187 168.089L79.2607 167.965L79.2597 167.504Z" fill="url(#paint5_linear_331_3076)"/>
<path d="M80.7533 168.875H77.3929C77.0969 168.608 76.8145 168.071 76.4686 167.366C76.2702 166.962 75.8266 166.74 75.3722 166.618V168.874H74.6775L74.0336 166.475C73.6046 165.671 73.9271 164.934 74.228 164.299C74.5788 164.298 75.597 164.552 77.3861 166.607C77.9743 167.282 78.6231 167.522 79.268 167.503C79.2768 167.509 79.2856 167.514 79.2944 167.517C80.3135 167.985 80.6458 168.559 80.7533 168.875Z" fill="#005655"/>
<path d="M80.5906 107.688C80.5906 107.688 77.7217 109.293 76.6977 109.755C76.3332 109.919 75.6727 110.227 74.9985 110.542C74.591 110.732 74.1787 110.926 73.822 111.093C73.2201 111.376 72.5029 111.221 72.07 110.715C70.5164 108.901 66.4965 104.97 62.3457 104.478L62.3311 104.472C62.3311 104.472 62.332 104.474 62.333 104.477C62.3311 104.477 62.3291 104.477 62.3281 104.476L62.3506 104.521C62.5841 105.101 64.8599 110.787 64.9302 111.986C65.0045 113.25 65.2272 132.657 65.2272 132.657C65.2272 132.657 65.0787 133.549 66.7887 133.178C68.4987 132.806 68.9452 132.434 68.9452 132.434C68.9452 132.434 67.3095 120.462 67.7551 116.299C67.843 115.482 67.7639 114.563 67.5811 113.616C70.109 115.147 73.0902 115.828 73.0902 115.828C73.0902 115.828 74.2021 115.343 75.9297 114.272C76.6547 113.822 77.496 113.105 78.3236 112.345C79.3242 111.429 81.0449 109.214 81.0449 109.214L80.5906 107.688Z" fill="#33C177"/>
<path d="M73.8115 162.119L71.9179 162.177C71.9179 162.177 67.5433 157.307 65.0897 149.498C65.0321 149.317 64.9725 149.133 64.908 148.947C63.5654 145.032 60.7816 140.117 59.3139 135.668C59.0804 134.96 58.8703 134.292 58.6827 133.661C58.6221 133.459 58.5635 133.261 58.5078 133.065L60.0683 131.881C60.0683 131.881 64.7516 139.465 66.2017 146.603C67.4612 152.803 72.5061 160.263 73.8115 162.119Z" fill="#03504F"/>
<path d="M60.231 147.269C60.2574 150.74 60.0825 158.72 59.6301 162.023H57.9523C57.025 162.023 56.5629 162.01 56.5629 162.01C55.4284 156.265 54.6223 151.512 54.0351 147.417C53.5533 144.056 53.1253 141.175 52.7951 138.695C52.4638 136.198 52.2332 134.108 52.1502 132.342C52.1375 132.064 52.1277 131.793 52.1228 131.531C52.1179 131.267 52.116 131.01 52.1179 130.761L61.2716 129.869C61.1573 135.951 60.2163 145.252 60.231 147.269Z" fill="#005655"/>
<path d="M57.9525 162.025C57.0253 162.025 56.5631 162.011 56.5631 162.011C55.4286 156.267 54.6225 151.514 54.0353 147.419C53.5535 144.058 53.1256 141.177 52.7953 138.696C52.4641 136.199 52.2334 134.109 52.1504 132.344L55.5088 134.319C55.5088 134.319 53.365 135.076 54.1828 140.802C55.0007 146.526 56.8142 161.214 57.9525 162.025Z" fill="#03504F"/>
<path d="M58.3866 132.285C58.3866 132.285 57.7417 134.615 55.5109 134.318C53.2801 134.021 50.1084 132.682 50.1084 132.682C50.1084 132.682 51.0621 129.67 52.2473 125.712C53.6827 120.921 55.4591 114.745 56.2965 110.85C56.531 109.759 56.6923 108.847 56.7519 108.194L58.6406 104.603C58.6406 104.603 61.3619 110.798 61.5105 112.359C61.658 113.918 58.3866 132.285 58.3866 132.285Z" fill="#33C177"/>
<path d="M66.3532 114.102C65.2794 114.242 64.868 114.813 64.7351 115.583C64.6638 115.998 64.4498 116.409 64.2681 116.699C63.1981 116.757 60.6517 116.895 58.5118 117.03L58.335 119.836C60.0928 119.618 62.2532 119.172 64.739 118.321C64.9296 118.289 65.169 118.169 65.468 117.925C67.0089 116.664 67.8824 114.55 67.8854 114.248C67.8883 113.945 67.4261 113.961 66.3532 114.102Z" fill="url(#paint6_linear_331_3076)"/>
<path d="M58.2867 115.63C58.187 118.158 57.5919 123.066 52.2881 125.692C52.2744 125.699 52.2598 125.706 52.2461 125.712C53.6815 120.921 55.4579 114.744 56.2953 110.85C57.2685 112.306 58.3414 114.237 58.2867 115.63Z" fill="#005655"/>
<path d="M58.639 104.603C58.639 104.603 54.3914 105.075 53.0117 107.353C50.2523 111.908 51.2363 118.293 52.9619 120.241C52.9619 120.241 54.8732 120.786 58.253 120.153C58.2941 120.146 58.3361 120.138 58.3781 120.13C58.3781 120.13 59.4559 117.49 58.4895 116.97C58.4895 116.97 55.6392 117.119 55.9363 116.177C56.2343 115.235 58.639 104.603 58.639 104.603Z" fill="#33C177"/>
<path d="M83.6658 105.782C81.225 105.469 80.6084 107.689 80.6084 107.689L81.0637 109.214C81.8161 109.318 82.4747 109.122 83.0815 108.253C83.6883 107.386 83.8554 107.719 84.2404 107.073C84.7651 106.197 83.9463 105.87 83.6658 105.782Z" fill="url(#paint7_linear_331_3076)"/>
<path d="M76.7002 109.755C76.3357 109.919 75.6752 110.227 75.001 110.542C75.3615 111.183 75.813 112.347 75.9331 114.272C76.6582 113.822 77.5972 113.073 78.3984 112.286C79.6843 111.023 81.0484 109.213 81.0484 109.213L80.5921 107.688C80.594 107.688 77.7252 109.293 76.7002 109.755Z" fill="url(#paint8_linear_331_3076)"/>
<path d="M146.265 127.554C146.265 127.554 144.53 127.999 143.427 127.667C142.324 127.335 140.424 127.881 140.118 128.283C139.812 128.685 139.925 128.844 140.47 128.983C141.016 129.122 142.949 129.947 144.219 129.47C145.489 128.993 147.147 128.975 147.147 128.975L146.265 127.554Z" fill="url(#paint9_linear_331_3076)"/>
<path d="M161.267 112.475C161.267 112.475 159.317 126.333 156.088 127.574C154.496 128.187 147.454 129.575 145.372 129.714C145.372 129.714 144.862 129.3 144.986 127.615C144.986 127.615 152.363 124.907 153.411 123.434C154.971 121.242 152.443 114.48 154.4 112.421C156.357 110.363 159.653 109.479 161.267 112.475Z" fill="#005655"/>
<path d="M161.015 165.871V162.85H165.772C165.9 162.85 166.005 162.745 166.005 162.616V162.133C166.005 162.005 165.901 161.899 165.772 161.899H161.015V144.699C161.015 144.216 160.621 143.821 160.138 143.821H159.197C158.714 143.821 158.319 144.216 158.319 144.699V161.899H153.563C153.435 161.899 153.329 162.005 153.329 162.133V162.616C153.329 162.744 153.435 162.85 153.563 162.85H158.319V165.871C154.878 166.131 152.12 167.37 151.347 168.971H167.989C167.215 167.37 164.458 166.131 161.015 165.871Z" fill="black"/>
<path d="M160.608 141.67C160.039 142.634 159.382 143.539 158.704 144.395C156.608 147.04 154.327 149.222 153.929 151.283C153.85 151.695 153.725 152.137 153.561 152.604C153.395 153.076 153.19 153.573 152.953 154.086C152.064 156.018 150.734 158.182 149.406 160.15C147.111 163.551 144.952 166.389 144.952 166.389L140.994 166.22C141.152 165.823 142.879 161.127 145.189 155.387C146.127 153.058 147.124 150.579 148.086 148.19C148.214 147.87 148.342 147.553 148.469 147.238C148.763 146.506 149.052 145.787 149.336 145.086C151.504 139.697 153.232 135.405 153.232 135.405C153.232 135.405 161.899 132.122 162.799 134.249C163.54 136.004 162.935 137.723 160.608 141.67Z" fill="#03504F"/>
<path d="M144.832 165.67C144.832 165.67 144.629 168.937 143.997 168.984C143.913 168.99 140.792 168.99 140.792 168.99L136.809 168.966C136.809 168.966 136.835 168.007 138 167.803C139.164 167.6 141.114 166.782 141.819 165.242C142.561 163.623 144.832 165.67 144.832 165.67Z" fill="#005655"/>
<path d="M153.993 156.338C153.993 156.338 156.747 158.107 156.479 158.682C156.444 158.758 154.922 161.483 154.922 161.483L152.96 164.951C152.96 164.951 152.135 164.461 152.526 163.345C152.916 162.229 153.152 160.128 152.151 158.762C151.099 157.323 153.993 156.338 153.993 156.338Z" fill="#005655"/>
<path d="M150.272 133.849C150.272 133.849 139.393 140.625 138.178 145.179C136.964 149.734 152.651 159.449 152.651 159.449C152.651 159.449 154.371 157.931 154.674 156.818C154.674 156.818 147.584 148.323 146.045 146.419C145.1 145.25 160.012 142.371 161.834 139.537C163.655 136.704 163.003 134.32 163.003 134.32L150.272 133.849Z" fill="#005655"/>
<path d="M170.806 142.551H148.541C148.095 142.551 147.73 142.915 147.73 143.361V147.814C147.73 148.259 148.095 148.624 148.541 148.624H170.806C171.252 148.624 171.616 148.259 171.616 147.814V143.361C171.615 142.915 171.252 142.551 170.806 142.551Z" fill="#1E6665"/>
<path d="M155.299 110.098C154.23 110.759 153.642 111.6 153.642 111.6C156.248 112.274 160.568 109.859 160.568 109.859C160.568 109.859 158.891 108.731 158.269 106.255C158.238 106.13 158.209 106.002 158.184 105.871C158.103 105.454 158.052 105.002 158.044 104.515L156.847 105.588L154.856 107.371C154.856 107.371 154.901 108.11 155.15 109.384C155.192 109.605 155.242 109.844 155.299 110.098Z" fill="url(#paint10_linear_331_3076)"/>
<path d="M163.317 122.394C162.943 127.416 163.571 135.049 163.148 136.371C162.782 137.512 158.481 136.837 156.819 136.456C156.203 136.315 155.459 136.114 154.689 135.876C152.542 135.211 150.203 134.261 149.952 133.557C149.942 133.53 149.934 133.502 149.928 133.476C149.905 133.373 149.911 133.277 149.933 133.181C150.017 132.821 150.339 132.433 150.377 131.543C150.419 130.55 150.413 129.381 150.45 128.123C150.452 127.981 150.454 127.827 150.469 127.686L150.47 127.635C150.471 127.607 150.471 127.581 150.472 127.554C150.509 126.152 150.582 124.678 150.667 123.215C150.721 122.297 150.783 121.388 150.855 120.516C151.043 118.267 151.295 116.267 151.629 115.002C152.175 112.941 153.378 111.597 154.474 110.611L155.266 109.932C156.15 110.126 157.196 109.997 158.141 109.549C159.164 109.063 159.518 108.715 159.695 108.846C162.057 110.669 163.757 116.256 163.317 122.394Z" fill="#33C177"/>
<path d="M154.704 135.885C152.557 135.22 150.218 134.271 149.967 133.566C149.957 133.539 149.949 133.511 149.943 133.485C149.944 133.386 149.946 133.288 149.948 133.19C150.032 132.83 150.355 132.442 150.392 131.552C150.434 130.56 150.428 129.39 150.465 128.132C150.467 127.991 150.469 127.836 150.485 127.696L150.486 127.644C150.487 127.616 150.487 127.59 150.488 127.564L158.597 123.886C158.597 123.886 159.064 130.422 154.704 135.885Z" fill="#005655"/>
<path d="M154.85 107.372C154.85 107.372 154.895 108.112 155.144 109.385C157.087 108.757 157.97 107.001 158.264 106.256C158.348 106.046 158.384 105.916 158.384 105.916C158.384 105.916 158.309 105.9 158.179 105.872C157.905 105.815 157.391 105.705 156.84 105.589L154.85 107.372Z" fill="#C17170"/>
<path d="M154.071 107.351C154.071 107.351 158.342 107.832 158.601 105.168C158.86 102.503 159.586 100.771 156.869 100.351C154.153 99.9303 153.524 100.896 153.221 101.763C152.919 102.632 152.967 107.156 154.071 107.351Z" fill="url(#paint11_linear_331_3076)"/>
<path d="M158.58 105.353C158.58 105.353 158.309 101.815 154.421 101.45C151.758 101.199 153.243 98.9074 153.527 98.541C153.527 98.541 155.567 98.8205 157.658 99.1664C162.047 99.8924 159.011 104.802 158.58 105.353Z" fill="black"/>
<path d="M134.712 121.237L134.339 121.358L137.519 131.147L137.893 131.026L134.712 121.237Z" fill="#33C177"/>
<path d="M148.331 130.268L137.532 130.499L137.546 131.145L148.345 130.914L148.331 130.268Z" fill="#33C177"/>
<path d="M147.155 129.682C147.155 129.682 145.479 130.316 144.345 130.108C143.212 129.899 141.385 130.651 141.126 131.085C140.866 131.519 140.996 131.665 141.553 131.742C142.111 131.821 144.123 132.426 145.333 131.813C146.544 131.198 148.188 130.998 148.188 130.998L147.155 129.682Z" fill="url(#paint12_linear_331_3076)"/>
<path d="M160.4 113.042C160.4 113.042 159.99 127.03 156.917 128.62C155.402 129.405 148.557 131.56 146.502 131.929C146.502 131.929 145.949 131.574 145.888 129.886C145.888 129.886 152.921 126.381 153.799 124.802C155.108 122.452 151.85 116.008 153.568 113.746C155.287 111.485 158.465 110.242 160.4 113.042Z" fill="#33C177"/>
<mask id="mask0_331_3076" style="mask-type:luminance" maskUnits="userSpaceOnUse" x="72" y="35" width="70" height="81">
<path d="M141.872 35.9727H72.0586V115.663H141.872V35.9727Z" fill="white"/>
</mask>
<g mask="url(#mask0_331_3076)">
<path d="M87.5245 93.5244L86.8151 94.6735C86.4467 95.0966 86.3481 95.3331 86.0569 95.4767C85.3524 95.8236 84.0518 96.7128 83.9531 98.582C83.9531 98.582 83.9756 99.6392 84.684 99.2973C85.3934 98.9543 85.0837 98.9865 86.0911 98.5244C87.0985 98.0622 87.4727 96.5936 87.5607 96.0933L88.3834 95.0135L87.5245 93.5244Z" fill="url(#paint13_linear_331_3076)"/>
<path d="M132.438 76.6922C132.438 76.6922 133.191 74.8493 134.017 74.7741C134.845 74.6989 137.478 74.2855 137.665 74.6617C137.853 75.0379 137.665 76.3912 137.101 76.8808C136.538 77.3693 133.04 78.1598 133.04 78.1598L132.438 76.6922Z" fill="url(#paint14_linear_331_3076)"/>
<path d="M102.917 104.314C103.313 106.535 103.878 108.83 104.368 111.218C105.156 115.058 105.75 119.135 105.142 123.526C105.064 124.092 105.022 124.715 105.013 125.386C104.895 133.147 108.363 147.211 108.363 147.211C108.363 147.211 109.305 147.617 110.883 147.539C111.696 147.499 112.943 146.975 112.943 146.975C112.943 146.975 113.271 138.255 113.29 126.528C113.305 118.027 114.974 106.835 115.311 100.258C115.515 96.2783 115.072 90.9754 115.072 90.9754C115.072 90.9754 108.16 85.4175 105.677 88.261C103.223 91.0702 101.437 96.0047 102.917 104.314Z" fill="#005655"/>
<path d="M105.138 123.526C105.06 124.092 105.018 124.715 105.009 125.386C110.186 117.885 111.331 101.53 111.331 101.53L105.645 104.29C105.645 104.29 105.022 107.357 104.365 111.218C105.152 115.058 105.747 119.135 105.138 123.526Z" fill="#064443"/>
<path d="M94.0358 147.608C94.0358 147.608 95.1527 148.137 95.9559 148.297C96.76 148.458 98.4299 148.144 98.4299 148.144C98.7309 144.767 99.4315 139.487 100.791 133.527C102.339 126.743 104.643 118.726 107.856 111.134C108.542 109.513 111.372 101.838 111.853 99.9023C113.305 94.0503 111.847 94.6805 111.847 94.6805L99.155 93.1914C99.155 93.1914 97.5916 93.9956 96.8714 102.258C96.6565 104.733 96.6291 115.418 96.3047 117.444C95.9969 119.362 95.6373 120.956 95.2142 121.993C92.8574 127.781 94.0358 147.608 94.0358 147.608Z" fill="#005655"/>
<path d="M113.455 55.1873C113.884 51.6863 112.791 46.0835 105.803 46.9795C98.8142 47.8745 96.6128 54.7417 98.0218 57.7953C99.4308 60.8488 95.9933 61.5855 94.9135 64.8686C93.9862 67.6896 93.6628 71.1916 92.1629 72.7638C87.3252 77.8312 96.8072 85.6247 102.523 83.9812C112.935 80.9883 114.276 80.5417 113.906 72.3603C113.716 68.1694 110.456 66.5454 112.526 65.3318C117.528 62.4034 112.485 63.1098 113.455 55.1873Z" fill="#B74B42"/>
<path d="M103.186 64.3513L105.11 69.3258L109.265 69.5281L111.338 66.4326C110.029 65.4378 109.477 63.9458 109.274 62.61C109.108 61.5411 109.154 60.5747 109.201 60.049C109.228 59.7823 109.256 59.6249 109.256 59.6249L104.08 58.0498L104.061 58.041C103.997 59.4139 103.923 60.4916 103.84 61.33C103.544 64.2868 103.186 64.3513 103.186 64.3513Z" fill="url(#paint15_linear_331_3076)"/>
<path d="M111.356 64.1773C111.088 64.1773 106.55 63.2539 98.8867 65.214C98.8867 65.214 103.083 84.4438 101.658 88.0679C100.232 91.6921 99.6899 94.9088 99.6899 94.9088L115.158 95.1003C115.158 95.1003 114.942 82.6605 115.654 78.2576C116.368 73.8547 111.356 64.1773 111.356 64.1773Z" fill="url(#paint16_linear_331_3076)"/>
<path d="M99.1983 79.5391C98.9745 78.8326 98.7175 78.1301 98.4449 77.4099C98.1303 76.5706 96.7115 67.8195 97.7482 66.6391C98.8426 65.3913 102.571 64.4503 102.571 64.4503C103.335 65.6473 105.951 68.6217 109.198 68.0862C110.949 67.797 111.305 64.6497 111.345 64.2266L111.333 64.1787C111.333 64.1787 111.339 64.1797 111.349 64.1807C111.349 64.1797 111.349 64.1787 111.349 64.1787C111.362 64.1816 111.373 64.1836 111.386 64.1865C111.897 64.2618 115.968 64.9243 117.175 67.0036C118.959 70.0727 120.9 79.2821 122.809 79.1463C123.684 79.0838 132.498 75.7703 132.498 75.7703C132.498 75.7703 133.966 77.1461 133.685 78.8336C133.685 78.8336 129.334 81.7474 125.653 83.6069C125.143 83.8648 124.645 84.1023 124.175 84.3084C122.849 84.8908 121.731 85.2279 121.121 85.0843C120.946 85.0432 120.76 84.9641 120.567 84.8517C119.769 84.3905 118.837 83.3782 117.943 82.2232C117.35 81.4552 116.773 80.6256 116.264 79.8527C116.253 79.8361 116.243 79.8205 116.231 79.8039C116.014 82.7313 115.794 85.9178 116.02 88.4143C116.193 90.3138 116.318 94.4275 115.993 95.4906C115.314 97.7058 110.32 98.2911 105.66 98.0605C103.462 97.951 101.911 97.8259 100.781 97.5651C99.1426 97.1889 98.3931 96.5293 97.8538 95.2288C97.3398 93.9898 99.7171 88.1729 99.9438 85.6275C100.154 83.2951 99.7914 81.4025 99.1983 79.5391Z" fill="#33C177"/>
<path d="M102.574 64.4492C102.574 64.4492 98.8948 64.5948 97.1888 66.1826C95.2599 67.9776 92.3882 78.9546 91.6133 84.2995C91.6133 84.2995 87.7195 91.7198 86.4805 94.6638C86.4805 94.6638 86.713 95.0654 87.1772 95.3693C87.6276 95.6634 88.1953 95.7797 88.1953 95.7797C88.1953 95.7797 95.2189 87.9402 95.6811 86.7003C96.1413 85.4623 103.046 74.793 102.574 64.4492Z" fill="#005655"/>
<path d="M97.8596 95.2259C98.399 96.5275 99.1475 97.186 100.787 97.5622C102.978 97.1411 104.422 93.1104 105.167 91.1269C106.024 88.8404 101.558 77.0866 100.326 77.1941C99.4094 77.2732 99.2335 78.7731 99.2042 79.5382C99.7973 81.4016 100.159 83.2943 99.9517 85.6257C99.724 88.1711 97.3457 93.9869 97.8596 95.2259Z" fill="#005655"/>
<path d="M116.269 79.8504C116.778 80.6233 117.354 81.4529 117.948 82.2209C118.799 83.2693 119.74 84.2826 120.572 84.8494C120.765 84.9617 120.951 85.0409 121.126 85.0819C121.737 85.2265 122.854 84.8884 124.18 84.3061C123.391 84.3647 122.615 84.3364 121.853 84.2719C120.518 84.1585 120.129 82.7124 118.019 80.5451C116.757 79.2485 116.373 79.4488 116.269 79.8504Z" fill="#005655"/>
<path d="M104.078 58.0498C104.861 59.3298 106.75 61.9651 109.273 62.61C109.107 61.5411 109.153 60.5747 109.2 60.049C109.228 59.7822 109.256 59.6249 109.256 59.6249L104.078 58.0498Z" fill="#C17170"/>
<path d="M110.613 59.9765C110.613 59.9765 104.389 61.2263 103.67 57.3383C102.951 53.4503 101.664 50.9929 105.608 50.0304C109.552 49.0679 110.6 50.4085 111.156 51.6475C111.711 52.8875 112.213 59.5515 110.613 59.9765Z" fill="url(#paint17_linear_331_3076)"/>
<path d="M102.461 50.2904C103.515 49.1051 105.034 48.8745 106.142 48.8941C105.475 48.084 108.16 46.3106 111.23 49.3367C112.553 50.6402 112.353 53.2032 111.644 54.6894C111.644 54.6894 110.556 51.503 108.575 50.8083C108.135 50.6539 107.716 50.3959 107.331 50.0891C107.09 50.6949 106.604 51.5519 105.629 52.6189C103.582 54.8565 103.981 59.3815 103.981 59.3815C103.981 59.3815 100.62 52.3609 102.461 50.2904Z" fill="#B74B42"/>
<path d="M108.676 58.0659C108.676 58.0659 108.842 58.5271 110.014 58.318C110.014 58.318 110.998 58.1421 110.908 57.6242C110.908 57.6242 109.904 57.3643 108.676 58.0659Z" fill="white"/>
</g>
<path d="M124.855 71.1624H185.143C185.269 71.1624 185.371 71.0608 185.371 70.9347V70.9298C185.371 70.8038 185.269 70.7021 185.143 70.7021H124.855C124.729 70.7021 124.627 70.8038 124.627 70.9298V70.9347C124.627 71.0608 124.729 71.1624 124.855 71.1624Z" fill="#005655"/>
<path d="M175.95 64.2798H146.289C145.578 64.2798 145.004 63.7043 145.004 62.9949V62.9685C145.004 62.2581 145.579 61.6836 146.289 61.6836H175.95C176.661 61.6836 177.235 62.2591 177.235 62.9685V62.9949C177.235 63.7043 176.66 64.2798 175.95 64.2798Z" fill="#005655"/>
<path d="M175.95 68.6773H146.289C145.578 68.6773 145.004 68.1017 145.004 67.3924V67.366C145.004 66.6556 145.579 66.0811 146.289 66.0811H175.95C176.661 66.0811 177.235 66.6566 177.235 67.366V67.3924C177.235 68.1017 176.66 68.6773 175.95 68.6773Z" fill="#005655"/>
<path d="M129.859 95.3255H196.01C196.136 95.3255 196.237 95.2238 196.237 95.0978V95.0929C196.237 94.9669 196.136 94.8652 196.01 94.8652H129.859C129.732 94.8652 129.631 94.9669 129.631 95.0929V95.0978C129.631 95.2238 129.732 95.3255 129.859 95.3255Z" fill="#005655"/>
<path d="M188.852 101.048H165.053C164.343 101.048 163.769 100.473 163.769 99.7634V99.7371C163.769 99.0267 164.344 98.4521 165.053 98.4521H188.852C189.563 98.4521 190.137 99.0277 190.137 99.7371V99.7634C190.137 100.473 189.562 101.048 188.852 101.048Z" fill="#005655"/>
<path d="M188.852 105.443H165.053C164.343 105.443 163.769 104.867 163.769 104.158V104.132C163.769 103.421 164.344 102.847 165.053 102.847H188.852C189.563 102.847 190.137 103.422 190.137 104.132V104.158C190.137 104.867 189.562 105.443 188.852 105.443Z" fill="#005655"/>
<path d="M81.8314 88.3323H23.6622C23.5362 88.3323 23.4346 88.2307 23.4346 88.1046V88.0997C23.4346 87.9737 23.5362 87.8721 23.6622 87.8721H81.8314C81.9574 87.8721 82.059 87.9737 82.059 88.0997V88.1046C82.059 88.2307 81.9574 88.3323 81.8314 88.3323Z" fill="#005655"/>
<path d="M32.8543 81.4517H56.6531C57.3634 81.4517 57.938 80.8762 57.938 80.1668V80.1404C57.938 79.43 57.3625 78.8555 56.6531 78.8555H32.8543C32.1439 78.8555 31.5693 79.431 31.5693 80.1404V80.1668C31.5684 80.8762 32.1439 81.4517 32.8543 81.4517Z" fill="#005655"/>
<path d="M32.8543 85.8462H56.6531C57.3634 85.8462 57.938 85.2707 57.938 84.5613V84.5349C57.938 83.8246 57.3625 83.25 56.6531 83.25H32.8543C32.1439 83.25 31.5693 83.8255 31.5693 84.5349V84.5613C31.5684 85.2707 32.1439 85.8462 32.8543 85.8462Z" fill="#005655"/>
<path d="M202.549 107.066H195.694C193.891 107.066 192.416 105.59 192.416 103.787V98.1415C192.416 96.3387 193.891 94.8633 195.694 94.8633H202.549C204.352 94.8633 205.827 96.3387 205.827 98.1415V103.787C205.827 105.591 204.352 107.066 202.549 107.066Z" fill="#005655"/>
<path d="M203.577 100.114C202.202 99.3872 200.313 98.5205 199.12 98.5205C197.927 98.5205 196.038 99.3872 194.663 100.114C194.348 100.281 194.151 100.607 194.151 100.963C194.151 101.321 194.348 101.646 194.663 101.812C196.038 102.539 197.927 103.406 199.12 103.406C200.313 103.406 202.202 102.539 203.577 101.812C203.892 101.645 204.089 101.32 204.089 100.963C204.088 100.607 203.892 100.28 203.577 100.114ZM201.28 99.6774C201.252 100.845 200.295 101.786 199.12 101.786C197.946 101.786 196.988 100.845 196.96 99.6774C197.742 99.3589 198.544 99.1068 199.12 99.1068C199.697 99.1068 200.499 99.3589 201.28 99.6774ZM203.302 101.295C202.293 101.828 200.263 102.82 199.12 102.82C197.977 102.82 195.947 101.828 194.938 101.295C194.672 101.154 194.672 100.773 194.938 100.632C195.313 100.434 195.829 100.172 196.388 99.9217C196.537 101.297 197.705 102.372 199.12 102.372C200.535 102.372 201.703 101.297 201.852 99.9217C202.411 100.172 202.927 100.434 203.302 100.632C203.569 100.773 203.569 101.154 203.302 101.295Z" fill="white"/>
<path d="M199.117 100.963C199.466 100.963 199.75 100.679 199.75 100.329C199.75 99.9797 199.466 99.6963 199.117 99.6963C198.767 99.6963 198.483 99.9797 198.483 100.329C198.483 100.679 198.767 100.963 199.117 100.963Z" fill="white"/>
<defs>
<linearGradient id="paint0_linear_331_3076" x1="57.4795" y1="162.572" x2="54.4308" y2="162.572" gradientUnits="userSpaceOnUse">
<stop stop-color="#FEBBBA"/>
<stop offset="1" stop-color="#FF928E"/>
</linearGradient>
<linearGradient id="paint1_linear_331_3076" x1="73.1507" y1="162.348" x2="68.4292" y2="162.348" gradientUnits="userSpaceOnUse">
<stop stop-color="#FEBBBA"/>
<stop offset="1" stop-color="#FF928E"/>
</linearGradient>
<linearGradient id="paint2_linear_331_3076" x1="59.9412" y1="104.017" x2="55.7343" y2="104.017" gradientUnits="userSpaceOnUse">
<stop stop-color="#FEBBBA"/>
<stop offset="1" stop-color="#FF928E"/>
</linearGradient>
<linearGradient id="paint3_linear_331_3076" x1="60.8196" y1="99.4857" x2="54.942" y2="99.4857" gradientUnits="userSpaceOnUse">
<stop stop-color="#FEBBBA"/>
<stop offset="1" stop-color="#FF928E"/>
</linearGradient>
<linearGradient id="paint4_linear_331_3076" x1="58.1848" y1="166.515" x2="55.6152" y2="166.515" gradientUnits="userSpaceOnUse">
<stop stop-color="#FEBBBA"/>
<stop offset="1" stop-color="#FF928E"/>
</linearGradient>
<linearGradient id="paint5_linear_331_3076" x1="76.1644" y1="165.737" x2="71.1966" y2="165.737" gradientUnits="userSpaceOnUse">
<stop stop-color="#FEBBBA"/>
<stop offset="1" stop-color="#FF928E"/>
</linearGradient>
<linearGradient id="paint6_linear_331_3076" x1="61.9328" y1="116.921" x2="52.3822" y2="116.921" gradientUnits="userSpaceOnUse">
<stop stop-color="#FEBBBA"/>
<stop offset="1" stop-color="#FF928E"/>
</linearGradient>
<linearGradient id="paint7_linear_331_3076" x1="82.0413" y1="107.496" x2="78.2375" y2="107.496" gradientUnits="userSpaceOnUse">
<stop stop-color="#FEBBBA"/>
<stop offset="1" stop-color="#FF928E"/>
</linearGradient>
<linearGradient id="paint8_linear_331_3076" x1="77.2791" y1="110.98" x2="71.2316" y2="110.98" gradientUnits="userSpaceOnUse">
<stop stop-color="#FEBBBA"/>
<stop offset="1" stop-color="#FF928E"/>
</linearGradient>
<linearGradient id="paint9_linear_331_3076" x1="142.662" y1="128.585" x2="135.466" y2="128.585" gradientUnits="userSpaceOnUse">
<stop stop-color="#FEBBBA"/>
<stop offset="1" stop-color="#FF928E"/>
</linearGradient>
<linearGradient id="paint10_linear_331_3076" x1="156.251" y1="108.117" x2="149.324" y2="108.117" gradientUnits="userSpaceOnUse">
<stop stop-color="#FEBBBA"/>
<stop offset="1" stop-color="#FF928E"/>
</linearGradient>
<linearGradient id="paint11_linear_331_3076" x1="155.256" y1="103.817" x2="149.431" y2="103.817" gradientUnits="userSpaceOnUse">
<stop stop-color="#FEBBBA"/>
<stop offset="1" stop-color="#FF928E"/>
</linearGradient>
<linearGradient id="paint12_linear_331_3076" x1="143.706" y1="130.883" x2="136.515" y2="130.883" gradientUnits="userSpaceOnUse">
<stop stop-color="#FEBBBA"/>
<stop offset="1" stop-color="#FF928E"/>
</linearGradient>
<linearGradient id="paint13_linear_331_3076" x1="85.6221" y1="96.445" x2="81.1917" y2="96.445" gradientUnits="userSpaceOnUse">
<stop stop-color="#FEBBBA"/>
<stop offset="1" stop-color="#FF928E"/>
</linearGradient>
<linearGradient id="paint14_linear_331_3076" x1="134.434" y1="76.3329" x2="129.137" y2="76.3329" gradientUnits="userSpaceOnUse">
<stop stop-color="#FEBBBA"/>
<stop offset="1" stop-color="#FF928E"/>
</linearGradient>
<linearGradient id="paint15_linear_331_3076" x1="106.257" y1="63.7847" x2="98.1043" y2="63.7847" gradientUnits="userSpaceOnUse">
<stop stop-color="#FEBBBA"/>
<stop offset="1" stop-color="#FF928E"/>
</linearGradient>
<linearGradient id="paint16_linear_331_3076" x1="105.23" y1="79.5306" x2="88.3922" y2="79.5306" gradientUnits="userSpaceOnUse">
<stop stop-color="#FEBBBA"/>
<stop offset="1" stop-color="#FF928E"/>
</linearGradient>
<linearGradient id="paint17_linear_331_3076" x1="106.201" y1="54.9352" x2="97.3899" y2="54.9352" gradientUnits="userSpaceOnUse">
<stop stop-color="#FEBBBA"/>
<stop offset="1" stop-color="#FF928E"/>
</linearGradient>
</defs>
</svg>
