<svg width="180" height="241" viewBox="0 0 180 241" fill="none" xmlns="http://www.w3.org/2000/svg">
<path d="M-1.46803 65.1834L-4.34546 63.5007C-4.49809 63.4114 -4.67993 63.3865 -4.85096 63.4313C-5.022 63.4761 -5.16823 63.587 -5.25749 63.7396C-5.34675 63.8923 -5.37172 64.0741 -5.32691 64.2451C-5.2821 64.4162 -5.17117 64.5624 -5.01855 64.6517L-2.14112 66.3344L-3.82382 69.2118C-3.91308 69.3644 -3.93805 69.5463 -3.89324 69.7173C-3.84843 69.8884 -3.73751 70.0346 -3.58488 70.1238C-3.43225 70.2131 -3.25042 70.2381 -3.07938 70.1933C-2.90834 70.1484 -2.76211 70.0375 -2.67285 69.8849L-0.990145 67.0075L1.88729 68.6902C2.03991 68.7794 2.22175 68.8044 2.39279 68.7596C2.56383 68.7148 2.71006 68.6039 2.79931 68.4512C2.88857 68.2986 2.91354 68.1168 2.86873 67.9457C2.82392 67.7747 2.713 67.6285 2.56037 67.5392L-0.317062 65.8565L1.36565 62.9791C1.4549 62.8264 1.47987 62.6446 1.43506 62.4736C1.39025 62.3025 1.27933 62.1563 1.1267 62.067C0.974073 61.9778 0.792239 61.9528 0.6212 61.9976C0.450163 62.0424 0.30393 62.1534 0.214674 62.306L-1.46803 65.1834Z" fill="#E2E8F0"/>
<path d="M14.6863 37.5601L11.8088 35.8774C11.6562 35.7881 11.4744 35.7631 11.3033 35.8079C11.1323 35.8528 10.9861 35.9637 10.8968 36.1163C10.8075 36.2689 10.7826 36.4508 10.8274 36.6218C10.8722 36.7928 10.9831 36.9391 11.1358 37.0283L14.0132 38.711L12.3305 41.5885C12.2412 41.7411 12.2162 41.9229 12.2611 42.094C12.3059 42.265 12.4168 42.4112 12.5694 42.5005C12.722 42.5898 12.9039 42.6147 13.0749 42.5699C13.246 42.5251 13.3922 42.4142 13.4814 42.2616L15.1642 39.3841L18.0416 41.0668C18.1942 41.1561 18.376 41.1811 18.5471 41.1362C18.7181 41.0914 18.8644 40.9805 18.9536 40.8279C19.0429 40.6753 19.0678 40.4934 19.023 40.3224C18.9782 40.1513 18.8673 40.0051 18.7147 39.9159L15.8372 38.2332L17.5199 35.3557C17.6092 35.2031 17.6342 35.0213 17.5894 34.8502C17.5445 34.6792 17.4336 34.533 17.281 34.4437C17.1284 34.3544 16.9465 34.3295 16.7755 34.3743C16.6045 34.4191 16.4582 34.53 16.369 34.6826L14.6863 37.5601Z" fill="#E2E8F0"/>
<path d="M30.8396 9.93674L27.9622 8.25403C27.8095 8.16478 27.6277 8.13981 27.4567 8.18462C27.2856 8.22943 27.1394 8.34035 27.0501 8.49298C26.9609 8.64561 26.9359 8.82744 26.9807 8.99848C27.0255 9.16952 27.1364 9.31575 27.2891 9.405L30.1665 11.0877L28.4838 13.9651C28.3945 14.1178 28.3696 14.2996 28.4144 14.4706C28.4592 14.6417 28.5701 14.7879 28.7227 14.8772C28.8754 14.9664 29.0572 14.9914 29.2282 14.9466C29.3993 14.9018 29.5455 14.7909 29.6348 14.6382L31.3175 11.7608L34.1949 13.4435C34.3475 13.5328 34.5294 13.5577 34.7004 13.5129C34.8714 13.4681 35.0177 13.3572 35.1069 13.2046C35.1962 13.0519 35.2212 12.8701 35.1763 12.6991C35.1315 12.528 35.0206 12.3818 34.868 12.2925L31.9906 10.6098L33.6733 7.73239C33.7625 7.57976 33.7875 7.39793 33.7427 7.22689C33.6979 7.05585 33.5869 6.90962 33.4343 6.82036C33.2817 6.73111 33.0999 6.70614 32.9288 6.75095C32.7578 6.79576 32.6115 6.90668 32.5223 7.05931L30.8396 9.93674Z" fill="#E2E8F0"/>
<path d="M-6.1526 136.584L-9.03003 134.901C-9.18266 134.812 -9.3645 134.787 -9.53553 134.832C-9.70657 134.877 -9.85281 134.988 -9.94206 135.14C-10.0313 135.293 -10.0563 135.475 -10.0115 135.646C-9.96667 135.817 -9.85575 135.963 -9.70312 136.052L-6.82569 137.735L-8.50839 140.612C-8.59765 140.765 -8.62262 140.947 -8.57781 141.118C-8.533 141.289 -8.42208 141.435 -8.26945 141.524C-8.11682 141.614 -7.93499 141.639 -7.76395 141.594C-7.59291 141.549 -7.44668 141.438 -7.35742 141.286L-5.67471 138.408L-2.79728 140.091C-2.64466 140.18 -2.46282 140.205 -2.29178 140.16C-2.12074 140.115 -1.97451 140.005 -1.88526 139.852C-1.796 139.699 -1.77103 139.517 -1.81584 139.346C-1.86065 139.175 -1.97157 139.029 -2.1242 138.94L-5.00163 137.257L-3.31892 134.38C-3.22967 134.227 -3.2047 134.045 -3.24951 133.874C-3.29432 133.703 -3.40524 133.557 -3.55787 133.468C-3.7105 133.378 -3.89233 133.353 -4.06337 133.398C-4.23441 133.443 -4.38064 133.554 -4.4699 133.707L-6.1526 136.584Z" fill="#E2E8F0"/>
<path d="M10.0007 108.961L7.12329 107.278C6.97066 107.189 6.78882 107.164 6.61779 107.209C6.44675 107.253 6.30052 107.364 6.21126 107.517C6.122 107.67 6.09703 107.851 6.14184 108.022C6.18665 108.194 6.29758 108.34 6.4502 108.429L9.32763 110.112L7.64493 112.989C7.55567 113.142 7.5307 113.324 7.57551 113.495C7.62032 113.666 7.73124 113.812 7.88387 113.901C8.0365 113.99 8.21833 114.015 8.38937 113.971C8.56041 113.926 8.70664 113.815 8.7959 113.662L10.4786 110.785L13.356 112.467C13.5087 112.557 13.6905 112.582 13.8615 112.537C14.0326 112.492 14.1788 112.381 14.2681 112.229C14.3573 112.076 14.3823 111.894 14.3375 111.723C14.2927 111.552 14.1817 111.406 14.0291 111.317L11.1517 109.634L12.8344 106.756C12.9237 106.604 12.9486 106.422 12.9038 106.251C12.859 106.08 12.7481 105.934 12.5955 105.844C12.4428 105.755 12.261 105.73 12.09 105.775C11.9189 105.82 11.7727 105.931 11.6834 106.083L10.0007 108.961Z" fill="#E2E8F0"/>
<path d="M26.155 81.3374L23.2776 79.6547C23.125 79.5654 22.9431 79.5405 22.7721 79.5853C22.601 79.6301 22.4548 79.741 22.3656 79.8936C22.2763 80.0463 22.2513 80.2281 22.2961 80.3991C22.341 80.5702 22.4519 80.7164 22.6045 80.8057L25.4819 82.4884L23.7992 85.3658C23.71 85.5184 23.685 85.7003 23.7298 85.8713C23.7746 86.0423 23.8855 86.1886 24.0382 86.2778C24.1908 86.3671 24.3726 86.3921 24.5437 86.3472C24.7147 86.3024 24.8609 86.1915 24.9502 86.0389L26.6329 83.1615L29.5103 84.8442C29.663 84.9334 29.8448 84.9584 30.0158 84.9136C30.1869 84.8688 30.3331 84.7578 30.4224 84.6052C30.5116 84.4526 30.5366 84.2708 30.4918 84.0997C30.447 83.9287 30.336 83.7824 30.1834 83.6932L27.306 82.0105L28.9887 79.1331C29.0779 78.9804 29.1029 78.7986 29.0581 78.6276C29.0133 78.4565 28.9024 78.3103 28.7497 78.221C28.5971 78.1318 28.4153 78.1068 28.2442 78.1516C28.0732 78.1964 27.927 78.3073 27.8377 78.46L26.155 81.3374Z" fill="#E2E8F0"/>
<path d="M42.3093 53.7141L39.4319 52.0314C39.2793 51.9421 39.0974 51.9171 38.9264 51.9619C38.7553 52.0068 38.6091 52.1177 38.5199 52.2703C38.4306 52.4229 38.4056 52.6048 38.4504 52.7758C38.4952 52.9468 38.6062 53.0931 38.7588 53.1823L41.6362 54.865L39.9535 57.7425C39.8643 57.8951 39.8393 58.0769 39.8841 58.248C39.9289 58.419 40.0398 58.5652 40.1925 58.6545C40.3451 58.7438 40.5269 58.7687 40.698 58.7239C40.869 58.6791 41.0152 58.5682 41.1045 58.4156L42.7872 55.5381L45.6646 57.2208C45.8173 57.3101 45.9991 57.3351 46.1701 57.2902C46.3412 57.2454 46.4874 57.1345 46.5767 56.9819C46.6659 56.8293 46.6909 56.6474 46.6461 56.4764C46.6013 56.3053 46.4903 56.1591 46.3377 56.0699L43.4603 54.3871L45.143 51.5097C45.2322 51.3571 45.2572 51.1753 45.2124 51.0042C45.1676 50.8332 45.0567 50.6869 44.904 50.5977C44.7514 50.5084 44.5696 50.4835 44.3985 50.5283C44.2275 50.5731 44.0813 50.684 43.992 50.8366L42.3093 53.7141Z" fill="#0A0A0A"/>
<path d="M58.4626 26.0907L55.5852 24.408C55.4326 24.3188 55.2507 24.2938 55.0797 24.3386C54.9087 24.3834 54.7624 24.4943 54.6732 24.647C54.5839 24.7996 54.5589 24.9814 54.6038 25.1525C54.6486 25.3235 54.7595 25.4697 54.9121 25.559L57.7895 27.2417L56.1068 30.1191C56.0176 30.2718 55.9926 30.4536 56.0374 30.6246C56.0822 30.7957 56.1932 30.9419 56.3458 31.0312C56.4984 31.1204 56.6802 31.1454 56.8513 31.1006C57.0223 31.0558 57.1686 30.9448 57.2578 30.7922L58.9405 27.9148L61.818 29.5975C61.9706 29.6867 62.1524 29.7117 62.3235 29.6669C62.4945 29.6221 62.6407 29.5112 62.73 29.3585C62.8192 29.2059 62.8442 29.0241 62.7994 28.853C62.7546 28.682 62.6437 28.5358 62.491 28.4465L59.6136 26.7638L61.2963 23.8864C61.3856 23.7338 61.4105 23.5519 61.3657 23.3809C61.3209 23.2098 61.21 23.0636 61.0574 22.9744C60.9047 22.8851 60.7229 22.8601 60.5519 22.9049C60.3808 22.9497 60.2346 23.0607 60.1453 23.2133L58.4626 26.0907Z" fill="#E2E8F0"/>
<path d="M5.31712 180.361L2.43969 178.679C2.28706 178.589 2.10523 178.564 1.93419 178.609C1.76315 178.654 1.61692 178.765 1.52767 178.918C1.43841 179.07 1.41344 179.252 1.45825 179.423C1.50306 179.594 1.61398 179.74 1.76661 179.83L4.64404 181.512L2.96133 184.39C2.87208 184.542 2.84711 184.724 2.89192 184.895C2.93673 185.066 3.04765 185.213 3.20028 185.302C3.35291 185.391 3.53474 185.416 3.70578 185.371C3.87682 185.326 4.02305 185.216 4.1123 185.063L5.79501 182.185L8.67244 183.868C8.82507 183.957 9.00691 183.982 9.17794 183.938C9.34898 183.893 9.49521 183.782 9.58447 183.629C9.67373 183.477 9.6987 183.295 9.65389 183.124C9.60907 182.953 9.49815 182.806 9.34553 182.717L6.46809 181.034L8.1508 178.157C8.24006 178.004 8.26503 177.823 8.22022 177.652C8.17541 177.481 8.06449 177.334 7.91186 177.245C7.75923 177.156 7.5774 177.131 7.40636 177.176C7.23532 177.22 7.08909 177.331 6.99983 177.484L5.31712 180.361Z" fill="#E2E8F0"/>
<path d="M21.4714 152.738L18.594 151.055C18.4414 150.966 18.2595 150.941 18.0885 150.986C17.9175 151.031 17.7712 151.142 17.682 151.294C17.5927 151.447 17.5677 151.629 17.6125 151.8C17.6574 151.971 17.7683 152.117 17.9209 152.206L20.7983 153.889L19.1156 156.766C19.0264 156.919 19.0014 157.101 19.0462 157.272C19.091 157.443 19.2019 157.589 19.3546 157.678C19.5072 157.768 19.689 157.793 19.8601 157.748C20.0311 157.703 20.1773 157.592 20.2666 157.44L21.9493 154.562L24.8267 156.245C24.9794 156.334 25.1612 156.359 25.3322 156.314C25.5033 156.269 25.6495 156.158 25.7388 156.006C25.828 155.853 25.853 155.671 25.8082 155.5C25.7634 155.329 25.6525 155.183 25.4998 155.094L22.6224 153.411L24.3051 150.534C24.3944 150.381 24.4193 150.199 24.3745 150.028C24.3297 149.857 24.2188 149.711 24.0662 149.622C23.9135 149.532 23.7317 149.507 23.5607 149.552C23.3896 149.597 23.2434 149.708 23.1541 149.861L21.4714 152.738Z" fill="#E2E8F0"/>
<path d="M37.6247 125.115L34.7473 123.432C34.5947 123.343 34.4128 123.318 34.2418 123.363C34.0708 123.407 33.9245 123.518 33.8353 123.671C33.746 123.824 33.7211 124.005 33.7659 124.176C33.8107 124.347 33.9216 124.494 34.0742 124.583L36.9517 126.266L35.269 129.143C35.1797 129.296 35.1547 129.478 35.1995 129.649C35.2443 129.82 35.3553 129.966 35.5079 130.055C35.6605 130.144 35.8424 130.169 36.0134 130.125C36.1844 130.08 36.3307 129.969 36.4199 129.816L38.1026 126.939L40.9801 128.621C41.1327 128.711 41.3145 128.736 41.4856 128.691C41.6566 128.646 41.8028 128.535 41.8921 128.383C41.9813 128.23 42.0063 128.048 41.9615 127.877C41.9167 127.706 41.8058 127.56 41.6531 127.471L38.7757 125.788L40.4584 122.91C40.5477 122.758 40.5726 122.576 40.5278 122.405C40.483 122.234 40.3721 122.088 40.2195 121.998C40.0668 121.909 39.885 121.884 39.714 121.929C39.5429 121.974 39.3967 122.085 39.3074 122.237L37.6247 125.115Z" fill="#E2E8F0"/>
<path d="M53.779 97.4914L50.9016 95.8087C50.749 95.7194 50.5671 95.6945 50.3961 95.7393C50.2251 95.7841 50.0788 95.895 49.9896 96.0476C49.9003 96.2003 49.8754 96.3821 49.9202 96.5531C49.965 96.7242 50.0759 96.8704 50.2285 96.9597L53.106 98.6424L51.4232 101.52C51.334 101.672 51.309 101.854 51.3538 102.025C51.3986 102.196 51.5096 102.343 51.6622 102.432C51.8148 102.521 51.9967 102.546 52.1677 102.501C52.3387 102.456 52.485 102.346 52.5742 102.193L54.2569 99.3154L57.1344 100.998C57.287 101.087 57.4688 101.112 57.6399 101.068C57.8109 101.023 57.9571 100.912 58.0464 100.759C58.1356 100.607 58.1606 100.425 58.1158 100.254C58.071 100.083 57.9601 99.9364 57.8074 99.8472L54.93 98.1645L56.6127 95.287C56.702 95.1344 56.7269 94.9526 56.6821 94.7815C56.6373 94.6105 56.5264 94.4643 56.3738 94.375C56.2211 94.2858 56.0393 94.2608 55.8683 94.3056C55.6972 94.3504 55.551 94.4613 55.4617 94.614L53.779 97.4914Z" fill="#E2E8F0"/>
<path d="M69.9333 69.8681L67.0559 68.1854C66.9033 68.0961 66.7214 68.0711 66.5504 68.1159C66.3794 68.1607 66.2331 68.2717 66.1439 68.4243C66.0546 68.5769 66.0297 68.7588 66.0745 68.9298C66.1193 69.1008 66.2302 69.2471 66.3828 69.3363L69.2603 71.019L67.5775 73.8965C67.4883 74.0491 67.4633 74.2309 67.5081 74.402C67.5529 74.573 67.6639 74.7192 67.8165 74.8085C67.9691 74.8977 68.151 74.9227 68.322 74.8779C68.493 74.8331 68.6393 74.7222 68.7285 74.5695L70.4112 71.6921L73.2887 73.3748C73.4413 73.4641 73.6231 73.489 73.7942 73.4442C73.9652 73.3994 74.1114 73.2885 74.2007 73.1359C74.2899 72.9832 74.3149 72.8014 74.2701 72.6304C74.2253 72.4593 74.1144 72.3131 73.9617 72.2238L71.0843 70.5411L72.767 67.6637C72.8563 67.5111 72.8812 67.3292 72.8364 67.1582C72.7916 66.9872 72.6807 66.8409 72.5281 66.7517C72.3754 66.6624 72.1936 66.6375 72.0226 66.6823C71.8515 66.7271 71.7053 66.838 71.616 66.9906L69.9333 69.8681Z" fill="#E2E8F0"/>
<path d="M86.0867 42.2447L83.2092 40.562C83.0566 40.4728 82.8748 40.4478 82.7037 40.4926C82.5327 40.5374 82.3865 40.6483 82.2972 40.801C82.2079 40.9536 82.183 41.1354 82.2278 41.3065C82.2726 41.4775 82.3835 41.6237 82.5361 41.713L85.4136 43.3957L83.7309 46.2731C83.6416 46.4258 83.6166 46.6076 83.6614 46.7786C83.7063 46.9497 83.8172 47.0959 83.9698 47.1852C84.1224 47.2744 84.3043 47.2994 84.4753 47.2546C84.6463 47.2098 84.7926 47.0988 84.8818 46.9462L86.5645 44.0688L89.442 45.7515C89.5946 45.8407 89.7764 45.8657 89.9475 45.8209C90.1185 45.7761 90.2647 45.6652 90.354 45.5125C90.4433 45.3599 90.4682 45.1781 90.4234 45.007C90.3786 44.836 90.2677 44.6898 90.1151 44.6005L87.2376 42.9178L88.9203 40.0404C89.0096 39.8877 89.0346 39.7059 88.9897 39.5349C88.9449 39.3638 88.834 39.2176 88.6814 39.1283C88.5288 39.0391 88.3469 39.0141 88.1759 39.0589C88.0049 39.1037 87.8586 39.2147 87.7694 39.3673L86.0867 42.2447Z" fill="#E2E8F0"/>
<path d="M32.9402 196.515L30.0627 194.833C29.9101 194.743 29.7283 194.718 29.5572 194.763C29.3862 194.808 29.24 194.919 29.1507 195.072C29.0615 195.224 29.0365 195.406 29.0813 195.577C29.1261 195.748 29.237 195.894 29.3897 195.984L32.2671 197.666L30.5844 200.544C30.4951 200.696 30.4702 200.878 30.515 201.049C30.5598 201.22 30.6707 201.367 30.8233 201.456C30.976 201.545 31.1578 201.57 31.3288 201.525C31.4999 201.48 31.6461 201.369 31.7354 201.217L33.4181 198.339L36.2955 200.022C36.4481 200.111 36.63 200.136 36.801 200.092C36.972 200.047 37.1183 199.936 37.2075 199.783C37.2968 199.631 37.3217 199.449 37.2769 199.278C37.2321 199.107 37.1212 198.96 36.9686 198.871L34.0911 197.188L35.7738 194.311C35.8631 194.158 35.8881 193.977 35.8433 193.806C35.7985 193.634 35.6875 193.488 35.5349 193.399C35.3823 193.31 35.2004 193.285 35.0294 193.33C34.8584 193.374 34.7121 193.485 34.6229 193.638L32.9402 196.515Z" fill="#E2E8F0"/>
<path d="M49.0945 168.892L46.217 167.209C46.0644 167.12 45.8826 167.095 45.7115 167.14C45.5405 167.185 45.3943 167.296 45.305 167.448C45.2158 167.601 45.1908 167.783 45.2356 167.954C45.2804 168.125 45.3913 168.271 45.544 168.36L48.4214 170.043L46.7387 172.92C46.6494 173.073 46.6245 173.255 46.6693 173.426C46.7141 173.597 46.825 173.743 46.9776 173.832C47.1302 173.922 47.3121 173.947 47.4831 173.902C47.6542 173.857 47.8004 173.746 47.8896 173.594L49.5724 170.716L52.4498 172.399C52.6024 172.488 52.7842 172.513 52.9553 172.468C53.1263 172.423 53.2726 172.312 53.3618 172.16C53.4511 172.007 53.476 171.825 53.4312 171.654C53.3864 171.483 53.2755 171.337 53.1229 171.248L50.2454 169.565L51.9281 166.688C52.0174 166.535 52.0424 166.353 51.9976 166.182C51.9528 166.011 51.8418 165.865 51.6892 165.776C51.5366 165.686 51.3547 165.661 51.1837 165.706C51.0127 165.751 50.8664 165.862 50.7772 166.015L49.0945 168.892Z" fill="#0A0A0A"/>
<path d="M65.2478 141.269L62.3704 139.586C62.2177 139.497 62.0359 139.472 61.8649 139.517C61.6938 139.561 61.5476 139.672 61.4583 139.825C61.3691 139.978 61.3441 140.159 61.3889 140.33C61.4337 140.501 61.5446 140.648 61.6973 140.737L64.5747 142.42L62.892 145.297C62.8027 145.45 62.7778 145.632 62.8226 145.803C62.8674 145.974 62.9783 146.12 63.1309 146.209C63.2836 146.298 63.4654 146.323 63.6364 146.279C63.8075 146.234 63.9537 146.123 64.043 145.97L65.7257 143.093L68.6031 144.775C68.7557 144.865 68.9376 144.89 69.1086 144.845C69.2796 144.8 69.4259 144.689 69.5151 144.537C69.6044 144.384 69.6294 144.202 69.5845 144.031C69.5397 143.86 69.4288 143.714 69.2762 143.624L66.3988 141.942L68.0815 139.064C68.1707 138.912 68.1957 138.73 68.1509 138.559C68.1061 138.388 67.9952 138.242 67.8425 138.152C67.6899 138.063 67.5081 138.038 67.337 138.083C67.166 138.128 67.0198 138.239 66.9305 138.391L65.2478 141.269Z" fill="#E2E8F0"/>
<path d="M81.4021 113.645L78.5247 111.963C78.372 111.873 78.1902 111.848 78.0192 111.893C77.8481 111.938 77.7019 112.049 77.6126 112.202C77.5234 112.354 77.4984 112.536 77.5432 112.707C77.588 112.878 77.6989 113.024 77.8516 113.114L80.729 114.796L79.0463 117.674C78.957 117.826 78.9321 118.008 78.9769 118.179C79.0217 118.35 79.1326 118.497 79.2852 118.586C79.4379 118.675 79.6197 118.7 79.7907 118.655C79.9618 118.61 80.108 118.499 80.1973 118.347L81.88 115.469L84.7574 117.152C84.91 117.241 85.0919 117.266 85.2629 117.222C85.4339 117.177 85.5802 117.066 85.6694 116.913C85.7587 116.761 85.7837 116.579 85.7388 116.408C85.694 116.237 85.5831 116.09 85.4305 116.001L82.5531 114.318L84.2358 111.441C84.325 111.288 84.35 111.107 84.3052 110.936C84.2604 110.764 84.1494 110.618 83.9968 110.529C83.8442 110.44 83.6624 110.415 83.4913 110.46C83.3203 110.504 83.174 110.615 83.0848 110.768L81.4021 113.645Z" fill="#E2E8F0"/>
<path d="M97.5564 86.022L94.679 84.3393C94.5263 84.2501 94.3445 84.2251 94.1734 84.2699C94.0024 84.3147 93.8562 84.4257 93.7669 84.5783C93.6777 84.7309 93.6527 84.9127 93.6975 85.0838C93.7423 85.2548 93.8532 85.4011 94.0059 85.4903L96.8833 87.173L95.2006 90.0505C95.1113 90.2031 95.0864 90.3849 95.1312 90.556C95.176 90.727 95.2869 90.8732 95.4395 90.9625C95.5922 91.0517 95.774 91.0767 95.945 91.0319C96.1161 90.9871 96.2623 90.8762 96.3516 90.7235L98.0343 87.8461L100.912 89.5288C101.064 89.6181 101.246 89.643 101.417 89.5982C101.588 89.5534 101.734 89.4425 101.824 89.2899C101.913 89.1372 101.938 88.9554 101.893 88.7844C101.848 88.6133 101.737 88.4671 101.585 88.3778L98.7074 86.6951L100.39 83.8177C100.479 83.6651 100.504 83.4832 100.459 83.3122C100.415 83.1412 100.304 82.9949 100.151 82.9057C99.9985 82.8164 99.8167 82.7914 99.6456 82.8363C99.4746 82.8811 99.3283 82.992 99.2391 83.1446L97.5564 86.022Z" fill="#E2E8F0"/>
<path d="M113.71 58.3987L110.832 56.716C110.68 56.6267 110.498 56.6018 110.327 56.6466C110.156 56.6914 110.009 56.8023 109.92 56.955C109.831 57.1076 109.806 57.2894 109.851 57.4605C109.896 57.6315 110.007 57.7777 110.159 57.867L113.037 59.5497L111.354 62.4271C111.265 62.5797 111.24 62.7616 111.284 62.9326C111.329 63.1037 111.44 63.2499 111.593 63.3391C111.745 63.4284 111.927 63.4534 112.098 63.4086C112.269 63.3637 112.416 63.2528 112.505 63.1002L114.188 60.2228L117.065 61.9055C117.218 61.9947 117.399 62.0197 117.571 61.9749C117.742 61.9301 117.888 61.8192 117.977 61.6665C118.066 61.5139 118.091 61.3321 118.046 61.161C118.002 60.99 117.891 60.8438 117.738 60.7545L114.861 59.0718L116.543 56.1944C116.633 56.0417 116.658 55.8599 116.613 55.6889C116.568 55.5178 116.457 55.3716 116.304 55.2823C116.152 55.1931 115.97 55.1681 115.799 55.2129C115.628 55.2577 115.482 55.3687 115.392 55.5213L113.71 58.3987Z" fill="#777C99"/>
<path d="M60.5632 212.669L57.6858 210.987C57.5332 210.897 57.3513 210.872 57.1803 210.917C57.0092 210.962 56.863 211.073 56.7738 211.226C56.6845 211.378 56.6595 211.56 56.7043 211.731C56.7492 211.902 56.8601 212.048 57.0127 212.138L59.8901 213.82L58.2074 216.698C58.1182 216.85 58.0932 217.032 58.138 217.203C58.1828 217.374 58.2937 217.521 58.4464 217.61C58.599 217.699 58.7808 217.724 58.9519 217.679C59.1229 217.634 59.2691 217.523 59.3584 217.371L61.0411 214.493L63.9185 216.176C64.0712 216.265 64.253 216.29 64.424 216.246C64.5951 216.201 64.7413 216.09 64.8306 215.937C64.9198 215.785 64.9448 215.603 64.9 215.432C64.8552 215.261 64.7442 215.114 64.5916 215.025L61.7142 213.342L63.3969 210.465C63.4862 210.312 63.5111 210.131 63.4663 209.96C63.4215 209.788 63.3106 209.642 63.158 209.553C63.0053 209.464 62.8235 209.439 62.6525 209.484C62.4814 209.528 62.3352 209.639 62.2459 209.792L60.5632 212.669Z" fill="#0A0A0A"/>
<path d="M76.7175 185.046L73.8401 183.363C73.6875 183.274 73.5056 183.249 73.3346 183.294C73.1635 183.339 73.0173 183.45 72.9281 183.602C72.8388 183.755 72.8138 183.937 72.8586 184.108C72.9035 184.279 73.0144 184.425 73.167 184.514L76.0444 186.197L74.3617 189.074C74.2725 189.227 74.2475 189.409 74.2923 189.58C74.3371 189.751 74.448 189.897 74.6007 189.986C74.7533 190.076 74.9351 190.101 75.1062 190.056C75.2772 190.011 75.4234 189.9 75.5127 189.748L77.1954 186.87L80.0728 188.553C80.2255 188.642 80.4073 188.667 80.5783 188.622C80.7494 188.577 80.8956 188.466 80.9849 188.314C81.0741 188.161 81.0991 187.979 81.0543 187.808C81.0095 187.637 80.8985 187.491 80.7459 187.402L77.8685 185.719L79.5512 182.842C79.6404 182.689 79.6654 182.507 79.6206 182.336C79.5758 182.165 79.4649 182.019 79.3122 181.93C79.1596 181.84 78.9778 181.815 78.8067 181.86C78.6357 181.905 78.4895 182.016 78.4002 182.169L76.7175 185.046Z" fill="#E2E8F0"/>
<path d="M92.8708 157.423L89.9934 155.74C89.8408 155.651 89.6589 155.626 89.4879 155.671C89.3169 155.715 89.1706 155.826 89.0814 155.979C88.9921 156.132 88.9672 156.313 89.012 156.484C89.0568 156.655 89.1677 156.802 89.3203 156.891L92.1978 158.574L90.515 161.451C90.4258 161.604 90.4008 161.786 90.4456 161.957C90.4904 162.128 90.6014 162.274 90.754 162.363C90.9066 162.452 91.0885 162.477 91.2595 162.433C91.4305 162.388 91.5768 162.277 91.666 162.124L93.3487 159.247L96.2262 160.929C96.3788 161.019 96.5606 161.044 96.7317 160.999C96.9027 160.954 97.0489 160.843 97.1382 160.691C97.2274 160.538 97.2524 160.356 97.2076 160.185C97.1628 160.014 97.0519 159.868 96.8992 159.778L94.0218 158.096L95.7045 155.218C95.7938 155.066 95.8187 154.884 95.7739 154.713C95.7291 154.542 95.6182 154.396 95.4656 154.306C95.3129 154.217 95.1311 154.192 94.9601 154.237C94.789 154.282 94.6428 154.393 94.5535 154.545L92.8708 157.423Z" fill="#E2E8F0"/>
<path d="M109.025 129.799L106.148 128.117C105.995 128.027 105.813 128.002 105.642 128.047C105.471 128.092 105.325 128.203 105.236 128.356C105.146 128.508 105.121 128.69 105.166 128.861C105.211 129.032 105.322 129.178 105.475 129.268L108.352 130.95L106.669 133.828C106.58 133.98 106.555 134.162 106.6 134.333C106.645 134.504 106.756 134.651 106.908 134.74C107.061 134.829 107.243 134.854 107.414 134.809C107.585 134.764 107.731 134.653 107.82 134.501L109.503 131.623L112.38 133.306C112.533 133.395 112.715 133.42 112.886 133.376C113.057 133.331 113.203 133.22 113.292 133.067C113.382 132.915 113.407 132.733 113.362 132.562C113.317 132.391 113.206 132.244 113.054 132.155L110.176 130.472L111.859 127.595C111.948 127.442 111.973 127.261 111.928 127.09C111.883 126.918 111.772 126.772 111.62 126.683C111.467 126.594 111.285 126.569 111.114 126.614C110.943 126.658 110.797 126.769 110.708 126.922L109.025 129.799Z" fill="#E2E8F0"/>
<path d="M125.179 102.176L122.302 100.493C122.149 100.404 121.968 100.379 121.796 100.424C121.625 100.469 121.479 100.58 121.39 100.732C121.301 100.885 121.276 101.067 121.321 101.238C121.365 101.409 121.476 101.555 121.629 101.644L124.506 103.327L122.824 106.204C122.734 106.357 122.709 106.539 122.754 106.71C122.799 106.881 122.91 107.027 123.063 107.116C123.215 107.206 123.397 107.231 123.568 107.186C123.739 107.141 123.885 107.03 123.975 106.878L125.657 104L128.535 105.683C128.687 105.772 128.869 105.797 129.04 105.752C129.211 105.707 129.358 105.596 129.447 105.444C129.536 105.291 129.561 105.109 129.516 104.938C129.471 104.767 129.36 104.621 129.208 104.532L126.33 102.849L128.013 99.9717C128.102 99.8191 128.127 99.6372 128.083 99.4662C128.038 99.2952 127.927 99.1489 127.774 99.0597C127.622 98.9704 127.44 98.9454 127.269 98.9903C127.098 99.0351 126.951 99.146 126.862 99.2986L125.179 102.176Z" fill="#E2E8F0"/>
<path d="M141.333 74.5527L138.455 72.87C138.303 72.7807 138.121 72.7558 137.95 72.8006C137.779 72.8454 137.633 72.9563 137.543 73.1089C137.454 73.2616 137.429 73.4434 137.474 73.6144C137.519 73.7855 137.63 73.9317 137.782 74.021L140.66 75.7037L138.977 78.5811C138.888 78.7337 138.863 78.9156 138.908 79.0866C138.952 79.2576 139.063 79.4039 139.216 79.4931C139.369 79.5824 139.55 79.6074 139.721 79.5625C139.892 79.5177 140.039 79.4068 140.128 79.2542L141.811 76.3768L144.688 78.0595C144.841 78.1487 145.023 78.1737 145.194 78.1289C145.365 78.0841 145.511 77.9732 145.6 77.8205C145.689 77.6679 145.714 77.4861 145.67 77.315C145.625 77.144 145.514 76.9978 145.361 76.9085L142.484 75.2258L144.166 72.3484C144.256 72.1957 144.281 72.0139 144.236 71.8429C144.191 71.6718 144.08 71.5256 143.927 71.4363C143.775 71.3471 143.593 71.3221 143.422 71.3669C143.251 71.4117 143.105 71.5226 143.015 71.6753L141.333 74.5527Z" fill="#E2E8F0"/>
<path d="M88.1863 228.823L85.3088 227.141C85.1562 227.051 84.9744 227.026 84.8033 227.071C84.6323 227.116 84.4861 227.227 84.3968 227.38C84.3075 227.532 84.2826 227.714 84.3274 227.885C84.3722 228.056 84.4831 228.202 84.6358 228.292L87.5132 229.974L85.8305 232.852C85.7412 233.004 85.7162 233.186 85.7611 233.357C85.8059 233.528 85.9168 233.675 86.0694 233.764C86.222 233.853 86.4039 233.878 86.5749 233.833C86.746 233.788 86.8922 233.677 86.9814 233.525L88.6642 230.647L91.5416 232.33C91.6942 232.419 91.876 232.444 92.0471 232.4C92.2181 232.355 92.3644 232.244 92.4536 232.091C92.5429 231.939 92.5678 231.757 92.523 231.586C92.4782 231.415 92.3673 231.268 92.2147 231.179L89.3372 229.496L91.0199 226.619C91.1092 226.466 91.1342 226.285 91.0894 226.114C91.0445 225.942 90.9336 225.796 90.781 225.707C90.6284 225.618 90.4465 225.593 90.2755 225.638C90.1045 225.682 89.9582 225.793 89.869 225.946L88.1863 228.823Z" fill="#E2E8F0"/>
<path d="M104.341 201.2L101.463 199.517C101.311 199.428 101.129 199.403 100.958 199.448C100.787 199.493 100.64 199.604 100.551 199.756C100.462 199.909 100.437 200.091 100.482 200.262C100.526 200.433 100.637 200.579 100.79 200.668L103.667 202.351L101.985 205.228C101.896 205.381 101.871 205.563 101.915 205.734C101.96 205.905 102.071 206.051 102.224 206.14C102.376 206.23 102.558 206.255 102.729 206.21C102.9 206.165 103.046 206.054 103.136 205.901L104.818 203.024L107.696 204.707C107.849 204.796 108.03 204.821 108.201 204.776C108.372 204.731 108.519 204.62 108.608 204.468C108.697 204.315 108.722 204.133 108.677 203.962C108.633 203.791 108.522 203.645 108.369 203.556L105.492 201.873L107.174 198.996C107.263 198.843 107.288 198.661 107.244 198.49C107.199 198.319 107.088 198.173 106.935 198.084C106.783 197.994 106.601 197.969 106.43 198.014C106.259 198.059 106.113 198.17 106.023 198.323L104.341 201.2Z" fill="#E2E8F0"/>
<path d="M120.494 173.577L117.616 171.894C117.464 171.805 117.282 171.78 117.111 171.825C116.94 171.869 116.794 171.98 116.704 172.133C116.615 172.286 116.59 172.467 116.635 172.638C116.68 172.809 116.791 172.956 116.943 173.045L119.821 174.728L118.138 177.605C118.049 177.758 118.024 177.94 118.069 178.111C118.113 178.282 118.224 178.428 118.377 178.517C118.53 178.606 118.711 178.631 118.883 178.587C119.054 178.542 119.2 178.431 119.289 178.278L120.972 175.401L123.849 177.083C124.002 177.173 124.184 177.198 124.355 177.153C124.526 177.108 124.672 176.997 124.761 176.845C124.85 176.692 124.875 176.51 124.831 176.339C124.786 176.168 124.675 176.022 124.522 175.932L121.645 174.25L123.328 171.372C123.417 171.22 123.442 171.038 123.397 170.867C123.352 170.696 123.241 170.55 123.089 170.46C122.936 170.371 122.754 170.346 122.583 170.391C122.412 170.436 122.266 170.547 122.177 170.699L120.494 173.577Z" fill="#0A0A0A"/>
<path d="M136.648 145.953L133.771 144.271C133.618 144.181 133.436 144.156 133.265 144.201C133.094 144.246 132.948 144.357 132.859 144.51C132.769 144.662 132.744 144.844 132.789 145.015C132.834 145.186 132.945 145.332 133.098 145.422L135.975 147.104L134.292 149.982C134.203 150.134 134.178 150.316 134.223 150.487C134.268 150.658 134.379 150.805 134.531 150.894C134.684 150.983 134.866 151.008 135.037 150.963C135.208 150.918 135.354 150.807 135.443 150.655L137.126 147.777L140.003 149.46C140.156 149.549 140.338 149.574 140.509 149.53C140.68 149.485 140.826 149.374 140.916 149.221C141.005 149.069 141.03 148.887 140.985 148.716C140.94 148.545 140.829 148.398 140.677 148.309L137.799 146.626L139.482 143.749C139.571 143.596 139.596 143.415 139.551 143.244C139.506 143.072 139.396 142.926 139.243 142.837C139.09 142.748 138.908 142.723 138.737 142.768C138.566 142.812 138.42 142.923 138.331 143.076L136.648 145.953Z" fill="#E2E8F0"/>
<path d="M152.802 118.33L149.925 116.647C149.772 116.558 149.591 116.533 149.42 116.578C149.249 116.623 149.102 116.734 149.013 116.886C148.924 117.039 148.899 117.221 148.944 117.392C148.988 117.563 149.099 117.709 149.252 117.798L152.129 119.481L150.447 122.358C150.357 122.511 150.332 122.693 150.377 122.864C150.422 123.035 150.533 123.181 150.686 123.27C150.838 123.36 151.02 123.385 151.191 123.34C151.362 123.295 151.508 123.184 151.598 123.032L153.28 120.154L156.158 121.837C156.31 121.926 156.492 121.951 156.663 121.906C156.834 121.861 156.981 121.75 157.07 121.598C157.159 121.445 157.184 121.263 157.139 121.092C157.094 120.921 156.984 120.775 156.831 120.686L153.953 119.003L155.636 116.126C155.725 115.973 155.75 115.791 155.706 115.62C155.661 115.449 155.55 115.303 155.397 115.214C155.245 115.124 155.063 115.099 154.892 115.144C154.721 115.189 154.574 115.3 154.485 115.453L152.802 118.33Z" fill="#E2E8F0"/>
<path d="M168.956 90.7067L166.078 89.024C165.926 88.9347 165.744 88.9097 165.573 88.9546C165.402 88.9994 165.256 89.1103 165.166 89.2629C165.077 89.4155 165.052 89.5974 165.097 89.7684C165.142 89.9395 165.253 90.0857 165.405 90.1749L168.283 91.8577L166.6 94.7351C166.511 94.8877 166.486 95.0695 166.531 95.2406C166.575 95.4116 166.686 95.5579 166.839 95.6471C166.992 95.7364 167.173 95.7613 167.344 95.7165C167.515 95.6717 167.662 95.5608 167.751 95.4082L169.434 92.5307L172.311 94.2134C172.464 94.3027 172.646 94.3277 172.817 94.2829C172.988 94.238 173.134 94.1271 173.223 93.9745C173.312 93.8219 173.337 93.64 173.293 93.469C173.248 93.298 173.137 93.1517 172.984 93.0625L170.107 91.3798L171.789 88.5023C171.879 88.3497 171.904 88.1679 171.859 87.9968C171.814 87.8258 171.703 87.6796 171.551 87.5903C171.398 87.501 171.216 87.4761 171.045 87.5209C170.874 87.5657 170.728 87.6766 170.639 87.8293L168.956 90.7067Z" fill="#E2E8F0"/>
</svg>
