<svg width="140" height="40" viewBox="0 0 140 40" fill="none" xmlns="http://www.w3.org/2000/svg">
<g clip-path="url(#clip0_521_28950)">
<path d="M15.0558 22.5826H4.84761V33.4212H0V6.67773H4.84761V17.882H15.0558V6.67773H19.9024V33.4212H15.0558V22.5826Z" fill="#213343"/>
<path d="M35.4134 24.7777C35.4134 27.0051 33.6133 28.8174 31.4039 28.8174C29.1939 28.8174 27.3949 27.0051 27.3949 24.7777V13.3232H22.8047V24.7777C22.8047 29.5566 26.6624 33.4438 31.4039 33.4438C36.1445 33.4438 40.0022 29.5566 40.0022 24.7777V13.3232H35.4134V24.7777Z" fill="#213343"/>
<path d="M69.4745 14.5021C69.4745 12.1536 71.0168 11.4089 72.7052 11.4089C74.0648 11.4089 75.8639 12.4518 77.0377 13.7191L80.048 10.1425C78.5437 8.09395 75.4964 6.67773 72.9994 6.67773C68.0048 6.67773 64.4062 9.62121 64.4062 14.5021C64.4062 23.555 75.3862 20.6854 75.3862 25.7535C75.3862 27.3164 73.8812 28.6962 72.1559 28.6962C69.4377 28.6962 68.556 27.3549 67.308 25.939L63.9658 29.4404C66.0968 32.0857 68.7399 33.4278 71.8981 33.4278C76.635 33.4278 80.4541 30.4471 80.4541 25.7894C80.4541 15.7307 69.4745 18.8606 69.4745 14.5021Z" fill="#213343"/>
<path d="M137.401 29.1496C134.685 29.1496 133.914 27.9659 133.914 26.1516V18.1207H138.136V14.0499H133.914V8.68262L129.252 10.792V27.1512C129.252 31.3338 132.115 33.4439 136.043 33.4439C136.63 33.4439 137.439 33.4056 137.88 33.2959L139.018 29.0769C138.505 29.1127 137.917 29.1496 137.401 29.1496Z" fill="#213343"/>
<path d="M52.9103 13.4581C50.6334 13.4581 49.0441 14.1243 47.5093 15.6427V6.83887H42.9043V23.1551C42.9043 29.2621 47.2849 33.4447 52.2071 33.4447C57.6786 33.4447 62.4727 29.1877 62.4727 23.4518C62.4727 17.7886 58.0519 13.4581 52.9103 13.4581ZM52.8817 28.7735C49.9969 28.7735 47.6586 26.4166 47.6586 23.5092C47.6586 20.6019 49.9969 18.2449 52.8817 18.2449C55.7661 18.2449 58.1045 20.6019 58.1045 23.5092C58.1045 26.4166 55.7661 28.7735 52.8817 28.7735Z" fill="#213343"/>
<path d="M102.904 23.2097C102.904 17.4738 98.1102 13.2168 92.6387 13.2168C87.7166 13.2168 83.3359 17.3994 83.3359 23.5065V39.8227H87.9409V31.0188C89.4758 32.5372 91.065 33.2034 93.3419 33.2034C98.4836 33.2034 102.904 28.8729 102.904 23.2097ZM98.5362 23.1523C98.5362 26.0597 96.1977 28.4166 93.3133 28.4166C90.4285 28.4166 88.0903 26.0597 88.0903 23.1523C88.0903 20.2449 90.4285 17.8881 93.3133 17.8881C96.1977 17.8881 98.5362 20.2449 98.5362 23.1523Z" fill="#213343"/>
<path d="M117.784 12.9923V8.33005C118.992 7.75515 119.838 6.52402 119.838 5.09519V4.98746C119.838 3.01573 118.237 1.40244 116.281 1.40244H116.174C114.218 1.40244 112.617 3.01573 112.617 4.98746V5.09519C112.617 6.52402 113.463 7.75532 114.67 8.33014V12.9924C112.873 13.2723 111.23 14.0196 109.875 15.1194L97.1747 5.16154C97.2582 4.83726 97.3169 4.50315 97.3172 4.15255C97.3201 1.91919 95.5262 0.106407 93.3103 0.103519C91.0944 0.100726 89.2958 1.90892 89.293 4.14227C89.2903 6.37563 91.0842 8.18841 93.3001 8.19121C94.0223 8.19211 94.6906 7.98539 95.2765 7.64957L107.77 17.4453C106.707 19.0617 106.085 20.998 106.085 23.0824C106.085 25.2647 106.769 27.283 107.925 28.9434L104.125 32.7729C103.825 32.6821 103.513 32.6185 103.183 32.6185C101.363 32.6185 99.8865 34.1063 99.8865 35.9416C99.8865 37.7768 101.363 39.2646 103.183 39.2646C105.004 39.2646 106.48 37.7768 106.48 35.9416C106.48 35.6093 106.417 35.2949 106.327 34.9922L110.085 31.2042C111.791 32.5169 113.916 33.3052 116.228 33.3052C121.829 33.3052 126.37 28.7283 126.37 23.0824C126.37 17.9714 122.645 13.7489 117.784 12.9923ZM116.228 28.3235C113.356 28.3235 111.027 25.977 111.027 23.0824C111.027 20.1878 113.356 17.8412 116.228 17.8412C119.099 17.8412 121.428 20.1878 121.428 23.0824C121.428 25.977 119.099 28.3235 116.228 28.3235Z" fill="#FF5C35"/>
</g>
<defs>
<clipPath id="clip0_521_28950">
<rect width="139.018" height="39.7195" fill="white" transform="translate(0 0.104492)"/>
</clipPath>
</defs>
</svg>
