<svg width="172" height="49" viewBox="0 0 172 49" fill="none" xmlns="http://www.w3.org/2000/svg">
<path d="M63.4525 33.9424C62.17 33.9424 60.9684 33.7161 59.8343 33.2635C58.7003 32.8109 57.7282 32.1853 56.9182 31.4132C56.1081 30.6278 55.4736 29.696 55.0145 28.6045C54.5555 27.5129 54.3125 26.3548 54.3125 25.1168C54.3125 23.8788 54.542 22.7074 55.0145 21.6292C55.4736 20.5376 56.1216 19.6058 56.9182 18.8204C57.7282 18.035 58.7003 17.4227 59.8343 16.9701C60.9684 16.5175 62.17 16.2912 63.4525 16.2912C65.0591 16.2912 66.5307 16.6373 67.8673 17.3162C69.2039 17.9951 70.2839 18.9402 71.1075 20.1383L67.7458 22.1883C67.2733 21.5094 66.6657 20.9636 65.9097 20.5776C65.1536 20.1782 64.3436 19.9919 63.466 19.9919C61.9944 19.9919 60.7659 20.4844 59.7803 21.4561C58.7948 22.4279 58.2952 23.6525 58.2952 25.1301C58.2952 26.6077 58.7948 27.8324 59.7803 28.8041C60.7659 29.7759 61.9944 30.2684 63.466 30.2684C64.3571 30.2684 65.1671 30.0687 65.9232 29.6827C66.6657 29.2967 67.2733 28.7509 67.7593 28.072L71.121 30.122C70.2974 31.32 69.2174 32.2651 67.8808 32.944C66.5307 33.5963 65.0591 33.9424 63.4525 33.9424Z" fill="white"/>
<path d="M73.2949 33.6362V15.8386H76.9536V33.6362H73.2949Z" fill="white"/>
<path d="M80.1133 33.6362V21.0435H83.772V33.6362H80.1133Z" fill="white"/>
<path d="M94.4631 20.7373C95.9347 20.7373 97.1093 21.1766 98.0138 22.0418C98.9049 22.9204 99.3639 24.0785 99.3639 25.5295V33.6362H95.7052V26.7408C95.7052 25.9821 95.4757 25.3697 95.0302 24.9038C94.5711 24.4512 93.9771 24.2116 93.221 24.2116C92.438 24.2116 91.8035 24.4512 91.3174 24.9171C90.8314 25.3831 90.5884 26.0087 90.5884 26.7808V33.6229H86.9297V21.0302H90.5884V22.2815C91.601 21.2565 92.897 20.7373 94.4631 20.7373Z" fill="white"/>
<path d="M111.043 23.8788H119.467V25.1967C119.467 26.8473 119.089 28.3515 118.333 29.6827C117.577 31.0139 116.538 32.0655 115.201 32.8109C113.865 33.5697 112.366 33.9424 110.692 33.9424C109.423 33.9424 108.221 33.7161 107.101 33.2635C105.98 32.8109 105.008 32.1853 104.211 31.4132C103.415 30.6278 102.78 29.696 102.321 28.6045C101.862 27.5129 101.633 26.3548 101.633 25.1168C101.633 23.8788 101.862 22.7074 102.335 21.6292C102.794 20.5376 103.442 19.6058 104.238 18.8204C105.049 18.035 106.021 17.4227 107.155 16.9701C108.289 16.5175 109.49 16.2912 110.773 16.2912C112.258 16.2912 113.635 16.5841 114.891 17.1698C116.146 17.7555 117.172 18.5542 117.969 19.5659L115.026 21.8555C114.54 21.2565 113.932 20.7905 113.203 20.4578C112.474 20.125 111.691 19.9519 110.84 19.9519C109.342 19.9519 108.1 20.4444 107.101 21.4295C106.102 22.4146 105.602 23.6392 105.602 25.1168C105.602 26.5944 106.102 27.8191 107.101 28.8041C108.1 29.7892 109.342 30.2817 110.827 30.2817C111.907 30.2817 112.865 30.0022 113.676 29.4564C114.486 28.9106 115.039 28.1918 115.309 27.2999H111.056V23.8788H111.043Z" fill="white"/>
<path d="M134.709 27.3931C134.709 27.8324 134.682 28.2051 134.642 28.5246H125.124C125.353 29.2301 125.758 29.7892 126.339 30.1885C126.919 30.5879 127.608 30.7876 128.405 30.7876C129.093 30.7876 129.714 30.6544 130.281 30.3882C130.848 30.122 131.294 29.7892 131.618 29.3898L134.075 31.4931C133.386 32.2651 132.536 32.8642 131.537 33.3035C130.538 33.7294 129.471 33.9424 128.31 33.9424C126.285 33.9424 124.584 33.3035 123.22 32.0255C121.857 30.7476 121.182 29.1635 121.182 27.26C121.182 26.0486 121.479 24.9438 122.073 23.9454C122.667 22.947 123.477 22.1616 124.53 21.5892C125.569 21.0168 126.73 20.7373 128 20.7373C129.917 20.7373 131.51 21.3629 132.792 22.6276C134.061 23.8922 134.709 25.4762 134.709 27.3931ZM127.932 23.8522C127.243 23.8522 126.649 24.0519 126.136 24.4646C125.623 24.8772 125.272 25.423 125.083 26.1285H130.821C130.619 25.423 130.254 24.8639 129.741 24.4646C129.242 24.0519 128.634 23.8522 127.932 23.8522Z" fill="white"/>
<path d="M144.606 20.7373C146.077 20.7373 147.252 21.1766 148.156 22.0418C149.047 22.9204 149.506 24.0785 149.506 25.5295V33.6362H145.848V26.7408C145.848 25.9821 145.618 25.3697 145.173 24.9038C144.714 24.4512 144.12 24.2116 143.364 24.2116C142.581 24.2116 141.946 24.4512 141.46 24.9171C140.974 25.3831 140.731 26.0087 140.731 26.7808V33.6229H137.072V21.0302H140.731V22.2815C141.744 21.2565 143.04 20.7373 144.606 20.7373Z" fill="white"/>
<path d="M152.41 33.6362V21.0435H156.069V33.6362H152.41Z" fill="white"/>
<path d="M171.998 27.3931C171.998 27.8324 171.971 28.2051 171.931 28.5246H162.413C162.642 29.2301 163.047 29.7892 163.628 30.1885C164.209 30.5879 164.897 30.7876 165.694 30.7876C166.382 30.7876 167.003 30.6544 167.57 30.3882C168.137 30.122 168.583 29.7892 168.907 29.3898L171.364 31.4931C170.675 32.2651 169.825 32.8642 168.826 33.3035C167.827 33.7294 166.76 33.9424 165.599 33.9424C163.574 33.9424 161.873 33.3035 160.509 32.0255C159.146 30.7476 158.471 29.1635 158.471 27.26C158.471 26.0486 158.768 24.9438 159.362 23.9454C159.956 22.947 160.766 22.1616 161.819 21.5892C162.858 21.0168 164.02 20.7373 165.289 20.7373C167.206 20.7373 168.799 21.3629 170.081 22.6276C171.364 23.8922 171.998 25.4762 171.998 27.3931ZM165.235 23.8522C164.546 23.8522 163.952 24.0519 163.439 24.4646C162.926 24.8772 162.575 25.423 162.386 26.1285H168.124C167.921 25.423 167.557 24.8639 167.044 24.4646C166.531 24.0519 165.923 23.8522 165.235 23.8522Z" fill="white"/>
<path d="M81.9343 19.4195C81.2998 19.4195 80.7597 19.2065 80.3277 18.7805C79.8957 18.3545 79.6797 17.8354 79.6797 17.1964C79.6797 16.5708 79.8957 16.0516 80.3277 15.6256C80.7597 15.213 81.2998 15 81.9343 15C82.5824 15 83.1359 15.213 83.5679 15.6256C83.9999 16.0383 84.2159 16.5708 84.2159 17.1964C84.2159 17.8354 83.9999 18.3545 83.5679 18.7805C83.1359 19.2065 82.5824 19.4195 81.9343 19.4195Z" fill="white"/>
<path d="M154.231 19.4195C153.597 19.4195 153.057 19.2065 152.625 18.7805C152.193 18.3545 151.977 17.8354 151.977 17.1964C151.977 16.5708 152.193 16.0516 152.625 15.6256C153.057 15.213 153.597 15 154.231 15C154.879 15 155.433 15.213 155.865 15.6256C156.297 16.0383 156.513 16.5708 156.513 17.1964C156.513 17.8354 156.297 18.3545 155.865 18.7805C155.433 19.2198 154.893 19.4195 154.231 19.4195Z" fill="white"/>
<path d="M25.7318 48.9885C12.042 49.4677 0.512356 38.885 0.0128268 25.3737C-0.486702 11.8624 10.2599 0.507646 23.9497 0.015117C29.7011 -0.184557 35.3849 1.5992 39.9482 5.0469L42.5268 6.99039L38.5846 12.0621L36.0194 10.1186C32.6442 7.57611 28.4455 6.24495 24.1927 6.40468C14.0671 6.7641 6.14218 15.177 6.4932 25.1474C6.85773 35.1311 15.3902 42.945 25.5023 42.5989C27.0414 42.5457 28.5535 42.3061 30.0116 41.8801L33.1168 40.9882L34.9394 47.1249L31.8342 48.0167C29.8631 48.5758 27.8109 48.9086 25.7318 48.9885Z" fill="white"/>
<path d="M42.9998 22.5783L42.9728 39.8035L36.4924 39.7902L36.5059 32.6951C34.3323 35.6769 31.0246 37.8334 27.1633 38.3791C18.9144 39.5373 11.6644 34.1727 10.6924 26.199C9.92283 19.9293 13.2305 14.0855 18.9819 11.5563C24.7602 9.01375 31.5241 10.4647 35.7228 15.1637C36.0604 15.5364 36.3574 15.9624 36.8704 16.5881C32.7122 16.5881 28.8374 16.5481 24.9627 16.5747C20.9665 16.6147 17.8478 19.1971 17.0512 23.0309C16.2547 26.8247 18.7658 30.8315 22.6271 31.9496C26.3533 33.0412 30.5655 31.1909 31.9966 27.6899L23.5721 27.6766L23.5856 21.287L28.3919 21.3004V21.3137C31.8751 21.3004 33.9947 21.327 37.748 21.3137H41.7847C42.4327 21.327 42.9998 21.8861 42.9998 22.5783Z" fill="white"/>
</svg>
