<svg width="14" height="20" viewBox="0 0 14 20" fill="none" xmlns="http://www.w3.org/2000/svg">
<path d="M2.36274 0.885742C2.76819 0.885742 3.15703 1.04681 3.44373 1.3335C3.73042 1.6202 3.89149 2.00904 3.89149 2.41449V17.702C3.89149 18.1075 3.73042 18.4963 3.44373 18.783C3.15703 19.0697 2.76819 19.2308 2.36274 19.2308C1.95729 19.2308 1.56844 19.0697 1.28175 18.783C0.995049 18.4963 0.833984 18.1075 0.833984 17.702V2.41449C0.833984 2.00904 0.995049 1.6202 1.28175 1.3335C1.56844 1.04681 1.95729 0.885742 2.36274 0.885742ZM11.5352 0.885742C11.9407 0.885742 12.3295 1.04681 12.6162 1.3335C12.9029 1.6202 13.064 2.00904 13.064 2.41449V17.702C13.064 18.1075 12.9029 18.4963 12.6162 18.783C12.3295 19.0697 11.9407 19.2308 11.5352 19.2308C11.1298 19.2308 10.741 19.0697 10.4543 18.783C10.1676 18.4963 10.0065 18.1075 10.0065 17.702V2.41449C10.0065 2.00904 10.1676 1.6202 10.4543 1.3335C10.741 1.04681 11.1298 0.885742 11.5352 0.885742Z" fill="#005653"/>
</svg>
