<svg width="195" height="153" viewBox="0 0 195 153" fill="none" xmlns="http://www.w3.org/2000/svg">
<path d="M129.941 39.6895C126.045 38.8287 122.261 37.6396 118.804 35.8515C118.076 35.4744 117.38 35.0662 116.701 34.6225C110.502 30.5537 106.27 23.8228 101.305 18.4629C80.0381 -4.49852 42.7451 2.7604 23.2224 24.1822C14.8852 33.3269 9.30351 44.974 7.4799 57.2156C3.79276 82.0096 14.6856 108.427 40.4956 115.074C56.0517 119.081 71.0443 114.653 86.4895 112.918C90.6647 112.447 94.8488 112.465 99.0107 112.829C100.879 112.989 102.742 113.224 104.597 113.517C107.707 114.005 110.795 114.653 113.852 115.411C116.448 116.05 119.017 116.769 121.555 117.523C122.016 117.661 122.478 117.803 122.939 117.945C129.888 120.114 137.187 123.056 144.552 125.23C144.787 125.301 145.027 125.372 145.266 125.439C150.746 127.018 156.257 128.145 161.683 128.176C186.908 128.323 199.123 99.3937 193 77.8166C186.916 56.377 166.005 47.2546 145.883 42.72C144.752 42.4671 143.625 42.223 142.502 41.9967C141.397 41.7749 140.301 41.5664 139.21 41.3667C138.518 41.238 137.83 41.1182 137.142 41.0029C136.388 40.8697 135.638 40.7455 134.893 40.6257C134.595 40.5769 134.298 40.5281 134.001 40.4793C132.639 40.2486 131.281 39.9868 129.941 39.6895Z" fill="#D6E4E4"/>
<path d="M42.9649 133.311C38.8651 133.311 34.965 132.823 31.3267 131.851C26.2552 130.498 21.5475 128.164 17.328 124.92C12.2077 120.98 7.8816 115.62 4.81564 109.417C1.73193 103.175 0.139045 96.5058 0.214474 90.1343C0.267718 85.3068 1.27492 80.8121 3.19613 76.7789C5.27265 72.4262 8.38742 68.7036 12.4561 65.7219C16.343 62.8689 21.055 60.4552 27.2846 58.1258C27.5153 58.0371 27.7505 57.9483 27.9812 57.8685C31.9479 56.4131 36.0654 55.1486 40.0542 53.924C43.4131 52.8901 46.5855 51.9184 49.6781 50.8358C50.1307 50.6761 50.5877 50.5119 51.0402 50.3477C53.8311 49.3317 56.267 48.3822 58.4811 47.4548C61.5781 46.1637 64.3779 44.8547 67.0356 43.4615C68.766 42.5564 70.4122 41.6246 71.9252 40.684C75.7233 38.3501 78.9933 35.8876 81.9173 33.1544C84.6993 30.5587 87.4059 27.8123 90.0237 25.1501C98.0458 17.0082 106.334 8.57788 117.582 4.00333C129.189 -0.722064 141.422 -0.260617 152.949 5.33443C163.469 10.4414 172.596 19.4884 178.648 30.8028C184.443 41.6512 186.95 54.412 185.703 66.7424C184.891 74.8133 182.264 82.9996 178.111 90.4183C173.945 97.8591 168.341 104.337 161.912 109.151C156.765 113.007 151.201 115.736 145.38 117.266C139.155 118.904 132.752 119.126 126.349 117.928C124.126 117.511 121.841 116.938 119.627 116.384C114.636 115.132 109.475 113.832 104.368 114.13C103.548 114.178 102.758 114.267 101.955 114.396C98.485 114.959 94.8156 116.122 90.738 117.95C89.5356 118.487 88.28 119.086 87.011 119.733L86.2079 120.146C85.4225 120.554 84.7747 120.883 84.1757 121.184C83.488 121.535 82.8712 121.845 82.2989 122.125C81.2162 122.657 80.2312 123.132 79.2773 123.58C78.3411 124.02 77.3117 124.49 76.1315 125.013C64.9458 129.965 55.1844 132.645 46.2882 133.2C45.1701 133.275 44.0609 133.311 42.9649 133.311ZM133.746 0.879691C128.324 0.879691 122.911 1.95344 117.626 4.10539C106.401 8.67549 98.1168 17.0925 90.108 25.2344C87.4902 27.8921 84.7836 30.6431 82.0016 33.2387C79.0687 35.9719 75.7942 38.4389 71.9917 40.7816C70.4743 41.7222 68.8237 42.654 67.0933 43.5591C64.4311 44.9568 61.6269 46.2613 58.5299 47.5569C56.3114 48.4886 53.8755 49.4337 51.0846 50.4542C50.632 50.6184 50.175 50.7781 49.7225 50.9423C46.6299 52.0249 43.453 52.9966 40.0942 54.0305C36.1098 55.2551 31.9922 56.5196 28.03 57.9749C27.7993 58.0592 27.5641 58.1435 27.3334 58.2323C21.1172 60.5573 16.4139 62.9666 12.5316 65.8107C8.4806 68.7835 5.37914 72.4883 3.30706 76.8233C1.39028 80.8388 0.391954 85.3201 0.334273 90.1298C0.263281 96.4836 1.84729 103.13 4.92656 109.355C7.98365 115.545 12.3008 120.892 17.4078 124.818C21.6141 128.053 26.3129 130.382 31.3666 131.731C35.9633 132.96 40.986 133.413 46.2971 133.084C55.18 132.53 64.9325 129.854 76.1004 124.907C77.2806 124.383 78.31 123.913 79.2462 123.474C80.1957 123.026 81.1808 122.551 82.2634 122.019C82.8358 121.739 83.4525 121.428 84.1402 121.078C84.7392 120.776 85.387 120.448 86.1724 120.04L86.9755 119.627C88.2489 118.979 89.5046 118.38 90.707 117.839C94.7935 116.006 98.4717 114.844 101.95 114.276C102.758 114.147 103.552 114.059 104.377 114.01C109.502 113.712 114.671 115.012 119.672 116.264C121.881 116.818 124.171 117.391 126.389 117.808C132.77 119.001 139.159 118.784 145.371 117.151C151.179 115.625 156.725 112.9 161.863 109.054C168.279 104.248 173.87 97.7837 178.031 90.3561C182.176 82.9508 184.798 74.7778 185.61 66.7247C186.852 54.4165 184.35 41.6779 178.564 30.8472C172.512 19.5594 163.403 10.5302 152.9 5.43648C146.653 2.40158 140.197 0.879691 133.746 0.879691Z" fill="#D6E4E4"/>
<path d="M52.3685 127.429C52.1245 127.429 51.9248 127.229 51.9248 126.985V120.951C51.9248 120.707 52.1245 120.507 52.3685 120.507C52.6125 120.507 52.8122 120.707 52.8122 120.951V126.985C52.8122 127.229 52.6125 127.429 52.3685 127.429Z" fill="#33C177"/>
<path d="M55.3862 124.412H49.3519C49.1079 124.412 48.9082 124.212 48.9082 123.968C48.9082 123.724 49.1079 123.524 49.3519 123.524H55.3862C55.6302 123.524 55.8299 123.724 55.8299 123.968C55.8299 124.212 55.6347 124.412 55.3862 124.412Z" fill="#33C177"/>
<path d="M127.036 25.1414C126.792 25.1414 126.593 24.9418 126.593 24.6977V18.6634C126.593 18.4194 126.792 18.2197 127.036 18.2197C127.281 18.2197 127.48 18.4194 127.48 18.6634V24.6977C127.48 24.9418 127.285 25.1414 127.036 25.1414Z" fill="#33C177"/>
<path d="M130.06 22.1188H124.026C123.782 22.1188 123.582 21.9192 123.582 21.6751C123.582 21.4311 123.782 21.2314 124.026 21.2314H130.06C130.304 21.2314 130.504 21.4311 130.504 21.6751C130.504 21.9236 130.304 22.1188 130.06 22.1188Z" fill="#33C177"/>
<path d="M38.9751 6.11926C38.8597 6.11926 38.7488 6.07489 38.6601 5.99058C38.487 5.81754 38.487 5.53801 38.6601 5.36497L42.9284 1.09658C43.1015 0.923536 43.381 0.923536 43.5541 1.09658C43.7271 1.26962 43.7271 1.54915 43.5541 1.7222L39.2857 5.99058C39.2014 6.07932 39.086 6.11926 38.9751 6.11926Z" fill="#33C177"/>
<path d="M43.2435 6.11926C43.1281 6.11926 43.0172 6.07489 42.9284 5.99058L38.6601 1.7222C38.487 1.54915 38.487 1.26962 38.6601 1.09658C38.8331 0.923536 39.1126 0.923536 39.2857 1.09658L43.5541 5.36497C43.7271 5.53801 43.7271 5.81754 43.5541 5.99058C43.4698 6.07932 43.3544 6.11926 43.2435 6.11926Z" fill="#33C177"/>
<path d="M13.4789 106.921C13.2348 106.921 13.0352 106.721 13.0352 106.477V100.443C13.0352 100.199 13.2348 99.999 13.4789 99.999C13.7229 99.999 13.9226 100.199 13.9226 100.443V106.477C13.9226 106.721 13.7229 106.921 13.4789 106.921Z" fill="#D6E4E4"/>
<path d="M16.4966 103.898H10.4623C10.2182 103.898 10.0186 103.698 10.0186 103.454C10.0186 103.21 10.2182 103.011 10.4623 103.011H16.4966C16.7406 103.011 16.9403 103.21 16.9403 103.454C16.9403 103.703 16.7406 103.898 16.4966 103.898Z" fill="#D6E4E4"/>
<path d="M115.135 125.634C115.02 125.634 114.909 125.59 114.82 125.505L110.552 121.237C110.379 121.064 110.379 120.784 110.552 120.611C110.725 120.438 111.004 120.438 111.177 120.611L115.446 124.88C115.619 125.053 115.619 125.332 115.446 125.505C115.361 125.59 115.246 125.634 115.135 125.634Z" fill="#D6E4E4"/>
<path d="M110.867 125.634C110.751 125.634 110.64 125.59 110.552 125.505C110.379 125.332 110.379 125.053 110.552 124.88L114.82 120.611C114.993 120.438 115.273 120.438 115.446 120.611C115.619 120.784 115.619 121.064 115.446 121.237L111.177 125.505C111.093 125.59 110.978 125.634 110.867 125.634Z" fill="#D6E4E4"/>
<path d="M182.311 48.7655C182.067 48.7655 181.867 48.5658 181.867 48.3218V42.2874C181.867 42.0434 182.067 41.8438 182.311 41.8438C182.555 41.8438 182.755 42.0434 182.755 42.2874V48.3218C182.755 48.5658 182.555 48.7655 182.311 48.7655Z" fill="#D6E4E4"/>
<path d="M185.329 45.7487H179.294C179.05 45.7487 178.851 45.5491 178.851 45.305C178.851 45.061 179.05 44.8613 179.294 44.8613H185.329C185.573 44.8613 185.772 45.061 185.772 45.305C185.772 45.5491 185.573 45.7487 185.329 45.7487Z" fill="#D6E4E4"/>
<path d="M7.08458 91.8113C7.08458 90.6666 6.15725 89.7393 5.01251 89.7393C3.86776 89.7393 2.94043 90.6666 2.94043 91.8113C2.94043 92.9561 3.86776 93.8834 5.01251 93.8834C6.16169 93.879 7.08458 92.9516 7.08458 91.8113Z" fill="#D6E4E4"/>
<path d="M101.353 7.68926C101.353 6.54452 100.426 5.61719 99.2811 5.61719C98.1363 5.61719 97.209 6.54452 97.209 7.68926C97.209 8.83401 98.1363 9.76134 99.2811 9.76134C100.426 9.76134 101.353 8.83401 101.353 7.68926Z" fill="#D6E4E4"/>
<path d="M191.777 55.6658C191.777 54.5211 190.85 53.5938 189.705 53.5938C188.56 53.5938 187.633 54.5211 187.633 55.6658C187.633 56.8106 188.56 57.7379 189.705 57.7379C190.85 57.7379 191.777 56.8106 191.777 55.6658Z" fill="#D6E4E4"/>
<path d="M36.9021 135.693C39.2276 135.693 41.1128 133.808 41.1128 131.482C41.1128 129.157 39.2276 127.271 36.9021 127.271C34.5766 127.271 32.6914 129.157 32.6914 131.482C32.6914 133.808 34.5766 135.693 36.9021 135.693Z" fill="#D6E4E4"/>
<path d="M138.176 14.7193C140.472 14.3456 142.029 12.1819 141.656 9.88663C141.282 7.59135 139.118 6.03361 136.823 6.40732C134.528 6.78103 132.97 8.94468 133.344 11.24C133.717 13.5352 135.881 15.093 138.176 14.7193Z" fill="#D6E4E4"/>
<path d="M112.037 94.0828H24.8993C21.2699 94.0828 18.3281 91.1411 18.3281 87.5117V22.5097C18.3281 18.8802 21.2699 15.9385 24.8993 15.9385H112.037C115.667 15.9385 118.609 18.8802 118.609 22.5097V87.5117C118.609 91.1411 115.667 94.0828 112.037 94.0828Z" fill="#005655"/>
<path d="M24.7554 90.8309C22.9274 90.8309 21.4365 89.3445 21.4365 87.5121V34.521C21.4365 32.693 22.9229 31.2021 24.7554 31.2021H111.894C113.722 31.2021 115.212 32.6885 115.212 34.521V87.5121C115.212 89.3401 113.726 90.8309 111.894 90.8309H24.7554Z" fill="white"/>
<path d="M34.1758 34.7734H24.3789V44.313H34.1758V34.7734Z" fill="#D4EEEE"/>
<path d="M47.2451 34.7734H37.4482V44.313H47.2451V34.7734Z" fill="#D4EEEE"/>
<path d="M60.3066 34.7734H50.5098V44.313H60.3066V34.7734Z" fill="#005655"/>
<path d="M73.3604 34.7734H63.5635V44.313H73.3604V34.7734Z" fill="#D4EEEE"/>
<path d="M86.4336 34.7734H76.6367V44.313H86.4336V34.7734Z" fill="#D4EEEE"/>
<path d="M99.4961 34.7734H89.6992V44.313H99.4961V34.7734Z" fill="#D4EEEE"/>
<path d="M112.564 34.7734H102.768V44.313H112.564V34.7734Z" fill="#005655"/>
<path d="M34.1758 48.9316H24.3789V58.4712H34.1758V48.9316Z" fill="#005655"/>
<path d="M47.2451 48.9316H37.4482V58.4712H47.2451V48.9316Z" fill="#D4EEEE"/>
<path d="M60.3066 48.9316H50.5098V58.4712H60.3066V48.9316Z" fill="#D4EEEE"/>
<path d="M73.3604 48.9316H63.5635V58.4712H73.3604V48.9316Z" fill="#D4EEEE"/>
<path d="M86.4336 48.9316H76.6367V58.4712H86.4336V48.9316Z" fill="#D4EEEE"/>
<path d="M99.4961 48.9316H89.6992V58.4712H99.4961V48.9316Z" fill="#D4EEEE"/>
<path d="M112.564 48.9316H102.768V58.4712H112.564V48.9316Z" fill="#33C177"/>
<path d="M34.1758 63.0918H24.3789V72.6313H34.1758V63.0918Z" fill="#D4EEEE"/>
<path d="M47.2451 63.0918H37.4482V72.6313H47.2451V63.0918Z" fill="#F0746A"/>
<path d="M60.3066 63.0918H50.5098V72.6313H60.3066V63.0918Z" fill="#D4EEEE"/>
<path d="M73.3604 63.0918H63.5635V72.6313H73.3604V63.0918Z" fill="#005655"/>
<path d="M86.4336 63.0918H76.6367V72.6313H86.4336V63.0918Z" fill="#D4EEEE"/>
<path d="M99.4961 63.0918H89.6992V72.6313H99.4961V63.0918Z" fill="#005655"/>
<path d="M112.564 63.0918H102.768V72.6313H112.564V63.0918Z" fill="#D4EEEE"/>
<path d="M34.1758 77.249H24.3789V86.7886H34.1758V77.249Z" fill="#33C177"/>
<path d="M47.2451 77.249H37.4482V86.7886H47.2451V77.249Z" fill="#005655"/>
<path d="M60.3066 77.249H50.5098V86.7886H60.3066V77.249Z" fill="#D4EEEE"/>
<path d="M73.3604 77.249H63.5635V86.7886H73.3604V77.249Z" fill="#D4EEEE"/>
<path d="M86.4336 77.249H76.6367V86.7886H86.4336V77.249Z" fill="#D4EEEE"/>
<path d="M99.4961 77.249H89.6992V86.7886H99.4961V77.249Z" fill="#33C177"/>
<path d="M112.564 77.249H102.768V86.7886H112.564V77.249Z" fill="#005655"/>
<path d="M27.9136 26.8145H26.3961L25.5043 23.8284C25.562 24.2233 25.664 24.7868 25.664 25.5456V26.8145H24.5947V22.7236H26.0811L27.0085 25.7186C26.933 25.2438 26.8443 24.7735 26.8443 24.0325V22.7236H27.9136V26.8145Z" fill="white"/>
<path d="M32.7914 24.7609C32.7914 26.0875 32.1081 26.9306 30.8835 26.9306C29.6544 26.9306 28.9756 26.1186 28.9756 24.7609C28.9756 23.4342 29.6589 22.6045 30.8835 22.6045C32.1125 22.6045 32.7914 23.4032 32.7914 24.7609ZM30.2313 24.7609C30.2313 25.706 30.4265 26.0698 30.8835 26.0698C31.3538 26.0698 31.5357 25.706 31.5357 24.7609C31.5357 23.8158 31.3405 23.4608 30.8835 23.4608C30.4265 23.4653 30.2313 23.8158 30.2313 24.7609Z" fill="white"/>
<path d="M36.0919 26.8145H34.5301L33.4297 22.7236H34.7031L35.3243 25.9715L35.8833 22.7236H37.1213L36.0919 26.8145Z" fill="white"/>
<path d="M40.484 23.5637H39.1351V24.3269H40.3242V25.1433H39.1351V25.9641H40.5816V26.8116H37.9238V22.7207H40.6082L40.484 23.5637Z" fill="white"/>
<path d="M45.9794 26.8145H44.7859L44.7548 25.3636C44.7415 24.8356 44.7415 24.3076 44.7947 23.6953L44.3111 26.4063H43.1664L42.6472 23.6953C42.7138 24.3698 42.736 24.8046 42.7227 25.3592L42.6916 26.8145H41.498L41.7909 22.7236H43.2817L43.752 25.3725L44.1736 22.7236H45.6733L45.9794 26.8145Z" fill="white"/>
<path d="M50.3232 25.6032C50.3232 26.5749 49.5201 26.8145 48.4419 26.8145H47.0088V22.7236H48.2822C49.4269 22.7236 50.1502 22.981 50.1502 23.7796C50.1502 24.3076 49.773 24.5517 49.4092 24.6449C49.8573 24.738 50.3232 24.9599 50.3232 25.6032ZM48.2201 23.5489V24.3032H48.4242C48.7925 24.3032 48.9256 24.1923 48.9256 23.9039C48.9256 23.6643 48.7836 23.5534 48.3976 23.5534H48.2201V23.5489ZM49.0764 25.5189C49.0764 25.1995 48.8768 25.0664 48.4996 25.0664H48.2156V25.9582H48.4508C48.8235 25.9582 49.0764 25.8828 49.0764 25.5189Z" fill="white"/>
<path d="M53.9152 23.5637H52.5619V24.3269H53.751V25.1433H52.5619V25.9641H54.0083V26.8116H51.3506V22.7207H54.035L53.9152 23.5637Z" fill="white"/>
<path d="M56.5308 25.3563H56.309V26.8116H55.0977V22.7207H56.5974C57.7687 22.7207 58.3544 23.12 58.3544 24.0207C58.3544 24.5399 58.1326 24.8416 57.6312 25.13L58.6295 26.8116H57.2895L56.5308 25.3563ZM56.309 24.5443H56.624C56.9523 24.5443 57.1165 24.3801 57.1165 24.0207C57.1165 23.6968 56.9213 23.5504 56.5663 23.5504H56.309V24.5443Z" fill="white"/>
<path d="M100.038 23.893C100.038 24.6384 99.5721 25.1487 98.3475 26.3955H100.136L100.078 26.8125H97.784V26.4177C99.1816 24.949 99.5233 24.5674 99.5233 23.9152C99.5233 23.4848 99.2526 23.2319 98.8577 23.2319C98.5161 23.2319 98.2898 23.3739 98.028 23.6667L97.7041 23.4094C98.0236 23.0234 98.3918 22.8281 98.8799 22.8281C99.5943 22.8281 100.038 23.2851 100.038 23.893Z" fill="white"/>
<path d="M104.055 24.8558C104.055 26.1603 103.625 26.8835 102.764 26.8835C101.899 26.8835 101.473 26.1603 101.473 24.8514C101.473 23.5425 101.903 22.8281 102.764 22.8281C103.625 22.8281 104.055 23.5469 104.055 24.8558ZM101.978 24.8514C101.978 26.0228 102.249 26.4931 102.759 26.4931C103.265 26.4931 103.54 26.0228 103.54 24.8603C103.54 23.6889 103.265 23.2275 102.759 23.2275C102.249 23.223 101.978 23.6889 101.978 24.8514Z" fill="white"/>
<path d="M107.509 23.893C107.509 24.6384 107.043 25.1487 105.818 26.3955H107.606L107.549 26.8125H105.255V26.4177C106.652 24.949 106.994 24.5674 106.994 23.9152C106.994 23.4848 106.723 23.2319 106.328 23.2319C105.987 23.2319 105.76 23.3739 105.499 23.6667L105.175 23.4094C105.494 23.0234 105.863 22.8281 106.351 22.8281C107.061 22.8281 107.509 23.2851 107.509 23.893Z" fill="white"/>
<path d="M111.519 24.8558C111.519 26.1603 111.088 26.8835 110.228 26.8835C109.362 26.8835 108.937 26.1603 108.937 24.8514C108.937 23.5425 109.367 22.8281 110.228 22.8281C111.093 22.8281 111.519 23.5469 111.519 24.8558ZM109.447 24.8514C109.447 26.0228 109.717 26.4931 110.228 26.4931C110.734 26.4931 111.009 26.0228 111.009 24.8603C111.009 23.6889 110.734 23.2275 110.228 23.2275C109.717 23.223 109.447 23.6889 109.447 24.8514Z" fill="white"/>
<path d="M72.5093 111.75C81.8086 109.515 87.5352 100.164 85.3001 90.8647C83.0649 81.5654 73.7144 75.8388 64.415 78.074C55.1157 80.3091 49.3891 89.6597 51.6243 98.959C53.8594 108.258 63.21 113.985 72.5093 111.75Z" fill="#2B8C8B"/>
<path d="M70.8035 109.239C78.7133 107.942 84.074 100.478 82.7771 92.5687C81.4802 84.6589 74.0167 79.2982 66.107 80.5951C58.1973 81.892 52.8365 89.3555 54.1334 97.2652C55.4303 105.175 62.8938 110.536 70.8035 109.239Z" fill="#005655"/>
<path d="M68.4707 95.582C68.2666 95.582 68.0714 95.4888 67.9427 95.3202L61.7886 87.2405C61.5667 86.9476 61.6244 86.5305 61.9128 86.3087C62.2057 86.0868 62.6227 86.1445 62.8446 86.4329L67.8007 92.942V82.0669C67.8007 81.6986 68.098 81.4014 68.4663 81.4014C68.8345 81.4014 69.1318 81.6986 69.1318 82.0669V94.912C69.1318 95.196 68.9499 95.4533 68.6792 95.5421C68.6127 95.5731 68.5417 95.582 68.4707 95.582Z" fill="white"/>
<path d="M72.6597 76.2861H64.3936V78.6999H72.6597V76.2861Z" fill="#005655"/>
<path d="M73.3162 76.2858H63.7235C63.0579 76.2858 62.5166 75.7445 62.5166 75.0789C62.5166 74.4134 63.0579 73.8721 63.7235 73.8721H73.3162C73.9818 73.8721 74.5231 74.4134 74.5231 75.0789C74.5231 75.7445 73.9818 76.2858 73.3162 76.2858Z" fill="#005655" fill-opacity="0.7"/>
<path d="M50.1278 98.8348C49.5688 98.8348 49.1162 98.3822 49.1162 97.8231V92.0107C49.1162 91.4516 49.5688 90.999 50.1278 90.999C50.6869 90.999 51.1395 91.4516 51.1395 92.0107V97.8231C51.1395 98.3822 50.6869 98.8348 50.1278 98.8348Z" fill="#33C177"/>
<path d="M55.9218 74.1854H5.2868C3.08161 74.1854 1.28906 72.3973 1.28906 70.1877V53.9616C1.28906 51.7564 3.07717 49.9639 5.2868 49.9639H55.9173C58.1225 49.9639 59.9151 51.752 59.9151 53.9616V70.1877C59.9151 72.3973 58.127 74.1854 55.9218 74.1854Z" fill="#33C177"/>
<path d="M53.4404 60.4128H7.77038C7.38436 60.4128 7.06934 60.0978 7.06934 59.7118C7.06934 59.3258 7.38436 59.0107 7.77038 59.0107H53.4404C53.8264 59.0107 54.1414 59.3258 54.1414 59.7118C54.1414 60.0978 53.8264 60.4128 53.4404 60.4128Z" fill="white"/>
<path d="M53.4404 64.3621H7.77038C7.38436 64.3621 7.06934 64.047 7.06934 63.661C7.06934 63.275 7.38436 62.96 7.77038 62.96H53.4404C53.8264 62.96 54.1414 63.275 54.1414 63.661C54.1414 64.047 53.8264 64.3621 53.4404 64.3621Z" fill="white"/>
<path d="M45.7236 49.9677L55.3785 38.0322L54.2782 49.9677H45.7236Z" fill="#33C177"/>
<path d="M113.244 103.885C119.91 102.331 124.054 95.668 122.5 89.0025C120.946 82.3369 114.283 78.1928 107.618 79.7465C100.952 81.3001 96.8083 87.9631 98.3619 94.6287C99.9156 101.294 106.579 105.438 113.244 103.885Z" fill="#2B8C8B"/>
<path d="M106.04 96.9291C105.992 96.9291 105.943 96.9247 105.894 96.9114C105.725 96.867 105.588 96.7517 105.517 96.5964L102.686 90.6242C102.548 90.3358 102.673 89.9897 102.961 89.8521C103.254 89.7146 103.596 89.8388 103.733 90.1272L106.267 95.4694L117.315 87.5893C117.577 87.4029 117.94 87.465 118.122 87.7224C118.309 87.9842 118.247 88.348 117.989 88.5299L106.378 96.8138C106.28 96.8936 106.16 96.9291 106.04 96.9291Z" fill="white"/>
<path d="M183.725 90.1956C183.285 91.3226 182.811 92.4363 182.318 93.5233H182.314C180.006 85.5767 175.121 82.4841 172.33 81.3349C171.088 80.8202 170.263 80.696 170.263 80.696C170.591 79.9195 170.959 79.2007 171.345 78.5352C171.345 78.5352 179.598 78.7614 183.725 90.1956Z" fill="white"/>
<path d="M166.654 78.5353L173.518 75.5137C172.764 76.3744 172.019 77.3728 171.349 78.5353C170.963 79.2008 170.594 79.9196 170.266 80.6961C169.836 81.7033 169.458 82.7992 169.161 84.0016L166.654 78.5353Z" fill="#005655"/>
<path d="M172.487 91.2529L169.159 84.0028C169.456 82.8004 169.834 81.7045 170.264 80.6973C170.264 80.6973 171.089 80.8215 172.332 81.3362C172.332 81.3362 171.888 85.4404 172.487 91.2529Z" fill="#C17170"/>
<path d="M171.248 128.073L170.463 125.233C170.698 125.304 170.938 125.375 171.177 125.442C171.204 126.325 171.23 127.203 171.248 128.073Z" fill="#005655"/>
<path d="M171.179 125.44C170.94 125.373 170.7 125.302 170.465 125.231L169.312 121.043C169.875 120.958 170.439 120.834 170.998 120.67C171.069 122.232 171.126 123.838 171.179 125.44Z" fill="#005655"/>
<path d="M170.265 110.611C170.584 113.211 170.824 116.81 170.997 120.67C170.438 120.834 169.874 120.958 169.311 121.043L166.476 110.775V110.771C167.478 111.153 168.734 111.224 170.265 110.611Z" fill="#005655"/>
<path d="M168.311 47.0791H168.306L167.667 46.1739L164.943 42.3359L163.315 43.6537L161.078 45.464L157.64 48.246C158.292 47.8511 159.082 47.7402 159.818 47.9399L161.917 48.5034C162.157 48.5655 162.374 48.672 162.574 48.8051V45.8811C162.574 45.5883 162.693 45.322 162.884 45.1312C163.004 45.0114 163.15 44.9227 163.315 44.8695C163.412 44.8384 163.519 44.8207 163.63 44.8207C164.18 44.8207 164.641 45.2422 164.69 45.7879L165.196 51.5782L165.342 53.211L165.875 52.7318L169.793 49.1689L168.311 47.0791Z" fill="#005655"/>
<path d="M160.901 42.7666C161.088 43.5431 161.172 44.4393 161.079 45.4643L157.64 48.2463L157.157 48.5391C156.633 48.8542 156.398 49.4931 156.593 50.0743L156.584 50.3317C155.768 50.2873 154.96 50.5491 154.321 51.0638C154.33 50.7221 154.357 50.3849 154.406 50.0521C155.355 43.3833 160.901 42.7666 160.901 42.7666Z" fill="#C17170"/>
<path d="M152.83 52.2782L154.303 51.0758C154.312 51.0714 154.316 51.0625 154.325 51.0625C154.334 50.7208 154.36 50.3836 154.409 50.0508C155.359 43.382 160.905 42.7653 160.905 42.7653C160.683 41.8291 160.306 41.0704 159.915 40.4802C159.84 40.3693 159.765 40.2628 159.689 40.1608C159.152 39.4464 158.416 38.914 157.608 38.528C154.067 36.8242 154.431 33.6029 154.431 33.6029C154.897 31.6018 154.165 30.6257 153.593 30.1864C153.326 29.9823 152.998 29.8758 152.665 29.8315C151.987 29.7338 151.427 29.5386 150.966 29.2946C150.416 29.0062 149.985 28.5891 149.693 28.1055H149.688C147.128 30.0134 145.318 30.4615 144.044 30.2219L144.022 30.3373C144.022 30.3373 143.441 32.01 142.656 34.4992C142.638 34.5391 142.629 34.579 142.616 34.6234C141.431 38.3594 139.798 43.8568 138.937 48.316C138.711 49.474 138.538 50.5655 138.44 51.5328C138.245 53.4097 139.039 55.2244 140.473 56.3381C140.881 56.6575 141.338 56.9193 141.844 57.1057C142.008 57.1678 142.181 57.2255 142.358 57.2743C143.392 57.5849 144.683 57.7535 146.289 57.6603C146.489 57.6514 146.689 57.6292 146.888 57.5937C147.341 57.5272 147.789 57.4074 148.224 57.2521C149.657 56.7374 152.408 55.7258 153.247 55.2377L153.273 55.2554C153.593 54.8517 154.005 54.5988 154.458 54.4479V54.4435C154.44 54.3237 154.427 54.1506 154.414 53.9421L154.067 54.1284C153.899 54.2172 153.717 54.2616 153.535 54.2616C153.207 54.2616 152.883 54.1151 152.665 53.8445C152.279 53.3653 152.35 52.6642 152.83 52.2782ZM144.515 38.7454C144.111 38.7454 143.783 38.417 143.783 38.0133C143.783 37.614 144.111 37.2856 144.515 37.2856C144.918 37.2856 145.247 37.614 145.247 38.0133C145.247 38.417 144.918 38.7454 144.515 38.7454ZM153.247 41.0748C153.65 41.0748 153.979 41.4031 153.979 41.8069C153.979 42.2062 153.65 42.5346 153.247 42.5346C152.847 42.5346 152.519 42.2062 152.519 41.8069C152.519 41.4031 152.847 41.0748 153.247 41.0748Z" fill="url(#paint0_linear_319_14345)"/>
<path d="M156.863 53.5294L158.003 54.6342C158.003 54.6342 156.011 53.9243 154.454 54.4478V54.4434C154.436 54.3236 154.422 54.1506 154.409 53.942L155.505 53.3475C155.949 53.1034 156.499 53.1789 156.863 53.5294Z" fill="#C17170"/>
<path d="M153.991 59.4968L155.327 57.1008C155.327 57.1008 154.857 58.7647 153.818 61.032C153.166 62.4607 153.037 64.0714 153.423 65.5933L146.888 57.5934C147.34 57.5268 147.788 57.407 148.223 57.2517C149.656 56.737 152.407 55.7254 153.246 55.2373L153.273 55.2551C153.139 55.4192 153.024 55.61 152.931 55.8319L151.848 58.463C151.618 59.0176 151.835 59.6521 152.354 59.9494C152.54 60.0559 152.749 60.1091 152.949 60.1091C153.366 60.1091 153.774 59.8873 153.991 59.4968Z" fill="#C17170"/>
<path d="M153.825 67.1956L154.459 69.6848H154.455C150.302 73.4562 144.893 71.4196 144.893 71.4196C141.264 70.1107 139.844 67.3908 139.444 64.6133C140.265 64.7996 141.086 64.8706 141.933 64.8972C142.235 65.8778 142.732 66.8273 143.504 67.6659C145.008 69.3032 147.231 70.1418 149.436 69.8889C150.896 69.7203 152.587 69.0636 153.825 67.1956Z" fill="white"/>
<path d="M182.311 93.5242C180.003 85.5776 175.118 82.485 172.327 81.3358C172.327 81.3358 171.884 85.44 172.483 91.2525L169.155 84.0024L166.648 78.5361L162.921 70.4119C162.562 69.6355 162.309 68.8146 162.189 67.9671C161.923 66.0504 161.958 62.7892 164.301 59.7188L164.878 58.8935C165.428 58.1126 165.681 57.1631 165.601 56.2135L165.339 53.2097L165.193 51.5769L164.687 45.7866C164.638 45.2409 164.177 44.8193 163.626 44.8193C163.515 44.8193 163.409 44.8371 163.311 44.8681C163.147 44.9214 163.001 45.0101 162.881 45.1299C162.69 45.3207 162.57 45.5869 162.57 45.8798V48.8038C162.371 48.6706 162.153 48.5642 161.914 48.502L159.815 47.9385C159.079 47.7389 158.289 47.8498 157.636 48.2447L157.153 48.5375C156.629 48.8526 156.394 49.4915 156.589 50.0727L156.58 50.3301C155.764 50.2857 154.957 50.5475 154.318 51.0622C154.309 51.0622 154.304 51.0711 154.295 51.0755L152.822 52.2779C152.343 52.6639 152.272 53.365 152.658 53.8442C152.876 54.1148 153.199 54.2613 153.528 54.2613C153.71 54.2613 153.892 54.2169 154.06 54.1282L154.406 53.9418L155.502 53.3472C155.946 53.1032 156.496 53.1786 156.86 53.5292L158 54.634C158 54.634 156.008 53.9241 154.451 54.4476C153.998 54.5985 153.585 54.8514 153.266 55.2551C153.133 55.4193 153.018 55.6101 152.924 55.832L151.842 58.4631C151.611 59.0177 151.828 59.6522 152.348 59.9495C152.534 60.056 152.742 60.1092 152.942 60.1092C153.359 60.1092 153.767 59.8874 153.985 59.4969L155.32 57.1009C155.32 57.1009 154.85 58.7648 153.812 61.0321C153.16 62.4608 153.031 64.0715 153.417 65.5933L153.821 67.1951L154.455 69.6843L155.085 72.1734C155.192 72.6038 155.285 73.0342 155.365 73.469C156.141 77.7596 160.663 102.345 163.36 107.811C163.36 107.811 164.345 109.977 166.471 110.771C167.473 111.152 168.729 111.223 170.26 110.611C171.515 110.114 172.949 109.156 174.577 107.527C174.577 107.527 178.867 101.165 182.315 93.5242H182.311Z" fill="url(#paint1_linear_319_14345)"/>
<path d="M141.937 64.8972C140.819 61.2721 142.359 57.2744 142.359 57.2744C143.393 57.585 144.684 57.7536 146.29 57.6604C146.49 57.6516 146.689 57.6294 146.889 57.5939L153.425 65.5938L153.829 67.1955C152.591 69.0635 150.9 69.7202 149.44 69.8888C147.235 70.1417 145.012 69.3031 143.508 67.6659C142.736 66.8273 142.239 65.8777 141.937 64.8972Z" fill="url(#paint2_linear_319_14345)"/>
<path d="M153.244 41.0752C153.648 41.0752 153.976 41.4035 153.976 41.8073C153.976 42.2066 153.648 42.535 153.244 42.535C152.845 42.535 152.517 42.2066 152.517 41.8073C152.517 41.4035 152.845 41.0752 153.244 41.0752Z" fill="black"/>
<path d="M144.51 37.2861C144.914 37.2861 145.243 37.6145 145.243 38.0138C145.243 38.4176 144.914 38.7459 144.51 38.7459C144.107 38.7459 143.778 38.4176 143.778 38.0138C143.778 37.6145 144.107 37.2861 144.51 37.2861Z" fill="black"/>
<path d="M141.84 57.1055C142.004 57.1676 142.177 57.2253 142.354 57.2741C142.354 57.2741 140.815 61.2718 141.933 64.8969C141.085 64.8702 140.265 64.7992 139.444 64.6129C138.858 60.5353 140.469 56.3379 140.469 56.3379C140.877 56.6574 141.334 56.9191 141.84 57.1055Z" fill="white"/>
<path d="M128.643 60.3945L127.742 65.9851C126.934 65.4882 126.162 64.9513 125.435 64.3523L128.643 60.3945Z" fill="#005655"/>
<path d="M125.436 64.3518L128.644 60.394L127.743 65.9846C132.531 68.9308 138.472 70.3817 142.886 73.918C150.274 79.8325 150.527 87.2334 149.906 96.0807C149.449 102.608 150.203 109.986 154.804 115.062C158.611 119.268 163.922 121.873 169.313 121.043L166.478 110.776V110.772C164.353 109.977 163.368 107.812 163.368 107.812C160.67 102.346 156.149 77.7604 155.372 73.4698C155.292 73.035 155.199 72.6046 155.093 72.1742L154.463 69.6851H154.458C150.305 73.4565 144.896 71.4199 144.896 71.4199C141.267 70.111 139.847 67.3911 139.448 64.6136C138.694 64.4405 137.935 64.1699 137.158 63.7306C135.423 62.7545 134.172 61.2991 133.511 59.4312C132.375 56.2188 133.893 51.7285 132.366 48.9199C129.389 49.3281 126.101 49.8872 123.275 50.4019C122.969 50.4596 122.663 50.5084 122.356 50.5527C121.837 51.3292 121.349 52.1323 121.105 53.1439C120.338 56.343 120.79 58.8899 122.729 61.5299C123.523 62.6125 124.437 63.5398 125.436 64.3518ZM180.512 78.4481C178.462 77.0105 176.213 76.0477 174.065 74.9296C172.122 73.918 170.258 72.7776 168.701 71.0383C166.234 68.2918 167.96 63.6774 168.972 60.6247C169.158 60.0612 169.899 58.0513 170.307 56.1079C168.896 54.9321 167.414 53.7917 165.879 52.7313L165.347 53.2105L165.608 56.2143C165.688 57.1639 165.435 58.1134 164.885 58.8943L164.308 59.7196C161.966 62.79 161.93 66.0512 162.196 67.9679C162.316 68.8154 162.569 69.6363 162.928 70.4127L166.655 78.5369L173.519 75.5153C172.765 76.3761 172.02 77.3744 171.35 78.5369C171.35 78.5369 179.603 78.7632 183.729 90.1973C184.217 88.9505 184.67 87.6904 185.056 86.4392C184.448 83.2223 183.059 80.2318 180.512 78.4481ZM178.941 71.3179C179.048 71.3933 179.159 71.4643 179.27 71.5308C181.138 72.649 183.019 72.6268 184.852 72.0589C184.718 71.837 184.576 71.624 184.43 71.4111C182.89 69.197 179.785 65.1993 175.649 61.0285C175.476 62.9586 175.268 64.7911 175.503 65.9092C175.96 68.0833 177.065 70.0622 178.941 71.3179ZM164.739 137.065C163.248 137.922 161.766 138.405 160.248 138.512C158.78 138.614 157.285 138.365 155.732 137.757C149.489 135.308 148.903 129.598 149.103 123.728C149.152 122.272 149.205 120.018 148.854 117.946C148.53 116.061 147.878 114.33 146.582 113.496C144.2 111.961 141.733 113.327 139.767 115.413C138.037 117.25 136.692 119.641 136.138 121.097C134.305 125.902 134.012 132.069 135.472 137.132C136.116 137.358 136.79 137.576 137.496 137.784C141.649 139.018 146.844 139.909 153.247 139.98C155.465 140.007 157.83 139.932 160.346 139.736C162.218 139.594 164.18 139.381 166.225 139.097C167.911 138.862 169.349 137.93 170.267 136.617V136.613C170.902 135.708 171.288 134.625 171.345 133.467C170.937 133.538 170.538 133.644 170.152 133.791C168.186 134.532 166.54 136.031 164.739 137.065ZM137.114 84.092C134.913 82.3127 132.056 81.6605 129.558 80.3605C128.746 79.939 127.858 79.5707 126.971 79.1714V90.6765L124.926 112.83L123.781 125.254C123.599 127.22 124.091 129.141 125.121 130.743C125.706 131.657 126.465 132.469 127.379 133.121C127.077 131.004 127.046 128.75 127.153 126.345C127.353 121.917 128.48 117.471 130.512 113.518C130.6 113.341 130.694 113.168 130.787 112.995C134.381 106.352 142.23 101.29 142.256 93.0946C142.265 89.341 139.923 86.3682 137.114 84.092Z" fill="#33C177"/>
<path d="M170.27 136.615C169.352 137.928 167.914 138.86 166.228 139.095C164.183 139.379 162.221 139.592 160.349 139.734C157.833 139.929 155.468 140.005 153.25 139.978C146.847 139.907 141.651 139.015 137.498 137.782C136.793 137.573 136.119 137.356 135.475 137.13C134.078 136.637 132.817 136.113 131.686 135.577C130.089 134.818 128.744 134.037 127.639 133.3C127.551 133.243 127.466 133.181 127.382 133.118C126.468 132.466 125.709 131.654 125.124 130.74L124.853 143.159L124.653 152.246H171.353L170.27 136.615Z" fill="#005655"/>
<path d="M127.742 65.9834L127.312 68.6456C127.241 69.0715 127.183 69.5019 127.134 69.9323C126.096 69.7948 124.073 69.218 122.01 68.579L125.435 64.3506C126.163 64.9496 126.935 65.4865 127.742 65.9834Z" fill="#005655"/>
<path d="M122.722 61.5288C120.783 58.8888 120.331 56.342 121.098 53.1429C121.343 52.1312 121.831 51.3281 122.35 50.5517C121.209 50.7292 120.065 50.8445 118.92 50.8933V50.8978C118.92 50.8978 119.75 59.226 119.071 67.6385V67.643C119.985 67.9403 121.001 68.2686 122.004 68.5792L125.429 64.3507C124.431 63.5388 123.517 62.6114 122.722 61.5288ZM133.504 59.4301C134.165 61.2981 135.417 62.7534 137.152 63.7295C137.928 64.1688 138.687 64.4395 139.441 64.6125C138.855 60.5349 140.466 56.3375 140.466 56.3375C139.033 55.2238 138.239 53.4091 138.434 51.5323C138.531 50.565 138.704 49.4735 138.931 48.3154C137.325 48.3154 134.96 48.5595 132.36 48.9189C133.886 51.7275 132.368 56.2177 133.504 59.4301ZM170.46 125.231L169.306 121.042C163.915 121.872 158.604 119.267 154.797 115.061C150.196 109.985 149.442 102.606 149.899 96.0797C150.52 87.2323 150.267 79.8314 142.88 73.9169C138.465 70.3806 132.524 68.9297 127.736 65.9835L127.306 68.6457C127.235 69.0717 127.177 69.5021 127.128 69.9325C127.022 70.9086 126.964 71.8892 126.964 72.8698V79.1703C127.852 79.5696 128.739 79.9379 129.551 80.3594C132.049 81.6594 134.906 82.3117 137.107 84.0909C139.916 86.3671 142.259 89.3399 142.25 93.0936C142.223 101.289 134.374 106.351 130.78 112.993C130.687 113.167 130.594 113.34 130.505 113.517C128.473 117.47 127.346 121.916 127.146 126.344C127.04 128.749 127.071 131.003 127.372 133.12C127.457 133.182 127.541 133.244 127.63 133.302C128.735 134.038 130.079 134.819 131.676 135.578C132.808 136.115 134.068 136.638 135.465 137.131C134.006 132.068 134.299 125.901 136.131 121.095C136.686 119.64 138.03 117.249 139.76 115.412C141.726 113.326 144.193 111.96 146.576 113.495C147.871 114.329 148.524 116.059 148.847 117.945C149.198 120.017 149.145 122.271 149.096 123.727C148.896 129.597 149.482 135.307 155.725 137.756C157.278 138.364 158.773 138.613 160.242 138.511C161.759 138.404 163.241 137.921 164.732 137.064C166.533 136.03 168.179 134.531 170.145 133.79C170.531 133.643 170.93 133.537 171.339 133.466C171.343 133.346 171.343 133.222 171.343 133.098C171.321 131.509 171.29 129.81 171.245 128.07L170.46 125.231ZM184.845 72.0578C183.012 72.6257 181.131 72.6479 179.263 71.5298C179.152 71.4632 179.041 71.3922 178.935 71.3168C177.058 70.0611 175.953 68.0822 175.496 65.9081C175.261 64.79 175.469 62.9575 175.642 61.0274C174.014 59.3813 172.222 57.7085 170.3 56.1068C169.892 58.0502 169.151 60.0602 168.965 60.6236C167.953 63.6763 166.227 68.2908 168.694 71.0373C170.252 72.7766 172.115 73.9169 174.058 74.9285C176.206 76.0466 178.456 77.0095 180.505 78.4471C183.052 80.2307 184.441 83.2213 185.049 86.4381C185.936 83.5984 186.518 80.7942 186.557 78.2518C186.593 76.0644 185.972 73.9258 184.845 72.0578Z" fill="#33C177"/>
<path d="M118.925 50.8984C118.925 50.8984 119.754 59.2267 119.076 67.6392C118.055 67.3064 117.159 67.0003 116.542 66.7918C117.061 60.3271 116.027 50.9162 116.027 50.9162V50.9117C116.995 50.9517 117.962 50.9472 118.925 50.8984Z" fill="white"/>
<path d="M116.025 50.9153V50.9109C113.642 50.8222 111.268 50.4805 108.948 49.8859L79.473 42.3342L72.7021 34.8623C72.2673 34.3831 71.6151 34.1524 70.9761 34.2589L70.0843 34.4008L70.0178 34.5029L69.3921 34.1124C68.8375 33.7619 68.1232 33.7841 67.5863 34.1701L65.9712 35.3326L65.9756 35.408C65.5319 35.4213 65.1104 35.59 64.7821 35.8961L63.238 37.3204L60.5669 37.5334C60.0478 37.5955 59.6751 38.0658 59.7372 38.5894C59.7949 39.0686 60.2031 39.428 60.6823 39.428C60.7089 39.428 60.7311 39.4235 60.7577 39.4235L63.3356 39.2105C63.9169 39.1617 64.4981 39.2194 65.0572 39.3836L67.2269 40.0136C67.9767 40.231 68.4116 41.012 68.1986 41.7662C68.0255 42.3919 67.4532 42.8089 66.8275 42.8089C66.7166 42.8089 66.6057 42.7956 66.4948 42.769L62.0533 41.6997C61.4233 41.5488 60.7888 41.926 60.6202 42.5516C60.5936 42.6581 60.5803 42.7601 60.5803 42.8666C60.5803 43.3769 60.9086 43.8516 61.4233 44.0069L66.5037 45.5643C67.1293 45.7551 67.7238 46.0258 68.2784 46.3718L69.6805 47.2415C70.741 47.9026 71.9878 48.1999 73.2301 48.0934L74.3838 47.9958C74.9251 47.947 75.4708 48.0446 75.9633 48.2709L115.652 66.4848C115.652 66.4848 115.985 66.6001 116.54 66.7909C117.059 60.3262 116.025 50.9153 116.025 50.9153Z" fill="url(#paint3_linear_319_14345)"/>
<path d="M138.445 51.5312C138.369 53.1108 138.968 54.6771 140.069 55.742C141.156 56.8423 142.722 57.255 144.248 57.4058C145.016 57.4768 145.806 57.4946 146.569 57.4147C147.341 57.3703 148.06 57.1086 148.809 56.8556C149.555 56.6072 150.3 56.3498 151.041 56.0836C151.787 55.8263 152.532 55.5645 153.246 55.2361C151.875 56.0348 150.389 56.5894 148.925 57.1795C148.206 57.4768 147.421 57.7608 146.609 57.8362C145.801 57.9294 145.007 57.9161 144.204 57.8495C143.405 57.7697 142.607 57.6055 141.848 57.326C141.076 57.0509 140.379 56.5761 139.825 55.9816C139.27 55.387 138.857 54.6682 138.613 53.9006C138.383 53.1286 138.316 52.3122 138.445 51.5312Z" fill="#9E5756"/>
<path d="M175.583 98.0154C174.882 96.7065 174.225 95.3798 173.578 94.0487C172.925 92.722 172.3 91.3776 171.679 90.0332C171.066 88.6844 170.454 87.34 169.873 85.9778L169.003 83.9323C168.728 83.2446 168.44 82.5613 168.178 81.8691C168.879 83.1781 169.535 84.5047 170.183 85.8314C170.836 87.158 171.461 88.5024 172.082 89.8469C172.695 91.1957 173.307 92.5401 173.888 93.9023C174.469 95.2689 175.051 96.631 175.583 98.0154Z" fill="#9E5756"/>
<path d="M163.888 51.6932C163.671 51.2184 163.493 50.7348 163.333 50.2467C163.196 49.7675 162.947 49.377 162.579 49.0842C162.406 48.9378 162.193 48.818 161.98 48.7426C161.763 48.6671 161.497 48.5917 161.261 48.5074C160.773 48.3432 160.29 48.1613 159.819 47.9395C160.338 47.9838 160.849 48.0681 161.35 48.1702C161.607 48.219 161.838 48.2722 162.113 48.3432C162.384 48.432 162.632 48.5651 162.854 48.7381C163.294 49.0886 163.591 49.6299 163.662 50.158C163.764 50.6638 163.848 51.174 163.888 51.6932Z" fill="#9E5756"/>
<path d="M155.325 57.1025C155.001 58.4869 154.513 59.8269 153.958 61.1358C153.43 62.4092 153.284 63.8335 153.559 65.1779C153.874 66.5356 154.233 67.9199 154.54 69.2998C154.846 70.6842 155.183 72.0597 155.374 73.4706C155.174 72.7873 155.014 72.104 154.793 71.4252L154.211 69.3797C153.825 68.0131 153.457 66.6598 153.124 65.2577C152.84 63.8246 153.013 62.2983 153.652 60.9893C153.963 60.3549 154.256 59.7159 154.535 59.0637C154.815 58.4248 155.077 57.7681 155.325 57.1025Z" fill="#9E5756"/>
<path d="M158.007 54.6349C157.168 54.453 156.307 54.3687 155.482 54.4397C154.661 54.5151 153.854 54.8079 153.397 55.4557C153.281 55.611 153.188 55.7796 153.108 55.966L152.855 56.5605C152.682 56.951 152.514 57.3459 152.332 57.7363L152.061 58.322C151.963 58.5217 151.879 58.6859 151.861 58.8855C151.808 59.276 151.999 59.6975 152.349 59.9504C151.946 59.7818 151.657 59.347 151.644 58.8767C151.631 58.6415 151.719 58.4019 151.79 58.2111L152.008 57.6032C152.154 57.1995 152.309 56.8001 152.465 56.3964L152.704 55.7974C152.784 55.5888 152.9 55.3759 153.037 55.1851C153.317 54.8124 153.707 54.5151 154.133 54.342C154.563 54.1779 155.012 54.0936 155.46 54.0891C156.352 54.0803 157.217 54.2932 158.007 54.6349Z" fill="#9E5756"/>
<path d="M162.084 55.0107C161.756 54.4383 161.445 53.8571 161.126 53.2803C160.966 52.9919 160.82 52.699 160.664 52.4062C160.513 52.1045 160.358 51.8471 160.145 51.612C159.728 51.1505 159.165 50.8266 158.566 50.7024C158.273 50.6358 157.944 50.6447 157.616 50.6136L156.631 50.5471H156.649C156.427 50.5338 156.249 50.5382 156.054 50.5604C155.863 50.5826 155.673 50.6225 155.486 50.6802C155.114 50.7956 154.763 50.9775 154.461 51.2215L154.328 51.2703C154.404 51.2703 154.452 51.2259 154.452 51.2259C154.457 51.2215 154.439 51.2437 154.399 51.2614L154.439 51.2348L153.099 52.2997C152.984 52.3929 152.882 52.4683 152.806 52.5526C152.726 52.6413 152.669 52.7478 152.629 52.8632C152.549 53.0939 152.567 53.3557 152.673 53.5776C152.877 54.0434 153.476 54.2742 153.973 54.0701L155.513 53.338C155.029 53.6441 154.546 53.9369 154.044 54.2298C153.494 54.5359 152.713 54.2919 152.416 53.7107C152.261 53.4267 152.221 53.0806 152.305 52.7656C152.349 52.6059 152.425 52.455 152.527 52.3263C152.629 52.1888 152.762 52.0912 152.864 52.0069L154.173 50.9065L154.213 50.8799C154.182 50.8932 154.169 50.9109 154.182 50.902C154.186 50.8976 154.244 50.8444 154.333 50.8444L154.2 50.8932C154.541 50.6136 154.941 50.4007 155.362 50.2676C155.575 50.201 155.792 50.1522 156.01 50.1256C156.227 50.0989 156.462 50.0989 156.658 50.1123H156.675L157.66 50.1877C157.984 50.2187 158.317 50.2232 158.668 50.3075C159.351 50.4672 159.972 50.8621 160.402 51.4034C160.62 51.6696 160.789 51.9891 160.913 52.2864C161.046 52.5881 161.188 52.8854 161.317 53.1871C161.565 53.7994 161.836 54.4028 162.084 55.0107Z" fill="#9E5756"/>
<path d="M180.276 70.7451C179.637 71.0202 179.025 71.3485 178.435 71.7124C177.84 72.0629 177.268 72.4534 176.718 72.8704C176.167 73.2831 175.635 73.7268 175.129 74.1927C174.619 74.6541 174.149 75.1599 173.683 75.6613L173.612 75.7367H173.519H173.514L173.678 75.6613C172.915 76.5221 172.227 77.4494 171.602 78.4167C171.291 78.9047 171.003 79.4061 170.728 79.9119C170.444 80.4178 170.209 80.9502 169.951 81.4693C170.124 80.9147 170.319 80.3601 170.55 79.8232C170.781 79.2863 171.047 78.7628 171.331 78.2481C171.895 77.2187 172.582 76.2559 173.354 75.3685L173.416 75.293H173.519H173.523L173.359 75.3685C174.295 74.308 175.347 73.3629 176.513 72.5732C177.099 72.1827 177.703 71.8233 178.328 71.5083C178.954 71.2066 179.597 70.9226 180.276 70.7451Z" fill="#005655"/>
<path d="M129.084 57.6865C128.884 59.4835 128.64 61.2672 128.387 63.0553C128.139 64.8434 127.846 66.6226 127.575 68.4063C127.438 69.2937 127.296 70.1722 127.234 71.0685C127.154 71.9603 127.163 72.8522 127.14 73.7573L127.078 76.4639C127.043 77.3646 127.021 78.2697 126.967 79.1705C126.919 78.2697 126.896 77.3646 126.856 76.4639L126.794 73.7573C126.723 71.9559 126.843 70.1234 127.132 68.3309C127.438 66.5561 127.722 64.7724 128.046 62.9976L128.538 60.3354C128.724 59.4569 128.889 58.5695 129.084 57.6865Z" fill="#005655"/>
<path d="M137.488 137.784C137.608 138.987 137.683 140.193 137.75 141.396C137.821 142.598 137.856 143.805 137.892 145.012C137.914 146.219 137.941 147.421 137.927 148.628L137.91 150.438C137.888 151.042 137.879 151.645 137.843 152.249C137.777 151.645 137.741 151.046 137.692 150.443L137.586 148.637C137.515 147.435 137.479 146.228 137.448 145.021C137.426 143.814 137.399 142.612 137.413 141.405C137.413 140.198 137.426 138.991 137.488 137.784Z" fill="#D6E4E4"/>
<path d="M166.225 139.097C166.225 139.097 167.152 143.96 167.525 148.738C167.618 149.941 167.676 151.139 167.676 152.248" fill="#D6E4E4"/>
<path d="M153.242 139.984C153.38 140.752 153.615 141.497 153.925 142.203C154.232 142.913 154.609 143.587 155.061 144.204C155.962 145.442 157.151 146.454 158.504 147.163C159.853 147.887 161.353 148.295 162.875 148.534C163.256 148.601 163.642 148.628 164.024 148.676L165.182 148.743L166.349 148.765C166.74 148.752 167.126 148.743 167.516 148.743C165.972 148.974 164.397 149.045 162.826 148.876C161.26 148.712 159.702 148.304 158.291 147.558C156.889 146.813 155.647 145.735 154.777 144.399C153.917 143.073 153.344 141.546 153.242 139.984Z" fill="#D6E4E4"/>
<path d="M124.852 143.16C125.668 142.818 126.409 142.339 127.101 141.824C127.789 141.292 128.423 140.702 128.987 140.045C130.127 138.736 130.979 137.206 131.68 135.577C131.312 137.312 130.495 138.971 129.32 140.334C128.725 141.012 128.046 141.611 127.296 142.104C126.551 142.592 125.721 142.983 124.852 143.16Z" fill="#D6E4E4"/>
<path d="M71.6294 35.5147C71.1191 35.3017 70.6311 35.0532 70.1519 34.7915C69.9123 34.6628 69.6771 34.5208 69.4375 34.3877C69.3133 34.3167 69.2112 34.2457 69.1047 34.2058C68.9982 34.1614 68.8829 34.1259 68.7675 34.1082C68.5368 34.0638 68.2928 34.086 68.0665 34.157C67.9511 34.188 67.8446 34.2413 67.7381 34.3034L67.3965 34.5208C66.935 34.8136 66.4647 35.0932 65.9678 35.3372C66.3582 34.9423 66.7709 34.5874 67.1968 34.2413C67.3033 34.1525 67.4009 34.0682 67.5252 33.9839C67.6494 33.8952 67.7825 33.8198 67.9289 33.7665C68.2173 33.66 68.5368 33.629 68.8429 33.6778C69.1402 33.7221 69.4508 33.8907 69.6638 34.0416C69.8901 34.1969 70.1164 34.3433 70.3382 34.5075C70.7775 34.8181 71.2167 35.1464 71.6294 35.5147Z" fill="#C17170"/>
<path d="M69.9412 35.7327C68.6988 35.7815 67.4609 35.6839 66.2451 35.6306C65.6506 35.5774 65.1581 35.7637 64.7099 36.1897C64.2352 36.589 63.7427 36.9617 63.2324 37.3167C63.6273 36.8331 64.04 36.3761 64.4748 35.9368C64.67 35.7194 64.9495 35.4665 65.2646 35.3378C65.584 35.2003 65.939 35.1692 66.2585 35.1825C67.5097 35.2579 68.7299 35.4354 69.9412 35.7327Z" fill="#C17170"/>
<path d="M68.7995 36.8765C67.4418 37.1605 66.0708 37.3114 64.6997 37.4267C63.3287 37.5288 61.9532 37.5998 60.5645 37.5332C61.9222 37.2493 63.2932 37.0984 64.6642 36.983C66.0353 36.881 67.4107 36.8144 68.7995 36.8765Z" fill="#C17170"/>
<path d="M146.885 38.5322C146.574 39.5705 146.188 40.5688 145.771 41.5494C145.363 42.5344 144.906 43.5017 144.44 44.4601L143.734 45.84C143.61 46.1062 143.77 46.47 144.125 46.5632C145.088 46.825 146.135 46.785 147.182 46.5144C146.29 47.1267 145.127 47.4107 143.992 47.242C143.654 47.2066 143.277 46.9891 143.086 46.6652C142.882 46.3458 142.825 45.9287 142.949 45.5516L143.002 45.4184L143.047 45.3253L143.131 45.1434L143.304 44.784L143.65 44.0652C144.134 43.1156 144.622 42.1661 145.159 41.2432C145.687 40.3203 146.246 39.4063 146.885 38.5322Z" fill="#C17170"/>
<path d="M142.128 48.9245C142.896 49.3948 143.734 49.7276 144.59 49.914C145.447 50.0914 146.33 50.1358 147.182 49.9628C147.395 49.9361 147.603 49.8607 147.816 49.8075C147.923 49.7764 148.029 49.7587 148.131 49.7187L148.433 49.5945C148.633 49.5102 148.846 49.4481 149.036 49.3416L149.613 49.0221C149.813 48.9289 149.986 48.7914 150.168 48.6627L150.718 48.2811C151.068 48.0061 151.397 47.6999 151.756 47.4248C151.468 47.7709 151.166 48.1125 150.86 48.4453L150.341 48.8934C150.168 49.0443 149.995 49.1952 149.795 49.3105C149.045 49.8474 148.167 50.1979 147.257 50.3932C146.339 50.5706 145.385 50.4996 144.497 50.2423C143.614 49.9938 142.793 49.5368 142.128 48.9245Z" fill="#C17170"/>
<path d="M151.428 38.2441C151.916 38.0267 152.444 37.9645 152.967 37.969C153.491 37.9823 154.023 38.0843 154.525 38.2884C155.026 38.4925 155.492 38.8076 155.856 39.2158C156.22 39.6151 156.477 40.1298 156.521 40.6578C156.135 40.2895 155.785 39.9834 155.39 39.7393C155.008 39.4864 154.605 39.2868 154.183 39.1137C153.345 38.7588 152.43 38.5458 151.428 38.2441Z" fill="#3E2B7C"/>
<path d="M142.644 34.4988L142.648 34.4943C143.003 34.339 143.367 34.3035 143.726 34.308C144.086 34.3213 144.441 34.3834 144.782 34.5032C145.124 34.623 145.448 34.8005 145.732 35.0356C146.011 35.2797 146.255 35.577 146.371 35.9452C145.998 35.8432 145.692 35.7411 145.386 35.6391C145.079 35.5415 144.782 35.4438 144.485 35.3374C144.188 35.2309 143.886 35.1199 143.58 34.9868C143.274 34.8582 142.967 34.7117 142.644 34.4988Z" fill="#3E2B7C"/>
<path d="M172.611 36.1376C172.464 36.3994 172.318 36.6567 172.198 36.9362C172.043 37.3134 171.83 37.8813 171.688 38.5114C171.683 38.538 171.674 38.5646 171.67 38.5912C171.666 38.6179 171.657 38.6489 171.652 38.6755C171.515 39.3367 171.453 40.0466 171.599 40.6899C171.599 40.6899 171.861 41.5818 171.794 42.7221C171.71 44.2528 171.027 46.2362 168.311 47.0792H168.307L167.699 46.2184L167.668 46.1741L167.637 46.1297L164.944 42.3361L163.373 43.6095L163.315 43.6539L163.253 43.7027L161.079 45.4641C161.172 44.4392 161.088 43.5429 160.901 42.7665C160.68 41.8302 160.302 41.0715 159.912 40.4814C159.837 40.3705 159.761 40.264 159.686 40.1619C159.149 39.4476 158.412 38.9151 157.605 38.5291C154.064 36.8253 154.428 33.6041 154.428 33.6041C154.894 31.603 154.162 30.6268 153.589 30.1876C153.323 29.9835 152.995 29.877 152.662 29.8326C151.983 29.735 151.424 29.5398 150.963 29.2957C150.412 29.0073 149.982 28.5903 149.689 28.1066C149.241 27.3834 149.09 26.5093 149.263 25.7018C149.272 25.6618 149.281 25.6263 149.29 25.5864C149.299 25.5509 149.308 25.5154 149.321 25.4799C149.343 25.3867 149.374 25.298 149.41 25.2093C149.631 24.6413 150.035 24.1311 150.625 23.7672C150.94 23.5764 151.273 23.4478 151.588 23.399C151.863 23.359 152.13 23.3768 152.369 23.4655C152.476 23.5055 152.582 23.541 152.693 23.5764C154.25 24.0556 155.923 23.9048 157.392 23.2392L157.503 23.1904C157.831 23.0396 158.146 22.8577 158.448 22.6536C158.457 22.6491 158.461 22.6447 158.47 22.6402C158.568 22.5737 158.67 22.5027 158.763 22.4317C159.349 21.9924 159.996 21.6508 160.688 21.4245C160.879 21.3624 161.07 21.3091 161.27 21.2692L161.39 21.2426C161.713 21.1805 162.051 21.1405 162.383 21.1317C163.506 21.105 164.819 21.3713 166.084 22.3208C167.153 23.1239 167.903 24.2731 168.302 25.5465C168.577 26.4339 169.141 27.7073 170.232 28.5725C170.774 29.0073 171.288 29.4732 171.697 30.0278C172.691 31.3811 173.951 33.7993 172.611 36.1376Z" fill="black"/>
<path d="M160.687 21.424C159.995 21.6502 159.347 21.9919 158.761 22.4312C158.681 22.4933 158.597 22.551 158.513 22.6086C158.499 22.6175 158.482 22.6308 158.468 22.6397C158.46 22.6441 158.455 22.6486 158.446 22.653C158.437 22.6574 158.433 22.6619 158.424 22.6663C158.113 22.8793 157.785 23.0612 157.448 23.2165C155.966 23.8998 154.271 24.0595 152.691 23.5759C152.581 23.5404 152.474 23.5049 152.368 23.465C152.146 23.3851 151.902 23.3629 151.649 23.3895C151.627 23.394 151.609 23.394 151.587 23.3984C151.564 23.4029 151.547 23.4073 151.524 23.4117C151.227 23.465 150.917 23.5892 150.624 23.7667C150.051 24.1172 149.657 24.6097 149.435 25.1555H149.43C149.421 25.1732 149.417 25.191 149.408 25.2087C149.399 25.2265 149.395 25.2486 149.39 25.2664H149.386C149.346 25.3729 149.315 25.4749 149.288 25.5859C149.075 26.4244 149.217 27.3473 149.688 28.1061H149.683C147.123 30.014 145.313 30.4621 144.039 30.2225C141.581 29.7699 141.133 26.7528 141.133 26.7528C141.129 26.7173 141.124 26.6818 141.124 26.6507L141.106 26.4777V26.4733C140.88 23.9664 141.883 22.5998 142.961 21.8588C143.871 21.2332 144.993 20.9891 146.094 21.0823C146.662 21.1311 147.194 21.1577 147.691 21.1622C147.731 21.1666 147.766 21.1666 147.802 21.1666H147.913C150.846 21.1844 152.581 20.5676 153.282 20.257C153.321 20.2393 153.366 20.2215 153.406 20.2038C153.428 20.1949 153.446 20.186 153.468 20.1772C153.49 20.1683 153.517 20.1594 153.539 20.1505C154.089 19.9198 154.661 19.7468 155.247 19.658C158.779 19.13 160.687 21.424 160.687 21.424Z" fill="black"/>
<path d="M161.532 37.6768C161.244 37.3041 160.951 36.9669 160.672 36.6386C159.687 35.4938 158.839 34.5044 158.706 32.7606C158.542 30.7418 157.907 29.6503 156.355 28.7274C155.445 28.1905 154.464 28.1861 153.515 28.1816C152.765 28.1772 151.989 28.1728 151.256 27.9066C150.329 27.5693 149.557 26.6287 149.34 25.5683C149.331 25.5505 149.331 25.5283 149.326 25.5061L149.322 25.4928C149.322 25.4884 149.322 25.484 149.317 25.4795C149.304 25.515 149.295 25.5505 149.286 25.586C149.278 25.6259 149.269 25.6614 149.26 25.7014C149.508 26.7529 150.285 27.6714 151.221 28.013C151.971 28.2837 152.756 28.2881 153.51 28.2926C154.447 28.297 155.414 28.3014 156.301 28.825C157.814 29.7257 158.435 30.795 158.595 32.7695C158.733 34.5487 159.594 35.5515 160.587 36.7096C160.867 37.0379 161.155 37.3751 161.444 37.7478C162.14 38.6441 162.691 39.8066 162.997 41.0179C163.232 41.9141 163.321 42.8237 163.254 43.649C163.254 43.6668 163.254 43.6845 163.25 43.7023L163.312 43.6535L163.369 43.6091C163.427 42.7882 163.338 41.8831 163.103 40.9913C162.793 39.7666 162.238 38.5908 161.532 37.6768ZM168.463 41.9851C168.246 41.1022 167.806 40.2503 167.23 39.5847C166.839 39.1366 166.395 38.7018 165.921 38.2403C164.51 36.8693 163.05 35.445 163.028 33.5859C163.014 32.9825 163.054 32.3569 163.09 31.749C163.214 29.6237 163.338 27.4274 161.572 25.7724C160.978 25.2177 160.224 24.8317 159.496 24.4546L159.27 24.3392C158.653 24.0197 158.005 23.6692 157.499 23.19L157.388 23.2388C157.393 23.2433 157.402 23.2521 157.406 23.2566C157.93 23.7535 158.591 24.1129 159.216 24.4368L159.447 24.5566C160.166 24.9249 160.916 25.3065 161.497 25.8522C163.227 27.4762 163.099 29.6414 162.979 31.7401C162.943 32.348 162.904 32.978 162.917 33.5859C162.943 35.4938 164.417 36.9314 165.845 38.3202C166.316 38.7816 166.759 39.212 167.145 39.6557C167.709 40.3124 168.139 41.1465 168.357 42.0118C168.419 42.2647 168.463 42.5353 168.494 42.8104C168.57 43.618 168.485 45.3484 167.633 46.1293L167.664 46.1737L167.695 46.218L167.7 46.2136C168.596 45.4061 168.68 43.6268 168.601 42.8015C168.574 42.5176 168.53 42.2425 168.463 41.9851ZM169.967 36.4167C169.683 36.1372 169.382 35.871 169.084 35.6181C168.587 35.1832 168.068 34.7351 167.66 34.2026C166.52 32.7296 166.679 31.1544 166.848 29.4817C166.91 28.8783 166.972 28.2526 166.972 27.627C166.968 24.987 165.317 23.8334 163.161 22.6043C162.358 22.1473 161.825 21.7391 161.386 21.2422L161.266 21.2688C161.271 21.2777 161.28 21.2821 161.284 21.291C161.732 21.8057 162.278 22.2272 163.108 22.702C165.229 23.9133 166.857 25.0447 166.861 27.627C166.861 28.2482 166.799 28.8694 166.737 29.4728C166.564 31.1633 166.404 32.7651 167.571 34.2736C167.988 34.8105 168.512 35.2631 169.013 35.7024C169.306 35.9553 169.608 36.217 169.887 36.4966C170.619 37.2242 171.187 37.9164 171.618 38.6175C171.631 38.6352 171.64 38.6574 171.649 38.6751C171.653 38.6485 171.662 38.6175 171.667 38.5908C171.671 38.5642 171.68 38.5376 171.684 38.511C171.25 37.8188 170.686 37.1311 169.967 36.4167Z" fill="black"/>
<path d="M149.402 25.1563C148.474 25.2229 147.64 25.8485 146.757 26.5096C146.247 26.8912 145.723 27.2861 145.151 27.5966C143.767 28.3421 142.107 27.5656 141.153 26.5273C141.136 26.5096 141.127 26.4963 141.104 26.4785L141.122 26.6516C141.832 27.4014 142.897 28.0048 143.962 28.0048C144.383 28.0048 144.805 27.9117 145.204 27.6943C145.786 27.3792 146.314 26.9843 146.824 26.5983C147.685 25.9505 148.497 25.3382 149.384 25.2672H149.388C149.393 25.2495 149.397 25.2273 149.406 25.2095C149.415 25.1918 149.419 25.174 149.428 25.1563H149.402ZM151.625 23.3638C151.026 22.6805 150.125 22.2589 149.246 21.8507C148.798 21.6378 148.337 21.4203 147.911 21.1674H147.8C147.764 21.1674 147.729 21.1674 147.689 21.163C147.716 21.1852 147.742 21.1985 147.769 21.2162C148.221 21.4913 148.718 21.7221 149.202 21.9483C150.098 22.3699 150.937 22.7648 151.523 23.4126C151.545 23.4081 151.562 23.4037 151.585 23.3992C151.607 23.3948 151.625 23.3948 151.647 23.3904C151.642 23.3815 151.633 23.3726 151.625 23.3638ZM158.506 22.605C157.952 21.9838 157.158 21.5934 156.386 21.2473C156.097 21.1142 155.716 20.9855 155.312 20.848C154.735 20.6572 154.083 20.4398 153.537 20.1514C153.515 20.1602 153.488 20.1691 153.466 20.178C153.444 20.1869 153.426 20.1957 153.404 20.2046C153.413 20.2135 153.426 20.2179 153.439 20.2268C154.003 20.5285 154.682 20.7548 155.276 20.9545C155.676 21.0876 156.057 21.2162 156.341 21.3449C157.095 21.691 157.876 22.0681 158.422 22.6671C158.431 22.6627 158.435 22.6583 158.444 22.6538C158.453 22.6494 158.458 22.645 158.466 22.6405C158.48 22.6316 158.498 22.6183 158.506 22.605Z" fill="black"/>
<path d="M167.825 24.3872C167.364 23.5974 166.76 22.9008 166.019 22.3861C165.278 21.8714 164.444 21.5032 163.561 21.37C162.683 21.2281 161.778 21.2946 160.93 21.5608C160.504 21.6718 160.096 21.8581 159.705 22.0666C159.306 22.2796 158.978 22.5325 158.587 22.8165L158.565 22.8298C157.451 23.593 156.12 24.0455 154.763 24.0677C154.088 24.081 153.409 24.0012 152.757 23.806C152.593 23.766 152.433 23.6995 152.278 23.6462C152.149 23.5974 152.007 23.5752 151.861 23.5752C151.568 23.5708 151.275 23.6551 150.996 23.7838C150.437 24.0411 149.953 24.4715 149.665 25.0217C149.385 25.5763 149.256 26.2197 149.35 26.8453C149.434 27.4709 149.696 28.0788 150.117 28.5668C150.326 28.8109 150.574 29.0194 150.849 29.1925C151.129 29.3566 151.435 29.4764 151.728 29.6229C151.426 29.5031 151.107 29.4099 150.809 29.259C150.516 29.0993 150.25 28.8996 150.015 28.66C149.554 28.1764 149.221 27.5552 149.11 26.8852C148.986 26.2152 149.097 25.5098 149.385 24.8841C149.687 24.263 150.206 23.7438 150.836 23.4466C151.147 23.3001 151.497 23.1892 151.865 23.1892C152.047 23.1892 152.234 23.2158 152.411 23.2779C152.571 23.3268 152.713 23.3844 152.868 23.4244C153.476 23.5974 154.115 23.664 154.749 23.6462C156.014 23.5974 157.27 23.1936 158.33 22.4882L158.352 22.4749C159.067 21.9335 159.914 21.4277 160.824 21.197C161.724 20.9219 162.696 20.9086 163.61 21.0816C164.528 21.2591 165.403 21.6629 166.121 22.2441C166.853 22.8165 167.435 23.5575 167.825 24.3872Z" fill="#414141"/>
<defs>
<linearGradient id="paint0_linear_319_14345" x1="146.885" y1="42.8961" x2="124.391" y2="42.8961" gradientUnits="userSpaceOnUse">
<stop stop-color="#FEBBBA"/>
<stop offset="1" stop-color="#FF928E"/>
</linearGradient>
<linearGradient id="paint1_linear_319_14345" x1="163.264" y1="77.9428" x2="132.699" y2="77.9428" gradientUnits="userSpaceOnUse">
<stop stop-color="#FEBBBA"/>
<stop offset="1" stop-color="#FF928E"/>
</linearGradient>
<linearGradient id="paint2_linear_319_14345" x1="146.163" y1="63.604" x2="133.865" y2="63.604" gradientUnits="userSpaceOnUse">
<stop stop-color="#FEBBBA"/>
<stop offset="1" stop-color="#FF928E"/>
</linearGradient>
<linearGradient id="paint3_linear_319_14345" x1="81.1863" y1="50.328" x2="24.2305" y2="50.328" gradientUnits="userSpaceOnUse">
<stop stop-color="#FEBBBA"/>
<stop offset="1" stop-color="#FF928E"/>
</linearGradient>
</defs>
</svg>
