<svg width="227" height="241" viewBox="0 0 227 241" fill="none" xmlns="http://www.w3.org/2000/svg">
<path d="M11.0701 148.053L8.19262 146.371C8.03999 146.281 7.85816 146.256 7.68712 146.301C7.51608 146.346 7.36985 146.457 7.28059 146.61C7.19134 146.762 7.16637 146.944 7.21118 147.115C7.25599 147.286 7.36691 147.432 7.51954 147.522L10.397 149.204L8.71426 152.082C8.62501 152.234 8.60004 152.416 8.64485 152.587C8.68966 152.758 8.80058 152.904 8.95321 152.994C9.10584 153.083 9.28767 153.108 9.45871 153.063C9.62975 153.018 9.77598 152.907 9.86523 152.755L11.5479 149.877L14.4254 151.56C14.578 151.649 14.7598 151.674 14.9309 151.629C15.1019 151.585 15.2481 151.474 15.3374 151.321C15.4267 151.168 15.4516 150.987 15.4068 150.816C15.362 150.645 15.2511 150.498 15.0985 150.409L12.221 148.726L13.9037 145.849C13.993 145.696 14.018 145.514 13.9731 145.343C13.9283 145.172 13.8174 145.026 13.6648 144.937C13.5122 144.848 13.3303 144.823 13.1593 144.868C12.9882 144.912 12.842 145.023 12.7528 145.176L11.0701 148.053Z" fill="#E2E8F0"/>
<path d="M27.2243 120.43L24.3469 118.747C24.1943 118.658 24.0125 118.633 23.8414 118.678C23.6704 118.723 23.5241 118.834 23.4349 118.986C23.3456 119.139 23.3207 119.321 23.3655 119.492C23.4103 119.663 23.5212 119.809 23.6738 119.898L26.5513 121.581L24.8686 124.458C24.7793 124.611 24.7543 124.793 24.7991 124.964C24.844 125.135 24.9549 125.281 25.1075 125.37C25.2601 125.46 25.442 125.485 25.613 125.44C25.784 125.395 25.9303 125.284 26.0195 125.131L27.7022 122.254L30.5797 123.937C30.7323 124.026 30.9141 124.051 31.0852 124.006C31.2562 123.961 31.4024 123.85 31.4917 123.698C31.581 123.545 31.6059 123.363 31.5611 123.192C31.5163 123.021 31.4054 122.875 31.2528 122.786L28.3753 121.103L30.058 118.226C30.1473 118.073 30.1723 117.891 30.1274 117.72C30.0826 117.549 29.9717 117.403 29.8191 117.314C29.6665 117.224 29.4846 117.199 29.3136 117.244C29.1425 117.289 28.9963 117.4 28.9071 117.553L27.2243 120.43Z" fill="#E2E8F0"/>
<path d="M43.3777 92.8067L40.5002 91.124C40.3476 91.0348 40.1658 91.0098 39.9947 91.0546C39.8237 91.0994 39.6775 91.2103 39.5882 91.363C39.499 91.5156 39.474 91.6974 39.5188 91.8685C39.5636 92.0395 39.6745 92.1857 39.8272 92.275L42.7046 93.9577L41.0219 96.8351C40.9326 96.9877 40.9077 97.1696 40.9525 97.3406C40.9973 97.5117 41.1082 97.6579 41.2608 97.7471C41.4135 97.8364 41.5953 97.8614 41.7663 97.8166C41.9374 97.7718 42.0836 97.6608 42.1729 97.5082L43.8556 94.6308L46.733 96.3135C46.8856 96.4027 47.0675 96.4277 47.2385 96.3829C47.4095 96.3381 47.5558 96.2272 47.645 96.0745C47.7343 95.9219 47.7592 95.7401 47.7144 95.569C47.6696 95.398 47.5587 95.2518 47.4061 95.1625L44.5286 93.4798L46.2113 90.6024C46.3006 90.4497 46.3256 90.2679 46.2808 90.0969C46.236 89.9258 46.125 89.7796 45.9724 89.6903C45.8198 89.6011 45.6379 89.5761 45.4669 89.6209C45.2959 89.6657 45.1496 89.7767 45.0604 89.9293L43.3777 92.8067Z" fill="#E2E8F0"/>
<path d="M59.532 65.1832L56.6545 63.5005C56.5019 63.4112 56.3201 63.3862 56.149 63.4311C55.978 63.4759 55.8318 63.5868 55.7425 63.7394C55.6533 63.892 55.6283 64.0739 55.6731 64.2449C55.7179 64.416 55.8288 64.5622 55.9815 64.6514L58.8589 66.3342L57.1762 69.2116C57.0869 69.3642 57.062 69.546 57.1068 69.7171C57.1516 69.8881 57.2625 70.0344 57.4151 70.1236C57.5677 70.2129 57.7496 70.2378 57.9206 70.193C58.0917 70.1482 58.2379 70.0373 58.3271 69.8847L60.0099 67.0072L62.8873 68.6899C63.0399 68.7792 63.2217 68.8042 63.3928 68.7594C63.5638 68.7145 63.7101 68.6036 63.7993 68.451C63.8886 68.2984 63.9135 68.1165 63.8687 67.9455C63.8239 67.7745 63.713 67.6282 63.5604 67.539L60.6829 65.8563L62.3656 62.9788C62.4549 62.8262 62.4799 62.6444 62.4351 62.4733C62.3903 62.3023 62.2793 62.1561 62.1267 62.0668C61.9741 61.9776 61.7922 61.9526 61.6212 61.9974C61.4502 62.0422 61.3039 62.1531 61.2147 62.3058L59.532 65.1832Z" fill="#E2E8F0"/>
<path d="M75.6863 37.5599L72.8088 35.8772C72.6562 35.7879 72.4744 35.763 72.3033 35.8078C72.1323 35.8526 71.9861 35.9635 71.8968 36.1161C71.8075 36.2688 71.7826 36.4506 71.8274 36.6216C71.8722 36.7927 71.9831 36.9389 72.1358 37.0282L75.0132 38.7109L73.3305 41.5883C73.2412 41.7409 73.2162 41.9228 73.2611 42.0938C73.3059 42.2648 73.4168 42.4111 73.5694 42.5003C73.722 42.5896 73.9039 42.6145 74.0749 42.5697C74.246 42.5249 74.3922 42.414 74.4814 42.2614L76.1642 39.3839L79.0416 41.0667C79.1942 41.1559 79.376 41.1809 79.5471 41.1361C79.7181 41.0913 79.8644 40.9803 79.9536 40.8277C80.0429 40.6751 80.0678 40.4932 80.023 40.3222C79.9782 40.1512 79.8673 40.0049 79.7147 39.9157L76.8372 38.233L78.5199 35.3555C78.6092 35.2029 78.6342 35.0211 78.5894 34.85C78.5445 34.679 78.4336 34.5328 78.281 34.4435C78.1284 34.3543 77.9465 34.3293 77.7755 34.3741C77.6045 34.4189 77.4582 34.5298 77.369 34.6825L75.6863 37.5599Z" fill="#E2E8F0"/>
<path d="M91.8396 9.9366L88.9622 8.25389C88.8095 8.16464 88.6277 8.13967 88.4567 8.18448C88.2856 8.22929 88.1394 8.34021 88.0501 8.49284C87.9609 8.64547 87.9359 8.8273 87.9807 8.99834C88.0255 9.16938 88.1364 9.31561 88.2891 9.40487L91.1665 11.0876L89.4838 13.965C89.3945 14.1176 89.3696 14.2995 89.4144 14.4705C89.4592 14.6415 89.5701 14.7878 89.7227 14.877C89.8754 14.9663 90.0572 14.9913 90.2282 14.9464C90.3993 14.9016 90.5455 14.7907 90.6348 14.6381L92.3175 11.7607L95.1949 13.4434C95.3475 13.5326 95.5294 13.5576 95.7004 13.5128C95.8714 13.468 96.0177 13.357 96.1069 13.2044C96.1962 13.0518 96.2212 12.87 96.1763 12.6989C96.1315 12.5279 96.0206 12.3816 95.868 12.2924L92.9906 10.6097L94.6733 7.73225C94.7625 7.57962 94.7875 7.39779 94.7427 7.22675C94.6979 7.05571 94.5869 6.90948 94.4343 6.82023C94.2817 6.73097 94.0999 6.706 93.9288 6.75081C93.7578 6.79562 93.6115 6.90654 93.5223 7.05917L91.8396 9.9366Z" fill="#E2E8F0"/>
<path d="M38.6931 164.207L35.8157 162.525C35.663 162.435 35.4812 162.41 35.3102 162.455C35.1391 162.5 34.9929 162.611 34.9036 162.764C34.8144 162.916 34.7894 163.098 34.8342 163.269C34.879 163.44 34.99 163.586 35.1426 163.676L38.02 165.358L36.3373 168.236C36.2481 168.388 36.2231 168.57 36.2679 168.741C36.3127 168.912 36.4236 169.059 36.5763 169.148C36.7289 169.237 36.9107 169.262 37.0818 169.217C37.2528 169.172 37.399 169.061 37.4883 168.909L39.171 166.031L42.0484 167.714C42.201 167.803 42.3829 167.828 42.5539 167.784C42.725 167.739 42.8712 167.628 42.9604 167.475C43.0497 167.323 43.0747 167.141 43.0299 166.97C42.9851 166.799 42.8741 166.652 42.7215 166.563L39.8441 164.88L41.5268 162.003C41.616 161.85 41.641 161.669 41.5962 161.498C41.5514 161.326 41.4405 161.18 41.2878 161.091C41.1352 161.002 40.9534 160.977 40.7823 161.022C40.6113 161.066 40.4651 161.177 40.3758 161.33L38.6931 164.207Z" fill="#33C275"/>
<path d="M54.8474 136.584L51.97 134.901C51.8173 134.812 51.6355 134.787 51.4645 134.832C51.2934 134.877 51.1472 134.988 51.0579 135.14C50.9687 135.293 50.9437 135.475 50.9885 135.646C51.0333 135.817 51.1443 135.963 51.2969 136.052L54.1743 137.735L52.4916 140.612C52.4023 140.765 52.3774 140.947 52.4222 141.118C52.467 141.289 52.5779 141.435 52.7306 141.524C52.8832 141.614 53.065 141.639 53.2361 141.594C53.4071 141.549 53.5533 141.438 53.6426 141.286L55.3253 138.408L58.2027 140.091C58.3553 140.18 58.5372 140.205 58.7082 140.16C58.8793 140.115 59.0255 140.005 59.1147 139.852C59.204 139.699 59.229 139.517 59.1842 139.346C59.1393 139.175 59.0284 139.029 58.8758 138.94L55.9984 137.257L57.6811 134.38C57.7703 134.227 57.7953 134.045 57.7505 133.874C57.7057 133.703 57.5948 133.557 57.4421 133.468C57.2895 133.378 57.1077 133.353 56.9366 133.398C56.7656 133.443 56.6194 133.554 56.5301 133.707L54.8474 136.584Z" fill="#E2E8F0"/>
<path d="M71.0007 108.961L68.1233 107.278C67.9707 107.189 67.7888 107.164 67.6178 107.209C67.4467 107.253 67.3005 107.364 67.2113 107.517C67.122 107.67 67.097 107.851 67.1418 108.023C67.1867 108.194 67.2976 108.34 67.4502 108.429L70.3276 110.112L68.6449 112.989C68.5557 113.142 68.5307 113.324 68.5755 113.495C68.6203 113.666 68.7312 113.812 68.8839 113.901C69.0365 113.99 69.2183 114.015 69.3894 113.971C69.5604 113.926 69.7066 113.815 69.7959 113.662L71.4786 110.785L74.356 112.468C74.5087 112.557 74.6905 112.582 74.8615 112.537C75.0326 112.492 75.1788 112.381 75.2681 112.229C75.3573 112.076 75.3823 111.894 75.3375 111.723C75.2927 111.552 75.1817 111.406 75.0291 111.317L72.1517 109.634L73.8344 106.756C73.9237 106.604 73.9486 106.422 73.9038 106.251C73.859 106.08 73.7481 105.934 73.5955 105.844C73.4428 105.755 73.261 105.73 73.09 105.775C72.9189 105.82 72.7727 105.931 72.6834 106.083L71.0007 108.961Z" fill="#E2E8F0"/>
<path d="M87.155 81.3372L84.2776 79.6545C84.125 79.5653 83.9431 79.5403 83.7721 79.5851C83.601 79.6299 83.4548 79.7408 83.3656 79.8935C83.2763 80.0461 83.2513 80.2279 83.2961 80.399C83.341 80.57 83.4519 80.7162 83.6045 80.8055L86.4819 82.4882L84.7992 85.3656C84.71 85.5183 84.685 85.7001 84.7298 85.8711C84.7746 86.0422 84.8855 86.1884 85.0382 86.2777C85.1908 86.3669 85.3726 86.3919 85.5437 86.3471C85.7147 86.3023 85.8609 86.1913 85.9502 86.0387L87.6329 83.1613L90.5103 84.844C90.663 84.9333 90.8448 84.9582 91.0158 84.9134C91.1869 84.8686 91.3331 84.7577 91.4224 84.6051C91.5116 84.4524 91.5366 84.2706 91.4918 84.0996C91.447 83.9285 91.336 83.7823 91.1834 83.693L88.306 82.0103L89.9887 79.1329C90.0779 78.9803 90.1029 78.7984 90.0581 78.6274C90.0133 78.4563 89.9024 78.3101 89.7497 78.2209C89.5971 78.1316 89.4153 78.1066 89.2442 78.1514C89.0732 78.1963 88.927 78.3072 88.8377 78.4598L87.155 81.3372Z" fill="#E2E8F0"/>
<path d="M103.309 53.7139L100.432 52.0312C100.279 51.942 100.097 51.917 99.9264 51.9618C99.7553 52.0066 99.6091 52.1176 99.5199 52.2702C99.4306 52.4228 99.4056 52.6046 99.4504 52.7757C99.4952 52.9467 99.6062 53.093 99.7588 53.1822L102.636 54.8649L100.954 57.7423C100.864 57.895 100.839 58.0768 100.884 58.2478C100.929 58.4189 101.04 58.5651 101.192 58.6544C101.345 58.7436 101.527 58.7686 101.698 58.7238C101.869 58.679 102.015 58.5681 102.104 58.4154L103.787 55.538L106.665 57.2207C106.817 57.31 106.999 57.3349 107.17 57.2901C107.341 57.2453 107.487 57.1344 107.577 56.9818C107.666 56.8291 107.691 56.6473 107.646 56.4763C107.601 56.3052 107.49 56.159 107.338 56.0697L104.46 54.387L106.143 51.5096C106.232 51.357 106.257 51.1751 106.212 51.0041C106.168 50.8331 106.057 50.6868 105.904 50.5976C105.751 50.5083 105.57 50.4833 105.399 50.5282C105.228 50.573 105.081 50.6839 104.992 50.8365L103.309 53.7139Z" fill="#005653"/>
<path d="M119.463 26.0907L116.585 24.4079C116.433 24.3187 116.251 24.2937 116.08 24.3385C115.909 24.3833 115.762 24.4943 115.673 24.6469C115.584 24.7995 115.559 24.9814 115.604 25.1524C115.649 25.3234 115.759 25.4697 115.912 25.5589L118.79 27.2416L117.107 30.1191C117.018 30.2717 116.993 30.4535 117.037 30.6246C117.082 30.7956 117.193 30.9418 117.346 31.0311C117.498 31.1203 117.68 31.1453 117.851 31.1005C118.022 31.0557 118.169 30.9448 118.258 30.7921L119.941 27.9147L122.818 29.5974C122.971 29.6867 123.152 29.7116 123.323 29.6668C123.494 29.622 123.641 29.5111 123.73 29.3585C123.819 29.2058 123.844 29.024 123.799 28.853C123.755 28.6819 123.644 28.5357 123.491 28.4464L120.614 26.7637L122.296 23.8863C122.386 23.7337 122.411 23.5518 122.366 23.3808C122.321 23.2098 122.21 23.0635 122.057 22.9743C121.905 22.885 121.723 22.8601 121.552 22.9049C121.381 22.9497 121.235 23.0606 121.145 23.2132L119.463 26.0907Z" fill="#E2E8F0"/>
<path d="M66.3171 180.361L63.4397 178.678C63.2871 178.589 63.1052 178.564 62.9342 178.609C62.7632 178.654 62.6169 178.765 62.5277 178.917C62.4384 179.07 62.4134 179.252 62.4583 179.423C62.5031 179.594 62.614 179.74 62.7666 179.829L65.644 181.512L63.9613 184.39C63.8721 184.542 63.8471 184.724 63.8919 184.895C63.9367 185.066 64.0476 185.212 64.2003 185.302C64.3529 185.391 64.5347 185.416 64.7058 185.371C64.8768 185.326 65.023 185.215 65.1123 185.063L66.795 182.185L69.6724 183.868C69.8251 183.957 70.0069 183.982 70.1779 183.937C70.349 183.893 70.4952 183.782 70.5845 183.629C70.6737 183.476 70.6987 183.295 70.6539 183.123C70.6091 182.952 70.4982 182.806 70.3455 182.717L67.4681 181.034L69.1508 178.157C69.2401 178.004 69.265 177.822 69.2202 177.651C69.1754 177.48 69.0645 177.334 68.9119 177.245C68.7592 177.156 68.5774 177.131 68.4064 177.175C68.2353 177.22 68.0891 177.331 67.9998 177.484L66.3171 180.361Z" fill="#E2E8F0"/>
<path d="M82.4714 152.738L79.594 151.055C79.4414 150.966 79.2595 150.941 79.0885 150.986C78.9175 151.031 78.7712 151.141 78.682 151.294C78.5927 151.447 78.5677 151.629 78.6125 151.8C78.6574 151.971 78.7683 152.117 78.9209 152.206L81.7983 153.889L80.1156 156.766C80.0264 156.919 80.0014 157.101 80.0462 157.272C80.091 157.443 80.2019 157.589 80.3546 157.678C80.5072 157.768 80.689 157.793 80.8601 157.748C81.0311 157.703 81.1773 157.592 81.2666 157.439L82.9493 154.562L85.8267 156.245C85.9794 156.334 86.1612 156.359 86.3322 156.314C86.5033 156.269 86.6495 156.158 86.7388 156.006C86.828 155.853 86.853 155.671 86.8082 155.5C86.7634 155.329 86.6525 155.183 86.4998 155.094L83.6224 153.411L85.3051 150.534C85.3944 150.381 85.4193 150.199 85.3745 150.028C85.3297 149.857 85.2188 149.711 85.0662 149.621C84.9135 149.532 84.7317 149.507 84.5607 149.552C84.3896 149.597 84.2434 149.708 84.1541 149.86L82.4714 152.738Z" fill="#E2E8F0"/>
<path d="M98.6247 125.115L95.7473 123.432C95.5947 123.343 95.4128 123.318 95.2418 123.362C95.0708 123.407 94.9245 123.518 94.8353 123.671C94.746 123.823 94.7211 124.005 94.7659 124.176C94.8107 124.347 94.9216 124.494 95.0742 124.583L97.9517 126.266L96.269 129.143C96.1797 129.296 96.1547 129.477 96.1995 129.648C96.2443 129.82 96.3553 129.966 96.5079 130.055C96.6605 130.144 96.8424 130.169 97.0134 130.124C97.1844 130.08 97.3307 129.969 97.4199 129.816L99.1026 126.939L101.98 128.621C102.133 128.711 102.315 128.736 102.486 128.691C102.657 128.646 102.803 128.535 102.892 128.382C102.981 128.23 103.006 128.048 102.962 127.877C102.917 127.706 102.806 127.56 102.653 127.47L99.7757 125.788L101.458 122.91C101.548 122.758 101.573 122.576 101.528 122.405C101.483 122.234 101.372 122.087 101.219 121.998C101.067 121.909 100.885 121.884 100.714 121.929C100.543 121.974 100.397 122.085 100.307 122.237L98.6247 125.115Z" fill="#E2E8F0"/>
<path d="M114.779 97.491L111.902 95.8083C111.749 95.7191 111.567 95.6941 111.396 95.7389C111.225 95.7837 111.079 95.8947 110.99 96.0473C110.9 96.1999 110.875 96.3817 110.92 96.5528C110.965 96.7238 111.076 96.8701 111.229 96.9593L114.106 98.642L112.423 101.519C112.334 101.672 112.309 101.854 112.354 102.025C112.399 102.196 112.51 102.342 112.662 102.431C112.815 102.521 112.997 102.546 113.168 102.501C113.339 102.456 113.485 102.345 113.574 102.193L115.257 99.3151L118.134 100.998C118.287 101.087 118.469 101.112 118.64 101.067C118.811 101.022 118.957 100.911 119.046 100.759C119.136 100.606 119.161 100.424 119.116 100.253C119.071 100.082 118.96 99.9361 118.807 99.8468L115.93 98.1641L117.613 95.2867C117.702 95.1341 117.727 94.9522 117.682 94.7812C117.637 94.6102 117.526 94.4639 117.374 94.3747C117.221 94.2854 117.039 94.2604 116.868 94.3053C116.697 94.3501 116.551 94.461 116.462 94.6136L114.779 97.491Z" fill="#E2E8F0"/>
<path d="M130.933 69.8678L128.056 68.185C127.903 68.0958 127.721 68.0708 127.55 68.1156C127.379 68.1604 127.233 68.2714 127.144 68.424C127.055 68.5766 127.03 68.7585 127.074 68.9295C127.119 69.1005 127.23 69.2468 127.383 69.336L130.26 71.0187L128.578 73.8962C128.488 74.0488 128.463 74.2306 128.508 74.4017C128.553 74.5727 128.664 74.7189 128.816 74.8082C128.969 74.8974 129.151 74.9224 129.322 74.8776C129.493 74.8328 129.639 74.7219 129.729 74.5692L131.411 71.6918L134.289 73.3745C134.441 73.4638 134.623 73.4887 134.794 73.4439C134.965 73.3991 135.111 73.2882 135.201 73.1356C135.29 72.9829 135.315 72.8011 135.27 72.6301C135.225 72.459 135.114 72.3128 134.962 72.2235L132.084 70.5408L133.767 67.6634C133.856 67.5108 133.881 67.3289 133.836 67.1579C133.792 66.9869 133.681 66.8406 133.528 66.7514C133.375 66.6621 133.194 66.6372 133.023 66.682C132.852 66.7268 132.705 66.8377 132.616 66.9903L130.933 69.8678Z" fill="#E2E8F0"/>
<path d="M147.087 42.2445L144.209 40.5618C144.057 40.4725 143.875 40.4475 143.704 40.4923C143.533 40.5372 143.386 40.6481 143.297 40.8007C143.208 40.9533 143.183 41.1352 143.228 41.3062C143.273 41.4772 143.384 41.6235 143.536 41.7127L146.414 43.3954L144.731 46.2729C144.642 46.4255 144.617 46.6073 144.661 46.7784C144.706 46.9494 144.817 47.0956 144.97 47.1849C145.122 47.2741 145.304 47.2991 145.475 47.2543C145.646 47.2095 145.793 47.0986 145.882 46.9459L147.565 44.0685L150.442 45.7512C150.595 45.8405 150.776 45.8654 150.947 45.8206C151.119 45.7758 151.265 45.6649 151.354 45.5123C151.443 45.3597 151.468 45.1778 151.423 45.0068C151.379 44.8357 151.268 44.6895 151.115 44.6003L148.238 42.9175L149.92 40.0401C150.01 39.8875 150.035 39.7057 149.99 39.5346C149.945 39.3636 149.834 39.2173 149.681 39.1281C149.529 39.0388 149.347 39.0139 149.176 39.0587C149.005 39.1035 148.859 39.2144 148.769 39.367L147.087 42.2445Z" fill="#E2E8F0"/>
<path d="M93.9402 196.515L91.0627 194.833C90.9101 194.743 90.7283 194.718 90.5572 194.763C90.3862 194.808 90.24 194.919 90.1507 195.071C90.0615 195.224 90.0365 195.406 90.0813 195.577C90.1261 195.748 90.237 195.894 90.3897 195.983L93.2671 197.666L91.5844 200.544C91.4951 200.696 91.4702 200.878 91.515 201.049C91.5598 201.22 91.6707 201.366 91.8233 201.456C91.976 201.545 92.1578 201.57 92.3288 201.525C92.4999 201.48 92.6461 201.369 92.7354 201.217L94.4181 198.339L97.2955 200.022C97.4481 200.111 97.63 200.136 97.801 200.091C97.972 200.047 98.1183 199.936 98.2075 199.783C98.2968 199.63 98.3217 199.449 98.2769 199.278C98.2321 199.106 98.1212 198.96 97.9686 198.871L95.0911 197.188L96.7738 194.311C96.8631 194.158 96.8881 193.976 96.8433 193.805C96.7985 193.634 96.6875 193.488 96.5349 193.399C96.3823 193.31 96.2004 193.285 96.0294 193.329C95.8584 193.374 95.7121 193.485 95.6229 193.638L93.9402 196.515Z" fill="#E2E8F0"/>
<path d="M110.094 168.892L107.217 167.209C107.064 167.12 106.883 167.095 106.712 167.14C106.54 167.185 106.394 167.296 106.305 167.448C106.216 167.601 106.191 167.783 106.236 167.954C106.28 168.125 106.391 168.271 106.544 168.36L109.421 170.043L107.739 172.92C107.649 173.073 107.624 173.255 107.669 173.426C107.714 173.597 107.825 173.743 107.978 173.832C108.13 173.922 108.312 173.947 108.483 173.902C108.654 173.857 108.8 173.746 108.89 173.593L110.572 170.716L113.45 172.399C113.602 172.488 113.784 172.513 113.955 172.468C114.126 172.423 114.273 172.312 114.362 172.16C114.451 172.007 114.476 171.825 114.431 171.654C114.386 171.483 114.275 171.337 114.123 171.248L111.245 169.565L112.928 166.688C113.017 166.535 113.042 166.353 112.998 166.182C112.953 166.011 112.842 165.865 112.689 165.776C112.537 165.686 112.355 165.661 112.184 165.706C112.013 165.751 111.866 165.862 111.777 166.014L110.094 168.892Z" fill="#005653"/>
<path d="M126.248 141.269L123.37 139.586C123.218 139.497 123.036 139.472 122.865 139.517C122.694 139.561 122.548 139.672 122.458 139.825C122.369 139.977 122.344 140.159 122.389 140.33C122.434 140.501 122.545 140.648 122.697 140.737L125.575 142.42L123.892 145.297C123.803 145.45 123.778 145.631 123.823 145.803C123.867 145.974 123.978 146.12 124.131 146.209C124.284 146.298 124.465 146.323 124.636 146.278C124.807 146.234 124.954 146.123 125.043 145.97L126.726 143.093L129.603 144.775C129.756 144.865 129.938 144.89 130.109 144.845C130.28 144.8 130.426 144.689 130.515 144.536C130.604 144.384 130.629 144.202 130.585 144.031C130.54 143.86 130.429 143.714 130.276 143.624L127.399 141.942L129.081 139.064C129.171 138.912 129.196 138.73 129.151 138.559C129.106 138.388 128.995 138.242 128.843 138.152C128.69 138.063 128.508 138.038 128.337 138.083C128.166 138.128 128.02 138.239 127.93 138.391L126.248 141.269Z" fill="#E2E8F0"/>
<path d="M142.402 113.645L139.525 111.962C139.372 111.873 139.19 111.848 139.019 111.893C138.848 111.938 138.702 112.049 138.613 112.201C138.523 112.354 138.498 112.536 138.543 112.707C138.588 112.878 138.699 113.024 138.852 113.113L141.729 114.796L140.046 117.673C139.957 117.826 139.932 118.008 139.977 118.179C140.022 118.35 140.133 118.496 140.285 118.586C140.438 118.675 140.62 118.7 140.791 118.655C140.962 118.61 141.108 118.499 141.197 118.347L142.88 115.469L145.757 117.152C145.91 117.241 146.092 117.266 146.263 117.221C146.434 117.176 146.58 117.066 146.669 116.913C146.759 116.76 146.784 116.578 146.739 116.407C146.694 116.236 146.583 116.09 146.43 116.001L143.553 114.318L145.236 111.441C145.325 111.288 145.35 111.106 145.305 110.935C145.26 110.764 145.149 110.618 144.997 110.529C144.844 110.439 144.662 110.414 144.491 110.459C144.32 110.504 144.174 110.615 144.085 110.768L142.402 113.645Z" fill="#E2E8F0"/>
<path d="M158.556 86.0218L155.679 84.3391C155.526 84.2498 155.344 84.2249 155.173 84.2697C155.002 84.3145 154.856 84.4254 154.767 84.578C154.678 84.7307 154.653 84.9125 154.698 85.0835C154.742 85.2546 154.853 85.4008 155.006 85.4901L157.883 87.1728L156.201 90.0502C156.111 90.2028 156.086 90.3847 156.131 90.5557C156.176 90.7267 156.287 90.873 156.44 90.9622C156.592 91.0515 156.774 91.0765 156.945 91.0317C157.116 90.9868 157.262 90.8759 157.352 90.7233L159.034 87.8459L161.912 89.5286C162.064 89.6178 162.246 89.6428 162.417 89.598C162.588 89.5532 162.734 89.4423 162.824 89.2896C162.913 89.137 162.938 88.9552 162.893 88.7841C162.848 88.6131 162.737 88.4669 162.585 88.3776L159.707 86.6949L161.39 83.8175C161.479 83.6648 161.504 83.483 161.459 83.312C161.415 83.1409 161.304 82.9947 161.151 82.9054C160.998 82.8162 160.817 82.7912 160.646 82.836C160.475 82.8808 160.328 82.9917 160.239 83.1444L158.556 86.0218Z" fill="#E2E8F0"/>
<path d="M174.71 58.3985L171.832 56.7158C171.68 56.6266 171.498 56.6016 171.327 56.6464C171.156 56.6912 171.009 56.8021 170.92 56.9548C170.831 57.1074 170.806 57.2892 170.851 57.4603C170.896 57.6313 171.007 57.7775 171.159 57.8668L174.037 59.5495L172.354 62.4269C172.265 62.5795 172.24 62.7614 172.284 62.9324C172.329 63.1035 172.44 63.2497 172.593 63.3389C172.745 63.4282 172.927 63.4532 173.098 63.4084C173.269 63.3635 173.416 63.2526 173.505 63.1L175.188 60.2226L178.065 61.9053C178.218 61.9945 178.399 62.0195 178.571 61.9747C178.742 61.9299 178.888 61.819 178.977 61.6663C179.066 61.5137 179.091 61.3319 179.046 61.1608C179.002 60.9898 178.891 60.8436 178.738 60.7543L175.861 59.0716L177.543 56.1942C177.633 56.0415 177.658 55.8597 177.613 55.6887C177.568 55.5176 177.457 55.3714 177.304 55.2821C177.152 55.1929 176.97 55.1679 176.799 55.2127C176.628 55.2575 176.482 55.3685 176.392 55.5211L174.71 58.3985Z" fill="#33C275"/>
<path d="M121.563 212.669L118.686 210.987C118.533 210.897 118.351 210.872 118.18 210.917C118.009 210.962 117.863 211.073 117.774 211.226C117.685 211.378 117.66 211.56 117.704 211.731C117.749 211.902 117.86 212.048 118.013 212.138L120.89 213.82L119.207 216.698C119.118 216.85 119.093 217.032 119.138 217.203C119.183 217.374 119.294 217.52 119.446 217.61C119.599 217.699 119.781 217.724 119.952 217.679C120.123 217.634 120.269 217.523 120.358 217.371L122.041 214.493L124.919 216.176C125.071 216.265 125.253 216.29 125.424 216.245C125.595 216.201 125.741 216.09 125.831 215.937C125.92 215.784 125.945 215.603 125.9 215.432C125.855 215.261 125.744 215.114 125.592 215.025L122.714 213.342L124.397 210.465C124.486 210.312 124.511 210.13 124.466 209.959C124.422 209.788 124.311 209.642 124.158 209.553C124.005 209.464 123.823 209.439 123.652 209.483C123.481 209.528 123.335 209.639 123.246 209.792L121.563 212.669Z" fill="#005653"/>
<path d="M137.718 185.046L134.84 183.363C134.687 183.274 134.506 183.249 134.335 183.294C134.164 183.339 134.017 183.45 133.928 183.602C133.839 183.755 133.814 183.937 133.859 184.108C133.903 184.279 134.014 184.425 134.167 184.514L137.044 186.197L135.362 189.074C135.272 189.227 135.247 189.409 135.292 189.58C135.337 189.751 135.448 189.897 135.601 189.986C135.753 190.076 135.935 190.101 136.106 190.056C136.277 190.011 136.423 189.9 136.513 189.747L138.195 186.87L141.073 188.553C141.225 188.642 141.407 188.667 141.578 188.622C141.749 188.577 141.896 188.466 141.985 188.314C142.074 188.161 142.099 187.979 142.054 187.808C142.009 187.637 141.899 187.491 141.746 187.402L138.868 185.719L140.551 182.842C140.64 182.689 140.665 182.507 140.621 182.336C140.576 182.165 140.465 182.019 140.312 181.93C140.16 181.84 139.978 181.815 139.807 181.86C139.636 181.905 139.489 182.016 139.4 182.169L137.718 185.046Z" fill="#E2E8F0"/>
<path d="M153.871 157.423L150.993 155.74C150.841 155.651 150.659 155.626 150.488 155.671C150.317 155.715 150.171 155.826 150.081 155.979C149.992 156.132 149.967 156.313 150.012 156.484C150.057 156.655 150.168 156.802 150.32 156.891L153.198 158.574L151.515 161.451C151.426 161.604 151.401 161.786 151.446 161.957C151.49 162.128 151.601 162.274 151.754 162.363C151.907 162.452 152.088 162.477 152.259 162.433C152.431 162.388 152.577 162.277 152.666 162.124L154.349 159.247L157.226 160.929C157.379 161.019 157.561 161.044 157.732 160.999C157.903 160.954 158.049 160.843 158.138 160.691C158.227 160.538 158.252 160.356 158.208 160.185C158.163 160.014 158.052 159.868 157.899 159.778L155.022 158.096L156.705 155.218C156.794 155.066 156.819 154.884 156.774 154.713C156.729 154.542 156.618 154.396 156.466 154.306C156.313 154.217 156.131 154.192 155.96 154.237C155.789 154.282 155.643 154.393 155.554 154.545L153.871 157.423Z" fill="#E2E8F0"/>
<path d="M170.025 129.799L167.148 128.116C166.995 128.027 166.813 128.002 166.642 128.047C166.471 128.092 166.325 128.203 166.236 128.355C166.146 128.508 166.121 128.69 166.166 128.861C166.211 129.032 166.322 129.178 166.475 129.267L169.352 130.95L167.669 133.828C167.58 133.98 167.555 134.162 167.6 134.333C167.645 134.504 167.756 134.65 167.908 134.74C168.061 134.829 168.243 134.854 168.414 134.809C168.585 134.764 168.731 134.653 168.82 134.501L170.503 131.623L173.38 133.306C173.533 133.395 173.715 133.42 173.886 133.375C174.057 133.331 174.203 133.22 174.292 133.067C174.382 132.914 174.407 132.733 174.362 132.561C174.317 132.39 174.206 132.244 174.054 132.155L171.176 130.472L172.859 127.595C172.948 127.442 172.973 127.26 172.928 127.089C172.883 126.918 172.772 126.772 172.62 126.683C172.467 126.594 172.285 126.569 172.114 126.613C171.943 126.658 171.797 126.769 171.708 126.922L170.025 129.799Z" fill="#E2E8F0"/>
<path d="M186.179 102.176L183.302 100.493C183.149 100.404 182.968 100.379 182.796 100.424C182.625 100.469 182.479 100.579 182.39 100.732C182.301 100.885 182.276 101.067 182.321 101.238C182.365 101.409 182.476 101.555 182.629 101.644L185.506 103.327L183.824 106.204C183.734 106.357 183.709 106.539 183.754 106.71C183.799 106.881 183.91 107.027 184.063 107.116C184.215 107.206 184.397 107.231 184.568 107.186C184.739 107.141 184.885 107.03 184.975 106.877L186.657 104L189.535 105.683C189.687 105.772 189.869 105.797 190.04 105.752C190.211 105.707 190.358 105.596 190.447 105.444C190.536 105.291 190.561 105.109 190.516 104.938C190.471 104.767 190.36 104.621 190.208 104.532L187.33 102.849L189.013 99.9715C189.102 99.8189 189.127 99.637 189.083 99.466C189.038 99.295 188.927 99.1487 188.774 99.0595C188.622 98.9702 188.44 98.9453 188.269 98.9901C188.098 99.0349 187.951 99.1458 187.862 99.2984L186.179 102.176Z" fill="#E2E8F0"/>
<path d="M202.333 74.5526L199.455 72.8699C199.303 72.7806 199.121 72.7556 198.95 72.8004C198.779 72.8453 198.633 72.9562 198.543 73.1088C198.454 73.2614 198.429 73.4433 198.474 73.6143C198.519 73.7853 198.63 73.9316 198.782 74.0208L201.66 75.7035L199.977 78.581C199.888 78.7336 199.863 78.9154 199.908 79.0865C199.952 79.2575 200.063 79.4037 200.216 79.493C200.369 79.5823 200.55 79.6072 200.721 79.5624C200.892 79.5176 201.039 79.4067 201.128 79.2541L202.811 76.3766L205.688 78.0593C205.841 78.1486 206.023 78.1736 206.194 78.1287C206.365 78.0839 206.511 77.973 206.6 77.8204C206.689 77.6678 206.714 77.4859 206.67 77.3149C206.625 77.1438 206.514 76.9976 206.361 76.9084L203.484 75.2257L205.166 72.3482C205.256 72.1956 205.281 72.0138 205.236 71.8427C205.191 71.6717 205.08 71.5254 204.927 71.4362C204.775 71.3469 204.593 71.322 204.422 71.3668C204.251 71.4116 204.105 71.5225 204.015 71.6751L202.333 74.5526Z" fill="#E2E8F0"/>
<path d="M149.186 228.823L146.309 227.141C146.156 227.051 145.974 227.026 145.803 227.071C145.632 227.116 145.486 227.227 145.397 227.38C145.308 227.532 145.283 227.714 145.327 227.885C145.372 228.056 145.483 228.202 145.636 228.292L148.513 229.974L146.83 232.852C146.741 233.004 146.716 233.186 146.761 233.357C146.806 233.528 146.917 233.674 147.069 233.764C147.222 233.853 147.404 233.878 147.575 233.833C147.746 233.788 147.892 233.677 147.981 233.525L149.664 230.647L152.542 232.33C152.694 232.419 152.876 232.444 153.047 232.399C153.218 232.355 153.364 232.244 153.454 232.091C153.543 231.939 153.568 231.757 153.523 231.586C153.478 231.415 153.367 231.268 153.215 231.179L150.337 229.496L152.02 226.619C152.109 226.466 152.134 226.285 152.089 226.113C152.045 225.942 151.934 225.796 151.781 225.707C151.628 225.618 151.447 225.593 151.275 225.638C151.104 225.682 150.958 225.793 150.869 225.946L149.186 228.823Z" fill="#E2E8F0"/>
<path d="M165.341 201.2L162.463 199.517C162.311 199.428 162.129 199.403 161.958 199.448C161.787 199.493 161.64 199.604 161.551 199.756C161.462 199.909 161.437 200.091 161.482 200.262C161.526 200.433 161.637 200.579 161.79 200.668L164.667 202.351L162.985 205.228C162.896 205.381 162.871 205.563 162.915 205.734C162.96 205.905 163.071 206.051 163.224 206.14C163.376 206.23 163.558 206.255 163.729 206.21C163.9 206.165 164.046 206.054 164.136 205.902L165.818 203.024L168.696 204.707C168.849 204.796 169.03 204.821 169.201 204.776C169.372 204.731 169.519 204.62 169.608 204.468C169.697 204.315 169.722 204.133 169.677 203.962C169.633 203.791 169.522 203.645 169.369 203.556L166.492 201.873L168.174 198.996C168.263 198.843 168.288 198.661 168.244 198.49C168.199 198.319 168.088 198.173 167.935 198.084C167.783 197.994 167.601 197.969 167.43 198.014C167.259 198.059 167.113 198.17 167.023 198.323L165.341 201.2Z" fill="#E2E8F0"/>
<path d="M181.494 173.577L178.616 171.894C178.464 171.805 178.282 171.78 178.111 171.825C177.94 171.869 177.794 171.98 177.704 172.133C177.615 172.286 177.59 172.467 177.635 172.638C177.68 172.81 177.791 172.956 177.943 173.045L180.821 174.728L179.138 177.605C179.049 177.758 179.024 177.94 179.069 178.111C179.113 178.282 179.224 178.428 179.377 178.517C179.53 178.606 179.711 178.631 179.883 178.587C180.054 178.542 180.2 178.431 180.289 178.278L181.972 175.401L184.849 177.083C185.002 177.173 185.184 177.198 185.355 177.153C185.526 177.108 185.672 176.997 185.761 176.845C185.85 176.692 185.875 176.51 185.831 176.339C185.786 176.168 185.675 176.022 185.522 175.933L182.645 174.25L184.328 171.372C184.417 171.22 184.442 171.038 184.397 170.867C184.352 170.696 184.241 170.55 184.089 170.46C183.936 170.371 183.754 170.346 183.583 170.391C183.412 170.436 183.266 170.547 183.177 170.699L181.494 173.577Z" fill="#005653"/>
<path d="M197.648 145.953L194.771 144.27C194.618 144.181 194.436 144.156 194.265 144.201C194.094 144.246 193.948 144.357 193.859 144.509C193.769 144.662 193.744 144.844 193.789 145.015C193.834 145.186 193.945 145.332 194.098 145.421L196.975 147.104L195.292 149.982C195.203 150.134 195.178 150.316 195.223 150.487C195.268 150.658 195.379 150.804 195.531 150.894C195.684 150.983 195.866 151.008 196.037 150.963C196.208 150.918 196.354 150.807 196.443 150.655L198.126 147.777L201.003 149.46C201.156 149.549 201.338 149.574 201.509 149.529C201.68 149.485 201.826 149.374 201.916 149.221C202.005 149.068 202.03 148.887 201.985 148.716C201.94 148.544 201.829 148.398 201.677 148.309L198.799 146.626L200.482 143.749C200.571 143.596 200.596 143.414 200.551 143.243C200.506 143.072 200.396 142.926 200.243 142.837C200.09 142.748 199.908 142.723 199.737 142.767C199.566 142.812 199.42 142.923 199.331 143.076L197.648 145.953Z" fill="#E2E8F0"/>
<path d="M213.802 118.33L210.925 116.647C210.772 116.558 210.591 116.533 210.42 116.578C210.249 116.623 210.102 116.734 210.013 116.886C209.924 117.039 209.899 117.221 209.944 117.392C209.988 117.563 210.099 117.709 210.252 117.798L213.129 119.481L211.447 122.358C211.357 122.511 211.332 122.693 211.377 122.864C211.422 123.035 211.533 123.181 211.686 123.27C211.838 123.36 212.02 123.385 212.191 123.34C212.362 123.295 212.508 123.184 212.598 123.031L214.28 120.154L217.158 121.837C217.31 121.926 217.492 121.951 217.663 121.906C217.834 121.861 217.981 121.75 218.07 121.598C218.159 121.445 218.184 121.263 218.139 121.092C218.094 120.921 217.984 120.775 217.831 120.686L214.953 119.003L216.636 116.126C216.725 115.973 216.75 115.791 216.706 115.62C216.661 115.449 216.55 115.303 216.397 115.214C216.245 115.124 216.063 115.099 215.892 115.144C215.721 115.189 215.574 115.3 215.485 115.452L213.802 118.33Z" fill="#E2E8F0"/>
<path d="M229.956 90.7066L227.078 89.0239C226.926 88.9347 226.744 88.9097 226.573 88.9545C226.402 88.9993 226.256 89.1102 226.166 89.2629C226.077 89.4155 226.052 89.5973 226.097 89.7684C226.142 89.9394 226.253 90.0856 226.405 90.1749L229.283 91.8576L227.6 94.735C227.511 94.8877 227.486 95.0695 227.531 95.2405C227.575 95.4116 227.686 95.5578 227.839 95.647C227.992 95.7363 228.173 95.7613 228.344 95.7165C228.515 95.6717 228.662 95.5607 228.751 95.4081L230.434 92.5307L233.311 94.2134C233.464 94.3026 233.646 94.3276 233.817 94.2828C233.988 94.238 234.134 94.1271 234.223 93.9744C234.312 93.8218 234.337 93.64 234.293 93.4689C234.248 93.2979 234.137 93.1517 233.984 93.0624L231.107 91.3797L232.789 88.5023C232.879 88.3496 232.904 88.1678 232.859 87.9968C232.814 87.8257 232.703 87.6795 232.551 87.5902C232.398 87.501 232.216 87.476 232.045 87.5208C231.874 87.5656 231.728 87.6766 231.639 87.8292L229.956 90.7066Z" fill="#E2E8F0"/>
</svg>
