<svg width="239" height="150" viewBox="0 0 239 150" fill="none" xmlns="http://www.w3.org/2000/svg">
<path d="M116.217 136.584C116.217 136.584 37.7088 137.442 15.8388 118.406C-6.03118 99.3707 2.21233 80.4132 18.9594 75.0563C35.7065 69.6733 38.567 64.1083 29.5433 56.5669C20.5457 49.0255 9.10359 33.5527 28.0871 18.0018C47.0966 2.45095 68.7585 24.789 85.7396 21.8245C102.721 18.86 96.0115 8.87413 118.35 15.7654C140.662 22.6567 135.747 2.58098 153.69 0.760644C171.633 -1.05969 169.813 21.6425 188.276 13.0869C206.74 4.50533 221.849 5.70155 229.78 19.302C237.712 32.9025 234.279 51.2359 216.856 62.1579C199.432 73.0799 201.305 72.3258 207.806 83.0657C214.307 93.8057 220.158 129.094 190.513 134.139C160.893 139.21 116.217 136.584 116.217 136.584Z" fill="#DFFCEB"/>
<path d="M236.774 21.7724C232.016 23.4627 221.146 23.3847 207.207 22.8646C190.148 22.2145 186.533 35.607 189.94 44.8907C192.332 51.4439 195.531 57.1389 198.859 66.4486C199.484 66.1366 200.108 65.8245 200.758 65.5125C199.432 59.6874 198.937 56.1247 201.07 51.964C203.488 47.2051 204.58 51.3919 219.767 46.9711C231.573 43.5384 236.644 29.3658 238.335 23.2287C238.569 22.2925 237.685 21.4344 236.774 21.7724Z" fill="#C6F5DA"/>
<path d="M198.912 62.2365C198.548 61.6904 198.262 61.1703 197.95 60.6242C197.638 60.0781 197.352 59.532 197.092 58.9599C196.546 57.8417 196.052 56.6975 195.636 55.5273C194.804 53.1868 194.232 50.6904 194.18 48.1679C194.154 46.9197 194.258 45.6455 194.544 44.3972C194.83 43.175 195.272 41.9528 195.922 40.8606C196.546 39.7684 197.378 38.7542 198.262 37.87C198.704 37.454 199.147 37.0119 199.641 36.5958C199.875 36.3878 200.109 36.1797 200.343 35.9977L201.071 35.3996C202.059 34.6454 203.099 33.9173 204.165 33.2932C205.258 32.6691 206.402 32.149 207.572 31.7069C208.742 31.2648 209.965 30.9528 211.187 30.6927C212.409 30.4327 213.631 30.2766 214.879 30.1466C217.35 29.8866 219.794 29.7305 222.239 29.3665C224.657 29.0024 227.05 28.3783 229.338 27.4941C229.416 27.4681 229.494 27.4941 229.52 27.5721C229.546 27.6502 229.52 27.7282 229.442 27.7542C227.154 28.7164 224.735 29.3925 222.291 29.7826C219.846 30.1986 217.376 30.3807 214.931 30.6667C213.709 30.8227 212.487 30.9788 211.291 31.2388C210.095 31.4989 208.924 31.8369 207.78 32.253C206.636 32.6951 205.544 33.2152 204.478 33.8133C203.437 34.4374 202.423 35.1395 201.461 35.8937L200.759 36.4658C200.525 36.6478 200.291 36.8819 200.083 37.0639C199.615 37.454 199.199 37.896 198.756 38.3121C197.898 39.1703 197.144 40.1064 196.546 41.1466C195.948 42.1868 195.532 43.331 195.272 44.5013C195.012 45.6715 194.908 46.8677 194.934 48.0899C194.986 50.5084 195.532 52.9008 196.338 55.2152C196.754 56.3594 197.222 57.5036 197.742 58.5958C198.002 59.1419 198.288 59.688 198.574 60.2341C198.86 60.7542 199.173 61.3003 199.511 61.7944C199.615 61.9505 199.563 62.1585 199.407 62.2625C199.225 62.4445 199.017 62.3925 198.912 62.2365Z" fill="#4BCF86"/>
<path d="M198.756 110.891C198.678 111.021 198.496 110.943 198.522 110.813C199.042 108.785 200.135 103.506 199.068 96.8485C197.716 88.2669 189.265 68.0352 205.284 62.6002C219.404 57.8153 227.882 56.229 231.6 53.0044C232.146 52.5364 232.979 52.8744 233.031 53.6026C233.369 58.8035 233.395 72.586 224.709 76.8768C213.917 82.2078 202.579 78.6971 199.406 83.092C196.338 87.3567 203.697 101.763 198.756 110.891Z" fill="#94E7B9"/>
<path d="M197.351 86.4721C197.195 85.5359 197.091 84.6257 197.039 83.6896C196.987 82.7534 196.935 81.8172 196.961 80.9071C196.987 79.0347 197.143 77.1624 197.533 75.342C197.715 74.4319 197.975 73.5217 198.287 72.6115C198.599 71.7274 198.989 70.8432 199.457 70.011C199.926 69.1789 200.472 68.3988 201.122 67.6706C201.278 67.4886 201.46 67.3326 201.616 67.1505C201.694 67.0725 201.772 66.9685 201.876 66.8905L202.162 66.6564L202.448 66.4224C202.552 66.3444 202.63 66.2664 202.734 66.1883L203.332 65.7723L203.488 65.6683L203.644 65.5902L203.956 65.4082C204.164 65.3042 204.372 65.1482 204.58 65.0701L205.231 64.7581C205.335 64.7061 205.439 64.6541 205.569 64.6281L205.907 64.498C206.791 64.186 207.727 63.9259 208.663 63.7699C210.536 63.4318 212.434 63.4838 214.254 63.5099C215.164 63.5359 216.075 63.5359 216.985 63.4839C217.895 63.4318 218.779 63.3018 219.637 63.0678C220.495 62.8337 221.353 62.4957 222.16 62.0796C222.966 61.6635 223.72 61.1434 224.448 60.5713C224.5 60.5193 224.578 60.5453 224.604 60.5973C224.63 60.6493 224.63 60.7273 224.578 60.7534C223.2 62.0016 221.588 63.0418 219.793 63.6139C218.883 63.8999 217.947 64.082 217.037 64.16C216.101 64.264 215.164 64.264 214.254 64.29C213.318 64.29 212.408 64.29 211.498 64.342C210.588 64.394 209.703 64.472 208.819 64.6541C207.935 64.8101 207.077 65.0701 206.245 65.3822L205.933 65.5122C205.829 65.5642 205.725 65.5902 205.621 65.6422L204.918 65.9283C204.71 66.0063 204.528 66.1363 204.346 66.2404L204.06 66.3964L203.93 66.4744L203.8 66.5784L203.254 66.9685C203.15 67.0205 203.072 67.0985 202.994 67.1765L202.734 67.3846L202.474 67.5926C202.396 67.6706 202.318 67.7486 202.24 67.8266L201.772 68.2947C201.2 68.9709 200.68 69.673 200.238 70.4531C199.822 71.2333 199.431 72.0394 199.145 72.8976C198.859 73.7557 198.599 74.6139 198.391 75.4981C198.339 75.7061 198.313 75.9401 198.261 76.1742C198.209 76.4082 198.183 76.6163 198.131 76.8503C198.105 77.0843 198.053 77.2924 198.027 77.5264L197.949 78.2025C197.845 79.1127 197.793 80.0229 197.741 80.9331C197.663 82.7534 197.741 84.5997 197.949 86.3941C197.975 86.5761 197.845 86.7321 197.663 86.7321C197.533 86.7321 197.377 86.6281 197.351 86.4721Z" fill="#4BCF86"/>
<path d="M50.0341 74.926C50.0341 74.926 48.7859 58.543 40.8284 54.9283C32.8709 51.3137 18.2823 50.0134 15.4217 26.6091C13.7314 12.9046 12.7953 6.94953 12.3012 4.34905C12.1191 3.33487 12.9253 2.42471 13.9655 2.50272C21.2208 3.12684 44.9111 6.35142 51.3603 21.6682C58.9797 39.8196 50.0341 74.926 50.0341 74.926Z" fill="#C6F5DA"/>
<path d="M20.0766 8.53608C24.7835 12.1247 28.9703 16.3115 32.871 20.7323C33.8332 21.8505 34.7953 22.9687 35.6795 24.1389L36.3556 24.9971L36.6937 25.4392L37.0318 25.8813L38.358 27.6496L38.6961 28.0917L39.0081 28.5598L39.6322 29.4699L40.2564 30.3801L40.5684 30.8482L40.8805 31.3163C41.6606 32.5645 42.4928 33.7867 43.2209 35.087C43.4029 35.399 43.585 35.7371 43.767 36.0751C43.949 36.4132 44.1311 36.7253 44.2871 37.0633L44.7812 38.0515L45.0152 38.5456L45.2493 39.0657L45.7174 40.0799L46.1594 41.1201C46.3155 41.4581 46.4455 41.7962 46.5755 42.1602L46.9656 43.2004C47.9798 45.983 48.8119 48.8435 49.384 51.756C49.9821 54.6685 50.3982 57.6071 50.6583 60.5456C50.7623 62.0279 50.8403 63.5102 50.8663 64.9664C50.8923 66.4487 50.8663 67.931 50.7363 69.4132C50.7103 69.6213 50.5282 69.8033 50.3202 69.7773C50.1122 69.7513 49.9561 69.5693 49.9561 69.3612C49.9821 68.6591 49.9821 67.905 49.9821 67.1768C49.9821 66.4487 49.9561 65.7206 49.9301 64.9924C49.8781 63.5362 49.7741 62.0799 49.6181 60.6236C49.332 57.7111 48.8899 54.8246 48.2398 51.9901C47.6157 49.1555 46.7835 46.347 45.7954 43.6165C44.7812 40.912 43.585 38.2335 42.1547 35.7111C41.4526 34.4368 40.6464 33.2146 39.8663 31.9924L39.5802 31.5243L39.2682 31.0822L38.6441 30.1721L38.0199 29.2619L37.7079 28.8198L37.3958 28.3777C35.7315 25.9853 33.9112 23.6709 32.0648 21.4084C30.1925 19.172 28.2421 16.9876 26.1878 14.8812C24.1594 12.7749 22.027 10.7465 19.7906 8.87414C19.6866 8.79613 19.6866 8.6401 19.7646 8.56208C19.8426 8.45806 19.9726 8.45806 20.0766 8.53608Z" fill="#4BCF86"/>
<path d="M49.0461 118.301C50.1383 118.978 39.4503 102.803 37.734 78.7222C36.9279 67.3841 38.1241 53.3416 32.221 47.3865C27.3061 42.4196 8.99875 43.6938 2.99165 44.2659C2.23751 44.3439 1.89945 45.2541 2.44555 45.7742C5.07203 48.4007 10.6371 54.5378 11.7293 60.3368C13.1595 67.9822 19.8427 73.3392 26.0579 75.1595C32.299 77.0059 35.7057 78.5402 37.9161 88.9681C40.1785 99.37 45.9255 116.403 49.0461 118.301Z" fill="#94E7B9"/>
<path d="M11.0538 48.1426C14.8505 48.6627 18.5172 49.9369 21.8198 51.8873C23.4841 52.8494 25.0183 54.0457 26.3706 55.4239C27.7228 56.8022 28.8931 58.3625 29.8032 60.0788L30.1413 60.7289C30.2453 60.9369 30.3493 61.171 30.4273 61.379C30.5314 61.613 30.6354 61.8211 30.7134 62.0551L30.9734 62.7312C31.3115 63.6154 31.6756 64.4996 32.0136 65.3837C32.6898 67.1521 33.3399 68.9464 33.938 70.7407C35.1862 74.3294 36.3044 77.97 37.2146 81.6627C37.2406 81.7407 37.1886 81.8448 37.0846 81.8708C37.0065 81.8968 36.9025 81.8448 36.9025 81.7667C36.3564 79.9464 35.7843 78.1521 35.1602 76.3578C34.5621 74.5634 33.912 72.7691 33.2619 71.0008L32.2737 68.3223L31.2595 65.6698C30.9214 64.7856 30.5834 63.9015 30.2193 63.0173L29.9592 62.3672C29.8812 62.1591 29.7772 61.9511 29.6732 61.7171C29.5692 61.509 29.4912 61.275 29.3871 61.093L29.1271 60.4688C28.2949 58.8045 27.1507 57.3223 25.8765 55.97C25.2264 55.3199 24.5503 54.6698 23.7961 54.0977L23.5361 53.8896L23.25 53.6816C23.068 53.5516 22.886 53.3955 22.6779 53.2655C22.2878 53.0055 21.8978 52.7194 21.5077 52.4854C19.9214 51.4712 18.2311 50.665 16.4628 49.9889C14.7205 49.3128 12.8741 48.7667 11.0278 48.4286C10.9498 48.4026 10.8978 48.3506 10.9238 48.2726C10.9238 48.1946 11.0018 48.1426 11.0538 48.1426Z" fill="#4BCF86"/>
<path d="M44.0014 116.743C44.6255 116.977 39.9186 110.658 38.9305 104.703C37.9423 98.7477 35.4198 88.7098 29.5688 83.1968C23.7177 77.6838 17.9966 77.7618 11.5214 84.133C6.11245 89.4379 2.67982 92.1945 0.573437 92.8706C0.0533418 93.0266 -0.154696 93.6767 0.157361 94.1188C1.84767 96.5112 6.45051 101.946 13.0037 100.776C21.3773 99.2937 30.947 92.6365 34.5877 96.8493C38.2283 101.062 38.1243 103.663 38.4624 105.821C38.8004 108.005 39.8146 115.105 44.0014 116.743Z" fill="#C6F5DA"/>
<path d="M14.7718 91.2059C15.1878 90.7118 15.6299 90.2437 16.098 89.8016C16.5661 89.3596 17.0342 88.9175 17.5543 88.5274C18.5684 87.7213 19.6606 87.0191 20.8569 86.473C21.455 86.213 22.0791 85.9789 22.7292 85.8229C23.3793 85.6669 24.0294 85.5889 24.7056 85.5889C24.8616 85.5889 25.0436 85.5889 25.1997 85.6149C25.3557 85.6409 25.5377 85.6409 25.6938 85.6669L26.6559 85.8489L27.6181 86.109L28.5543 86.421C29.7765 86.8891 30.9207 87.5912 31.9089 88.4754C32.8971 89.3335 33.7032 90.3737 34.4053 91.4659L34.6654 91.882C34.7434 92.012 34.8214 92.1681 34.8994 92.2981C35.0555 92.5841 35.2115 92.8702 35.3675 93.1562L35.7836 94.0404C35.9396 94.3265 36.0436 94.6385 36.1477 94.9246C36.6418 96.1208 37.0318 97.343 37.3699 98.5652C37.3959 98.6433 37.3439 98.7213 37.2659 98.7473C37.1879 98.7733 37.1358 98.7213 37.1098 98.6693C36.6678 97.473 36.2517 96.2768 35.7056 95.1586C35.4455 94.5865 35.1595 94.0404 34.8734 93.4683C34.7174 93.1823 34.5614 92.9222 34.4053 92.6622C34.3273 92.5321 34.2493 92.3761 34.1713 92.2721L33.9113 91.882C33.2091 90.8418 32.403 89.9057 31.4668 89.0995C30.5306 88.2934 29.4644 87.6692 28.3202 87.2272L27.4361 86.9411L26.5519 86.7071L25.6417 86.551C25.4857 86.525 25.3557 86.525 25.1997 86.499C25.0436 86.473 24.9136 86.473 24.7576 86.473C24.1595 86.473 23.5614 86.525 22.9633 86.6811C22.3651 86.8111 21.793 87.0191 21.2209 87.2532C20.0767 87.7212 19.0105 88.3714 17.9703 89.0995C17.4502 89.4636 16.9562 89.8536 16.4621 90.2437C15.968 90.6338 15.4999 91.0759 15.0578 91.492C15.0058 91.544 14.9018 91.544 14.8498 91.492C14.7197 91.3359 14.7197 91.2579 14.7718 91.2059Z" fill="#4BCF86"/>
<path d="M198.885 130.81C198.885 132.422 197.558 133.749 195.946 133.749H37.5249C35.9126 133.749 34.5864 132.422 34.5864 130.81L33.2861 39.7674C33.2861 38.1551 35.1845 35.0085 38.6691 35.2425L193.502 31.2378C195.53 31.1858 197.48 31.9659 198.911 33.3962C200.341 34.8265 201.121 36.7768 201.069 38.8052L198.885 130.81Z" fill="#003937"/>
<path d="M195.999 128.002C195.999 129.536 194.751 130.784 193.217 130.784H41.3491C39.8148 130.784 38.5666 129.536 38.5666 128.002L37.3184 45.3585C37.4744 40.3916 41.8172 38.5973 44.4697 38.7013C44.4697 38.7013 165.496 35.4507 192.879 34.7226C194.309 34.6966 195.661 35.2427 196.676 36.2308C197.69 37.245 198.236 38.5973 198.21 40.0275L195.999 128.002Z" fill="#7CE0A9"/>
<g opacity="0.51">
<path d="M40.2056 88.5527C40.0756 88.5527 39.9976 88.4487 39.9976 88.3446L39.8936 81.6354C39.8936 81.5054 39.9976 81.4274 40.1016 81.4014C40.2056 81.4014 40.3096 81.5054 40.3356 81.6094L40.4397 88.3186C40.4397 88.4487 40.3356 88.5527 40.2056 88.5527Z" fill="white"/>
<path d="M39.9712 72.118C39.8411 72.118 39.7631 72.0139 39.7631 71.9099L39.373 46.2432C39.373 44.5269 39.9191 43.1747 40.9333 42.1605C42.8057 40.3661 45.7442 40.4442 45.8742 40.4442L93.2549 39.1699C93.3849 39.1699 93.463 39.2739 93.489 39.378C93.489 39.508 93.3849 39.586 93.2809 39.612L45.8742 40.8862C45.7442 40.8862 42.9877 40.8082 41.2194 42.4725C40.2832 43.3827 39.7891 44.6309 39.7891 46.2172L40.1792 71.8839C40.2052 72.0139 40.1012 72.118 39.9712 72.118Z" fill="white"/>
</g>
<path d="M45.276 123.424C45.4321 116.585 45.3801 56.0978 44.99 50.8708C44.5999 45.6438 52.7394 44.6557 65.2217 44.0836C77.704 43.4854 183.127 41.171 185.832 40.937C191.943 40.4429 193.191 49.5706 192.593 69.3602C192.125 84.2349 191.371 108.731 191.033 119.991C190.929 123.346 188.198 125.999 184.818 126.025C159.463 126.103 62.2312 126.363 55.756 126.571C48.2926 126.779 45.198 126.129 45.276 123.424Z" fill="#BAF1D2"/>
<path d="M208.508 141.291H28.191C26.3967 141.291 24.9404 139.834 24.9404 138.04V136.532C24.9404 134.738 26.3967 133.281 28.191 133.281H208.482C210.276 133.281 211.733 134.738 211.733 136.532V138.04C211.733 139.834 210.276 141.291 208.508 141.291Z" fill="#004C4A"/>
<path d="M64.7017 54.2783L73.4393 63.8481C67.9783 67.9828 64.5457 76.0703 73.6994 85.7181L61.3731 91.6992C52.7655 76.5644 53.9877 64.6282 64.7017 54.2783Z" fill="#4FA39F"/>
<path d="M59.5518 88.2165L68.0293 88.3465L69.5636 79.999C74.2184 89.5688 85.2445 93.5735 97.8308 89.4908L104.202 101.323C86.0246 109.592 67.6132 105.354 59.5518 88.2165Z" fill="#5FB2AF"/>
<path d="M130.727 75.5759C137.593 61.9754 155.77 56.9564 168.798 64.4198L182.035 60.051C166.588 39.4292 138.503 43.3559 121.054 63.9517L130.727 75.5759Z" fill="#3F9390"/>
<path d="M161.23 89.9585L166.847 103.065C187.339 94.5354 193.528 65.6441 175.039 52.9277L175.169 61.4313L166.457 63.2516C179.278 69.3107 173.583 86.5519 161.23 89.9585Z" fill="#2F8481"/>
<path d="M124.668 93.6758C144.068 107.64 161.049 109.461 174.597 98.3566L165.079 94.976L167.732 86.4725C155.848 94.716 144.796 92.0375 134.212 83.5859L124.668 93.6758Z" fill="#4FA39F"/>
<path d="M64.7012 54.2785V63.4842L73.4388 63.8742C79.1078 60.2076 87.3253 60.4936 97.6492 63.7962L103.656 50.4818C87.9754 43.7465 75.1031 45.3328 64.7012 54.2785Z" fill="#6FC2BE"/>
<path d="M97.6756 63.7701L92.7607 53.5243L103.683 50.4297C110.782 54.1224 116.477 58.6732 121.054 63.8742C126.073 74.9262 132.964 84.3659 141.598 88.3967L130.286 88.5267L132.028 98.3825C127.607 95.73 123.316 92.7395 119.546 89.4889L111.042 74.4581C108.078 69.9593 103.943 66.2926 97.6756 63.7701Z" fill="#5FB2AF"/>
<path d="M121.053 63.9254C117.725 67.488 115.566 72.715 112.446 76.4337C107.453 82.3628 101.264 90.0342 90.0557 91.0484L99.2093 95.7812L93.7743 104.701C112.056 101.06 124.85 89.15 130.753 75.5755V62.4951L121.053 63.9254Z" fill="#2F8481"/>
<path d="M157.825 118.302C157.799 118.328 157.747 118.354 157.721 118.354C157.617 118.354 157.539 118.276 157.513 118.172C157.487 117.912 157.487 117.678 157.461 117.418C157.461 117.314 157.539 117.236 157.643 117.21C157.747 117.21 157.825 117.288 157.851 117.392C157.851 117.626 157.877 117.886 157.903 118.12C157.877 118.224 157.851 118.276 157.825 118.302Z" fill="#2F8481"/>
<path d="M189.055 100.879C189.003 100.931 188.899 100.931 188.821 100.879C188.405 100.567 187.989 100.281 187.573 100.021C187.495 99.9686 187.469 99.8386 187.521 99.7606C187.573 99.6826 187.703 99.6566 187.781 99.7086C188.223 99.9946 188.639 100.281 189.055 100.593C189.133 100.645 189.159 100.775 189.081 100.853L189.055 100.879ZM185.597 98.8244C185.545 98.8764 185.466 98.8764 185.388 98.8504C184.92 98.6424 184.452 98.4343 183.984 98.2783C183.88 98.2523 183.828 98.1223 183.88 98.0443C183.906 97.9402 184.036 97.8882 184.114 97.9403C184.608 98.1223 185.076 98.3303 185.545 98.5384C185.649 98.5904 185.675 98.6944 185.623 98.7984C185.623 98.7724 185.623 98.7984 185.597 98.8244ZM181.8 97.5242C181.748 97.5762 181.696 97.5762 181.644 97.5762C181.15 97.4722 180.656 97.3682 180.162 97.2901C180.057 97.2641 179.979 97.1861 180.005 97.0821C180.031 96.9781 180.11 96.9001 180.214 96.9261C180.734 97.0041 181.228 97.1081 181.722 97.2121C181.826 97.2381 181.878 97.3421 181.852 97.4462C181.852 97.4462 181.826 97.4982 181.8 97.5242ZM157.797 115.077C157.771 115.103 157.719 115.129 157.667 115.129C157.563 115.129 157.485 115.025 157.485 114.921C157.537 114.401 157.589 113.881 157.667 113.387C157.693 113.283 157.771 113.205 157.875 113.231C157.979 113.257 158.057 113.335 158.031 113.439C157.953 113.933 157.901 114.453 157.849 114.947C157.849 114.999 157.823 115.051 157.797 115.077ZM177.821 97.0041C177.795 97.0301 177.743 97.0561 177.691 97.0561C177.197 97.0561 176.677 97.0561 176.183 97.0821C176.079 97.0821 176.001 97.0041 175.975 96.9001C175.975 96.796 176.053 96.718 176.157 96.692C176.677 96.666 177.197 96.666 177.717 96.666C177.821 96.666 177.899 96.744 177.899 96.8481C177.873 96.9261 177.847 96.9781 177.821 97.0041ZM158.526 111.125C158.474 111.177 158.422 111.177 158.344 111.177C158.239 111.151 158.187 111.047 158.213 110.943C158.37 110.449 158.526 109.954 158.708 109.486C158.734 109.382 158.864 109.33 158.942 109.382C159.046 109.408 159.098 109.538 159.046 109.616C158.864 110.084 158.708 110.579 158.578 111.047C158.578 111.073 158.552 111.099 158.526 111.125ZM173.79 97.3161C173.764 97.3421 173.738 97.3421 173.686 97.3681C173.192 97.4722 172.698 97.5762 172.204 97.7062C172.1 97.7322 171.996 97.6802 171.97 97.5762C171.944 97.4722 171.996 97.3682 172.1 97.3421C172.594 97.2121 173.114 97.0821 173.608 97.0041C173.712 96.9781 173.816 97.0561 173.816 97.1601C173.868 97.2121 173.842 97.2901 173.79 97.3161ZM160.034 107.38C159.982 107.432 159.904 107.432 159.826 107.406C159.722 107.354 159.696 107.25 159.748 107.146C159.982 106.704 160.242 106.236 160.528 105.82C160.58 105.742 160.71 105.716 160.788 105.768C160.866 105.82 160.892 105.95 160.84 106.028C160.58 106.444 160.32 106.886 160.086 107.328C160.06 107.354 160.06 107.38 160.034 107.38ZM169.942 98.4604C169.916 98.4864 169.916 98.4863 169.89 98.4863C169.422 98.6684 168.953 98.8764 168.511 99.1105C168.407 99.1625 168.303 99.1105 168.251 99.0325C168.199 98.9284 168.251 98.8244 168.329 98.7724C168.797 98.5384 169.266 98.3303 169.734 98.1223C169.838 98.0963 169.942 98.1223 169.968 98.2263C170.02 98.3303 169.994 98.4083 169.942 98.4604ZM166.405 100.333C166.379 100.359 166.405 100.359 166.405 100.333C165.963 100.619 165.547 100.931 165.157 101.243C165.079 101.295 164.949 101.295 164.897 101.217C164.845 101.139 164.845 101.009 164.923 100.957C165.339 100.645 165.755 100.333 166.171 100.047C166.249 99.9946 166.379 100.021 166.431 100.099C166.483 100.177 166.457 100.281 166.405 100.333ZM162.27 104.051C162.192 104.103 162.088 104.103 162.036 104.051C161.958 103.973 161.958 103.869 162.01 103.791C162.348 103.401 162.686 103.011 163.05 102.647C163.128 102.569 163.232 102.569 163.31 102.647C163.388 102.725 163.388 102.829 163.31 102.907C162.972 103.271 162.634 103.661 162.27 104.051C162.296 104.051 162.296 104.051 162.27 104.051Z" fill="#2F8481"/>
<path d="M191.473 103.012C191.395 103.09 191.291 103.064 191.213 103.012C191.031 102.83 190.875 102.648 190.693 102.492C190.615 102.414 190.615 102.31 190.693 102.232C190.771 102.154 190.875 102.154 190.953 102.232C191.135 102.414 191.317 102.596 191.473 102.778C191.577 102.83 191.551 102.96 191.473 103.012Z" fill="#2F8481"/>
<path d="M196.935 117.313C196.909 117.339 196.857 117.365 196.805 117.365C196.701 117.365 196.623 117.287 196.623 117.183C196.623 116.949 196.649 116.689 196.623 116.454C196.623 116.35 196.701 116.272 196.805 116.272C196.909 116.272 196.987 116.35 196.987 116.454C196.987 116.715 196.987 116.949 196.961 117.209C197.013 117.235 196.987 117.287 196.935 117.313Z" fill="#7D97F4"/>
<path d="M190.486 131.149L190.356 131.253C190.278 131.331 190.148 131.305 190.096 131.227C190.018 131.149 190.044 131.045 190.122 130.967L190.252 130.863C190.59 130.576 190.902 130.264 191.214 129.926C191.292 129.848 191.396 129.848 191.474 129.926C191.552 130.004 191.552 130.108 191.474 130.186C191.162 130.524 190.824 130.863 190.486 131.149ZM188.432 132.761C188.432 132.787 188.432 132.787 188.432 132.761C187.99 133.073 187.574 133.333 187.132 133.593C187.054 133.645 186.924 133.619 186.872 133.515C186.82 133.437 186.846 133.307 186.95 133.255C187.392 132.995 187.808 132.735 188.224 132.449C188.302 132.397 188.432 132.423 188.484 132.501C188.51 132.605 188.51 132.709 188.432 132.761ZM193.061 128.34C193.009 128.392 192.905 128.418 192.827 128.34C192.749 128.288 192.723 128.158 192.801 128.08C193.087 127.69 193.373 127.274 193.659 126.858C193.711 126.78 193.841 126.754 193.919 126.806C193.997 126.858 194.023 126.988 193.971 127.066C193.711 127.482 193.399 127.924 193.113 128.314C193.061 128.34 193.061 128.34 193.061 128.34ZM184.973 134.659C184.947 134.685 184.947 134.685 184.921 134.685C184.453 134.893 183.985 135.075 183.491 135.231C183.387 135.257 183.283 135.205 183.257 135.101C183.231 134.997 183.283 134.893 183.387 134.867C183.855 134.711 184.323 134.529 184.791 134.347C184.895 134.295 184.999 134.347 185.025 134.451C185.051 134.529 185.025 134.607 184.973 134.659ZM195.089 124.959C195.037 125.011 194.959 125.011 194.881 124.985C194.777 124.933 194.751 124.829 194.803 124.725C195.011 124.283 195.219 123.815 195.375 123.347C195.401 123.243 195.531 123.191 195.609 123.243C195.713 123.269 195.765 123.399 195.713 123.477C195.531 123.945 195.323 124.413 195.115 124.881C195.115 124.933 195.115 124.933 195.089 124.959ZM181.176 135.829C181.15 135.855 181.124 135.855 181.098 135.881C180.604 135.985 180.11 136.063 179.59 136.116C179.486 136.116 179.382 136.063 179.382 135.959C179.382 135.855 179.434 135.751 179.538 135.751C180.032 135.699 180.526 135.621 181.02 135.517C181.124 135.491 181.228 135.569 181.228 135.673C181.254 135.725 181.228 135.803 181.176 135.829ZM196.389 121.241C196.337 121.293 196.285 121.293 196.207 121.293C196.103 121.267 196.051 121.163 196.077 121.059C196.207 120.565 196.285 120.071 196.363 119.602C196.389 119.498 196.467 119.42 196.571 119.446C196.675 119.472 196.753 119.55 196.727 119.654C196.649 120.149 196.545 120.669 196.415 121.137C196.441 121.163 196.415 121.215 196.389 121.241ZM177.25 136.22C177.224 136.246 177.172 136.272 177.12 136.272C176.626 136.272 176.106 136.246 175.585 136.194C175.481 136.194 175.403 136.089 175.403 135.985C175.403 135.881 175.507 135.803 175.611 135.803C176.106 135.855 176.6 135.855 177.094 135.881C177.198 135.881 177.276 135.959 177.276 136.063C177.302 136.142 177.302 136.194 177.25 136.22ZM173.323 135.803C173.271 135.829 173.219 135.855 173.167 135.855C172.777 135.777 172.387 135.673 171.997 135.569C171.893 135.543 171.789 135.517 171.685 135.491C171.581 135.465 171.529 135.361 171.555 135.257C171.581 135.153 171.685 135.101 171.789 135.127C171.893 135.153 171.997 135.179 172.101 135.205C172.491 135.309 172.855 135.413 173.245 135.491C173.349 135.517 173.401 135.621 173.401 135.699C173.375 135.725 173.349 135.777 173.323 135.803ZM169.552 134.607C169.5 134.659 169.422 134.659 169.344 134.633C168.876 134.425 168.408 134.217 167.966 133.983C167.862 133.931 167.836 133.827 167.888 133.723C167.94 133.619 168.044 133.593 168.148 133.645C168.59 133.879 169.032 134.087 169.5 134.295C169.604 134.347 169.63 134.451 169.604 134.529C169.578 134.555 169.578 134.581 169.552 134.607ZM166.094 132.657C166.042 132.709 165.938 132.735 165.86 132.683C165.444 132.397 165.028 132.085 164.637 131.773C164.559 131.695 164.559 131.591 164.611 131.513C164.689 131.435 164.793 131.435 164.871 131.487C165.262 131.799 165.652 132.111 166.068 132.397C166.146 132.449 166.172 132.579 166.12 132.657H166.094Z" fill="#2F8481"/>
<path d="M163.103 130.082C163.025 130.16 162.921 130.134 162.843 130.082C162.661 129.9 162.505 129.718 162.349 129.536C162.271 129.458 162.297 129.328 162.375 129.276C162.453 129.198 162.583 129.224 162.635 129.302C162.791 129.484 162.973 129.666 163.129 129.848C163.181 129.874 163.181 130.004 163.103 130.082Z" fill="#2F8481"/>
<path d="M164.742 124.881C164.794 124.959 164.898 125.011 164.976 125.011L167.81 124.569C168.694 125.583 169.735 126.468 170.931 127.144L171.035 130.004C171.035 130.108 171.113 130.186 171.191 130.212L174.467 131.227C174.571 131.253 174.675 131.227 174.727 131.148L176.418 128.834C177.796 128.938 179.148 128.808 180.449 128.444L182.529 130.394C182.607 130.472 182.711 130.472 182.789 130.42L185.832 128.808C185.91 128.756 185.962 128.652 185.962 128.574L185.519 125.739C186.534 124.855 187.392 123.815 188.094 122.619L190.954 122.515C191.058 122.515 191.137 122.437 191.163 122.359L192.177 119.082C192.203 118.978 192.177 118.874 192.099 118.822L189.784 117.132C189.888 115.754 189.758 114.401 189.394 113.101L191.345 111.021C191.423 110.943 191.423 110.839 191.371 110.761L189.758 107.718C189.706 107.64 189.602 107.588 189.524 107.588L186.69 108.03C185.806 107.016 184.765 106.132 183.569 105.456L183.465 102.595C183.465 102.491 183.387 102.413 183.309 102.387L180.032 101.373C179.928 101.347 179.824 101.373 179.772 101.451L178.082 103.765C176.704 103.661 175.352 103.791 174.051 104.156L171.971 102.205C171.893 102.127 171.789 102.127 171.711 102.179L168.668 103.791C168.59 103.843 168.538 103.947 168.538 104.026L168.98 106.86C167.966 107.744 167.108 108.784 166.406 109.981L163.545 110.085C163.441 110.085 163.363 110.163 163.337 110.241L162.323 113.517C162.297 113.621 162.323 113.725 162.401 113.777L164.716 115.468C164.612 116.846 164.742 118.198 165.106 119.498L163.155 121.579C163.077 121.657 163.077 121.761 163.129 121.839L164.742 124.881Z" fill="#57D48F"/>
<path d="M179.486 118.796C178.81 119.394 177.978 119.706 177.094 119.654C176.209 119.602 175.377 119.212 174.805 118.562C174.207 117.912 173.895 117.054 173.947 116.17C174.051 114.323 175.611 112.919 177.458 113.023C178.342 113.075 179.174 113.465 179.746 114.115C180.344 114.765 180.656 115.623 180.604 116.508C180.552 117.392 180.162 118.198 179.486 118.796ZM175.403 114.271C174.857 114.765 174.519 115.441 174.493 116.196C174.467 116.924 174.701 117.652 175.195 118.198C175.689 118.744 176.365 119.082 177.12 119.108C177.848 119.134 178.576 118.9 179.122 118.406C179.668 117.912 180.006 117.236 180.032 116.482C180.058 115.754 179.824 115.025 179.33 114.479C178.836 113.933 178.16 113.595 177.406 113.569C176.678 113.517 175.949 113.777 175.403 114.271Z" fill="#2F8481"/>
<path d="M183.075 122.618C180.917 124.569 177.796 125.375 174.806 124.465C174.234 124.283 173.662 124.049 173.142 123.737L173.428 123.243C173.922 123.529 174.442 123.737 174.988 123.919C178.29 124.933 181.775 123.711 183.751 121.058C183.751 121.058 183.751 121.058 183.751 121.032C183.751 121.032 183.751 121.032 183.751 121.006C184.272 120.304 184.688 119.498 184.974 118.588C185.598 116.533 185.39 114.375 184.402 112.477C184.09 111.878 183.699 111.332 183.257 110.838C182.295 109.772 181.073 108.992 179.695 108.576C175.482 107.276 170.983 109.642 169.683 113.855C169.267 115.233 169.215 116.715 169.553 118.12L169.007 118.25C168.643 116.741 168.695 115.181 169.137 113.699C170.541 109.174 175.326 106.652 179.851 108.03C181.333 108.498 182.659 109.33 183.673 110.474C184.142 110.994 184.558 111.592 184.896 112.217C185.962 114.245 186.17 116.559 185.494 118.744C185.052 120.33 184.194 121.63 183.075 122.618Z" fill="#2F8481"/>
<path d="M209.211 97.8366C209.185 97.8106 209.159 97.7846 209.159 97.7586C209.159 97.6026 209.133 97.4726 209.133 97.3165C209.133 97.2645 209.185 97.2125 209.237 97.1865C209.289 97.1865 209.341 97.2385 209.367 97.2905C209.393 97.4466 209.393 97.6026 209.393 97.7326C209.393 97.7846 209.341 97.8366 209.289 97.8366C209.263 97.8626 209.237 97.8366 209.211 97.8366Z" fill="#676767"/>
<path d="M192.957 107.457C192.723 107.327 192.515 107.171 192.307 107.015C192.255 106.989 192.255 106.911 192.281 106.859C192.307 106.807 192.385 106.807 192.437 106.833C192.671 107.015 192.931 107.171 193.191 107.327C193.243 107.353 193.269 107.431 193.217 107.483C193.191 107.535 193.113 107.561 193.061 107.509C193.035 107.509 192.983 107.483 192.957 107.457ZM194.387 108.211C194.335 108.185 194.309 108.133 194.335 108.081C194.361 108.029 194.413 108.003 194.491 108.029C194.777 108.133 195.063 108.263 195.349 108.341C195.401 108.367 195.427 108.419 195.427 108.471C195.401 108.523 195.349 108.549 195.297 108.549C194.985 108.419 194.699 108.315 194.387 108.211ZM196.676 108.862C196.65 108.836 196.624 108.784 196.624 108.758C196.624 108.705 196.702 108.653 196.754 108.679C197.04 108.732 197.352 108.784 197.638 108.81C197.69 108.81 197.742 108.862 197.742 108.94C197.742 108.992 197.69 109.044 197.612 109.044C197.3 109.018 196.988 108.966 196.702 108.914C196.702 108.888 196.702 108.888 196.676 108.862ZM199.068 109.018C199.042 108.992 199.016 108.966 199.016 108.94C199.016 108.888 199.068 108.836 199.12 108.81C199.406 108.784 199.718 108.758 200.03 108.732C200.082 108.732 200.16 108.758 200.16 108.836C200.16 108.888 200.134 108.966 200.056 108.966C199.744 109.018 199.432 109.044 199.146 109.044C199.12 109.044 199.094 109.044 199.068 109.018ZM201.434 108.627C201.408 108.601 201.382 108.601 201.382 108.575C201.356 108.523 201.408 108.445 201.46 108.445C201.746 108.367 202.033 108.263 202.319 108.159C202.371 108.133 202.449 108.159 202.475 108.237C202.501 108.289 202.475 108.367 202.397 108.393C202.111 108.497 201.825 108.601 201.512 108.679C201.486 108.653 201.46 108.653 201.434 108.627ZM203.645 107.743C203.619 107.743 203.619 107.717 203.593 107.691C203.567 107.639 203.593 107.561 203.645 107.535C203.905 107.379 204.165 107.223 204.425 107.067C204.477 107.041 204.555 107.041 204.581 107.093C204.607 107.145 204.607 107.223 204.555 107.249C204.295 107.405 204.035 107.587 203.775 107.717C203.723 107.769 203.671 107.743 203.645 107.743ZM205.595 106.365C205.517 106.287 205.543 106.235 205.569 106.183C205.803 105.975 206.011 105.767 206.219 105.559C206.271 105.507 206.323 105.507 206.375 105.559C206.427 105.611 206.427 105.663 206.375 105.715C206.167 105.923 205.933 106.157 205.699 106.365C205.699 106.391 205.647 106.391 205.595 106.365ZM207.207 104.597C207.155 104.545 207.129 104.493 207.181 104.441C207.338 104.233 207.494 103.999 207.624 103.765C207.65 103.739 207.65 103.713 207.676 103.687C207.702 103.635 207.78 103.609 207.832 103.661C207.884 103.687 207.91 103.765 207.858 103.817C207.832 103.843 207.832 103.869 207.806 103.921C207.676 104.155 207.52 104.389 207.364 104.597C207.312 104.623 207.26 104.623 207.207 104.597ZM208.378 102.516C208.326 102.49 208.3 102.438 208.326 102.386C208.43 102.1 208.56 101.814 208.638 101.528C208.664 101.476 208.716 101.45 208.768 101.45C208.82 101.476 208.846 101.528 208.846 101.58C208.742 101.866 208.638 102.152 208.534 102.438C208.508 102.516 208.456 102.542 208.378 102.516ZM209.054 100.228C209.028 100.202 209.002 100.15 209.002 100.124C209.054 99.8379 209.106 99.5258 209.132 99.2398C209.132 99.1878 209.184 99.1357 209.262 99.1357C209.314 99.1357 209.366 99.1878 209.366 99.2658C209.34 99.5778 209.288 99.8899 209.236 100.176C209.236 100.228 209.158 100.28 209.106 100.254C209.08 100.228 209.08 100.228 209.054 100.228Z" fill="#2F8481"/>
<path d="M191.162 106.08C191.032 105.95 190.928 105.846 190.824 105.742C190.772 105.69 190.772 105.638 190.824 105.586C190.876 105.534 190.928 105.534 190.98 105.586C191.084 105.69 191.188 105.794 191.292 105.898C191.344 105.95 191.344 106.002 191.292 106.054C191.266 106.106 191.188 106.106 191.162 106.08Z" fill="#2F8481"/>
<path d="M187.832 98.3825C187.806 98.3565 187.78 98.3305 187.78 98.2785C187.78 98.1225 187.78 97.9665 187.78 97.8364C187.78 97.7844 187.832 97.7324 187.884 97.7324C187.936 97.7324 187.988 97.7844 187.988 97.8364C187.988 97.9925 187.988 98.1225 187.988 98.2785C187.988 98.3305 187.936 98.3825 187.884 98.3825C187.884 98.4085 187.858 98.4085 187.832 98.3825Z" fill="#2F8481"/>
<path d="M187.99 96.4852C187.964 96.4592 187.938 96.4072 187.938 96.3812C187.99 96.0951 188.068 95.7831 188.12 95.497C188.147 95.445 188.199 95.393 188.251 95.419C188.303 95.445 188.355 95.497 188.329 95.549C188.251 95.8351 188.199 96.1211 188.147 96.4072C188.147 96.4592 188.068 96.5112 187.99 96.4852C188.016 96.5112 188.016 96.5112 187.99 96.4852ZM188.667 94.2228C188.615 94.1968 188.589 94.1448 188.615 94.0928C188.719 93.8067 188.849 93.5467 189.005 93.2606C189.031 93.2086 189.109 93.1826 189.161 93.2086C189.213 93.2346 189.239 93.3126 189.213 93.3646C189.083 93.6247 188.953 93.8847 188.849 94.1708C188.797 94.2488 188.745 94.2748 188.667 94.2228C188.667 94.2488 188.667 94.2488 188.667 94.2228ZM189.785 92.1684C189.733 92.1164 189.707 92.0644 189.759 92.0124C189.941 91.7784 190.123 91.5183 190.305 91.2842C190.357 91.2322 190.409 91.2322 190.461 91.2583C190.513 91.3103 190.513 91.3623 190.487 91.4143C190.305 91.6483 190.123 91.8824 189.941 92.1164C189.915 92.1944 189.837 92.1944 189.785 92.1684ZM191.345 90.4261C191.345 90.4001 191.345 90.4001 191.345 90.4261C191.267 90.3481 191.293 90.2961 191.319 90.2441C191.553 90.036 191.787 89.854 192.021 89.672C192.073 89.646 192.151 89.646 192.177 89.698C192.203 89.75 192.203 89.828 192.151 89.854C191.917 90.036 191.683 90.2181 191.475 90.4261C191.449 90.4261 191.397 90.4521 191.345 90.4261ZM193.269 89.0478C193.243 89.0478 193.243 89.0218 193.243 88.9958C193.217 88.9438 193.243 88.8658 193.295 88.8398C193.556 88.6838 193.842 88.5537 194.102 88.4237C194.154 88.3977 194.232 88.4237 194.258 88.4757C194.284 88.5277 194.258 88.6058 194.206 88.6318C193.946 88.7618 193.66 88.8918 193.425 89.0478C193.347 89.0739 193.295 89.0478 193.269 89.0478ZM195.428 88.1117C195.402 88.0857 195.376 88.0857 195.376 88.0597C195.35 88.0077 195.402 87.9296 195.454 87.9296C195.74 87.8516 196.026 87.7736 196.338 87.6956C196.39 87.6956 196.468 87.7216 196.468 87.7736C196.468 87.8256 196.442 87.9036 196.39 87.9036C196.104 87.9556 195.818 88.0337 195.532 88.1377C195.48 88.1377 195.454 88.1377 195.428 88.1117ZM197.742 87.6696C197.716 87.6436 197.69 87.6176 197.69 87.5916C197.69 87.5396 197.742 87.4876 197.794 87.4616C198.106 87.4356 198.392 87.4355 198.704 87.4355C198.756 87.4355 198.808 87.4876 198.808 87.5396C198.808 87.5916 198.756 87.6436 198.704 87.6436C198.418 87.6436 198.106 87.6436 197.82 87.6696C197.768 87.6956 197.768 87.6956 197.742 87.6696ZM200.083 87.7736C200.057 87.7476 200.031 87.6956 200.031 87.6696C200.031 87.6176 200.109 87.5656 200.161 87.5656C200.447 87.6176 200.759 87.6696 201.045 87.7476C201.097 87.7736 201.149 87.8256 201.123 87.8776C201.097 87.9296 201.045 87.9816 200.993 87.9556C200.707 87.8776 200.421 87.8256 200.083 87.7736C200.109 87.7736 200.109 87.7736 200.083 87.7736ZM202.371 88.3457C202.319 88.3197 202.293 88.2677 202.319 88.2157C202.345 88.1637 202.397 88.1377 202.475 88.1637C202.761 88.2677 203.047 88.3977 203.307 88.5278C203.359 88.5538 203.385 88.6318 203.359 88.6838C203.333 88.7358 203.255 88.7618 203.203 88.7358C202.943 88.5798 202.657 88.4757 202.371 88.3457C202.371 88.3717 202.371 88.3717 202.371 88.3457ZM205.18 89.958C204.946 89.776 204.686 89.5939 204.452 89.4379C204.399 89.4119 204.373 89.3339 204.425 89.2819C204.451 89.2299 204.53 89.2039 204.582 89.2559C204.842 89.4119 205.076 89.594 205.31 89.802C205.362 89.828 205.362 89.906 205.336 89.958C205.284 89.984 205.232 89.984 205.18 89.958Z" fill="#2F8481"/>
<path d="M206.558 91.2831C206.428 91.1531 206.324 91.049 206.246 90.945C206.194 90.893 206.194 90.841 206.246 90.789C206.298 90.737 206.35 90.737 206.402 90.789C206.506 90.893 206.61 90.997 206.714 91.1271C206.766 91.1791 206.74 91.2311 206.714 91.2831C206.662 91.3091 206.61 91.3091 206.558 91.2831Z" fill="#676767"/>
<path d="M205.388 93.6491C205.362 93.5971 205.31 93.5711 205.258 93.5711L203.723 93.8052C203.255 93.2591 202.683 92.791 202.033 92.4009L201.981 90.8406C201.981 90.7886 201.955 90.7366 201.903 90.7106L200.109 90.1645C200.057 90.1385 200.005 90.1645 199.979 90.2165L199.069 91.4908C198.314 91.4387 197.586 91.5168 196.884 91.6988L195.74 90.6326C195.688 90.6066 195.636 90.5806 195.584 90.6066L193.92 91.4908C193.868 91.5168 193.842 91.5688 193.842 91.6208L194.076 93.155C193.53 93.6231 193.061 94.1952 192.671 94.8454L191.111 94.8974C191.059 94.8974 191.007 94.9234 190.981 94.9754L190.435 96.7697C190.409 96.8217 190.435 96.8737 190.487 96.8997L191.761 97.8099C191.709 98.564 191.787 99.2922 191.969 99.9943L190.903 101.139C190.877 101.191 190.851 101.243 190.877 101.295L191.761 102.959C191.787 103.011 191.839 103.037 191.891 103.037L193.426 102.803C193.894 103.349 194.466 103.817 195.116 104.207L195.168 105.767C195.168 105.819 195.194 105.871 195.246 105.897L197.04 106.443C197.092 106.469 197.144 106.443 197.17 106.391L198.08 105.117C198.835 105.169 199.563 105.091 200.265 104.909L201.409 105.975C201.461 106.001 201.513 106.027 201.565 106.001L203.229 105.117C203.281 105.091 203.307 105.039 203.307 104.987L203.073 103.453C203.619 102.985 204.088 102.413 204.478 101.763L206.038 101.711C206.09 101.711 206.142 101.685 206.168 101.633L206.714 99.8383C206.74 99.7863 206.714 99.7343 206.662 99.7083L205.388 98.7981C205.44 98.0439 205.362 97.3158 205.18 96.6137L206.246 95.4695C206.272 95.4175 206.298 95.3654 206.272 95.3134L205.388 93.6491Z" fill="#57D48F"/>
<path d="M197.612 99.8909C197.456 99.8129 197.326 99.6828 197.195 99.5528C196.857 99.1887 196.701 98.7206 196.727 98.2266C196.753 97.7325 196.961 97.2904 197.326 96.9523C197.69 96.6143 198.158 96.4582 198.652 96.4842C199.146 96.5102 199.588 96.7183 199.926 97.0824C200.264 97.4464 200.42 97.9145 200.394 98.4086C200.368 98.9027 200.16 99.3448 199.796 99.6828C199.432 100.021 198.964 100.177 198.47 100.151C198.158 100.151 197.872 100.047 197.612 99.8909ZM199.354 97.0563C199.146 96.9263 198.912 96.8483 198.652 96.8483C198.262 96.8223 197.872 96.9523 197.586 97.2384C197.299 97.4984 197.117 97.8625 197.091 98.2786C197.065 98.6686 197.195 99.0587 197.482 99.3448C197.742 99.6308 198.106 99.8128 198.522 99.8389C198.912 99.8649 199.302 99.7348 199.588 99.4488C199.874 99.1887 200.056 98.8247 200.082 98.4086C200.108 97.9925 199.978 97.6285 199.692 97.3424C199.588 97.2124 199.458 97.1344 199.354 97.0563Z" fill="#2F8481"/>
<path d="M196.076 102.361C194.282 101.269 193.398 99.0848 194.048 96.9784C194.178 96.5884 194.334 96.2243 194.542 95.9122C195.634 94.1179 197.819 93.2337 199.925 93.8839C199.951 93.8839 200.003 93.9099 200.029 93.9099C200.289 93.9879 200.523 94.0919 200.757 94.2219C200.783 94.2479 200.809 94.2479 200.835 94.2739L200.679 94.56C200.419 94.404 200.133 94.2999 199.821 94.1959C197.533 93.4938 195.088 94.794 194.386 97.0825C193.684 99.3709 194.984 101.815 197.273 102.517C199.223 103.116 201.251 102.283 202.265 100.619C202.447 100.307 202.603 99.969 202.708 99.6309C202.942 98.8768 202.968 98.0706 202.76 97.3165L203.098 97.2385C203.306 98.0706 203.28 98.9288 203.02 99.7349C202.89 100.125 202.734 100.489 202.525 100.801C201.433 102.595 199.249 103.48 197.142 102.83C196.778 102.725 196.414 102.543 196.076 102.361Z" fill="#2F8481"/>
<path d="M202.267 119.94L203.437 121.085C205.075 120.929 206.349 120.408 207.338 119.758C206.739 118.302 206.141 117.444 205.673 116.924C204.113 119.082 202.267 119.94 202.267 119.94Z" fill="#D8D8D8"/>
<path d="M210.328 115.649L207.598 111.358C207.416 113.777 206.61 115.597 205.647 116.923C206.116 117.444 206.714 118.302 207.312 119.758C209.756 118.146 210.328 115.649 210.328 115.649Z" fill="#33C475"/>
<path d="M213.239 149.534C211.861 149.586 210.561 149.56 209.677 149.508C210.483 148.936 212.329 147.688 213.89 147.194L214.956 147.142C214.956 147.142 215.32 147.688 215.45 148.936C215.268 149.144 214.748 149.456 213.239 149.534Z" fill="#4D4D4D"/>
<path d="M209.678 149.509C210.563 149.535 211.889 149.587 213.267 149.535C214.775 149.457 215.269 149.171 215.451 148.937C215.451 148.989 215.451 149.041 215.477 149.119C215.503 149.405 215.295 149.639 215.009 149.665C213.891 149.743 211.109 149.951 209.782 149.873C209.6 149.847 209.522 149.613 209.678 149.509Z" fill="#939393"/>
<path d="M223.018 149.144C223.122 148.494 223.278 147.583 223.408 147.349C223.59 146.985 224.266 147.349 224.266 147.349C224.266 147.349 224.734 147.557 224.942 147.921C225.072 148.155 225.462 148.806 225.722 149.248C225.748 149.3 225.774 149.352 225.774 149.404L223.096 149.508C223.044 149.404 222.992 149.3 223.018 149.144Z" fill="#4D4D4D"/>
<path d="M225.776 149.43C225.776 149.586 225.646 149.716 225.489 149.716L223.591 149.768C223.383 149.768 223.227 149.664 223.123 149.508L225.776 149.43Z" fill="#939393"/>
<path d="M222.811 145.218C222.837 145.296 223.175 146.96 223.331 147.688C223.383 147.896 223.565 148.026 223.773 148.026C223.877 148.026 224.007 148 224.163 148C224.397 147.974 224.605 147.766 224.605 147.506C224.631 146.856 224.631 145.634 224.397 145.166C224.059 144.516 222.811 145.218 222.811 145.218Z" fill="#FDC39F"/>
<path d="M215.164 145.685C215.008 145.685 215.216 146.439 215.008 147.193C214.956 147.375 214.826 147.505 214.644 147.505C214.54 147.505 214.384 147.505 214.254 147.505C214.046 147.479 213.89 147.323 213.864 147.115L213.682 145.165L215.164 145.685Z" fill="#FDC39F"/>
<path d="M211.03 124.907C211.108 125.219 213.423 138.794 213.553 145.841C213.553 145.971 213.631 146.049 213.761 146.075C214.047 146.127 214.619 146.179 215.191 146.075C215.269 146.049 215.321 145.997 215.321 145.919C215.399 144.619 216.049 133.541 215.243 128.34C215.243 128.34 221.848 142.278 222.862 146.101C222.888 146.205 222.966 146.257 223.07 146.257C223.357 146.231 223.955 146.179 224.423 146.023C224.579 145.971 224.683 145.789 224.631 145.607C224.059 143.319 220.132 127.482 217.479 123.997L211.03 124.907Z" fill="#003432"/>
<path d="M215.269 128.391C215.295 128.391 215.321 128.391 215.321 128.365C215.347 128.339 215.347 128.287 215.321 128.235L214.437 127.325C214.411 127.299 214.359 127.299 214.307 127.325C214.281 127.351 214.281 127.403 214.307 127.455L215.191 128.365C215.217 128.365 215.243 128.391 215.269 128.391Z" fill="#454545"/>
<path d="M207.233 107.9C208.924 107.458 212.07 106.756 214.567 106.912C215.139 106.938 215.607 107.406 215.633 107.978C215.997 114.635 216.517 120.512 217.505 123.945C215.321 124.803 213.163 125.219 211.03 124.907C209.444 121.475 208.04 117.522 206.843 113.049C206.843 113.049 206.141 109.46 206.817 108.264C206.921 108.082 207.051 107.952 207.233 107.9Z" fill="#33C475"/>
<path d="M211.342 103.245C211.342 103.245 211.784 105.794 211.888 106.99C211.914 107.172 211.81 107.354 211.628 107.458C211.16 107.692 210.146 108.082 209.054 107.744C208.872 107.692 208.768 107.51 208.768 107.328L208.846 103.921L211.342 103.245Z" fill="#FDC39F"/>
<path d="M228.218 122.983L194.698 116.04L193.84 119.395L226.632 129.198C226.71 129.224 226.788 129.25 226.84 129.25L227.958 129.537C229.882 130.031 231.703 129.354 232.015 128.08L232.405 126.546C232.743 125.246 231.443 123.815 229.518 123.321L228.4 123.035C228.374 123.009 228.296 122.983 228.218 122.983ZM230.169 126.78C229.96 127.638 228.608 128.028 227.152 127.664C225.696 127.3 224.708 126.312 224.916 125.454C225.124 124.596 226.476 124.206 227.932 124.57C229.388 124.934 230.403 125.922 230.169 126.78Z" fill="#3B3B3B"/>
<path d="M183.778 111.463L190.279 113.101C190.747 113.205 191.111 113.543 191.319 113.985L192.281 116.222C192.567 116.872 192.359 117.6 191.813 118.042L189.889 119.55C189.525 119.836 189.031 119.94 188.563 119.836L182.061 118.198C181.073 117.938 180.241 118.978 180.709 119.862C181.827 122.021 183.856 123.711 186.43 124.361C191.085 125.531 195.22 122.723 196.364 118.224C197.508 113.725 195.22 109.278 190.539 108.108C187.965 107.458 185.364 107.978 183.362 109.356C182.556 109.928 182.816 111.229 183.778 111.463Z" fill="#3B3B3B"/>
<path d="M183.622 112.087L190.123 113.725C190.591 113.829 190.955 114.167 191.163 114.609L192.125 116.846C192.411 117.496 192.203 118.224 191.657 118.666L189.733 120.174C189.369 120.46 188.874 120.564 188.406 120.46L181.905 118.822C180.917 118.562 180.085 119.602 180.553 120.486C181.671 122.645 183.7 124.335 186.274 124.985C190.929 126.155 195.064 123.347 196.208 118.848C197.352 114.349 195.064 109.902 190.383 108.732C187.808 108.082 185.208 108.602 183.205 109.98C182.399 110.552 182.659 111.827 183.622 112.087Z" fill="#6C6C6C"/>
<path d="M228.089 123.451L194.569 116.508L193.711 119.862L226.503 129.666C226.581 129.692 226.659 129.718 226.711 129.718L227.829 130.004C229.754 130.498 231.574 129.822 231.886 128.548L232.276 127.014C232.614 125.714 231.314 124.283 229.389 123.789L228.271 123.503C228.245 123.503 228.167 123.477 228.089 123.451ZM230.066 127.274C229.858 128.132 228.505 128.522 227.049 128.158C225.593 127.794 224.605 126.806 224.813 125.948C225.021 125.089 226.373 124.699 227.829 125.063C229.285 125.427 230.274 126.416 230.066 127.274Z" fill="#6C6C6C"/>
<path d="M220.027 116.769C220.859 119.135 220.391 121.658 220.391 121.658L221.51 121.944C221.51 121.944 222.94 120.253 222.602 116.457C221.588 116.301 220.625 116.535 220.027 116.769Z" fill="#FDC39F"/>
<path d="M222.629 116.455C222.603 116.039 222.525 115.571 222.447 115.103C221.692 110.942 216.361 107.744 215.087 107.042C214.983 106.964 214.827 107.068 214.827 107.198L215.009 112.867C217.974 113.257 219.404 114.973 220.028 116.767C220.626 116.533 221.588 116.299 222.629 116.455Z" fill="#33C475"/>
<path d="M199.927 122.02C199.719 121.968 199.563 121.812 199.459 121.63C199.277 121.24 199.095 120.642 199.511 120.46C200.109 120.174 201.227 121.318 201.227 121.318L201.773 122.202L202.267 122.436C201.799 122.54 200.941 122.332 199.927 122.02Z" fill="#D8D8D8"/>
<path d="M220.47 121.084H219.092C219.092 121.084 220.21 121.76 220.236 122.462C220.262 123.164 219.794 124.621 219.56 125.011C219.326 125.453 222.654 124.361 221.484 121.084H220.47Z" fill="#FDC39F"/>
<path d="M208.222 99.787C208.17 99.839 206.636 104.338 206.636 104.338L209.236 105.17L211.317 101.113C211.317 101.113 208.976 98.8248 208.222 99.787Z" fill="#FDC39F"/>
<path d="M210.276 101.374C210.329 101.478 210.355 101.608 210.303 101.712L209.392 103.896C209.366 103.922 209.366 103.948 209.34 104C209.21 104.156 208.768 104.624 208.326 104.13C207.936 103.714 207.572 103.35 207.234 103.246C207.026 103.168 206.818 103.298 206.74 103.48C206.61 103.896 206.324 104.754 206.194 105.56C206.168 105.768 206.298 105.951 206.48 106.003C207 106.133 208.014 106.341 208.898 106.341C209.054 106.341 209.184 106.263 209.236 106.133C209.522 105.56 210.381 104 210.693 103.61C210.979 103.246 211.603 103.272 211.889 103.324C211.993 103.35 212.097 103.298 212.201 103.246C212.461 103.038 212.877 102.544 212.331 101.894C212.201 101.738 212.227 101.478 212.383 101.348C212.669 101.088 212.955 100.672 212.539 100.099C212.123 99.5273 211.525 99.5533 211.135 99.6574C210.953 99.7094 210.771 99.6313 210.693 99.4753C210.641 99.3973 210.589 99.3453 210.459 99.3453C210.25 99.3453 210.068 99.1633 210.094 98.9552C210.12 98.5912 209.99 98.1231 209.392 97.889C208.274 97.473 207.494 98.5391 207.364 99.3453C207.234 100.177 208.482 100.568 209.236 100.542C209.73 100.516 210.12 101.062 210.276 101.374Z" fill="#141414"/>
<path d="M210.303 104.39C210.303 104.39 210.563 102.96 211.187 102.934C211.785 102.908 212.331 103.428 211.707 104.208C210.875 105.17 210.303 104.39 210.303 104.39Z" fill="#FDC39F"/>
<path d="M149.997 28.5332C154.678 28.5332 158.475 24.7365 158.475 20.0557C158.475 15.3748 154.678 11.5781 149.997 11.5781C145.316 11.5781 141.52 15.3748 141.52 20.0557C141.52 24.7365 145.316 28.5332 149.997 28.5332Z" fill="white"/>
<path d="M143.391 20.9143C143.261 20.8883 143.131 20.8623 143.027 20.8103C142.923 20.7583 142.819 20.6803 142.741 20.6023L142.871 20.4203C142.871 20.3943 142.897 20.3943 142.923 20.3682C142.949 20.3682 142.949 20.3422 142.975 20.3422C143.001 20.3422 143.027 20.3422 143.053 20.3682C143.079 20.3943 143.105 20.3943 143.157 20.4203C143.183 20.4463 143.235 20.4723 143.287 20.4983C143.339 20.5243 143.391 20.5503 143.443 20.5503L143.495 19.7961C143.417 19.7701 143.339 19.7441 143.261 19.7181C143.183 19.6921 143.105 19.6401 143.053 19.5881C143.001 19.5361 142.949 19.4841 142.897 19.4061C142.871 19.3281 142.845 19.224 142.845 19.12C142.845 19.042 142.871 18.964 142.897 18.86C142.923 18.782 142.975 18.7039 143.053 18.6519C143.105 18.5999 143.209 18.5479 143.287 18.4959C143.391 18.4439 143.495 18.4439 143.625 18.4439L143.651 18.2359C143.651 18.2099 143.677 18.1838 143.677 18.1578C143.703 18.1318 143.729 18.1318 143.755 18.1318H143.911L143.885 18.4699C144.015 18.4959 144.093 18.5219 144.197 18.5739C144.276 18.6259 144.354 18.6779 144.432 18.73L144.328 18.886C144.302 18.912 144.302 18.938 144.275 18.938C144.249 18.938 144.249 18.964 144.223 18.964C144.197 18.964 144.197 18.964 144.171 18.938C144.145 18.938 144.119 18.912 144.093 18.912C144.067 18.886 144.041 18.886 143.989 18.86C143.963 18.834 143.911 18.834 143.859 18.834L143.807 19.5361C143.885 19.5621 143.963 19.5881 144.041 19.6141C144.119 19.6401 144.197 19.6921 144.25 19.7181C144.302 19.7701 144.354 19.8222 144.406 19.9002C144.458 19.9782 144.458 20.0562 144.458 20.1602C144.458 20.2642 144.432 20.3683 144.406 20.4463C144.38 20.5503 144.328 20.6283 144.25 20.6803C144.171 20.7583 144.093 20.8103 144.015 20.8623C143.911 20.9143 143.807 20.9404 143.677 20.9404L143.651 21.1744C143.651 21.2004 143.625 21.2264 143.625 21.2524C143.599 21.2784 143.573 21.2784 143.547 21.2784H143.391V20.9143ZM143.209 19.094C143.209 19.146 143.209 19.172 143.235 19.198C143.261 19.224 143.261 19.25 143.287 19.2761C143.313 19.3021 143.339 19.3281 143.391 19.3541C143.417 19.3801 143.469 19.3801 143.521 19.4061L143.573 18.782C143.521 18.782 143.469 18.808 143.417 18.834C143.365 18.86 143.339 18.886 143.313 18.912C143.287 18.938 143.261 18.964 143.261 18.99C143.209 19.016 143.209 19.068 143.209 19.094ZM144.015 20.1862C144.015 20.1342 144.015 20.1082 143.989 20.0822C143.963 20.0562 143.963 20.0302 143.937 20.0042C143.911 19.9782 143.885 19.9522 143.833 19.9522C143.807 19.9262 143.755 19.9262 143.703 19.9002L143.651 20.5763C143.781 20.5503 143.859 20.5243 143.911 20.4463C143.989 20.3683 144.015 20.2902 144.015 20.1862Z" fill="#106562"/>
<path d="M145.263 18.678C145.263 18.704 145.263 18.756 145.237 18.782C145.211 18.808 145.211 18.834 145.185 18.8601C145.159 18.8861 145.133 18.9121 145.107 18.9121C145.081 18.9381 145.029 18.9381 145.003 18.9381C144.977 18.9381 144.925 18.9381 144.899 18.9121C144.873 18.8861 144.847 18.8861 144.821 18.8601C144.795 18.834 144.769 18.808 144.769 18.782C144.743 18.756 144.743 18.73 144.743 18.678C144.743 18.652 144.743 18.6 144.769 18.574C144.795 18.548 144.795 18.522 144.821 18.496C144.847 18.47 144.873 18.444 144.899 18.444C144.925 18.418 144.977 18.418 145.003 18.418C145.029 18.418 145.081 18.418 145.107 18.444C145.133 18.47 145.159 18.47 145.185 18.496C145.211 18.522 145.237 18.548 145.237 18.574C145.263 18.6 145.263 18.626 145.263 18.678ZM145.211 19.1721V20.8884H144.795V19.1721H145.211Z" fill="#106562"/>
<path d="M145.681 19.667L147.007 18.9648V19.2509C147.007 19.2769 147.007 19.3029 146.981 19.3029C146.981 19.3289 146.955 19.3289 146.929 19.3549L146.331 19.667C146.305 19.693 146.279 19.693 146.253 19.693C146.227 19.693 146.201 19.719 146.149 19.719C146.175 19.719 146.201 19.745 146.253 19.745C146.279 19.745 146.305 19.771 146.331 19.771L146.929 20.083C146.955 20.1091 146.981 20.1091 146.981 20.1351C146.981 20.1611 147.007 20.1611 147.007 20.1871V20.4731L145.681 19.771V19.667Z" fill="#106562"/>
<path d="M147.631 19.3027H149.113V19.6148H147.631V19.3027ZM147.631 19.9008H149.113V20.2129H147.631V19.9008Z" fill="#106562"/>
<path d="M150.128 20.9143C149.998 20.8883 149.868 20.8623 149.764 20.8103C149.66 20.7583 149.556 20.6803 149.478 20.6023L149.608 20.4203C149.608 20.3943 149.634 20.3943 149.66 20.3682C149.686 20.3682 149.686 20.3422 149.712 20.3422C149.738 20.3422 149.764 20.3422 149.79 20.3682C149.816 20.3943 149.842 20.3943 149.894 20.4203C149.92 20.4463 149.972 20.4723 150.024 20.4983C150.076 20.5243 150.128 20.5503 150.18 20.5503L150.232 19.7961C150.154 19.7701 150.076 19.7441 149.998 19.7181C149.92 19.6921 149.842 19.6401 149.79 19.5881C149.738 19.5361 149.686 19.4841 149.634 19.4061C149.608 19.3281 149.582 19.224 149.582 19.12C149.582 19.042 149.608 18.964 149.634 18.86C149.66 18.782 149.712 18.7039 149.79 18.6519C149.842 18.5999 149.946 18.5479 150.024 18.4959C150.128 18.4439 150.232 18.4439 150.362 18.4439L150.388 18.2359C150.388 18.2099 150.414 18.1838 150.414 18.1578C150.44 18.1318 150.466 18.1318 150.492 18.1318H150.648L150.622 18.4699C150.752 18.4959 150.83 18.5219 150.934 18.5739C151.012 18.6259 151.09 18.6779 151.168 18.73L151.064 18.886C151.038 18.912 151.038 18.938 151.012 18.938C150.986 18.938 150.986 18.964 150.96 18.964C150.934 18.964 150.934 18.964 150.908 18.938C150.882 18.938 150.856 18.912 150.83 18.912C150.804 18.886 150.778 18.886 150.726 18.86C150.7 18.834 150.648 18.834 150.596 18.834L150.544 19.5361C150.622 19.5621 150.7 19.5881 150.778 19.6141C150.856 19.6401 150.934 19.6921 150.986 19.7181C151.038 19.7701 151.09 19.8222 151.142 19.9002C151.194 19.9782 151.194 20.0562 151.194 20.1602C151.194 20.2642 151.168 20.3683 151.142 20.4463C151.116 20.5503 151.064 20.6283 150.986 20.6803C150.908 20.7583 150.83 20.8103 150.752 20.8623C150.648 20.9143 150.544 20.9404 150.414 20.9404L150.388 21.1744C150.388 21.2004 150.362 21.2264 150.362 21.2524C150.336 21.2784 150.31 21.2784 150.284 21.2784H150.128V20.9143ZM149.946 19.094C149.946 19.146 149.946 19.172 149.972 19.198C149.998 19.224 149.998 19.25 150.024 19.2761C150.05 19.3021 150.076 19.3281 150.128 19.3541C150.154 19.3801 150.206 19.3801 150.258 19.4061L150.31 18.782C150.258 18.782 150.206 18.808 150.154 18.834C150.102 18.86 150.076 18.886 150.05 18.912C150.024 18.938 149.998 18.964 149.998 18.99C149.946 19.016 149.946 19.068 149.946 19.094ZM150.778 20.1862C150.778 20.1342 150.778 20.1082 150.752 20.0822C150.726 20.0562 150.726 20.0302 150.7 20.0042C150.674 19.9782 150.648 19.9522 150.596 19.9522C150.57 19.9262 150.518 19.9262 150.466 19.9002L150.414 20.5763C150.544 20.5503 150.622 20.5243 150.674 20.4463C150.726 20.3683 150.778 20.2902 150.778 20.1862Z" fill="#106562"/>
<path d="M151.506 20.8891V19.1727H151.766C151.818 19.1727 151.844 19.1987 151.87 19.2508L151.896 19.3808C151.922 19.3548 151.948 19.3288 152 19.2768C152.026 19.2508 152.078 19.2247 152.104 19.1987C152.13 19.1727 152.182 19.1727 152.234 19.1467C152.286 19.1467 152.312 19.1207 152.364 19.1207C152.468 19.1207 152.572 19.1467 152.624 19.1987C152.702 19.2508 152.754 19.3288 152.78 19.4328C152.806 19.3808 152.832 19.3288 152.884 19.2768C152.936 19.2248 152.962 19.1987 153.014 19.1727C153.066 19.1467 153.118 19.1207 153.17 19.1207C153.222 19.1207 153.274 19.0947 153.326 19.0947C153.43 19.0947 153.508 19.1207 153.586 19.1467C153.664 19.1727 153.716 19.2248 153.768 19.2768C153.82 19.3288 153.846 19.4068 153.872 19.4848C153.898 19.5628 153.924 19.6668 153.924 19.7709V20.863H153.508V19.7709C153.508 19.6668 153.482 19.5888 153.43 19.5108C153.378 19.4588 153.3 19.4328 153.222 19.4328C153.17 19.4328 153.144 19.4328 153.092 19.4588C153.066 19.4848 153.014 19.4848 152.988 19.5108C152.962 19.5368 152.936 19.5628 152.936 19.6148C152.91 19.6668 152.91 19.6928 152.91 19.7448V20.837H152.494V19.7448C152.494 19.6408 152.468 19.5368 152.416 19.4848C152.364 19.4328 152.312 19.4068 152.208 19.4068C152.156 19.4068 152.104 19.4328 152.052 19.4588C152 19.4848 151.948 19.5368 151.896 19.5888V20.837H151.506V20.8891Z" fill="#106562"/>
<path d="M154.835 18.678C154.835 18.704 154.835 18.756 154.809 18.782C154.783 18.808 154.783 18.834 154.757 18.8601C154.731 18.8861 154.705 18.9121 154.679 18.9121C154.653 18.9381 154.601 18.9381 154.575 18.9381C154.548 18.9381 154.496 18.9381 154.47 18.9121C154.444 18.8861 154.418 18.8861 154.392 18.8601C154.366 18.834 154.34 18.808 154.34 18.782C154.314 18.756 154.314 18.73 154.314 18.678C154.314 18.652 154.314 18.6 154.34 18.574C154.366 18.548 154.366 18.522 154.392 18.496C154.418 18.47 154.444 18.444 154.47 18.444C154.496 18.418 154.548 18.418 154.575 18.418C154.601 18.418 154.653 18.418 154.679 18.444C154.705 18.47 154.731 18.47 154.757 18.496C154.783 18.522 154.809 18.548 154.809 18.574C154.835 18.6 154.835 18.626 154.835 18.678ZM154.783 19.1721V20.8884H154.366V19.1721H154.783Z" fill="#106562"/>
<path d="M155.249 20.8884V19.1721H155.509C155.561 19.1721 155.587 19.1981 155.613 19.2501L155.639 19.3802C155.665 19.3542 155.717 19.3022 155.743 19.2761C155.769 19.2501 155.821 19.2241 155.873 19.1981C155.925 19.1721 155.951 19.1721 156.003 19.1461C156.055 19.1461 156.107 19.1201 156.159 19.1201C156.263 19.1201 156.341 19.1461 156.419 19.1721C156.497 19.1981 156.549 19.2501 156.601 19.3021C156.653 19.3542 156.679 19.4322 156.705 19.5102C156.731 19.5882 156.731 19.6662 156.731 19.7702V20.8624H156.315V19.7702C156.315 19.6662 156.289 19.5882 156.237 19.5362C156.185 19.4842 156.107 19.4582 156.029 19.4582C155.951 19.4582 155.899 19.4842 155.821 19.5102C155.769 19.5362 155.691 19.5882 155.639 19.6402V20.8884H155.249Z" fill="#106562"/>
<path d="M157.121 19.4583C157.121 19.4323 157.121 19.3803 157.147 19.3543C157.147 19.3283 157.173 19.3023 157.199 19.2763C157.225 19.2503 157.251 19.2242 157.277 19.2242C157.303 19.1982 157.329 19.1982 157.381 19.1982C157.407 19.1982 157.459 19.1982 157.485 19.2242C157.511 19.2503 157.537 19.2503 157.563 19.2763C157.589 19.3023 157.615 19.3283 157.615 19.3543C157.641 19.3803 157.641 19.4063 157.641 19.4583C157.641 19.4843 157.641 19.5363 157.615 19.5623C157.589 19.5883 157.589 19.6143 157.563 19.6403C157.537 19.6663 157.511 19.6923 157.485 19.6923C157.459 19.6923 157.433 19.7183 157.381 19.7183C157.355 19.7183 157.303 19.7183 157.277 19.6923C157.251 19.6923 157.225 19.6663 157.199 19.6403C157.173 19.6143 157.147 19.5883 157.147 19.5623C157.121 19.5363 157.121 19.5103 157.121 19.4583ZM157.121 20.6285C157.121 20.6025 157.121 20.5765 157.147 20.5505C157.147 20.5245 157.173 20.4985 157.199 20.4725C157.225 20.4465 157.251 20.4465 157.277 20.4205C157.303 20.4205 157.329 20.3945 157.381 20.3945C157.433 20.3945 157.459 20.3945 157.485 20.4205C157.511 20.4465 157.537 20.4465 157.563 20.4725C157.589 20.4985 157.589 20.5245 157.615 20.5505C157.615 20.5765 157.641 20.6285 157.641 20.6545C157.641 20.7065 157.641 20.7585 157.615 20.8365C157.589 20.8886 157.563 20.9666 157.537 21.0186C157.511 21.0706 157.459 21.1226 157.433 21.2006C157.381 21.2526 157.329 21.3046 157.277 21.3566L157.199 21.2786C157.173 21.2526 157.173 21.2526 157.173 21.2266V21.2006L157.199 21.1746C157.199 21.1486 157.225 21.1486 157.251 21.1226C157.277 21.0966 157.277 21.0706 157.303 21.0446C157.329 21.0186 157.329 20.9926 157.355 20.9666C157.381 20.9406 157.381 20.9146 157.381 20.8625C157.355 20.8625 157.303 20.8626 157.277 20.8365C157.251 20.8365 157.225 20.8105 157.199 20.7845C157.173 20.7585 157.173 20.7325 157.147 20.7065C157.121 20.7065 157.121 20.6805 157.121 20.6285Z" fill="#106562"/>
<path d="M141.052 33.1357C141.728 28.897 138.868 24.8922 134.629 24.2161C130.39 23.54 126.385 26.4005 125.709 30.6393C125.033 34.8781 127.894 38.8828 132.132 39.5589C136.371 40.261 140.35 37.3745 141.052 33.1357Z" fill="white"/>
<path d="M129.297 31.9134L131.533 30.7432V31.2373C131.533 31.2633 131.533 31.3153 131.507 31.3413C131.481 31.3673 131.455 31.3933 131.403 31.4193L130.363 31.9394C130.311 31.9654 130.285 31.9914 130.233 31.9914C130.181 32.0174 130.129 32.0174 130.077 32.0434C130.129 32.0694 130.181 32.0694 130.233 32.0954C130.285 32.1214 130.337 32.1214 130.363 32.1474L131.403 32.6675C131.455 32.6935 131.481 32.7195 131.507 32.7455C131.533 32.7715 131.533 32.8235 131.533 32.8496V33.3436L129.297 32.1734V31.9134Z" fill="#106562"/>
<path d="M132.807 33.9686C132.781 34.0206 132.781 34.0466 132.729 34.0727C132.703 34.0987 132.677 34.1247 132.651 34.1507C132.625 34.1767 132.573 34.1767 132.547 34.2027C132.521 34.2027 132.469 34.2287 132.443 34.2287H132.157L133.822 29.9899C133.848 29.9119 133.9 29.8599 133.952 29.8079C134.004 29.7559 134.082 29.7559 134.16 29.7559H134.446L132.807 33.9686Z" fill="#106562"/>
<path d="M135.019 33.371V32.8769C135.019 32.8509 135.019 32.7989 135.045 32.7729C135.071 32.7469 135.097 32.7209 135.149 32.6949L136.189 32.1748C136.267 32.1228 136.371 32.0968 136.475 32.0707C136.423 32.0447 136.371 32.0447 136.319 32.0187C136.267 31.9927 136.215 31.9927 136.189 31.9667L135.149 31.4466C135.097 31.4206 135.071 31.3946 135.045 31.3686C135.019 31.3426 135.019 31.2906 135.019 31.2646V30.7705L137.255 31.9407V32.2268L135.019 33.371Z" fill="#106562"/>
<path d="M170.176 4.06241C170.15 4.11442 168.616 5.23262 168.616 5.23262C168.616 5.23262 168.954 7.67706 170.333 8.63924C171.841 9.70544 173.999 7.78109 173.999 7.78109C173.999 7.78109 175.716 8.19716 176.626 4.63451C176.834 3.82836 175.638 3.75035 174.181 3.90638C172.283 4.08841 170.176 4.06241 170.176 4.06241Z" fill="#0A0A0A"/>
<path d="M167.289 12.3576C167.888 11.9415 168.564 11.6295 169.266 11.4475C169.526 11.3694 170.956 11.7855 171.84 11.7595C173.062 11.7335 174.285 11.1874 175.299 11.4214C176.287 11.6815 177.119 11.9936 177.587 12.3316C178.992 13.3458 179.824 15.1921 180.318 17.0385C179.356 18.0267 178.159 18.4427 178.159 18.4427L177.925 27.4404L172.62 30.1709L166.561 27.1283L166.769 18.3387C166.769 18.3387 164.845 17.4546 164.689 17.1165C164.585 16.8044 165.599 13.5278 167.289 12.3576Z" fill="#33C475"/>
<path d="M164.819 17.0908C164.819 17.0908 162.245 24.2421 168.122 27.1807C169.344 27.0246 168.876 24.9963 168.876 24.9963C168.876 24.9963 166.328 24.4242 167.082 18.4691C166.38 17.871 164.819 17.0908 164.819 17.0908Z" fill="#FDC39F"/>
<path d="M180.215 17.0908C180.215 17.0908 181.983 24.5542 176.913 27.1807C175.69 27.0246 176.158 24.9963 176.158 24.9963C176.158 24.9963 178.213 23.9821 177.953 18.4691C178.655 17.871 180.215 17.0908 180.215 17.0908Z" fill="#FDC39F"/>
<path d="M177.119 27.7017H167.524C166.951 27.7017 166.483 27.2336 166.483 26.6615V20.8625C166.483 20.2904 166.951 19.8223 167.524 19.8223H177.119C177.691 19.8223 178.16 20.2904 178.16 20.8625V26.6615C178.16 27.2336 177.691 27.7017 177.119 27.7017Z" fill="#86EAB2"/>
<path d="M183.256 30.0148C181.93 29.7028 178.835 29.8848 178.835 29.8848L178.705 30.2229L178.497 31.9132C178.497 31.9132 181.436 32.4333 182.892 32.4333C183.048 32.4333 183.178 32.4073 183.308 32.3813C183.36 32.3293 183.386 32.3033 183.438 32.2512C184.036 31.5751 183.88 30.5869 183.256 30.0148Z" fill="#3B3B3B"/>
<path d="M177.953 29.7812L178.473 29.8073C178.759 29.8073 179.019 29.9633 179.201 30.1973C179.383 30.4314 179.487 30.7434 179.461 31.0555C179.435 31.3155 179.357 31.5236 179.175 31.7056C179.019 31.8616 178.785 31.9656 178.577 31.9396L177.771 31.8876L177.953 29.7812Z" fill="#FDC39F"/>
<path d="M160.399 29.8597C161.751 29.5997 164.82 29.8597 164.82 29.8597L164.924 30.1978L165.08 31.8881C165.08 31.8881 162.141 32.3302 160.685 32.2782C160.529 32.2782 160.399 32.2522 160.269 32.2001C160.217 32.1481 160.191 32.1221 160.139 32.0701C159.593 31.394 159.801 30.4058 160.399 29.8597Z" fill="#3B3B3B"/>
<path d="M165.729 29.7812H165.209C164.923 29.7812 164.663 29.9113 164.455 30.1453C164.273 30.3794 164.169 30.6654 164.169 30.9775C164.169 31.2375 164.273 31.4716 164.429 31.6276C164.585 31.8096 164.819 31.8876 165.027 31.8876L165.833 31.8616L165.729 29.7812Z" fill="#FDC39F"/>
<path d="M183.647 24.7369C183.049 23.3326 181.567 23.1246 180.292 23.7747C180.266 23.8007 172.283 27.8834 165.262 29.6778C165.47 30.3279 165.574 31.004 165.6 31.6801C165.6 31.8362 165.6 31.9662 165.6 32.1222C170.983 31.8362 176.834 30.0418 181.879 28.4555C183.413 27.9614 184.323 26.2711 183.647 24.7369Z" fill="#003432"/>
<path d="M178.005 31.7842C177.979 31.0041 178.135 30.2759 178.447 29.5998C178.447 29.5738 178.473 29.5478 178.473 29.5218C178.083 29.3918 177.563 29.2357 176.861 29.0017C171.868 27.2854 168.045 25.5691 164.43 23.5927C163.026 22.8126 161.414 23.3327 160.972 24.997C160.556 26.4792 161.466 27.7535 162.792 28.2216C166.823 29.5738 164.717 29.1837 166.043 29.5998C169.579 30.692 173.974 31.6802 178.005 31.9662C178.005 31.8882 178.005 31.8362 178.005 31.7842Z" fill="#003432"/>
<path d="M169.267 11.4486C169.267 11.4486 169.813 13.789 172.413 13.737C175.066 13.685 175.3 11.4486 175.3 11.4486L173.557 11.0845L173.401 9.16016L170.801 9.34219L170.749 11.1885L169.267 11.4486Z" fill="#FDC39F"/>
<path d="M171.191 3.64648C171.191 3.64648 168.2 9.44554 171.737 10.8498C174.233 11.838 175.82 7.0011 175.352 5.70086C174.623 3.67249 174.155 3.90653 174.155 3.90653L171.191 3.64648Z" fill="#FDC39F"/>
<path d="M176.053 3.12673C177.535 3.54281 176.261 6.7414 174.051 5.98726C171.814 5.23312 170.956 5.23312 170.618 5.85724C170.28 6.45535 170.202 8.63975 169.448 7.57355C168.616 6.40334 168.173 4.0369 169.162 3.28276C170.072 2.60664 170.28 1.54045 171.372 1.59245C172.802 1.64446 173.921 0.994345 174.571 1.46243C175.299 1.95652 174.987 2.84068 176.053 3.12673Z" fill="#0A0A0A"/>
<path d="M170.462 6.3523C170.462 6.3523 169.812 5.67618 169.734 6.48232C169.63 7.31448 169.968 8.38067 170.332 7.78256C170.722 7.21046 170.462 6.3523 170.462 6.3523Z" fill="#FDC39F"/>
<path d="M173.011 21.953C173.063 22.3691 172.855 22.7592 172.439 22.8112C172.023 22.8632 171.633 22.5771 171.581 22.1611C171.529 21.745 171.711 21.3289 172.127 21.2769C172.543 21.1989 172.959 21.5369 173.011 21.953Z" fill="#2EC974"/>
<path d="M12.3014 90.321L66.4693 90.0869C66.9894 90.0869 67.4055 90.503 67.4055 91.0231L67.3015 109.981C67.3015 110.501 66.8594 110.917 66.3393 110.891C61.5544 110.761 12.6135 110.111 11.6773 110.163C10.7411 110.189 11.2612 95.2359 11.3912 91.2051C11.3912 90.711 11.8073 90.321 12.3014 90.321Z" fill="#94E7B9"/>
<path d="M66.3655 110.162C63.2969 110.058 34.0415 109.694 19.999 109.538C15.8902 109.486 12.9777 109.46 12.1975 109.434H12.1195V109.356C11.7815 107.484 11.7815 101.216 12.1455 91.2305C12.1455 91.1265 12.2235 91.0485 12.3276 91.0485L66.4955 90.8145C66.5475 90.8145 66.5995 90.8405 66.6255 90.8665C66.6515 90.8925 66.6775 90.9445 66.6775 90.9965L66.5735 109.954C66.5475 110.084 66.4695 110.162 66.3655 110.162ZM12.2496 109.252C13.1337 109.252 15.9942 109.304 19.973 109.356C34.0415 109.538 63.2969 109.902 66.3395 109.98C66.3395 109.98 66.3655 109.98 66.3655 109.954L66.4695 90.9965L66.4435 90.8925V90.9705L12.2756 91.2045C12.2756 91.2045 12.2496 91.2045 12.2496 91.2305C11.9635 101.086 11.9375 107.301 12.2496 109.252Z" fill="#4BCF86"/>
<path d="M14.6172 95.2096C14.6172 95.7297 14.7992 96.1458 15.0073 96.1458H35.7591C35.9671 96.1458 36.1491 95.7297 36.1491 95.2096C36.1491 94.6895 35.9671 94.2734 35.7591 94.2734H15.0073C14.7992 94.2734 14.6172 94.6895 14.6172 95.2096Z" fill="#3F9390"/>
<path d="M14.6172 98.3825C14.6172 98.9026 14.7992 99.3186 15.0073 99.3186H35.7591C35.9671 99.3186 36.1491 98.9026 36.1491 98.3825C36.1491 97.8624 35.9671 97.4463 35.7591 97.4463H15.0073C14.7992 97.4463 14.6172 97.8624 14.6172 98.3825Z" fill="#3F9390"/>
<path d="M14.6172 101.555C14.6172 102.075 14.7992 102.491 15.0073 102.491H35.7591C35.9671 102.491 36.1491 102.075 36.1491 101.555C36.1491 101.035 35.9671 100.619 35.7591 100.619H15.0073C14.7992 100.619 14.6172 101.035 14.6172 101.555Z" fill="#3F9390"/>
<path d="M14.6172 104.702C14.6172 105.222 14.7992 105.638 15.0073 105.638H35.7591C35.9671 105.638 36.1491 105.222 36.1491 104.702C36.1491 104.182 35.9671 103.766 35.7591 103.766H15.0073C14.7992 103.792 14.6172 104.208 14.6172 104.702Z" fill="#3F9390"/>
<path d="M44.886 96.6918C45.354 94.7415 44.1318 92.7911 42.2075 92.349C40.2571 91.881 38.3067 93.1032 37.8647 95.0275C37.3966 96.9779 38.6188 98.9282 40.5432 99.3703C42.4935 99.8384 44.4179 98.6162 44.886 96.6918Z" fill="#3F9390"/>
<path d="M51.7249 99.188C53.5713 98.4338 54.4554 96.3015 53.6753 94.4551C52.9212 92.6088 50.7888 91.7246 48.9424 92.5048C47.0961 93.2589 46.2119 95.3913 46.9921 97.2376C47.7722 99.084 49.8786 99.9681 51.7249 99.188Z" fill="#3F9390"/>
<path d="M62.8807 96.5611C63.1928 94.5847 61.8666 92.7384 59.8902 92.4263C57.9138 92.1143 56.0675 93.4405 55.7554 95.4169C55.4434 97.3932 56.7696 99.2396 58.746 99.5516C60.7223 99.8897 62.5687 98.5375 62.8807 96.5611Z" fill="#3F9390"/>
<path d="M43.5342 95.1055C43.6382 95.3656 43.7162 95.6776 43.7162 95.9897C43.7162 97.2639 42.676 98.3041 41.4018 98.3041C40.1276 98.3041 39.0874 97.2639 39.0874 95.9897C39.0874 94.7155 40.1276 93.6753 41.4018 93.6753C41.4538 93.6753 41.4798 93.6753 41.5058 93.6753V93.0771C41.4798 93.0771 41.4278 93.0771 41.4018 93.0771C39.7895 93.0771 38.4893 94.3774 38.4893 95.9897C38.4893 97.602 39.7895 98.9022 41.4018 98.9022C43.0141 98.9022 44.3143 97.602 44.3143 95.9897C44.3143 95.5996 44.2363 95.2095 44.0803 94.8715L43.5342 95.1055Z" fill="#BBBBBB"/>
<path d="M51.5436 97.94C51.1795 98.1741 50.7634 98.3041 50.2953 98.3041C49.0211 98.3041 47.9809 97.2639 47.9809 95.9897C47.9809 94.7155 49.0211 93.6753 50.2953 93.6753C50.3474 93.6753 50.3734 93.6753 50.3994 93.6753V93.0771C50.3734 93.0771 50.3214 93.0771 50.2953 93.0771C48.6831 93.0771 47.3828 94.3774 47.3828 95.9897C47.3828 97.602 48.6831 98.9022 50.2953 98.9022C50.8675 98.9022 51.3875 98.7462 51.8296 98.4601L51.5436 97.94Z" fill="#BBBBBB"/>
<path d="M61.2685 97.2899C60.8524 97.914 60.1503 98.3041 59.3442 98.3041C58.0699 98.3041 57.0297 97.2639 57.0297 95.9897C57.0297 94.7155 58.0699 93.6753 59.3442 93.6753C59.3962 93.6753 59.4222 93.6753 59.4482 93.6753V93.0771C59.4222 93.0771 59.3702 93.0771 59.3442 93.0771C57.7319 93.0771 56.4316 94.3774 56.4316 95.9897C56.4316 97.602 57.7319 98.9022 59.3442 98.9022C60.3324 98.9022 61.2165 98.4081 61.7366 97.654L61.2685 97.2899Z" fill="#BBBBBB"/>
<g opacity="0.64">
<path d="M44.3374 101.01H38.4603C38.0962 101.01 37.7842 101.322 37.7842 101.686C37.7842 102.05 38.0962 102.362 38.4603 102.362H44.3374C44.7014 102.362 45.0135 102.05 45.0135 101.686C44.9875 101.296 44.7014 101.01 44.3374 101.01Z" fill="#3F9390"/>
<path d="M53.3091 101.01H47.432C47.0679 101.01 46.7559 101.322 46.7559 101.686C46.7559 102.05 47.0679 102.362 47.432 102.362H53.3091C53.6731 102.362 53.9852 102.05 53.9852 101.686C53.9592 101.296 53.6731 101.01 53.3091 101.01Z" fill="#3F9390"/>
<path d="M56.3783 102.337H62.2554C62.6194 102.337 62.9315 102.025 62.9315 101.66C62.9315 101.296 62.6194 100.984 62.2554 100.984H56.3783C56.0142 100.984 55.7021 101.296 55.7021 101.66C55.7282 102.051 56.0142 102.337 56.3783 102.337Z" fill="#3F9390"/>
<path d="M44.3374 103.092H38.4603C38.0962 103.092 37.7842 103.404 37.7842 103.768V107.695C37.7842 108.059 38.0962 108.371 38.4603 108.371H44.3374C44.7014 108.371 45.0135 108.059 45.0135 107.695V103.768C44.9875 103.378 44.7014 103.092 44.3374 103.092Z" fill="#3F9390"/>
<path d="M53.3091 103.092H47.432C47.0679 103.092 46.7559 103.404 46.7559 103.768V107.695C46.7559 108.059 47.0679 108.371 47.432 108.371H53.3091C53.6731 108.371 53.9852 108.059 53.9852 107.695V103.768C53.9592 103.378 53.6731 103.092 53.3091 103.092Z" fill="#3F9390"/>
<path d="M62.2817 103.092H56.4046C56.0406 103.092 55.7285 103.404 55.7285 103.768V107.695C55.7285 108.059 56.0406 108.371 56.4046 108.371H62.2817C62.6458 108.371 62.9578 108.059 62.9578 107.695V103.768C62.9318 103.378 62.6458 103.092 62.2817 103.092Z" fill="#3F9390"/>
</g>
<path d="M30.6342 106.782C30.2441 106.158 29.594 105.742 29.1779 105.118C28.6839 104.338 28.6579 103.298 28.9959 102.44C29.282 101.711 29.7501 101.087 30.0361 100.385C30.4262 99.4231 30.4262 99.007 30.2441 98.0448C30.0881 97.1867 29.7501 96.2765 28.9439 95.7824C27.9297 95.1843 26.6815 95.0543 25.5373 95.2883C24.3411 95.5224 23.1708 96.0164 22.2867 96.8746C21.4025 97.7328 20.8304 98.929 20.8564 100.151C20.8564 100.983 21.1425 101.842 20.8564 102.622C20.6484 103.22 20.1023 103.714 19.4782 103.87C18.776 104.026 18.0479 103.792 17.3458 103.792C16.6437 103.792 15.9415 104.052 15.3954 104.52C14.9273 104.936 14.5633 105.508 14.4853 106.132C14.4072 106.756 14.6153 107.433 15.1094 107.823C15.4474 108.109 15.8895 108.291 16.0195 108.707C16.1496 109.175 15.7595 109.643 15.3174 109.825C14.8753 110.007 14.3812 110.033 13.9132 110.189C12.899 110.553 12.3009 111.697 12.3789 112.764C12.4569 113.83 13.133 114.818 14.0172 115.416C14.9013 116.014 15.9935 116.3 17.0597 116.378C18.1259 116.456 19.2181 116.378 20.2843 116.326C21.5065 116.274 22.7808 116.248 23.925 115.858C25.0952 115.468 26.1354 114.688 27.0716 113.882C27.5136 113.492 27.9817 113.076 28.1898 112.529C28.3458 112.139 28.3458 111.671 28.5018 111.281C28.8659 110.449 29.8541 110.085 30.4522 109.357C31.0243 108.655 31.1023 107.563 30.6342 106.782Z" fill="#1E1E1E"/>
<path d="M17.2683 108.29C16.7482 108.186 16.3061 107.822 16.1241 107.328C15.942 106.834 16.02 106.262 16.3321 105.846C16.8002 105.248 17.6323 105.092 18.4385 104.962L19.8947 104.754C20.7269 104.65 21.5591 104.494 22.0271 103.87C22.5212 103.219 22.4432 102.335 22.3392 101.477C22.3392 101.373 22.3132 101.269 22.3132 101.191C22.1832 99.9689 22.3132 98.9027 22.7033 98.0185C23.1713 96.9523 24.0295 96.1722 25.0177 95.9121C25.0437 95.9121 25.0697 95.9121 25.0697 95.9381C25.0697 95.9641 25.0697 95.9901 25.0437 95.9901C24.0815 96.2242 23.2234 97.0043 22.7813 98.0445C22.4172 98.9026 22.2872 99.9688 22.4172 101.165C22.4172 101.269 22.4432 101.347 22.4432 101.451C22.5472 102.335 22.6513 103.219 22.1312 103.896C21.6371 104.52 20.7789 104.702 19.9468 104.806L18.4905 105.014C17.7103 105.118 16.9042 105.274 16.4361 105.872C16.1241 106.262 16.046 106.808 16.2281 107.276C16.4101 107.744 16.8262 108.082 17.3203 108.186C17.3463 108.186 17.3463 108.212 17.3463 108.238C17.3203 108.264 17.2943 108.29 17.2683 108.29Z" fill="#3B3B3B"/>
<path d="M17.7364 107.849C17.7104 107.849 17.7104 107.849 17.6844 107.823C17.5023 107.667 17.2943 107.459 17.1903 107.225C17.0863 107.017 17.0342 106.679 17.1903 106.419C17.2943 106.263 17.5023 106.159 17.6844 106.081C18.1264 105.899 18.5945 105.743 19.0886 105.665C19.4007 105.613 19.7127 105.587 20.0248 105.561C20.4149 105.535 20.8309 105.483 21.221 105.405C21.6891 105.301 22.5473 105.015 22.9113 104.287C23.1974 103.689 23.0934 103.012 22.9893 102.31C22.8853 101.738 22.8073 101.14 22.9373 100.594C22.9373 100.542 22.9893 100.542 23.0153 100.542C23.0673 100.542 23.0673 100.594 23.0673 100.62C22.9373 101.14 23.0413 101.738 23.1194 102.284C23.2234 102.986 23.3534 103.715 23.0413 104.339C22.6513 105.145 21.7671 105.431 21.247 105.535C20.8309 105.613 20.4149 105.665 20.0248 105.691C19.7127 105.717 19.4007 105.743 19.0886 105.795C18.6205 105.873 18.1524 106.003 17.7364 106.185C17.5803 106.237 17.4243 106.341 17.3203 106.471C17.2163 106.627 17.2163 106.887 17.3203 107.121C17.4243 107.329 17.6063 107.511 17.7884 107.667C17.8144 107.693 17.8144 107.745 17.7884 107.771C17.7884 107.823 17.7624 107.849 17.7364 107.849Z" fill="#3B3B3B"/>
<path d="M29.5682 105.326C28.866 105.118 26.8377 104.676 24.8873 106.444C24.5492 106.73 24.4192 107.198 24.5232 107.64C25.0173 109.564 26.2916 115.233 25.0433 117.652C25.0433 117.652 27.1237 120.018 29.4642 118.172C29.4642 118.172 30.5824 113.673 31.9606 111.723C32.9228 110.371 30.5564 106.548 29.9582 105.638C29.8542 105.482 29.7242 105.378 29.5682 105.326Z" fill="#33C475"/>
<path d="M27.6956 101.503C27.6956 101.503 26.6034 104.415 26.5254 105.69C26.5254 105.69 27.6696 106.236 28.7358 105.378C28.7358 105.378 28.8918 102.465 29.0739 101.945L27.6956 101.503Z" fill="#FDC39F"/>
<path d="M29.1791 97.5507C29.1791 97.5507 31.8316 101.373 30.1933 102.44C28.555 103.506 26.6826 100.801 26.6826 100.801C26.6826 100.801 26.0845 98.7209 26.7606 98.0188C27.4368 97.3427 29.1791 97.5507 29.1791 97.5507Z" fill="#FDC39F"/>
<path d="M27.9568 96.6129C27.9568 96.6129 29.205 96.925 29.3611 97.4971C29.5171 98.0692 27.5927 98.5633 27.0466 98.5633L26.5785 100.826C26.5785 100.826 25.3303 98.6673 25.8504 97.4451C26.3705 96.2229 27.9568 96.6129 27.9568 96.6129Z" fill="#1E1E1E"/>
<path d="M27.2027 100.515C27.2027 100.515 26.1625 99.2926 25.7464 100.073C25.3043 100.853 26.6826 101.477 27.1507 101.087L27.2027 100.515Z" fill="#FDC39F"/>
<path d="M32.0136 127.716C32.0136 127.924 32.3256 129.562 32.5077 130.42C32.5857 130.758 32.5077 131.122 32.3256 131.434L25.3564 142.747C25.2783 142.877 25.2003 143.033 25.1743 143.189C25.0443 143.735 24.7582 145.035 24.8883 146.231L25.2263 146.959L23.7181 146.595L23.458 142.513L23.9001 142.252C24.2642 142.044 24.5762 141.706 24.7322 141.29C25.3824 139.808 26.9426 136.037 27.3847 134.191C27.8528 132.085 30.2192 130.42 30.2192 130.42L29.8292 129.432L32.0136 127.716Z" fill="#FDC39F"/>
<path d="M22.0537 145.165C22.0537 145.165 22.8859 143.891 22.9899 143.371C23.0939 142.877 23.38 141.967 23.874 142.253C23.874 142.253 24.0821 144.723 23.9781 145.685C23.874 146.648 25.0443 146.622 25.0443 146.622C25.0443 146.622 25.3563 146.674 25.5904 146.908C25.7464 147.064 25.6424 147.35 25.4083 147.376C25.0183 147.402 24.4201 147.402 23.796 147.246C23.562 147.194 23.406 147.012 23.406 146.778L23.2759 143.943L22.2097 145.243L22.0537 145.165Z" fill="#1E1E1E"/>
<path d="M27.9305 129.458C27.9305 129.458 27.5144 139.678 27.4624 141.108C27.4104 142.564 27.6184 145.789 29.0487 146.751L28.3985 147.219C28.3985 147.219 27.6184 146.543 26.8643 145.217C26.0321 143.76 25.7721 143.474 25.7721 143.474L26.0581 142.876C26.1881 142.616 26.2401 142.33 26.1881 142.044C25.9021 140.51 24.9399 135.439 24.6538 134.347C24.3418 133.047 24.3418 131.33 25.538 129.926C26.7602 128.548 27.9305 129.458 27.9305 129.458Z" fill="#FDC39F"/>
<path d="M26.2931 147.66C26.2411 147.66 26.2151 147.634 26.2151 147.582C26.1631 147.244 25.981 145.866 25.825 145.528C25.643 145.112 25.0449 143.396 25.851 143.266C25.851 143.266 27.8014 146.23 28.1914 146.62C28.5815 147.01 29.0496 146.776 29.0496 146.776C29.0496 146.776 29.4137 146.88 29.6997 147.27C29.8297 147.452 29.6997 147.686 29.4917 147.686H28.1394C27.7493 147.686 27.4113 147.452 27.2553 147.062C27.0212 146.464 26.6311 145.58 26.1631 145.19L26.3711 147.556C26.3711 147.608 26.3451 147.66 26.2931 147.66Z" fill="#1E1E1E"/>
<path d="M29.8035 117.082C29.8035 117.082 29.4914 118.044 29.9335 119.656L32.664 129.824C32.716 129.98 32.612 130.136 32.456 130.214C31.5718 130.5 28.7113 131.332 24.8366 131.02C24.6285 130.994 24.4725 130.864 24.4465 130.682C24.2125 129.512 23.4063 125.559 23.2243 124.753C22.6002 121.658 21.872 118.33 25.2786 116.354C26.8129 117.03 28.2432 117.446 29.8035 117.082Z" fill="#003432"/>
<path d="M24.6027 106.834C24.6027 106.834 21.2481 109.512 20.3899 113.257C19.5058 117.002 25.1488 117.47 25.1488 117.47C25.1488 117.47 25.9289 116.638 26.8391 116.95C27.7493 117.262 26.9431 115.467 25.8769 115.441C24.8107 115.441 25.3048 116.274 23.7965 115.571C22.3403 114.895 21.4821 112.815 25.2528 109.772C25.4608 109.59 25.6429 109.356 25.7469 109.096C26.475 107.276 25.9289 106.08 24.6027 106.834Z" fill="#FDC39F"/>
<path d="M76.3514 145.503C77.3656 145.581 79.1079 145.737 80.4862 145.789C81.3183 145.815 81.7864 145.737 82.0725 145.633C82.0725 145.659 82.0725 145.685 82.0725 145.711C82.0725 145.867 81.9424 145.971 81.8124 145.971C79.2119 146.127 77.1576 146.023 76.4034 145.971C76.2474 145.971 76.1694 145.789 76.2474 145.659C76.2734 145.633 76.2994 145.581 76.3514 145.503Z" fill="#F2F2F2"/>
<path d="M80.4863 145.789C79.1081 145.737 77.3657 145.581 76.3516 145.503C77.3397 144.307 80.4863 143.475 80.4863 143.475H81.3705C81.9686 144.359 82.0726 145.191 82.0726 145.633C81.7866 145.737 81.3185 145.841 80.4863 145.789Z" fill="#4D4D4D"/>
<path d="M81.527 142.044L81.449 143.682C81.449 143.864 81.3189 144.02 81.1369 144.046C80.9549 144.072 80.7208 144.072 80.4608 143.994C80.3048 143.942 80.2007 143.812 80.1747 143.656L79.8887 142.07L81.527 142.044Z" fill="#FDC39F"/>
<path d="M91.7983 147.402C92.2404 147.324 92.4224 147.038 92.5265 146.726C92.5785 147.064 92.4484 147.402 92.1364 147.558C91.7723 147.766 91.3822 147.792 91.0702 147.766C90.7321 147.74 90.4461 147.584 90.29 147.298C90.6281 147.506 91.0702 147.532 91.7983 147.402Z" fill="#F2F2F2"/>
<path d="M89.7433 142.538H90.4715C91.5897 142.512 92.2918 145.529 92.4999 146.699C92.4218 147.011 92.2138 147.297 91.7717 147.375C91.0436 147.505 90.5755 147.479 90.2634 147.271C89.6653 146.257 89.3533 144.749 89.2232 143.891C89.0932 142.928 89.7433 142.538 89.7433 142.538Z" fill="#4D4D4D"/>
<path d="M90.3937 141.032L90.8097 142.645C90.8617 142.853 90.7577 143.035 90.5757 143.139C90.3416 143.243 90.0296 143.373 89.7435 143.347C89.6135 143.321 89.4835 143.243 89.4575 143.113L88.8594 141.422L90.3937 141.032Z" fill="#FDC39F"/>
<path d="M76.1172 119.863C76.1172 119.863 79.7319 142.435 79.6798 142.565C79.6798 142.565 80.694 143.007 81.7602 142.617C81.7602 142.617 81.4222 130.551 80.668 125.922C80.668 125.922 86.8572 136.714 88.8335 142.097C88.8335 142.097 89.8477 141.967 90.7059 141.421C90.7059 141.421 84.0486 121.995 82.2543 119.421L76.1172 119.863Z" fill="#003432"/>
<path d="M80.5388 125.792C80.5648 125.792 80.5908 125.792 80.5908 125.766C80.6428 125.74 80.6688 125.662 80.6168 125.61L79.2646 123.451C79.2386 123.425 79.2126 123.399 79.1866 123.399L78.1984 123.191C78.1464 123.191 78.0944 123.217 78.0684 123.269C78.0684 123.321 78.0944 123.373 78.1464 123.399L79.1086 123.581L80.4348 125.688C80.4608 125.792 80.4868 125.792 80.5388 125.792Z" fill="#004C4A"/>
<path d="M59.4747 97.7324C59.4747 97.7324 61.9192 98.2785 63.4014 98.9546C63.6875 99.0847 63.9215 99.3187 64.0775 99.6308C64.5196 100.593 65.8459 103.037 68.4463 104.208C68.0823 104.702 67.4842 105.716 67.2241 107.432C65.6638 106.288 64.3376 104.364 63.6875 101.217C63.6875 101.217 63.1934 101.477 62.5953 101.191C62.2832 101.035 61.8932 100.801 61.6331 100.645C61.3471 100.463 61.139 100.203 61.061 99.8908C60.957 99.4747 61.009 99.1107 61.009 98.7206L59.7608 98.3305C59.7348 98.3045 59.3447 98.1745 59.4747 97.7324Z" fill="#FDC39F"/>
<path d="M67.1982 107.432C67.4583 105.715 68.0564 104.701 68.4205 104.207C70.0328 104.935 72.1131 105.169 74.7656 104.233C74.9997 104.155 75.2597 104.103 75.5198 104.077C76.924 103.999 81.6049 103.843 85.4536 105.117C86.2597 105.377 86.9099 105.976 87.2739 106.756C88.3141 109.148 90.0044 114.583 85.3236 117.314C84.9595 116.429 84.5434 115.701 84.1794 115.181C84.9335 113.907 85.1675 112.191 83.8153 109.928C82.8271 112.555 82.385 116.403 82.281 118.094C82.255 118.64 82.359 119.212 82.5671 119.732L82.5931 119.784C82.6451 119.888 82.5671 120.018 82.463 120.044C79.8106 120.642 77.0801 120.486 76.2479 120.408C76.0919 120.408 75.9879 120.304 75.9358 120.148C74.6616 114.765 74.6616 111.072 74.9737 108.758C73.8035 109.018 70.1108 109.59 67.1982 107.432Z" fill="#33C475"/>
<path d="M74.9982 108.914C75.0502 108.914 75.1022 108.862 75.1022 108.81C75.4143 106.548 76.0124 105.559 76.0124 105.533C76.0384 105.481 76.0384 105.429 75.9864 105.377C75.9344 105.351 75.8823 105.351 75.8303 105.403C75.8043 105.455 75.1802 106.444 74.8682 108.758C74.8682 108.836 74.9202 108.888 74.9982 108.914C74.9722 108.914 74.9722 108.914 74.9982 108.914Z" fill="#207572"/>
<path d="M81.5001 100.957C81.5001 100.957 81.7602 103.766 81.9942 104.598C82.0202 104.728 81.9682 104.858 81.8642 104.91C81.4741 105.144 80.512 105.508 79.1857 104.858C78.9777 104.754 78.8477 104.546 78.8477 104.312L78.9517 101.581L81.5001 100.957Z" fill="#FDC39F"/>
<path d="M78.9251 97.3428C78.9251 97.3428 78.067 99.2931 78.015 100.333C77.9629 101.348 77.7289 102.024 78.9251 102.232C80.1213 102.44 81.1095 101.842 81.6556 100.827C81.6556 100.827 82.5138 99.2411 82.3057 98.617C82.0977 97.9929 78.9251 97.3428 78.9251 97.3428Z" fill="#FDC39F"/>
<path d="M81.2668 100.099L81.1888 100.073C81.1108 100.047 81.0588 99.9429 81.1108 99.8388C81.2668 99.5268 81.6049 98.7726 81.1888 98.5906C80.6427 98.3566 78.4843 97.9405 78.0162 97.1603C77.5741 96.4322 77.9642 95.47 78.5623 95.21C78.6143 95.184 78.6403 95.21 78.6663 95.236L78.7183 95.34C78.7443 95.392 78.8484 95.392 78.8744 95.314C78.9004 95.236 78.9784 95.236 79.0304 95.288C79.1864 95.522 79.5505 95.8861 80.5907 96.0681C82.047 96.3282 83.0351 96.9263 83.0611 97.9405C83.0611 97.9925 83.1392 98.0445 83.1912 98.0185C83.2952 97.9405 83.4772 97.9145 83.7113 98.1225C84.1273 98.4606 83.9453 99.3447 83.0611 100.047C83.0091 100.073 83.0091 100.151 83.0611 100.177C83.2172 100.281 83.4512 100.541 82.8531 100.853C82.203 101.191 81.7349 101.165 81.5529 101.139C81.5008 101.139 81.4748 101.087 81.4748 101.035L81.6829 100.151C81.6829 100.099 81.6569 100.047 81.6049 100.047H81.2668V100.099Z" fill="url(#paint0_linear_340_5587)"/>
<path d="M81.2402 100.281C81.2402 100.281 81.5783 99.0325 82.1244 99.3706C82.6965 99.7086 81.8383 100.775 81.3703 100.827L81.2402 100.281Z" fill="#FDC39F"/>
<path d="M63.0102 100.931C63.0362 100.931 63.0622 100.931 63.0882 100.905C63.1402 100.879 63.1402 100.801 63.1142 100.749C63.0102 100.645 62.2041 99.6308 61.892 99.4488C61.788 99.3968 61.71 99.3188 61.684 99.2668C61.684 99.2408 61.684 99.2148 61.71 99.1628L62.6722 99.3448L63.2182 99.8129C63.2703 99.8389 63.3223 99.8389 63.3743 99.8129C63.4003 99.7609 63.4003 99.7089 63.3743 99.6568L62.8022 99.1628C62.7762 99.1628 62.7762 99.1367 62.7502 99.1367L61.684 98.9287C61.632 98.9287 61.606 98.9287 61.58 98.9807C61.5019 99.0847 61.4759 99.2148 61.5019 99.3188C61.5279 99.4488 61.632 99.5528 61.814 99.6568C62.048 99.7869 62.7502 100.593 62.9842 100.905C62.9582 100.905 62.9842 100.931 63.0102 100.931Z" fill="#B3B3B3"/>
<path d="M81.2658 118.665L77.4951 118.717L78.8214 117.469C79.1594 117.157 79.6535 117.105 80.0176 117.365C80.2516 117.521 80.4857 117.703 80.6937 117.963C80.6937 117.963 83.0601 117.105 84.1783 115.181C84.5424 115.701 84.9585 116.429 85.3225 117.313C84.3084 117.911 82.9821 118.405 81.2658 118.665Z" fill="#FDC39F"/>
<path d="M80.8761 119.159C80.8501 119.159 80.8501 119.159 80.8761 119.159H71.2803C71.0463 119.159 70.8643 118.977 70.8643 118.743C70.8643 118.509 71.0463 118.327 71.3063 118.327H80.9021C81.1361 118.327 81.3182 118.509 81.3182 118.743C81.2662 118.977 81.0841 119.159 80.8761 119.159Z" fill="#106562"/>
<path d="M62.647 110.578H70.6305C71.2286 110.578 71.7487 110.916 72.0088 111.436L75.7014 119.16H65.7936C65.4036 119.16 65.0655 118.926 64.9355 118.588L62.0749 111.462C61.8929 111.02 62.179 110.578 62.647 110.578Z" fill="#207572"/>
<path d="M67.9773 115.702C68.3154 115.598 68.4194 115.078 68.2374 114.532C68.0553 114.012 67.6393 113.647 67.3272 113.777C66.9891 113.881 66.8851 114.402 67.0671 114.948C67.2492 115.468 67.6653 115.806 67.9773 115.702Z" fill="#BAF1D2"/>
<defs>
<linearGradient id="paint0_linear_340_5587" x1="82.1724" y1="96.101" x2="77.645" y2="101.951" gradientUnits="userSpaceOnUse">
<stop/>
<stop offset="1" stop-color="#1A1A1A"/>
</linearGradient>
</defs>
</svg>
