<svg width="234" height="157" viewBox="0 0 234 157" fill="none" xmlns="http://www.w3.org/2000/svg">
<path d="M8.4237 58.4414C9.18395 59.8098 9.91885 61.1529 10.6538 62.5214C14.7844 70.1239 17.6734 78.0558 18.0789 86.748C18.4336 94.7053 12.0476 99.875 9.23463 106.996C2.03761 125.166 12.1996 145.566 45.6252 145.312C79.1015 145.059 129.734 145.541 129.734 145.541C156.165 145.794 184.7 150.254 209.282 137.685C218.151 133.149 226.007 126.154 230.366 117.133C234.953 107.655 233.584 98.2024 231.253 88.4205C229.327 80.3112 226.488 72.4046 225.12 64.1686C222.738 49.8759 230.467 38.2948 229.758 24.4583C229.124 12.2689 220.406 4.66643 208.749 2.74047C196.053 0.63711 182.723 1.92953 170.179 4.4637C163.084 5.88283 156.089 8.03687 149.095 9.83612C143.241 11.3313 135.639 14.8284 129.633 14.8284C111.412 19.5166 94.9654 16.3743 76.7701 12.9531C66.7095 11.0779 59.8926 4.91984 50.3388 2.46171C40.4809 -0.0977992 29.6853 0.307669 20.4103 4.71711C7.91686 10.6724 -1.00339 24.4836 0.593133 38.2441C1.42941 45.4665 4.87587 52.0299 8.4237 58.4414Z" fill="#DFFCEB"/>
<path d="M149.298 26.4353C149.298 25.8778 149.07 25.3456 148.715 24.9655C148.361 24.5854 147.879 24.408 147.398 24.4587L98.5389 29.3496C97.6266 29.451 96.917 30.3126 96.917 31.3769V145.414C96.917 146.529 97.7533 147.366 98.7416 147.366H149.906C150.388 147.366 150.844 147.188 151.173 146.783C151.503 146.403 151.68 145.87 151.68 145.338L149.298 26.4353Z" fill="#D2F8E2"/>
<g opacity="0.3">
<path d="M106.572 34.9748L102.771 35.2789C102.366 35.3043 102.062 35.7604 102.062 36.2672V140.269C102.062 140.801 102.315 141.207 102.72 141.207H106.623C107.028 141.207 107.383 140.776 107.383 140.269L107.333 35.8871C107.333 35.3296 106.978 34.9495 106.572 34.9748Z" fill="white"/>
<path d="M115.62 34.2922L111.717 34.5963C111.312 34.6217 110.906 35.0778 110.906 35.5846L111.008 140.246C111.008 140.778 111.413 141.183 111.819 141.183H115.772C116.203 141.183 116.481 140.752 116.481 140.246L116.329 35.1792C116.329 34.647 116.051 34.2669 115.62 34.2922Z" fill="white"/>
<path d="M124.794 33.6078L120.841 33.9119C120.41 33.9372 120.182 34.3681 120.182 34.9002L120.384 140.245C120.384 140.778 120.638 141.183 121.043 141.183H125.047C125.478 141.183 125.934 140.752 125.934 140.22L125.681 34.4694C125.655 33.9626 125.199 33.5571 124.794 33.6078Z" fill="white"/>
<path d="M134.068 32.8988L130.064 33.2029C129.633 33.2283 129.329 33.6844 129.329 34.1912L129.608 140.221C129.608 140.753 129.937 141.184 130.343 141.184H134.397C134.828 141.184 135.208 140.753 135.208 140.221L134.854 33.7604C134.879 33.2536 134.499 32.8481 134.068 32.8988Z" fill="white"/>
<path d="M143.495 32.1632L139.441 32.4673C139.01 32.4927 138.63 32.9488 138.63 33.481L139.01 140.22C139.01 140.752 139.39 141.183 139.846 141.183H143.952C144.382 141.183 144.712 140.752 144.712 140.22L144.256 33.0755C144.23 32.5434 143.926 32.1379 143.495 32.1632Z" fill="#2F8481"/>
</g>
<path d="M66.0003 50.3062C66.0003 49.622 65.4935 49.0645 64.8599 49.0645H27.4303C26.7968 49.0645 26.2393 49.698 26.2393 50.3822V145.54C26.2393 146.047 26.442 146.528 26.7714 146.883C27.1009 147.238 27.557 147.441 28.0385 147.441L65.8736 147.339C66.3551 147.339 66.8112 147.137 67.1407 146.756C67.4701 146.402 67.6475 145.869 67.6475 145.363L66.0003 50.3062Z" fill="#D2F8E2"/>
<path d="M63.0608 53.4238H28.6722C28.4694 53.4238 28.3174 53.5505 28.3174 53.7786L28.3427 56.5155C28.3427 56.7436 28.4948 56.8956 28.6975 56.8956H63.1368C63.3395 56.8956 63.5676 56.7182 63.5676 56.4902V53.7026C63.5676 53.4999 63.2635 53.4238 63.0608 53.4238Z" fill="#2F8481"/>
<path d="M63.1369 60.2412L28.7737 60.2158C28.5709 60.2158 28.3936 60.3932 28.3936 60.6213V63.3835C28.3936 63.6116 28.5456 63.789 28.7483 63.789L63.1369 63.8143C63.3397 63.8143 63.5677 63.6369 63.5677 63.4089V60.6466C63.5677 60.4186 63.3397 60.2412 63.1369 60.2412Z" fill="#2F8481"/>
<path d="M63.137 67.1073L28.8245 67.0566C28.6217 67.0566 28.4443 67.234 28.4443 67.4621V70.2243C28.4443 70.4524 28.5964 70.6298 28.7991 70.6298L63.137 70.6805C63.3398 70.6805 63.5678 70.5031 63.5678 70.275V67.5128C63.5678 67.2847 63.3398 67.1073 63.137 67.1073Z" fill="#2F8481"/>
<path d="M63.1371 73.9765L28.8752 73.9258C28.6725 73.9258 28.4951 74.1032 28.4951 74.3312V77.0935C28.4951 77.3216 28.6472 77.4989 28.8499 77.4989L63.1371 77.575C63.3399 77.575 63.5679 77.3976 63.5679 77.1695V74.4073C63.5679 74.1538 63.3399 73.9765 63.1371 73.9765Z" fill="#2F8481"/>
<path d="M63.1362 80.8172L28.925 80.7412C28.7223 80.7412 28.5449 80.9186 28.5449 81.1213V83.8582C28.5449 84.0863 28.697 84.2637 28.8997 84.2637L63.1362 84.3651C63.339 84.3651 63.5671 84.1877 63.5671 83.9596V81.1974C63.5671 80.9946 63.339 80.8172 63.1362 80.8172Z" fill="#2F8481"/>
<path d="M63.1363 87.6346L28.9758 87.5332C28.7731 87.5332 28.5957 87.7106 28.5957 87.9133V90.6502C28.5957 90.8783 28.7478 91.0304 28.9505 91.0557L63.1363 91.1571C63.3391 91.1571 63.5672 90.9797 63.5672 90.7769V88.04C63.5672 87.812 63.3391 87.6346 63.1363 87.6346Z" fill="#2F8481"/>
<path d="M63.1374 94.4275L29.0022 94.3008C28.7995 94.3008 28.6221 94.4782 28.6221 94.6809V97.4178C28.6221 97.6459 28.7741 97.7979 28.9769 97.7979L63.112 97.9246C63.3148 97.9246 63.5428 97.7472 63.5428 97.5445V94.8076C63.5682 94.6049 63.3401 94.4275 63.1374 94.4275Z" fill="#2F8481"/>
<path d="M63.1356 101.218L29.0764 101.066C28.8737 101.066 28.6963 101.244 28.6963 101.447V104.158C28.6963 104.361 28.8483 104.538 29.0511 104.538L63.1356 104.69C63.3383 104.69 63.5664 104.513 63.5664 104.31V101.573C63.5664 101.396 63.3383 101.218 63.1356 101.218Z" fill="#2F8481"/>
<path d="M63.1376 107.984L29.1038 107.832C28.901 107.832 28.7236 108.009 28.7236 108.212V110.924C28.7236 111.126 28.8757 111.304 29.0784 111.304L63.1122 111.481C63.315 111.481 63.543 111.304 63.543 111.101V108.39C63.5684 108.161 63.3403 107.984 63.1376 107.984Z" fill="#2F8481"/>
<path d="M63.1357 114.219L29.1526 114.042C28.9499 114.042 28.7725 114.219 28.7725 114.422V117.134C28.7725 117.336 28.9245 117.514 29.1272 117.514L63.1104 117.691C63.3131 117.691 63.5412 117.514 63.5412 117.311V114.6C63.5665 114.397 63.3385 114.219 63.1357 114.219Z" fill="#2F8481"/>
<path d="M63.1348 120.934L29.2024 120.731C28.9997 120.731 28.8223 120.909 28.8223 121.112V123.798C28.8223 124.001 28.9743 124.178 29.1771 124.178L63.1348 124.381C63.3376 124.381 63.5657 124.203 63.5657 124.001V121.34C63.5657 121.112 63.3376 120.96 63.1348 120.934Z" fill="#2F8481"/>
<path d="M63.1359 127.65L29.2541 127.422C29.0514 127.422 28.874 127.599 28.874 127.802V130.488C28.874 130.691 29.0261 130.868 29.2288 130.868L63.1359 131.096C63.3386 131.096 63.5667 130.919 63.5667 130.716V128.03C63.5667 127.827 63.3386 127.65 63.1359 127.65Z" fill="#2F8481"/>
<path d="M63.135 134.339L29.304 134.111C29.1012 134.111 28.9238 134.289 28.9238 134.491V137.178C28.9238 137.38 29.0759 137.558 29.2786 137.558L63.135 137.811C63.3378 137.811 63.5658 137.634 63.5658 137.431V134.745C63.5658 134.517 63.3378 134.339 63.135 134.339Z" fill="#2F8481"/>
<path d="M222.054 50.967C222.029 49.928 221.091 49.041 219.951 49.041H176.642C175.477 49.041 174.463 49.9787 174.463 51.043V145.517C174.463 146.023 174.716 146.505 175.122 146.86C175.527 147.215 176.059 147.417 176.617 147.417L221.877 147.316C222.435 147.316 222.992 147.113 223.372 146.733C223.778 146.378 223.98 145.846 223.98 145.339L222.054 50.967Z" fill="#C6F5DA"/>
<path d="M189.034 53.2207H177.833C177.504 53.2207 177.326 53.3474 177.326 53.6768V55.5268C177.326 55.8562 177.504 56.1857 177.833 56.1857H189.034C189.363 56.1857 189.82 55.8309 189.82 55.5268V53.6768C189.82 53.3474 189.389 53.2207 189.034 53.2207Z" fill="#74A3A1"/>
<path d="M204.009 53.2207H192.808C192.479 53.2207 192.124 53.3474 192.124 53.6768V55.5268C192.124 55.8562 192.479 56.1857 192.808 56.1857H204.009C204.339 56.1857 204.719 55.8309 204.719 55.5268V53.6768C204.719 53.3474 204.364 53.2207 204.009 53.2207Z" fill="#74A3A1"/>
<path d="M218.988 53.2207H207.787C207.457 53.2207 207.026 53.3474 207.026 53.6768V55.5268C207.026 55.8562 207.457 56.1857 207.787 56.1857H218.988C219.317 56.1857 219.52 55.8309 219.52 55.5268V53.6768C219.52 53.3474 219.342 53.2207 218.988 53.2207Z" fill="#74A3A1"/>
<path d="M189.034 60.292H177.833C177.504 60.292 177.326 60.6214 177.326 60.9509V62.8008C177.326 63.1303 177.504 63.485 177.833 63.485H189.034C189.363 63.485 189.82 63.1303 189.82 62.8008V60.9509C189.82 60.6214 189.389 60.292 189.034 60.292Z" fill="#74A3A1"/>
<path d="M204.009 60.292H192.808C192.479 60.292 192.124 60.6214 192.124 60.9509V62.8008C192.124 63.1303 192.479 63.485 192.808 63.485H204.009C204.339 63.485 204.719 63.1303 204.719 62.8008V60.9509C204.719 60.6214 204.364 60.292 204.009 60.292Z" fill="#74A3A1"/>
<path d="M218.988 60.292H207.787C207.457 60.292 207.026 60.6214 207.026 60.9509V62.8008C207.026 63.1303 207.457 63.485 207.787 63.485H218.988C219.317 63.485 219.52 63.1303 219.52 62.8008V60.9509C219.52 60.6214 219.342 60.292 218.988 60.292Z" fill="#74A3A1"/>
<path d="M189.034 67.5898H177.833C177.504 67.5898 177.326 67.9193 177.326 68.2487V70.0987C177.326 70.4281 177.504 70.6815 177.833 70.6815H189.034C189.363 70.6815 189.82 70.4281 189.82 70.0987V68.2487C189.82 67.9193 189.389 67.5898 189.034 67.5898Z" fill="#74A3A1"/>
<path d="M204.009 67.5898H192.808C192.479 67.5898 192.124 67.9193 192.124 68.2487V70.0987C192.124 70.4281 192.479 70.6815 192.808 70.6815H204.009C204.339 70.6815 204.719 70.4281 204.719 70.0987V68.2487C204.719 67.9193 204.364 67.5898 204.009 67.5898Z" fill="#74A3A1"/>
<path d="M218.988 67.5898H207.787C207.457 67.5898 207.026 67.9193 207.026 68.2487V70.0987C207.026 70.4281 207.457 70.6815 207.787 70.6815H218.988C219.317 70.6815 219.52 70.4281 219.52 70.0987V68.2487C219.52 67.9193 219.342 67.5898 218.988 67.5898Z" fill="#74A3A1"/>
<path d="M189.034 74.8877H177.833C177.504 74.8877 177.326 75.2171 177.326 75.5212V77.3712C177.326 77.7006 177.504 78.0554 177.833 78.0554H189.034C189.363 78.0554 189.82 77.7006 189.82 77.3712V75.5212C189.82 75.2171 189.389 74.8877 189.034 74.8877Z" fill="#74A3A1"/>
<path d="M204.009 74.8877H192.808C192.479 74.8877 192.124 75.2171 192.124 75.5212V77.3712C192.124 77.7006 192.479 78.0554 192.808 78.0554H204.009C204.339 78.0554 204.719 77.7006 204.719 77.3712V75.5212C204.719 75.2171 204.364 74.8877 204.009 74.8877Z" fill="#74A3A1"/>
<path d="M218.988 74.8877H207.787C207.457 74.8877 207.026 75.2171 207.026 75.5212V77.3712C207.026 77.7006 207.457 78.0554 207.787 78.0554H218.988C219.317 78.0554 219.52 77.7006 219.52 77.3712V75.5212C219.52 75.2171 219.342 74.8877 218.988 74.8877Z" fill="#74A3A1"/>
<path d="M189.034 82.3887H177.833C177.504 82.3887 177.326 82.49 177.326 82.8195V84.6694C177.326 84.9989 177.504 85.3536 177.833 85.3536H189.034C189.363 85.3536 189.82 84.9989 189.82 84.6694V82.8195C189.82 82.5154 189.389 82.3887 189.034 82.3887Z" fill="#74A3A1"/>
<path d="M204.009 82.3887H192.808C192.479 82.3887 192.124 82.49 192.124 82.8195V84.6694C192.124 84.9989 192.479 85.3536 192.808 85.3536H204.009C204.339 85.3536 204.719 84.9989 204.719 84.6694V82.8195C204.719 82.5154 204.364 82.3887 204.009 82.3887Z" fill="#74A3A1"/>
<path d="M218.988 82.3887H207.787C207.457 82.3887 207.026 82.49 207.026 82.8195V84.6694C207.026 84.9989 207.457 85.3536 207.787 85.3536H218.988C219.317 85.3536 219.52 84.9989 219.52 84.6694V82.8195C219.52 82.5154 219.342 82.3887 218.988 82.3887Z" fill="#74A3A1"/>
<path d="M189.034 89.4844H177.833C177.504 89.4844 177.326 89.7885 177.326 90.1179V91.9679C177.326 92.2973 177.504 92.7535 177.833 92.7535H189.034C189.363 92.7535 189.82 92.272 189.82 91.9679V90.1179C189.82 89.7885 189.389 89.4844 189.034 89.4844Z" fill="#74A3A1"/>
<path d="M204.009 89.4844H192.808C192.479 89.4844 192.124 89.7885 192.124 90.1179V91.9679C192.124 92.2973 192.479 92.7535 192.808 92.7535H204.009C204.339 92.7535 204.719 92.272 204.719 91.9679V90.1179C204.719 89.7885 204.364 89.4844 204.009 89.4844Z" fill="#74A3A1"/>
<path d="M218.988 89.4844H207.787C207.457 89.4844 207.026 89.7885 207.026 90.1179V91.9679C207.026 92.2973 207.457 92.7535 207.787 92.7535H218.988C219.317 92.7535 219.52 92.272 219.52 91.9679V90.1179C219.52 89.7885 219.342 89.4844 218.988 89.4844Z" fill="#74A3A1"/>
<path d="M189.034 96.7842H177.833C177.504 96.7842 177.326 97.0883 177.326 97.4177V99.2677C177.326 99.5971 177.504 99.7492 177.833 99.7492H189.034C189.363 99.7492 189.82 99.5971 189.82 99.2677V97.4177C189.82 97.0883 189.389 96.7842 189.034 96.7842Z" fill="#74A3A1"/>
<path d="M204.009 96.7842H192.808C192.479 96.7842 192.124 97.0883 192.124 97.4177V99.2677C192.124 99.5971 192.479 99.7492 192.808 99.7492H204.009C204.339 99.7492 204.719 99.5971 204.719 99.2677V97.4177C204.719 97.0883 204.364 96.7842 204.009 96.7842Z" fill="#74A3A1"/>
<path d="M218.988 96.7842H207.787C207.457 96.7842 207.026 97.0883 207.026 97.4177V99.2677C207.026 99.5971 207.457 99.7492 207.787 99.7492H218.988C219.317 99.7492 219.52 99.5971 219.52 99.2677V97.4177C219.52 97.0883 219.342 96.7842 218.988 96.7842Z" fill="#74A3A1"/>
<path d="M189.034 104.082H177.833C177.504 104.082 177.326 104.386 177.326 104.716V106.566C177.326 106.895 177.504 107.047 177.833 107.047H189.034C189.363 107.047 189.82 106.87 189.82 106.566V104.716C189.82 104.386 189.389 104.082 189.034 104.082Z" fill="#4D4D4D"/>
<path d="M204.009 104.082H192.808C192.479 104.082 192.124 104.386 192.124 104.716V106.566C192.124 106.895 192.479 107.047 192.808 107.047H204.009C204.339 107.047 204.719 106.87 204.719 106.566V104.716C204.719 104.386 204.364 104.082 204.009 104.082Z" fill="#4D4D4D"/>
<path d="M218.988 104.082H207.787C207.457 104.082 207.026 104.386 207.026 104.716V106.566C207.026 106.895 207.457 107.047 207.787 107.047H218.988C219.317 107.047 219.52 106.87 219.52 106.566V104.716C219.52 104.386 219.342 104.082 218.988 104.082Z" fill="#74A3A1"/>
<path d="M189.034 111.582H177.833C177.504 111.582 177.326 111.658 177.326 111.987V113.837C177.326 114.167 177.504 114.446 177.833 114.446H189.034C189.363 114.446 189.82 114.167 189.82 113.837V111.987C189.82 111.658 189.389 111.582 189.034 111.582Z" fill="#4D4D4D"/>
<path d="M204.009 111.582H192.808C192.479 111.582 192.124 111.658 192.124 111.987V113.837C192.124 114.167 192.479 114.446 192.808 114.446H204.009C204.339 114.446 204.719 114.167 204.719 113.837V111.987C204.719 111.658 204.364 111.582 204.009 111.582Z" fill="#4D4D4D"/>
<path d="M218.988 111.582H207.787C207.457 111.582 207.026 111.658 207.026 111.987V113.837C207.026 114.167 207.457 114.446 207.787 114.446H218.988C219.317 114.446 219.52 114.167 219.52 113.837V111.987C219.52 111.658 219.342 111.582 218.988 111.582Z" fill="#4D4D4D"/>
<path d="M189.034 118.882H177.833C177.504 118.882 177.326 118.958 177.326 119.287V121.137C177.326 121.467 177.504 121.745 177.833 121.745H189.034C189.363 121.745 189.82 121.467 189.82 121.137V119.287C189.82 118.958 189.389 118.882 189.034 118.882Z" fill="#4D4D4D"/>
<path d="M204.009 118.882H192.808C192.479 118.882 192.124 118.958 192.124 119.287V121.137C192.124 121.467 192.479 121.745 192.808 121.745H204.009C204.339 121.745 204.719 121.467 204.719 121.137V119.287C204.719 118.958 204.364 118.882 204.009 118.882Z" fill="#4D4D4D"/>
<path d="M218.988 118.882H207.787C207.457 118.882 207.026 118.958 207.026 119.287V121.137C207.026 121.467 207.457 121.745 207.787 121.745H218.988C219.317 121.745 219.52 121.467 219.52 121.137V119.287C219.52 118.958 219.342 118.882 218.988 118.882Z" fill="#4D4D4D"/>
<path d="M189.034 126.054H177.833C177.504 126.054 177.326 126.231 177.326 126.561V128.41C177.326 128.74 177.504 129.12 177.833 129.12H189.034C189.363 129.12 189.82 128.74 189.82 128.41V126.561C189.82 126.256 189.389 126.054 189.034 126.054Z" fill="#4D4D4D"/>
<path d="M204.009 126.054H192.808C192.479 126.054 192.124 126.231 192.124 126.561V128.41C192.124 128.74 192.479 129.12 192.808 129.12H204.009C204.339 129.12 204.719 128.74 204.719 128.41V126.561C204.719 126.256 204.364 126.054 204.009 126.054Z" fill="#4D4D4D"/>
<path d="M218.988 126.054H207.787C207.457 126.054 207.026 126.231 207.026 126.561V128.41C207.026 128.74 207.457 129.12 207.787 129.12H218.988C219.317 129.12 219.52 128.74 219.52 128.41V126.561C219.52 126.256 219.342 126.054 218.988 126.054Z" fill="#4D4D4D"/>
<path d="M189.034 133.479H177.833C177.504 133.479 177.326 133.555 177.326 133.884V135.734C177.326 136.063 177.504 136.342 177.833 136.342H189.034C189.363 136.342 189.82 136.063 189.82 135.734V133.884C189.82 133.529 189.389 133.479 189.034 133.479Z" fill="#4D4D4D"/>
<path d="M204.009 133.479H192.808C192.479 133.479 192.124 133.555 192.124 133.884V135.734C192.124 136.063 192.479 136.342 192.808 136.342H204.009C204.339 136.342 204.719 136.063 204.719 135.734V133.884C204.719 133.529 204.364 133.479 204.009 133.479Z" fill="#4D4D4D"/>
<path d="M218.988 133.479H207.787C207.457 133.479 207.026 133.555 207.026 133.884V135.734C207.026 136.063 207.457 136.342 207.787 136.342H218.988C219.317 136.342 219.52 136.063 219.52 135.734V133.884C219.52 133.529 219.342 133.479 218.988 133.479Z" fill="#4D4D4D"/>
<path d="M103.076 58.1623C103.076 57.6048 102.874 57.098 102.493 56.7178C102.139 56.3377 101.657 56.135 101.15 56.1603L63.3659 57.8329C62.707 57.8582 62.2002 58.4664 62.2255 59.176L64.1515 147.846L102.367 147.34C102.848 147.34 103.33 147.111 103.659 146.731C103.989 146.351 104.191 145.819 104.191 145.287L103.076 58.1623Z" fill="#DFFCEB"/>
<path d="M72.6395 74.4838H66.5575L66.4814 63.0547H72.5888L72.6395 74.4838Z" fill="#999999"/>
<path d="M81.3573 74.4584H75.3007L75.25 63.0547H81.332L81.3573 74.4584Z" fill="#999999"/>
<path d="M90.5566 74.4331H84.5253L84.4746 63.0547H90.5313L90.5566 74.4331Z" fill="#999999"/>
<path d="M99.5282 74.4584L93.4716 74.4331L93.4209 63.0547H99.5282V74.4584Z" fill="#999999"/>
<path d="M72.7147 90.7018L66.6581 90.7525L66.582 79.4247L72.664 79.3994L72.7147 90.7018Z" fill="#88E3B1"/>
<path d="M81.4335 90.6501L75.3769 90.7007L75.3262 79.373H81.3828L81.4335 90.6501Z" fill="#999999"/>
<path d="M90.582 90.6003L84.5507 90.6256L84.5254 79.3486L90.5567 79.3232L90.582 90.6003Z" fill="#999999"/>
<path d="M99.5264 90.5495L93.4951 90.5749V79.3232L99.5264 79.2979V90.5495Z" fill="#999999"/>
<path d="M72.8172 107.3L66.7606 107.376L66.6846 96.1239L72.7412 96.0732L72.8172 107.3Z" fill="#88E3B1"/>
<path d="M81.4834 107.225L75.452 107.276L75.4014 96.0498L81.4327 96.0244L81.4834 107.225Z" fill="#999999"/>
<path d="M90.6065 107.148L84.6005 107.199L84.5752 95.998L90.5812 95.9473L90.6065 107.148Z" fill="#999999"/>
<path d="M99.5265 107.046L93.5205 107.122V95.9209L99.5265 95.8955V107.046Z" fill="#999999"/>
<path d="M72.8935 123.544L66.8622 123.62L66.8115 112.698L72.8428 112.647L72.8935 123.544Z" fill="#88E3B1"/>
<path d="M81.5352 123.444L75.5292 123.52L75.4785 112.623L81.5098 112.547L81.5352 123.444Z" fill="#88E3B1"/>
<path d="M90.6319 123.316L84.6513 123.392L84.626 112.52L90.6066 112.444L90.6319 123.316Z" fill="#999999"/>
<path d="M99.5265 123.215L93.5205 123.291L93.5458 112.42L99.5265 112.369V123.215Z" fill="#999999"/>
<path d="M72.9688 139.94L66.9628 140.041L66.9121 129.195L72.9181 129.119L72.9688 139.94Z" fill="#88E3B1"/>
<path d="M81.585 139.789L75.6044 139.89L75.5537 129.069L81.5597 128.993L81.585 139.789Z" fill="#88E3B1"/>
<path d="M90.6574 139.661L84.7021 139.737L84.6768 128.941L90.632 128.865L90.6574 139.661Z" fill="#88E3B1"/>
<path d="M99.5265 139.508L93.5459 139.61V128.814L99.5265 128.738V139.508Z" fill="#88E3B1"/>
<path d="M186.854 64.4723C186.854 63.8895 186.651 63.3066 186.296 62.9011C185.967 62.4957 185.511 62.2676 185.029 62.2929L146.966 63.8134C146.003 63.8641 145.243 64.8778 145.268 66.0942L147.143 145.287C147.169 146.478 147.954 147.441 148.917 147.441L186.22 146.985C186.676 146.985 187.133 146.731 187.462 146.326C187.791 145.895 187.969 145.337 187.969 144.755L186.854 64.4723Z" fill="#DFFCEB"/>
<path d="M182.877 68.0205H148.995C148.666 68.0205 148.412 68.4006 148.412 68.8061L148.437 72.6073C148.437 73.0128 148.716 73.469 149.046 73.469L183.029 73.5196C183.358 73.5196 183.637 73.0635 183.612 72.6834L183.51 68.8314C183.51 68.4006 183.232 68.0205 182.877 68.0205Z" fill="#5FB2AF"/>
<path d="M183.105 76.3582L149.071 76.2822C148.741 76.2822 148.463 76.6877 148.488 77.0678L148.513 80.8691C148.513 81.2745 148.792 81.6547 149.121 81.6547L183.257 81.7814C183.586 81.7814 183.865 81.4012 183.84 80.9958L183.738 77.1692C183.738 76.7637 183.434 76.3582 183.105 76.3582Z" fill="#5FB2AF"/>
<path d="M183.332 84.9226L149.146 84.7705C148.817 84.7705 148.538 84.9732 148.538 85.3534L148.563 89.1799C148.563 89.5854 148.842 89.8895 149.172 89.8895L183.459 90.0923C183.788 90.0923 184.067 89.7882 184.042 89.3827L183.94 85.5054C183.966 85.1253 183.687 84.9226 183.332 84.9226Z" fill="#5FB2AF"/>
<path d="M183.559 93.2603L149.221 93.0322C148.892 93.0322 148.613 93.311 148.613 93.7165L148.639 97.5937C148.639 97.9992 148.917 98.2273 149.247 98.2273L183.686 98.506C184.016 98.506 184.294 98.278 184.294 97.8725L184.193 93.9699C184.193 93.5391 183.889 93.2603 183.559 93.2603Z" fill="#5FB2AF"/>
<path d="M183.788 101.699L149.298 101.395C148.968 101.395 148.689 101.749 148.689 102.155L148.715 106.057C148.715 106.463 148.994 106.919 149.323 106.919L183.914 107.274C184.269 107.274 184.523 106.843 184.523 106.412L184.421 102.484C184.421 102.053 184.117 101.699 183.788 101.699Z" fill="#5FB2AF"/>
<path d="M184.017 110.189L149.375 109.809C149.045 109.809 148.767 110.239 148.767 110.645L148.792 114.573C148.792 114.978 149.071 115.358 149.4 115.358L184.144 115.789C184.498 115.789 184.752 115.434 184.752 115.004L184.65 111.025C184.65 110.645 184.346 110.189 184.017 110.189Z" fill="#5FB2AF"/>
<path d="M184.244 119.059L149.425 118.603C149.095 118.603 148.816 118.831 148.816 119.236L148.842 123.215C148.842 123.62 149.121 123.924 149.45 123.924L184.345 124.431C184.7 124.431 184.954 124.152 184.954 123.722L184.852 119.718C184.878 119.312 184.599 119.084 184.244 119.059Z" fill="#5FB2AF"/>
<path d="M184.472 127.726L149.501 127.193C149.171 127.193 148.893 127.497 148.893 127.903L148.918 131.907C148.918 132.338 149.197 132.54 149.551 132.54L184.624 133.123C184.979 133.123 185.258 132.921 185.232 132.49L185.131 128.435C185.131 128.055 184.827 127.726 184.472 127.726Z" fill="#5FB2AF"/>
<path d="M184.726 136.443L149.602 135.835C149.273 135.835 148.994 136.215 148.994 136.646L149.019 140.675C149.019 141.106 149.298 141.537 149.653 141.537L184.878 142.196C185.233 142.196 185.486 141.765 185.486 141.359L185.385 137.279C185.359 136.874 185.055 136.468 184.726 136.443Z" fill="#5FB2AF"/>
<path d="M172.182 57.1755C171.954 53.501 169.723 50.2573 166.404 48.6861L123.348 28.2354C120.586 26.9176 117.393 26.9176 114.631 28.2354L71.626 48.6861C68.3063 50.2573 66.0762 53.5263 65.8481 57.1755C61.8188 119.592 101.833 142.323 114.935 148.076C117.545 149.216 120.485 149.216 123.095 148.076C136.222 142.349 176.236 119.592 172.182 57.1755Z" fill="#33C475"/>
<path d="M105.99 36.4964C105.888 36.4964 105.787 36.4457 105.762 36.3443C105.711 36.2176 105.762 36.0656 105.888 35.9896L116.05 31.1493C116.177 31.0986 116.329 31.1493 116.405 31.276C116.456 31.4027 116.405 31.5548 116.278 31.6308L106.116 36.471C106.066 36.4964 106.04 36.4964 105.99 36.4964Z" fill="#A1EAC1"/>
<path d="M69.117 70.201C68.9649 70.201 68.8636 70.0997 68.8636 69.9476C68.7369 65.893 68.7876 61.6863 69.0663 57.4035C69.2184 54.92 70.7389 52.69 72.9943 51.6256L101.96 37.8651C102.086 37.8144 102.239 37.8651 102.315 37.9918C102.365 38.1185 102.315 38.2706 102.188 38.3466L73.2223 52.1071C71.1443 53.0954 69.7505 55.1481 69.5985 57.4289C69.3197 61.6863 69.2437 65.893 69.3958 69.9223C69.3958 70.0743 69.2944 70.201 69.117 70.201C69.1423 70.201 69.1423 70.201 69.117 70.201Z" fill="#A1EAC1"/>
<path d="M161.792 59.6073C161.741 58.6697 161.184 57.8588 160.347 57.4533L120.105 38.3457C119.421 38.0163 118.61 38.0163 117.925 38.3457L77.6828 57.4533C76.8466 57.8588 76.2891 58.695 76.2384 59.6073C75.0473 82.8963 80.4197 102.308 92.2289 117.361C101.225 128.841 111.767 134.999 117.925 137.862C118.61 138.166 119.395 138.166 120.079 137.862C126.237 134.999 136.78 128.841 145.776 117.361C157.585 102.333 162.983 82.8963 161.792 59.6073Z" fill="#005653"/>
<path d="M107.13 84.6446H103.126V68.654C103.126 62.3693 107.814 57.0729 114.048 56.3126L122.259 55.3243C125.781 54.8935 129.329 56.0085 131.99 58.3653C134.651 60.7221 136.171 64.1178 136.171 67.6657V81.6289H132.167V67.6657C132.167 65.2582 131.128 62.9521 129.329 61.3556C127.53 59.7591 125.123 58.9988 122.74 59.3029L114.53 60.2912C110.298 60.7981 107.13 64.3966 107.13 68.654V84.6446Z" fill="#33C475"/>
<path d="M101.909 81.0467L137.058 79.0954C138.477 79.0194 139.694 80.1597 139.694 81.5789V109.429C139.694 110.798 138.579 111.913 137.21 111.913H102.898C101.555 111.913 100.44 110.848 100.414 109.505L99.5779 83.6062C99.5273 82.2631 100.566 81.1227 101.909 81.0467Z" fill="#33C475"/>
<path d="M125.375 103.955L123.246 97.8475C122.993 97.1126 123.17 96.3016 123.703 95.7441C124.792 94.6291 125.451 93.1086 125.375 91.4107C125.248 88.4204 122.79 86.0129 119.825 85.8862C116.531 85.7595 113.794 88.3951 113.794 91.6641C113.794 93.4887 114.63 95.1106 115.948 96.1749C116.632 96.7325 116.911 97.6194 116.607 98.4557L114.681 103.98C114.225 105.323 115.213 106.717 116.632 106.717H123.424C124.843 106.692 125.831 105.298 125.375 103.955Z" fill="#005653"/>
<path d="M35.4636 70.8588C52.8479 70.8588 66.9379 56.7688 66.9379 39.3845C66.9379 22.0001 52.8479 7.91016 35.4636 7.91016C18.0792 7.91016 3.98926 22.0001 3.98926 39.3845C3.98926 56.7688 18.0792 70.8588 35.4636 70.8588Z" fill="#33C475"/>
<path d="M35.5133 68.2229C51.2505 68.2229 63.9973 55.476 63.9973 39.7389C63.9973 24.0017 51.2505 11.2549 35.5133 11.2549C19.7761 11.2549 7.0293 24.0017 7.0293 39.7389C7.0293 55.476 19.7761 68.2229 35.5133 68.2229Z" fill="#D2F8E2"/>
<path d="M46.1072 55.1985H17.3191C15.2917 55.1985 13.6445 53.5513 13.6445 51.5239V24.1296C13.6445 22.1023 15.2917 20.4551 17.3191 20.4551H46.1325C48.1598 20.4551 49.807 22.1023 49.807 24.1296V51.5239C49.7817 53.5513 48.1345 55.1985 46.1072 55.1985Z" fill="url(#paint0_linear_340_4240)"/>
<path d="M52.5182 55.2228H19.6248C17.344 55.2228 15.4688 53.3728 15.4688 51.0668V24.5847C15.4688 22.304 17.3187 20.4287 19.6248 20.4287H52.5182C54.799 20.4287 56.6742 22.2787 56.6742 24.5847V51.0668C56.6489 53.3728 54.799 55.2228 52.5182 55.2228Z" fill="#2F8481"/>
<path d="M52.848 35.2795H40.4053C39.8478 35.2795 39.3916 34.8234 39.3916 34.2658V23.7744C39.3916 23.2169 39.8478 22.7607 40.4053 22.7607H52.848C53.4055 22.7607 53.8617 23.2169 53.8617 23.7744V34.2405C53.8617 34.8234 53.4055 35.2795 52.848 35.2795Z" fill="#F2F2F2"/>
<path d="M41.7487 26.0798H41.3939C40.659 26.0798 40.0508 25.4716 40.0508 24.7367C40.0508 24.0018 40.659 23.3936 41.3939 23.3936H41.7487C42.4836 23.3936 43.0918 24.0018 43.0918 24.7367C43.0664 25.4716 42.4836 26.0798 41.7487 26.0798Z" fill="url(#paint1_linear_340_4240)"/>
<path d="M41.7487 28.9177H41.3939C40.659 28.9177 40.0508 28.3095 40.0508 27.5745C40.0508 26.8396 40.659 26.2314 41.3939 26.2314H41.7487C42.4836 26.2314 43.0918 26.8396 43.0918 27.5745C43.0664 28.3348 42.4836 28.9177 41.7487 28.9177Z" fill="url(#paint2_linear_340_4240)"/>
<path d="M41.7487 31.7565H41.3939C40.659 31.7565 40.0508 31.1483 40.0508 30.4134C40.0508 29.6785 40.659 29.0703 41.3939 29.0703H41.7487C42.4836 29.0703 43.0918 29.6785 43.0918 30.4134C43.0664 31.1483 42.4836 31.7565 41.7487 31.7565Z" fill="url(#paint3_linear_340_4240)"/>
<path d="M41.7487 34.5944H41.3939C40.659 34.5944 40.0508 33.9862 40.0508 33.2513C40.0508 32.5164 40.659 31.9082 41.3939 31.9082H41.7487C42.4836 31.9082 43.0918 32.5164 43.0918 33.2513C43.0664 34.0116 42.4836 34.5944 41.7487 34.5944Z" fill="url(#paint4_linear_340_4240)"/>
<path d="M45.194 26.1569H44.8392C44.1043 26.1569 43.4961 25.5487 43.4961 24.8138C43.4961 24.0789 44.1043 23.4707 44.8392 23.4707H45.194C45.9289 23.4707 46.5371 24.0789 46.5371 24.8138C46.5371 25.5487 45.9542 26.1569 45.194 26.1569Z" fill="url(#paint5_linear_340_4240)"/>
<path d="M45.194 28.9948H44.8392C44.1043 28.9948 43.4961 28.3866 43.4961 27.6517C43.4961 26.9168 44.1043 26.3086 44.8392 26.3086H45.194C45.9289 26.3086 46.5371 26.9168 46.5371 27.6517C46.5371 28.4119 45.9542 28.9948 45.194 28.9948Z" fill="url(#paint6_linear_340_4240)"/>
<path d="M45.194 31.8327H44.8392C44.1043 31.8327 43.4961 31.2245 43.4961 30.4896C43.4961 29.7547 44.1043 29.1465 44.8392 29.1465H45.194C45.9289 29.1465 46.5371 29.7547 46.5371 30.4896C46.5371 31.2498 45.9542 31.8327 45.194 31.8327Z" fill="url(#paint7_linear_340_4240)"/>
<path d="M45.194 34.696H44.8392C44.1043 34.696 43.4961 34.0878 43.4961 33.3529C43.4961 32.618 44.1043 32.0098 44.8392 32.0098H45.194C45.9289 32.0098 46.5371 32.618 46.5371 33.3529C46.5371 34.0878 45.9542 34.696 45.194 34.696Z" fill="url(#paint8_linear_340_4240)"/>
<path d="M48.5133 26.1813H48.1585C47.4236 26.1813 46.8154 25.5731 46.8154 24.8382C46.8154 24.1033 47.4236 23.4951 48.1585 23.4951H48.5133C49.2482 23.4951 49.8564 24.1033 49.8564 24.8382C49.8564 25.5731 49.2482 26.1813 48.5133 26.1813Z" fill="url(#paint9_linear_340_4240)"/>
<path d="M48.5133 29.0202H48.1585C47.4236 29.0202 46.8154 28.412 46.8154 27.6771C46.8154 26.9422 47.4236 26.334 48.1585 26.334H48.5133C49.2482 26.334 49.8564 26.9422 49.8564 27.6771C49.8564 28.4373 49.2482 29.0202 48.5133 29.0202Z" fill="url(#paint10_linear_340_4240)"/>
<path d="M48.5133 31.8581H48.1585C47.4236 31.8581 46.8154 31.2499 46.8154 30.515C46.8154 29.7801 47.4236 29.1719 48.1585 29.1719H48.5133C49.2482 29.1719 49.8564 29.7801 49.8564 30.515C49.8564 31.2752 49.2482 31.8581 48.5133 31.8581Z" fill="url(#paint11_linear_340_4240)"/>
<path d="M48.5133 34.7214H48.1585C47.4236 34.7214 46.8154 34.1132 46.8154 33.3783C46.8154 32.6434 47.4236 32.0352 48.1585 32.0352H48.5133C49.2482 32.0352 49.8564 32.6434 49.8564 33.3783C49.8564 34.1132 49.2482 34.7214 48.5133 34.7214Z" fill="url(#paint12_linear_340_4240)"/>
<path d="M51.8844 26.0046H51.5296C50.7947 26.0046 50.1865 25.3964 50.1865 24.6615C50.1865 23.9266 50.7947 23.3184 51.5296 23.3184H51.8844C52.6193 23.3184 53.2275 23.9266 53.2275 24.6615C53.2022 25.3964 52.6193 26.0046 51.8844 26.0046Z" fill="url(#paint13_linear_340_4240)"/>
<path d="M51.8844 28.8425H51.5296C50.7947 28.8425 50.1865 28.2343 50.1865 27.4994C50.1865 26.7645 50.7947 26.1562 51.5296 26.1562H51.8844C52.6193 26.1562 53.2275 26.7645 53.2275 27.4994C53.2022 28.2343 52.6193 28.8425 51.8844 28.8425Z" fill="url(#paint14_linear_340_4240)"/>
<path d="M51.8844 31.6804H51.5296C50.7947 31.6804 50.1865 31.0722 50.1865 30.3372C50.1865 29.6023 50.7947 28.9941 51.5296 28.9941H51.8844C52.6193 28.9941 53.2275 29.6023 53.2275 30.3372C53.2022 31.0722 52.6193 31.6804 51.8844 31.6804Z" fill="url(#paint15_linear_340_4240)"/>
<path d="M51.8844 34.5192H51.5296C50.7947 34.5192 50.1865 33.911 50.1865 33.1761C50.1865 32.4412 50.7947 31.833 51.5296 31.833H51.8844C52.6193 31.833 53.2275 32.4412 53.2275 33.1761C53.2022 33.9364 52.6193 34.5192 51.8844 34.5192Z" fill="url(#paint16_linear_340_4240)"/>
<path d="M29.2547 35.0526H19.5996C19.2955 35.0526 19.0674 34.7991 19.0674 34.5204V23.8769C19.0674 23.5728 19.3208 23.3447 19.5996 23.3447H29.2801C29.5842 23.3447 29.8122 23.5981 29.8122 23.8769V34.5204C29.8122 34.8245 29.5588 35.0526 29.2547 35.0526Z" fill="#F2F2F2"/>
<path d="M43.1924 53.6252H34.7536C32.1688 53.6252 30.0654 51.5218 30.0654 48.937V45.7693C30.0654 43.1844 32.1688 41.0811 34.7536 41.0811H43.1924C45.7772 41.0811 47.8806 43.1844 47.8806 45.7693V48.937C47.8806 51.5218 45.7772 53.6252 43.1924 53.6252Z" fill="#106562"/>
<path d="M29.3308 44.5797C29.2547 44.5797 29.1787 44.5037 29.1787 44.4277V42.9325C29.1787 41.5134 30.3444 40.3477 31.7636 40.3477H33.3854C33.4614 40.3477 33.5375 40.4237 33.5375 40.4997C33.5375 40.5757 33.4614 40.6518 33.3854 40.6518H31.7636C30.5218 40.6518 29.4828 41.6654 29.4828 42.9325V44.4277C29.4828 44.529 29.4068 44.5797 29.3308 44.5797Z" fill="#666666"/>
<path d="M34.6778 54.3359H31.7382C30.319 54.3359 29.1533 53.1702 29.1533 51.7511V50.4333C29.1533 50.3573 29.2293 50.2812 29.3054 50.2812C29.3814 50.2812 29.4574 50.3573 29.4574 50.4333V51.7511C29.4574 52.9928 30.4711 54.0318 31.7382 54.0318H34.6778C34.7538 54.0318 34.8298 54.1078 34.8298 54.1839C34.8298 54.2852 34.7538 54.3359 34.6778 54.3359Z" fill="#666666"/>
<path d="M46.133 54.3348H43.3708C43.2948 54.3348 43.2188 54.2588 43.2188 54.1828C43.2188 54.1068 43.2948 54.0307 43.3708 54.0307H46.133C47.3748 54.0307 48.4138 53.0171 48.4138 51.75V49.8747C48.4138 49.7987 48.4898 49.7227 48.5658 49.7227C48.6419 49.7227 48.7179 49.7987 48.7179 49.8747V51.7753C48.7179 53.1945 47.5522 54.3348 46.133 54.3348Z" fill="#666666"/>
<path d="M48.5647 44.9345C48.4887 44.9345 48.4127 44.8585 48.4127 44.7824V42.9325C48.4127 41.6908 47.399 40.6518 46.1319 40.6518H43.8005C43.7245 40.6518 43.6484 40.5757 43.6484 40.4997C43.6484 40.4237 43.7245 40.3477 43.8005 40.3477H46.1319C47.5511 40.3477 48.7168 41.5134 48.7168 42.9325V44.7824C48.7168 44.8838 48.6407 44.9345 48.5647 44.9345Z" fill="#666666"/>
<path d="M44.6118 47.8984C43.7756 48.3038 41.951 49.1148 41.0893 49.5202C40.0503 50.0017 38.8846 50.2045 37.8203 49.8497C35.0834 48.9374 31.9664 48.3545 32.0424 48.3799C34.0444 48.6079 36.6292 50.914 39.138 50.8633C40.0757 50.8633 41.1907 50.7873 42.027 50.3312C42.7619 49.9257 44.6118 48.1771 44.6118 48.1771C44.6118 48.1771 44.7892 47.8224 44.6118 47.8984Z" fill="#33C275"/>
<path d="M44.8901 47.0624C44.0032 46.733 41.8998 44.5536 40.9875 44.2242C39.8978 43.8441 38.7828 43.8694 37.6931 44.1988C35.8432 44.7563 31.7125 47.3919 31.7632 47.3412C32.4727 46.6823 36.3753 43.2612 38.8842 43.0585C39.8218 42.9824 40.4047 43.0078 41.2916 43.3626C42.2546 43.7427 44.8901 47.0624 44.8901 47.0624Z" fill="#33C275"/>
<path d="M39.0115 49.7486C40.456 49.7486 41.647 48.5575 41.647 47.1131C41.647 45.6686 40.456 44.4775 39.0115 44.4775C37.567 44.4775 36.376 45.6686 36.376 47.1131C36.376 48.5575 37.567 49.7486 39.0115 49.7486Z" fill="#33C275"/>
<path d="M38.9851 48.1783C39.5933 48.1783 40.1002 47.6715 40.1002 47.0633C40.1002 46.4551 39.5933 45.9482 38.9851 45.9482C38.3769 45.9482 37.8701 46.4551 37.8701 47.0633C37.8701 47.6715 38.3769 48.1783 38.9851 48.1783Z" fill="#242731"/>
<path d="M24.4144 33.733C26.8472 33.733 28.7985 31.7817 28.7985 29.3489C28.7985 26.9161 26.8472 24.9648 24.4144 24.9648C21.9816 24.9648 20.0303 26.9161 20.0303 29.3489C20.0303 31.7817 22.0069 33.733 24.4144 33.733Z" fill="url(#paint17_linear_340_4240)"/>
<path opacity="0.61" d="M20.3611 29.2476C20.2851 29.2476 20.2598 29.1969 20.2598 29.1462C20.2598 28.9688 20.2851 28.7914 20.3104 28.614C20.3104 28.5633 20.3865 28.5126 20.4372 28.538C20.4878 28.538 20.5385 28.614 20.5132 28.6647C20.4878 28.8167 20.4625 28.9941 20.4625 29.1715C20.4625 29.1969 20.4118 29.2476 20.3611 29.2476Z" fill="white"/>
<path opacity="0.61" d="M20.79 27.6262C20.7647 27.6262 20.7647 27.6262 20.7393 27.6262C20.6887 27.6008 20.6633 27.5248 20.6887 27.4741C21.3982 26.055 22.8173 25.1934 24.4139 25.1934C24.6673 25.1934 24.9207 25.2187 25.1741 25.2694C25.2248 25.2694 25.2755 25.3454 25.2501 25.3961C25.2501 25.4468 25.1741 25.4975 25.1234 25.4721C24.8954 25.4214 24.6419 25.3961 24.4139 25.3961C22.9187 25.3961 21.5503 26.2324 20.8914 27.5755C20.866 27.6008 20.8154 27.6262 20.79 27.6262Z" fill="white"/>
<path opacity="0.78" d="M24.5162 33.176C26.5689 33.176 28.2415 31.5035 28.2415 29.4508C28.2415 27.3981 26.5689 25.7256 24.5162 25.7256C22.4636 25.7256 20.791 27.3981 20.791 29.4508C20.791 31.5035 22.4636 33.176 24.5162 33.176Z" fill="white"/>
<path d="M25.6557 28.0566C25.6557 28.6901 25.1489 29.3743 24.5154 29.3743C23.8818 29.3743 23.375 28.6901 23.375 28.0566C23.375 27.423 23.8818 26.9922 24.5154 26.9922C25.1236 26.9669 25.6557 27.423 25.6557 28.0566Z" fill="url(#paint18_linear_340_4240)"/>
<path d="M23.097 31.7834H25.8846C26.1887 31.7834 26.4421 31.606 26.5181 31.3272L26.6702 30.8711C26.7716 30.5163 26.5942 30.1615 26.2647 30.0348C25.1244 29.6294 23.9586 29.68 22.7676 30.0855C22.4381 30.1869 22.2354 30.567 22.3368 30.8964L22.4635 31.3272C22.5142 31.5807 22.7929 31.7834 23.097 31.7834Z" fill="url(#paint19_linear_340_4240)"/>
<path d="M190.148 58.543C206.189 58.543 219.189 45.5427 219.189 29.5015C219.189 13.4602 206.189 0.459961 190.148 0.459961C174.107 0.459961 161.106 13.4602 161.106 29.5015C161.106 45.5427 174.107 58.543 190.148 58.543Z" fill="#33C475"/>
<path d="M208.775 48.4059C219.038 38.1426 219.038 21.4931 208.775 11.2297C198.512 0.966386 181.862 0.966386 171.599 11.2297C161.336 21.4931 161.336 38.1426 171.599 48.4059C181.862 58.6693 198.512 58.6693 208.775 48.4059Z" fill="#D2F8E2"/>
<path d="M198.715 30.2617L194.635 30.4391L176.414 18.9847L178.163 11.5849C178.441 10.3685 179.48 9.53223 180.671 9.53223H198.892C201.173 9.53223 202.921 11.6356 202.617 13.9924L200.767 28.4117C200.565 29.4508 199.703 30.2363 198.715 30.2617Z" fill="#4FA39F"/>
<path d="M176.389 19.0093C176.617 21.6955 177.047 26.5104 177.605 29.5514C177.706 30.1089 178.163 30.5144 178.72 30.565C181.913 30.7931 192.481 31.4267 196.408 30.2609C196.865 30.1342 197.194 29.7288 197.27 29.2473C197.549 27.2199 198.284 21.5181 198.436 18.1476C198.461 17.5141 198.005 16.9566 197.371 16.8552C194.761 16.4751 182.927 16.8045 178.188 16.9566C177.149 16.9819 176.313 17.9196 176.389 19.0093Z" fill="#2F8481"/>
<path d="M187.108 29.1724C190.098 29.1724 192.531 26.7396 192.531 23.7493C192.531 20.759 190.098 18.3262 187.108 18.3262C184.117 18.3262 181.685 20.759 181.685 23.7493C181.685 26.7396 184.117 29.1724 187.108 29.1724Z" fill="#005653"/>
<path d="M187.234 28.4112C189.743 28.4112 191.771 26.3838 191.771 23.875C191.771 21.3662 189.743 19.3389 187.234 19.3389C184.726 19.3389 182.698 21.3662 182.698 23.875C182.698 26.3838 184.726 28.4112 187.234 28.4112Z" fill="#C6F5DA"/>
<path d="M187.233 27.88C189.438 27.88 191.237 26.0808 191.237 23.876C191.237 21.6713 189.438 19.8721 187.233 19.8721C185.029 19.8721 183.229 21.6713 183.229 23.876C183.229 26.0808 185.029 27.88 187.233 27.88Z" fill="#7AE4A9"/>
<path opacity="0.33" d="M186.322 21.7976C186.322 22.1523 186.043 22.4564 185.688 22.4564C185.333 22.4564 185.029 22.1777 185.029 21.7976C185.029 21.4174 185.308 21.1387 185.688 21.1387C186.043 21.164 186.322 21.4428 186.322 21.7976Z" fill="white"/>
<path opacity="0.33" d="M186.727 23.4946C186.524 23.4946 186.347 23.3172 186.347 23.1145C186.347 22.9118 186.524 22.7344 186.727 22.7344C186.93 22.7344 187.107 22.9118 187.107 23.1145C187.107 23.3172 186.93 23.4946 186.727 23.4946Z" fill="white"/>
<path d="M189.515 50.9657C183.585 50.9657 177.934 49.1411 173.145 45.6946C172.663 45.3399 172.562 44.681 172.891 44.1995C173.246 43.718 173.905 43.6166 174.386 43.9461C178.821 47.1138 184.041 48.8117 189.515 48.8117C194.989 48.8117 200.209 47.1391 204.644 43.9461C205.126 43.5913 205.785 43.718 206.139 44.1995C206.494 44.681 206.367 45.3399 205.886 45.6946C201.096 49.1411 195.42 50.9657 189.515 50.9657Z" fill="white"/>
<path d="M189.514 44.9606C184.674 44.9606 180.011 43.4655 176.083 40.6019C175.602 40.2471 175.5 39.5882 175.855 39.1067C176.21 38.6252 176.869 38.5239 177.35 38.8787C180.898 41.4635 185.105 42.8066 189.514 42.8066C193.924 42.8066 198.105 41.4382 201.678 38.8787C202.16 38.5239 202.819 38.6506 203.174 39.1067C203.528 39.5882 203.402 40.2471 202.945 40.6019C198.992 43.4401 194.355 44.9606 189.514 44.9606Z" fill="white"/>
<path d="M189.515 38.7765C186.069 38.7765 182.8 37.6868 180.037 35.6595C179.556 35.3047 179.455 34.6458 179.809 34.1643C180.164 33.6829 180.823 33.5815 181.304 33.9363C183.687 35.7102 186.525 36.6478 189.515 36.6478C192.505 36.6478 195.318 35.7102 197.726 33.9363C198.207 33.5815 198.866 33.6829 199.221 34.1643C199.576 34.6458 199.474 35.3047 198.993 35.6595C196.231 37.6868 192.936 38.7765 189.515 38.7765Z" fill="white"/>
<path d="M195.343 156.312C211.182 156.312 224.004 143.489 224.004 127.651C224.004 111.812 211.182 98.9893 195.343 98.9893C179.505 98.9893 166.682 111.812 166.682 127.651C166.682 143.489 179.53 156.312 195.343 156.312Z" fill="#33C475"/>
<path d="M195.394 153.878C209.712 153.878 221.319 142.272 221.319 127.954C221.319 113.636 209.712 102.029 195.394 102.029C181.076 102.029 169.47 113.636 169.47 127.954C169.47 142.272 181.076 153.878 195.394 153.878Z" fill="#D2F8E2"/>
<path d="M214.983 140.929H176.337C175.273 140.929 174.411 140.068 174.411 139.003V113.814C174.411 112.749 175.273 111.888 176.337 111.888H214.983C216.047 111.888 216.909 112.749 216.909 113.814V139.003C216.909 140.068 216.047 140.929 214.983 140.929Z" fill="url(#paint20_linear_340_4240)"/>
<path d="M215.744 140.929H177.301C176.186 140.929 175.273 140.017 175.273 138.902V113.915C175.273 112.8 176.186 111.888 177.301 111.888H215.744C216.859 111.888 217.771 112.8 217.771 113.915V138.902C217.771 140.017 216.859 140.929 215.744 140.929Z" fill="#2F8481"/>
<path d="M213.489 127.397H196.864C196.104 127.397 195.471 126.789 195.471 126.003V114.878C195.471 114.118 196.079 113.484 196.864 113.484H213.489C214.249 113.484 214.882 114.093 214.882 114.878V126.003C214.857 126.763 214.249 127.397 213.489 127.397Z" fill="#13EA6C"/>
<path d="M213.235 126.813H197.118C196.661 126.813 196.307 126.458 196.307 126.002V115.079C196.307 114.623 196.661 114.269 197.118 114.269H213.235C213.691 114.269 214.046 114.623 214.046 115.079V126.002C214.046 126.433 213.691 126.813 213.235 126.813Z" fill="#5FB2AF"/>
<path d="M211.107 139.282H198.943C197.599 139.282 196.484 138.192 196.484 136.823V131.274C196.484 129.93 197.574 128.815 198.943 128.815H211.107C212.45 128.815 213.565 129.905 213.565 131.274V136.823C213.565 138.192 212.45 139.282 211.107 139.282Z" fill="#3F9390"/>
<path d="M186.526 125.316H178.366C177.732 125.316 177.226 124.81 177.226 124.176V115.383C177.226 114.749 177.732 114.242 178.366 114.242H186.526C187.16 114.242 187.666 114.749 187.666 115.383V124.176C187.666 124.81 187.16 125.316 186.526 125.316Z" fill="#D2F8E2"/>
<path d="M183.51 124.709H181.128C179.328 124.709 177.884 123.265 177.884 121.466V118.551C177.884 116.752 179.328 115.308 181.128 115.308H183.51C185.309 115.308 186.753 116.752 186.753 118.551V121.466C186.753 123.265 185.309 124.709 183.51 124.709Z" fill="#2F8481"/>
<path d="M208.571 126.256C211.308 126.256 213.538 124.026 213.538 121.289C213.538 118.552 211.308 116.322 208.571 116.322C205.835 116.322 203.604 118.552 203.604 121.289C203.604 124.026 205.835 126.256 208.571 126.256Z" fill="#6FDFA1"/>
<path opacity="0.61" d="M204.01 121.162C203.934 121.162 203.908 121.112 203.908 121.061C203.908 120.858 203.934 120.656 203.984 120.478C203.984 120.428 204.06 120.377 204.111 120.402C204.162 120.402 204.212 120.478 204.187 120.529C204.162 120.706 204.136 120.909 204.111 121.086C204.111 121.112 204.06 121.162 204.01 121.162Z" fill="white"/>
<path opacity="0.61" d="M204.492 119.338C204.467 119.338 204.467 119.338 204.441 119.338C204.391 119.313 204.365 119.237 204.391 119.186C205.202 117.59 206.798 116.602 208.598 116.602C208.876 116.602 209.155 116.627 209.434 116.678C209.484 116.678 209.535 116.754 209.51 116.804C209.51 116.855 209.434 116.906 209.383 116.88C209.13 116.83 208.851 116.804 208.572 116.804C206.874 116.804 205.328 117.742 204.568 119.262C204.568 119.313 204.517 119.338 204.492 119.338Z" fill="white"/>
<path opacity="0.78" d="M208.699 125.621C211.03 125.621 212.906 123.746 212.906 121.415C212.906 119.083 211.03 117.208 208.699 117.208C206.367 117.208 204.492 119.083 204.492 121.415C204.492 123.746 206.367 125.621 208.699 125.621Z" fill="white"/>
<path d="M209.991 119.819C209.991 120.529 209.408 121.289 208.699 121.289C207.989 121.289 207.406 120.529 207.406 119.819C207.406 119.109 207.989 118.603 208.699 118.603C209.408 118.603 209.991 119.109 209.991 119.819Z" fill="#13EA6C"/>
<path d="M207.077 124.052H210.245C210.574 124.052 210.878 123.849 210.98 123.52L211.157 122.988C211.284 122.608 211.081 122.177 210.701 122.05C209.409 121.594 208.091 121.645 206.748 122.101C206.368 122.228 206.165 122.633 206.266 123.013L206.393 123.495C206.444 123.824 206.748 124.052 207.077 124.052Z" fill="#13EA6C"/>
<path d="M183.838 137.584H181.38C180.265 137.584 179.378 136.697 179.378 135.582V134.721C179.378 133.606 180.265 132.719 181.38 132.719H183.838C184.953 132.719 185.84 133.606 185.84 134.721V135.582C185.84 136.697 184.928 137.584 183.838 137.584Z" fill="url(#paint21_linear_340_4240)"/>
<path d="M199.729 131.603H198.411C197.803 131.603 197.296 131.096 197.296 130.488C197.296 129.88 197.803 129.373 198.411 129.373H199.729C200.337 129.373 200.844 129.88 200.844 130.488C200.844 131.096 200.362 131.603 199.729 131.603Z" fill="#7CE0A9"/>
<path d="M199.729 133.985H198.411C197.803 133.985 197.296 133.478 197.296 132.87C197.296 132.262 197.803 131.755 198.411 131.755H199.729C200.337 131.755 200.844 132.262 200.844 132.87C200.844 133.478 200.362 133.985 199.729 133.985Z" fill="#7CE0A9"/>
<path d="M199.729 136.341H198.411C197.803 136.341 197.296 135.835 197.296 135.226C197.296 134.618 197.803 134.111 198.411 134.111H199.729C200.337 134.111 200.844 134.618 200.844 135.226C200.844 135.86 200.362 136.341 199.729 136.341Z" fill="#7CE0A9"/>
<path d="M199.729 138.724H198.411C197.803 138.724 197.296 138.217 197.296 137.609C197.296 137.001 197.803 136.494 198.411 136.494H199.729C200.337 136.494 200.844 137.001 200.844 137.609C200.844 138.217 200.362 138.724 199.729 138.724Z" fill="#7CE0A9"/>
<path d="M203.833 131.679H202.515C201.907 131.679 201.4 131.172 201.4 130.564C201.4 129.956 201.907 129.449 202.515 129.449H203.833C204.441 129.449 204.948 129.956 204.948 130.564C204.948 131.172 204.441 131.679 203.833 131.679Z" fill="#7CE0A9"/>
<path d="M203.833 134.062H202.515C201.907 134.062 201.4 133.555 201.4 132.947C201.4 132.339 201.907 131.832 202.515 131.832H203.833C204.441 131.832 204.948 132.339 204.948 132.947C204.948 133.555 204.441 134.062 203.833 134.062Z" fill="#7CE0A9"/>
<path d="M203.833 136.417H202.515C201.907 136.417 201.4 135.91 201.4 135.302C201.4 134.693 201.907 134.187 202.515 134.187H203.833C204.441 134.187 204.948 134.693 204.948 135.302C204.948 135.91 204.441 136.417 203.833 136.417Z" fill="#7CE0A9"/>
<path d="M203.833 138.8H202.515C201.907 138.8 201.4 138.294 201.4 137.685C201.4 137.077 201.907 136.57 202.515 136.57H203.833C204.441 136.57 204.948 137.077 204.948 137.685C204.948 138.294 204.441 138.8 203.833 138.8Z" fill="#7CE0A9"/>
<path d="M207.737 131.704H206.419C205.811 131.704 205.304 131.197 205.304 130.589C205.304 129.98 205.811 129.474 206.419 129.474H207.737C208.345 129.474 208.852 129.98 208.852 130.589C208.826 131.197 208.345 131.704 207.737 131.704Z" fill="#7CE0A9"/>
<path d="M207.737 134.062H206.419C205.811 134.062 205.304 133.555 205.304 132.947C205.304 132.339 205.811 131.832 206.419 131.832H207.737C208.345 131.832 208.852 132.339 208.852 132.947C208.826 133.581 208.345 134.062 207.737 134.062Z" fill="#7CE0A9"/>
<path d="M207.737 136.443H206.419C205.811 136.443 205.304 135.936 205.304 135.328C205.304 134.72 205.811 134.213 206.419 134.213H207.737C208.345 134.213 208.852 134.72 208.852 135.328C208.826 135.936 208.345 136.443 207.737 136.443Z" fill="#7CE0A9"/>
<path d="M207.737 138.825H206.419C205.811 138.825 205.304 138.318 205.304 137.71C205.304 137.102 205.811 136.595 206.419 136.595H207.737C208.345 136.595 208.852 137.102 208.852 137.71C208.826 138.318 208.345 138.825 207.737 138.825Z" fill="#7CE0A9"/>
<path d="M211.663 131.527H210.346C209.737 131.527 209.23 131.02 209.23 130.412C209.23 129.804 209.737 129.297 210.346 129.297H211.663C212.271 129.297 212.778 129.804 212.778 130.412C212.778 131.045 212.297 131.527 211.663 131.527Z" fill="#7CE0A9"/>
<path d="M211.663 133.909H210.346C209.737 133.909 209.23 133.402 209.23 132.794C209.23 132.186 209.737 131.679 210.346 131.679H211.663C212.271 131.679 212.778 132.186 212.778 132.794C212.778 133.427 212.297 133.909 211.663 133.909Z" fill="#7CE0A9"/>
<path d="M211.663 136.291H210.346C209.737 136.291 209.23 135.784 209.23 135.176C209.23 134.567 209.737 134.061 210.346 134.061H211.663C212.271 134.061 212.778 134.567 212.778 135.176C212.778 135.784 212.297 136.291 211.663 136.291Z" fill="#7CE0A9"/>
<path d="M211.663 138.648H210.346C209.737 138.648 209.23 138.141 209.23 137.533C209.23 136.925 209.737 136.418 210.346 136.418H211.663C212.271 136.418 212.778 136.925 212.778 137.533C212.778 138.167 212.297 138.648 211.663 138.648Z" fill="#7CE0A9"/>
<path d="M205.557 115.561H197.575C197.423 115.561 197.296 115.435 197.296 115.283C197.296 115.131 197.423 115.004 197.575 115.004H205.532C205.684 115.004 205.811 115.131 205.811 115.283C205.836 115.435 205.709 115.561 205.557 115.561Z" fill="#B3B3B3"/>
<path d="M186.297 136.773V134.061C186.297 133.884 186.5 133.782 186.652 133.909L188.248 135.379C188.35 135.455 188.324 135.607 188.223 135.683L186.626 136.899C186.5 137.026 186.297 136.925 186.297 136.773Z" fill="url(#paint22_linear_340_4240)"/>
<path d="M178.872 136.773V134.061C178.872 133.884 178.67 133.782 178.517 133.909L176.921 135.379C176.82 135.455 176.845 135.607 176.946 135.683L178.543 136.899C178.695 137.026 178.872 136.925 178.872 136.773Z" fill="url(#paint23_linear_340_4240)"/>
<path d="M177.884 124.356L179.911 120.098C179.936 120.048 180.012 119.997 180.063 119.997H184.853C185.03 119.997 185.182 120.098 185.233 120.276L186.677 125.065C182.521 125.369 177.934 125.268 177.884 124.356Z" fill="#9EF4C4"/>
<path d="M178.517 123.037L179.936 119.768C179.961 119.718 180.012 119.667 180.088 119.667H180.113H184.903C185.03 119.667 185.156 119.692 185.232 119.768C185.258 119.794 185.283 119.819 185.283 119.87L186.094 123.164C186.119 123.291 186.043 123.392 185.917 123.392C182.267 123.443 179.784 123.367 178.669 123.316C178.542 123.291 178.466 123.164 178.517 123.037Z" fill="#6FDFA1"/>
<path d="M192.81 144.756H171.7C170.915 144.756 170.256 144.122 170.256 143.311V132.06C170.256 131.274 170.889 130.615 171.7 130.615H192.81C193.596 130.615 194.254 131.249 194.254 132.06V143.311C194.254 144.122 193.596 144.756 192.81 144.756Z" fill="#5FB2AF"/>
<path opacity="0.61" d="M192.581 144.299H171.877C171.269 144.299 170.762 143.792 170.762 143.184V132.312C170.762 131.704 171.269 131.197 171.877 131.197H192.581C193.189 131.197 193.696 131.704 193.696 132.312V143.184C193.696 143.792 193.189 144.299 192.581 144.299ZM171.877 131.4C171.37 131.4 170.964 131.805 170.964 132.312V143.184C170.964 143.691 171.37 144.096 171.877 144.096H192.581C193.088 144.096 193.493 143.691 193.493 143.184V132.312C193.493 131.805 193.088 131.4 192.581 131.4H171.877Z" fill="white"/>
<path opacity="0.78" d="M189.82 139.84H188.198C186.424 139.84 185.005 138.421 185.005 136.647V135.025C185.005 133.251 186.424 131.832 188.198 131.832H189.82C191.594 131.832 193.013 133.251 193.013 135.025V136.647C193.013 138.396 191.594 139.84 189.82 139.84Z" fill="white"/>
<path d="M189.008 138.825C190.706 138.825 192.074 137.457 192.074 135.759C192.074 134.061 190.706 132.692 189.008 132.692C187.31 132.692 185.941 134.061 185.941 135.759C185.941 137.457 187.31 138.825 189.008 138.825Z" fill="#2F8481"/>
<path opacity="0.61" d="M186.194 135.708C186.118 135.708 186.093 135.657 186.093 135.606C186.093 135.48 186.118 135.353 186.143 135.226C186.143 135.176 186.219 135.125 186.27 135.15C186.321 135.15 186.372 135.226 186.346 135.277C186.321 135.378 186.321 135.505 186.296 135.632C186.296 135.657 186.245 135.708 186.194 135.708Z" fill="white"/>
<path opacity="0.61" d="M186.475 134.593C186.449 134.593 186.449 134.593 186.424 134.593C186.373 134.568 186.348 134.492 186.373 134.441C186.88 133.453 187.894 132.819 189.009 132.819C189.186 132.819 189.364 132.845 189.541 132.87C189.592 132.87 189.642 132.946 189.617 132.997C189.617 133.047 189.541 133.098 189.49 133.073C189.338 133.047 189.161 133.022 189.009 133.022C187.97 133.022 187.032 133.605 186.576 134.517C186.551 134.568 186.525 134.593 186.475 134.593Z" fill="white"/>
<path d="M189.084 138.446C190.528 138.446 191.694 137.28 191.694 135.836C191.694 134.391 190.528 133.226 189.084 133.226C187.639 133.226 186.474 134.391 186.474 135.836C186.474 137.28 187.639 138.446 189.084 138.446Z" fill="#63D998"/>
<path d="M189.87 134.846C189.87 135.277 189.515 135.758 189.084 135.758C188.654 135.758 188.299 135.277 188.299 134.846C188.299 134.415 188.654 134.086 189.084 134.086C189.515 134.086 189.87 134.39 189.87 134.846Z" fill="#4FA39F"/>
<path d="M188.096 137.456H190.047C190.25 137.456 190.427 137.329 190.503 137.127L190.605 136.797C190.681 136.569 190.554 136.29 190.326 136.214C189.54 135.936 188.704 135.961 187.868 136.24C187.64 136.316 187.513 136.569 187.564 136.797L187.64 137.101C187.691 137.304 187.868 137.456 188.096 137.456Z" fill="#4FA39F"/>
<path opacity="0.42" d="M181.356 133.96H172.739C172.233 133.96 171.853 133.555 171.853 133.073C171.853 132.592 172.258 132.187 172.739 132.187H181.356C181.837 132.187 182.243 132.592 182.243 133.073C182.268 133.555 181.862 133.96 181.356 133.96Z" fill="white"/>
<path d="M32.0183 151.04C49.4026 151.04 63.4926 136.95 63.4926 119.566C63.4926 102.182 49.4026 88.0918 32.0183 88.0918C14.6339 88.0918 0.543945 102.182 0.543945 119.566C0.543945 136.95 14.6339 151.04 32.0183 151.04Z" fill="#33C475"/>
<path d="M32.067 148.405C47.8042 148.405 60.551 135.658 60.551 119.921C60.551 104.183 47.8042 91.4365 32.067 91.4365C16.3298 91.4365 3.58301 104.183 3.58301 119.921C3.58301 135.658 16.3298 148.405 32.067 148.405Z" fill="#D2F8E2"/>
<path d="M45.4476 140.119H17.2677C13.1116 140.119 9.74121 136.748 9.74121 132.592V106.034C9.74121 101.878 13.1116 98.5078 17.2677 98.5078H45.4729C49.6289 98.5078 52.9994 101.878 52.9994 106.034V132.592C52.974 136.748 49.6036 140.119 45.4476 140.119Z" fill="url(#paint24_linear_340_4240)"/>
<path d="M45.4469 140.269H19.4718C15.3157 140.269 11.9453 136.899 11.9453 132.743V106.185C11.9453 102.029 15.3157 98.6582 19.4718 98.6582H45.4723C49.6283 98.6582 52.9988 102.029 52.9988 106.185V132.743C52.9734 136.899 49.603 140.269 45.4469 140.269Z" fill="#2F8481"/>
<path d="M45.7526 117.615H40.1521C37.5672 117.615 35.4639 115.511 35.4639 112.926V107.326C35.4639 104.741 37.5672 102.638 40.1521 102.638H45.7526C48.3374 102.638 50.4408 104.741 50.4408 107.326V112.926C50.4408 115.511 48.3374 117.615 45.7526 117.615Z" fill="#106562"/>
<path d="M34.2725 137.583H18.0538C16.7107 137.583 15.5957 136.494 15.5957 135.125V125.039C15.5957 123.696 16.6854 122.581 18.0538 122.581H34.2978C35.6409 122.581 36.756 123.671 36.756 125.039V135.125C36.7306 136.494 35.6409 137.583 34.2725 137.583Z" fill="#B3B3B3"/>
<path d="M19.3979 126.56H18.1815C17.2945 126.56 16.585 125.851 16.585 124.964C16.585 124.077 17.2945 123.367 18.1815 123.367H19.3979C20.2848 123.367 20.9944 124.077 20.9944 124.964C20.9944 125.851 20.2595 126.56 19.3979 126.56Z" fill="#004845"/>
<path d="M19.3979 129.981H18.1815C17.2945 129.981 16.585 129.272 16.585 128.385C16.585 127.498 17.2945 126.788 18.1815 126.788H19.3979C20.2848 126.788 20.9944 127.498 20.9944 128.385C20.9944 129.272 20.2595 129.981 19.3979 129.981Z" fill="#004845"/>
<path d="M19.3979 133.378H18.1815C17.2945 133.378 16.585 132.668 16.585 131.781C16.585 130.894 17.2945 130.185 18.1815 130.185H19.3979C20.2848 130.185 20.9944 130.894 20.9944 131.781C20.9944 132.643 20.2595 133.378 19.3979 133.378Z" fill="#004845"/>
<path d="M19.3979 136.773H18.1815C17.2945 136.773 16.585 136.064 16.585 135.177C16.585 134.29 17.2945 133.58 18.1815 133.58H19.3979C20.2848 133.58 20.9944 134.29 20.9944 135.177C20.9944 136.064 20.2595 136.773 19.3979 136.773Z" fill="#004845"/>
<path d="M24.4399 126.661H23.2235C22.3365 126.661 21.627 125.951 21.627 125.064C21.627 124.177 22.3365 123.468 23.2235 123.468H24.4399C25.3268 123.468 26.0364 124.177 26.0364 125.064C26.0364 125.951 25.3268 126.661 24.4399 126.661Z" fill="#004845"/>
<path d="M24.4399 130.083H23.2235C22.3365 130.083 21.627 129.373 21.627 128.486C21.627 127.599 22.3365 126.89 23.2235 126.89H24.4399C25.3268 126.89 26.0364 127.599 26.0364 128.486C26.0364 129.373 25.3268 130.083 24.4399 130.083Z" fill="#004845"/>
<path d="M24.4399 133.453H23.2235C22.3365 133.453 21.627 132.743 21.627 131.856C21.627 130.969 22.3365 130.26 23.2235 130.26H24.4399C25.3268 130.26 26.0364 130.969 26.0364 131.856C26.0364 132.743 25.3268 133.453 24.4399 133.453Z" fill="#004845"/>
<path d="M24.4399 136.875H23.2235C22.3365 136.875 21.627 136.165 21.627 135.278C21.627 134.391 22.3365 133.682 23.2235 133.682H24.4399C25.3268 133.682 26.0364 134.391 26.0364 135.278C26.0364 136.165 25.3268 136.875 24.4399 136.875Z" fill="#004845"/>
<path d="M29.2797 126.712H28.0633C27.1764 126.712 26.4668 126.002 26.4668 125.115C26.4668 124.228 27.1764 123.519 28.0633 123.519H29.2797C30.1667 123.519 30.8762 124.228 30.8762 125.115C30.8762 125.977 30.1667 126.712 29.2797 126.712Z" fill="#004845"/>
<path d="M29.2797 130.107H28.0633C27.1764 130.107 26.4668 129.398 26.4668 128.511C26.4668 127.624 27.1764 126.914 28.0633 126.914H29.2797C30.1667 126.914 30.8762 127.624 30.8762 128.511C30.8762 129.398 30.1667 130.107 29.2797 130.107Z" fill="#004845"/>
<path d="M29.2797 133.504H28.0633C27.1764 133.504 26.4668 132.794 26.4668 131.907C26.4668 131.02 27.1764 130.311 28.0633 130.311H29.2797C30.1667 130.311 30.8762 131.02 30.8762 131.907C30.8762 132.769 30.1667 133.504 29.2797 133.504Z" fill="#004845"/>
<path d="M29.2797 136.899H28.0633C27.1764 136.899 26.4668 136.19 26.4668 135.303C26.4668 134.416 27.1764 133.706 28.0633 133.706H29.2797C30.1667 133.706 30.8762 134.416 30.8762 135.303C30.8762 136.19 30.1667 136.899 29.2797 136.899Z" fill="#004845"/>
<path d="M34.1713 126.484H32.9549C32.068 126.484 31.3584 125.774 31.3584 124.888C31.3584 124.001 32.068 123.291 32.9549 123.291H34.1713C35.0583 123.291 35.7678 124.001 35.7678 124.888C35.7678 125.749 35.0583 126.484 34.1713 126.484Z" fill="#004845"/>
<path d="M34.1713 129.881H32.9549C32.068 129.881 31.3584 129.171 31.3584 128.284C31.3584 127.397 32.068 126.688 32.9549 126.688H34.1713C35.0583 126.688 35.7678 127.397 35.7678 128.284C35.7678 129.171 35.0583 129.881 34.1713 129.881Z" fill="#004845"/>
<path d="M34.1713 133.276H32.9549C32.068 133.276 31.3584 132.566 31.3584 131.68C31.3584 130.793 32.068 130.083 32.9549 130.083H34.1713C35.0583 130.083 35.7678 130.793 35.7678 131.68C35.7678 132.566 35.0583 133.276 34.1713 133.276Z" fill="#004845"/>
<path d="M34.1713 136.672H32.9549C32.068 136.672 31.3584 135.962 31.3584 135.075C31.3584 134.188 32.068 133.479 32.9549 133.479H34.1713C35.0583 133.479 35.7678 134.188 35.7678 135.075C35.7678 135.962 35.0583 136.672 34.1713 136.672Z" fill="#004845"/>
<path d="M28.0126 116.905H16.6595C15.6458 116.905 14.8096 116.069 14.8096 115.055V105.704C14.8096 104.691 15.6458 103.854 16.6595 103.854H28.0126C29.0262 103.854 29.8625 104.691 29.8625 105.704V115.055C29.8625 116.095 29.0516 116.905 28.0126 116.905Z" fill="#A1EAC1"/>
<path d="M18.4827 109.808L20.7888 112.317C20.8902 112.444 21.0929 112.419 21.1689 112.267L24.4126 106.413C24.438 106.337 24.514 106.311 24.59 106.286L26.44 106.109C26.6427 106.083 26.7694 106.286 26.668 106.463L21.2956 115.662C21.2196 115.789 21.0169 115.814 20.9155 115.713L16.8608 111.202C16.7848 111.101 16.7848 110.949 16.8862 110.873L18.1279 109.783C18.2546 109.707 18.4067 109.732 18.4827 109.808Z" fill="#207572"/>
<path d="M38.9352 117.183H37.0346C36.6038 117.183 36.2236 116.828 36.2236 116.372V114.446C36.2236 114.37 36.2997 114.294 36.3757 114.294C36.4517 114.294 36.5277 114.37 36.5277 114.446V116.372C36.5277 116.651 36.7558 116.879 37.0346 116.879H38.9352C39.0112 116.879 39.0872 116.955 39.0872 117.031C39.0872 117.107 39.0366 117.183 38.9352 117.183Z" fill="url(#paint25_linear_340_4240)"/>
<path d="M49.0964 117.184H47.0944C47.0184 117.184 46.9424 117.108 46.9424 117.032C46.9424 116.956 47.0184 116.88 47.0944 116.88H49.0964C49.3245 116.88 49.5272 116.677 49.5272 116.449V114.472C49.5272 114.396 49.6033 114.32 49.6793 114.32C49.7553 114.32 49.8313 114.396 49.8313 114.472V116.449C49.8313 116.854 49.5019 117.184 49.0964 117.184Z" fill="url(#paint26_linear_340_4240)"/>
<path d="M49.6789 107.326C49.6029 107.326 49.5269 107.25 49.5269 107.174V104.386C49.5269 104.107 49.2988 103.854 48.9947 103.854H45.903C45.827 103.854 45.751 103.778 45.751 103.702C45.751 103.626 45.827 103.55 45.903 103.55H48.9947C49.4509 103.55 49.8056 103.93 49.8056 104.361V107.148C49.831 107.275 49.755 107.326 49.6789 107.326Z" fill="url(#paint27_linear_340_4240)"/>
<path d="M36.4021 107.022C36.326 107.022 36.25 106.946 36.25 106.87V104.437C36.25 103.955 36.6301 103.575 37.1116 103.575H39.6711C39.7471 103.575 39.8232 103.651 39.8232 103.727C39.8232 103.803 39.7471 103.879 39.6711 103.879H37.1116C36.8075 103.879 36.5541 104.133 36.5541 104.437V106.87C36.5541 106.946 36.4781 107.022 36.4021 107.022Z" fill="url(#paint28_linear_340_4240)"/>
<path d="M45.3721 104.995C45.3468 104.995 45.3214 104.995 45.2961 104.97C44.4345 104.285 43.3954 104.083 41.9763 104.336C41.9256 104.336 41.875 104.311 41.8496 104.26C41.8496 104.209 41.875 104.159 41.9256 104.133C43.4208 103.88 44.4851 104.083 45.3974 104.818C45.4481 104.843 45.4481 104.919 45.4228 104.97C45.4481 104.97 45.3974 104.995 45.3721 104.995Z" fill="url(#paint29_linear_340_4240)"/>
<path d="M46.7664 106.413C46.741 106.413 46.7157 106.413 46.6903 106.388C44.5109 104.69 42.5343 104.335 40.6337 105.298C40.583 105.324 40.507 105.298 40.4816 105.248C40.4563 105.197 40.4816 105.121 40.5323 105.096C42.509 104.107 44.5616 104.462 46.7917 106.211C46.8424 106.236 46.8424 106.312 46.817 106.363C46.817 106.388 46.7917 106.413 46.7664 106.413Z" fill="url(#paint30_linear_340_4240)"/>
<path d="M47.0951 107.377C47.0698 107.377 47.0444 107.377 47.0191 107.352C44.1048 105.046 41.9508 104.691 39.8474 106.11C39.7967 106.135 39.7207 106.135 39.6954 106.085C39.67 106.034 39.67 105.958 39.7207 105.933C41.9254 104.438 44.1301 104.818 47.1458 107.174C47.1965 107.2 47.1965 107.276 47.1711 107.326C47.1711 107.377 47.1205 107.377 47.0951 107.377Z" fill="url(#paint31_linear_340_4240)"/>
<path d="M38.7825 112.393C38.7572 112.393 38.7319 112.393 38.7065 112.367C38.6558 112.317 38.6812 112.266 38.7065 112.215L41.9502 109.402C42.3304 109.073 42.6345 108.921 42.9132 108.946C43.2427 108.972 43.4454 109.225 43.6735 109.504C43.9269 109.833 44.2057 110.137 44.7125 110.137C44.8899 110.137 45.0673 110.036 45.1433 109.859C45.2447 109.681 45.2447 109.504 45.1433 109.326C44.9912 109.073 44.7125 108.921 44.4084 108.769C43.6988 108.414 43.0653 108.161 42.4064 108.262C41.266 108.465 40.3284 109.656 39.5175 110.695C39.2134 111.1 38.9093 111.455 38.6305 111.759C38.5798 111.81 38.5291 111.81 38.4784 111.759C38.4278 111.708 38.4278 111.658 38.4784 111.607C38.7572 111.303 39.036 110.948 39.3401 110.543C40.1763 109.453 41.114 108.237 42.3557 108.034C43.0653 107.907 43.7495 108.186 44.4844 108.566C44.7632 108.718 45.1433 108.87 45.3207 109.2C45.4474 109.428 45.4474 109.706 45.3207 109.935C45.194 110.163 44.9659 110.315 44.7125 110.315C44.1043 110.34 43.8002 109.96 43.4961 109.605C43.2934 109.352 43.116 109.149 42.8879 109.124C42.6852 109.098 42.4064 109.225 42.077 109.529L38.8332 112.342C38.8332 112.367 38.8079 112.393 38.7825 112.393Z" fill="url(#paint32_linear_340_4240)"/>
<path d="M38.9872 113.205C38.9619 113.205 38.9112 113.18 38.9112 113.155C38.8858 113.104 38.8858 113.053 38.9365 113.003C39.5954 112.547 40.1783 111.964 40.7611 111.431C41.5214 110.722 42.2309 110.038 42.9152 109.759C43.2953 109.632 43.498 109.86 43.7514 110.139C43.9035 110.291 44.0555 110.469 44.3089 110.646C44.8665 111.026 45.2466 110.747 45.424 110.545C45.7027 110.215 45.8041 109.683 45.6267 109.506C45.576 109.455 45.6014 109.404 45.6267 109.353C45.6774 109.303 45.7281 109.328 45.7788 109.353C46.0575 109.632 45.9562 110.266 45.6014 110.697C45.2212 111.127 44.6891 111.178 44.2076 110.823C43.9542 110.646 43.7768 110.443 43.6247 110.291C43.3713 110.012 43.2446 109.886 43.0165 109.962C42.383 110.215 41.6734 110.874 40.9385 111.584C40.3556 112.141 39.7474 112.699 39.0886 113.18C39.0379 113.205 39.0125 113.205 38.9872 113.205Z" fill="url(#paint33_linear_340_4240)"/>
<path d="M38.5809 110.976C38.5556 110.976 38.5303 110.976 38.5303 110.951C38.4796 110.925 38.4796 110.849 38.5049 110.799C39.8227 108.847 41.2165 107.149 43.8013 107.58C44.7136 107.732 45.4739 108.518 46.2088 109.278C46.7663 109.861 47.2985 110.393 47.856 110.672C47.9067 110.697 47.932 110.748 47.9067 110.824C47.8813 110.875 47.8307 110.9 47.7546 110.875C47.1464 110.57 46.5889 110.013 46.0314 109.455C45.3218 108.721 44.5869 107.986 43.7506 107.834C41.2925 107.428 39.9494 109.075 38.6823 110.976C38.657 110.951 38.6316 110.976 38.5809 110.976Z" fill="url(#paint34_linear_340_4240)"/>
<path d="M47.8044 110.012C47.779 110.012 47.7537 110.012 47.7284 109.987C47.3989 109.734 47.0441 109.43 46.6893 109.126C45.7264 108.289 44.6367 107.326 43.547 107.149C41.3169 106.794 39.9992 107.934 38.7067 109.784C38.6814 109.835 38.6054 109.835 38.5547 109.81C38.504 109.784 38.504 109.708 38.5293 109.658C39.8724 107.757 41.2662 106.541 43.5977 106.946C44.738 107.149 45.8531 108.137 46.8414 108.973C47.1962 109.278 47.551 109.582 47.8804 109.835C47.9311 109.86 47.9311 109.936 47.9057 109.987C47.8551 110.012 47.8297 110.012 47.8044 110.012Z" fill="url(#paint35_linear_340_4240)"/>
<path d="M47.7288 108.796C47.1713 108.694 46.5631 108.162 45.9549 107.63C45.22 106.997 44.409 106.262 43.5474 106.11C41.14 105.704 39.9996 106.515 38.9352 107.96C38.9099 108.01 38.8339 108.01 38.7832 107.985C38.7325 107.96 38.7325 107.884 38.7579 107.833C39.8475 106.363 41.0639 105.476 43.5728 105.882C44.4851 106.059 45.3467 106.794 46.0816 107.453C46.6898 107.985 47.2473 108.492 47.7288 108.568C47.7795 108.568 47.8302 108.644 47.8048 108.694C47.8302 108.77 47.7795 108.796 47.7288 108.796Z" fill="url(#paint36_linear_340_4240)"/>
<path d="M39.2908 114.016C39.2655 114.016 39.2401 114.016 39.2148 113.991C39.1641 113.94 39.1641 113.89 39.2148 113.839C39.4175 113.636 39.6202 113.408 39.8483 113.205C41.0394 111.989 42.1544 110.823 42.7373 110.747C43.1427 110.646 43.8269 111.203 44.5365 111.786L44.7139 111.938C45.4995 112.243 46.6399 112.141 47.7042 111.685C47.7549 111.66 47.8309 111.685 47.8309 111.736C47.8563 111.786 47.8309 111.862 47.7802 111.862C46.6652 112.344 45.4488 112.445 44.6125 112.116H44.5872L44.3845 111.938C43.7763 111.432 43.0667 110.849 42.7626 110.95H42.7373C42.2304 111.001 41.014 112.243 39.9497 113.358C39.7469 113.586 39.5189 113.788 39.3161 114.016C39.3415 114.016 39.3161 114.016 39.2908 114.016Z" fill="url(#paint37_linear_340_4240)"/>
<path d="M39.6453 114.725C39.6199 114.725 39.5946 114.725 39.5693 114.7C39.5186 114.649 39.5186 114.599 39.5693 114.548C39.924 114.168 40.2788 113.762 40.5829 113.433C41.3178 112.571 41.8754 111.963 42.3568 111.887C42.737 111.786 43.3198 112.293 43.9787 112.85C44.1054 112.951 44.2321 113.078 44.3588 113.179C45.2965 113.534 46.6396 112.85 47.6026 112.369C47.6532 112.343 47.7293 112.369 47.7546 112.419C47.78 112.47 47.7546 112.546 47.7039 112.571C46.6903 113.078 45.2965 113.788 44.2575 113.382H44.2321H44.2068C44.0801 113.281 43.9534 113.154 43.8013 113.053C43.2438 112.597 42.6356 112.064 42.3568 112.14H42.3315C41.926 112.191 41.3939 112.825 40.6843 113.61C40.3802 113.965 40.0508 114.345 39.6706 114.751C39.696 114.725 39.6706 114.725 39.6453 114.725Z" fill="url(#paint38_linear_340_4240)"/>
<path d="M40.076 115.536C40.0506 115.536 40.0253 115.536 39.9999 115.51C39.9492 115.46 39.9492 115.409 39.9999 115.358C40.4307 114.928 40.7855 114.497 41.0896 114.142C41.7232 113.407 42.1286 112.926 42.6101 112.85C42.9396 112.774 43.3957 113.204 43.9532 113.762C44.1813 113.99 44.4347 114.218 44.6628 114.395C45.0683 114.547 45.6258 114.421 46.4114 114.015C46.462 113.99 46.5381 114.015 46.5634 114.066C46.5888 114.117 46.5634 114.193 46.5127 114.218C45.9552 114.497 45.1696 114.852 44.5614 114.598H44.5361H44.5107C44.2827 114.395 44.0292 114.167 43.7758 113.939C43.345 113.508 42.8382 113.027 42.6355 113.078H42.6101C42.23 113.128 41.7992 113.61 41.2163 114.294C40.9122 114.649 40.5574 115.08 40.1266 115.51C40.1266 115.51 40.1013 115.536 40.076 115.536Z" fill="url(#paint39_linear_340_4240)"/>
<path d="M44.8652 115.537C44.7131 115.537 44.5864 115.511 44.5104 115.486H44.4851H44.4597C44.2316 115.283 43.9782 115.055 43.7248 114.827C43.294 114.396 42.7872 113.915 42.5844 113.965H42.5591C42.3817 113.991 42.2043 114.092 41.9762 114.295C41.9256 114.345 41.8749 114.32 41.8242 114.295C41.7735 114.244 41.7988 114.193 41.8242 114.143C42.0776 113.915 42.3057 113.788 42.5338 113.763C42.8632 113.687 43.3193 114.117 43.8769 114.675C44.1049 114.903 44.3583 115.131 44.5864 115.308C44.7892 115.385 45.4734 115.359 46.335 114.928C46.3857 114.903 46.4617 114.928 46.487 114.979C46.5124 115.03 46.487 115.106 46.4364 115.131C45.8028 115.41 45.22 115.537 44.8652 115.537Z" fill="url(#paint40_linear_340_4240)"/>
<path d="M44.7135 116.119C43.8012 116.119 43.3197 115.714 42.9396 115.41C42.382 114.928 42.0273 114.65 40.6588 116.018C40.6081 116.069 40.5574 116.069 40.5068 116.018C40.4561 115.967 40.4561 115.917 40.5068 115.866C42.0273 114.371 42.4834 114.751 43.0663 115.258C43.5731 115.689 44.2066 116.221 45.8792 115.739C45.9299 115.714 46.0059 115.765 46.0059 115.815C46.0312 115.866 45.9806 115.942 45.9299 115.942C45.4737 116.069 45.0683 116.119 44.7135 116.119Z" fill="url(#paint41_linear_340_4240)"/>
<path d="M44.5611 116.778C42.8886 116.271 41.9003 116.22 41.4948 116.6C41.4441 116.651 41.3934 116.626 41.3427 116.6C41.2921 116.55 41.3174 116.499 41.3427 116.448C41.8242 116.018 42.8379 116.043 44.5865 116.575C44.6372 116.601 44.6625 116.651 44.6625 116.702C44.6371 116.753 44.6118 116.778 44.5611 116.778Z" fill="url(#paint42_linear_340_4240)"/>
<path d="M40.1767 115.536C40.1513 115.536 40.126 115.511 40.1007 115.486C39.8979 115.232 39.7205 114.979 39.5431 114.675C39.5178 114.624 39.5431 114.548 39.5938 114.523C39.6445 114.497 39.7205 114.523 39.7459 114.573C39.8979 114.852 40.0753 115.106 40.2781 115.359C40.3034 115.41 40.3034 115.46 40.2527 115.511C40.2274 115.511 40.202 115.536 40.1767 115.536Z" fill="white"/>
<path d="M82.8514 104.994H74.9702C74.5394 104.994 74.1846 104.639 74.1846 104.208C74.1846 103.777 74.5394 103.423 74.9702 103.423H82.522L87.5143 98.4302C87.6663 98.2782 87.8691 98.2021 88.0718 98.2021H95.953C96.3838 98.2021 96.7386 98.5569 96.7386 98.9877C96.7386 99.4185 96.3838 99.7733 95.953 99.7733H88.4012L83.4089 104.766C83.2569 104.918 83.0541 104.994 82.8514 104.994Z" fill="#004340"/>
<path d="M68.4333 111.202C64.4546 111.202 61.1855 107.959 61.1855 103.955C61.1855 99.9508 64.4293 96.707 68.4333 96.707C72.4372 96.707 75.681 99.9508 75.681 103.955C75.681 107.959 72.4372 111.202 68.4333 111.202ZM68.4333 98.3036C65.3162 98.3036 62.7821 100.838 62.7821 103.955C62.7821 107.072 65.3162 109.606 68.4333 109.606C71.5503 109.606 74.0844 107.072 74.0844 103.955C74.0844 100.838 71.5503 98.3036 68.4333 98.3036Z" fill="#004340"/>
<path d="M95.4472 77.3977H75.326C75.1232 77.3977 74.9205 77.3217 74.7685 77.1696L66.8619 69.263C66.5578 68.9589 66.5578 68.4521 66.8619 68.148C67.166 67.8439 67.6728 67.8439 67.9769 68.148L75.6554 75.8265H95.4472C95.878 75.8265 96.2328 76.1813 96.2328 76.6121C96.2328 77.0429 95.878 77.3977 95.4472 77.3977Z" fill="#004340"/>
<path d="M77.3287 89.6368H43.0668C42.636 89.6368 42.2812 89.282 42.2812 88.8512C42.2812 88.4204 42.636 88.0656 43.0668 88.0656H76.9993L84.247 80.8179C84.3991 80.6659 84.6018 80.5898 84.8045 80.5898H97.8808C98.3116 80.5898 98.6664 80.9446 98.6664 81.3754C98.6664 81.8062 98.3116 82.161 97.8808 82.161H85.134L77.9116 89.4087C77.7595 89.5608 77.5568 89.6368 77.3287 89.6368Z" fill="#004340"/>
<path d="M82.4467 95.1618C82.244 95.1618 82.0413 95.0858 81.8892 94.9337C81.5851 94.6296 81.5851 94.1228 81.8892 93.8187L85.0316 90.6763C85.1836 90.5243 85.3864 90.4482 85.5891 90.4482H99.2736C99.7044 90.4482 100.059 90.803 100.059 91.2338C100.059 91.6647 99.7044 92.0194 99.2736 92.0194H85.9185L83.0042 94.9337C82.8522 95.0858 82.6495 95.1618 82.4467 95.1618Z" fill="#004340"/>
<path d="M80.8244 98.4048C79.4813 98.4048 78.417 97.3151 78.417 95.9973C78.417 94.6542 79.5067 93.5898 80.8244 93.5898C82.1676 93.5898 83.2319 94.6795 83.2319 95.9973C83.2572 97.3151 82.1676 98.4048 80.8244 98.4048ZM80.8244 95.161C80.3683 95.161 79.9882 95.5411 79.9882 95.9973C79.9882 96.4534 80.3683 96.8336 80.8244 96.8336C81.2806 96.8336 81.6607 96.4534 81.6607 95.9973C81.6607 95.5411 81.2806 95.161 80.8244 95.161Z" fill="#004340"/>
<path d="M65.9739 69.6928C64.3773 69.6928 63.0596 68.4004 63.0596 66.7785C63.0596 65.182 64.352 63.8643 65.9739 63.8643C67.5704 63.8643 68.8881 65.1567 68.8881 66.7785C68.8881 68.3751 67.5704 69.6928 65.9739 69.6928ZM65.9739 65.4608C65.239 65.4608 64.6561 66.0436 64.6561 66.7785C64.6561 67.5135 65.239 68.0963 65.9739 68.0963C66.7088 68.0963 67.2916 67.5135 67.2916 66.7785C67.2916 66.0436 66.7088 65.4608 65.9739 65.4608Z" fill="#004340"/>
<path d="M169.648 78.918H155.583C155.153 78.918 154.798 78.5632 154.798 78.1324C154.798 77.7016 155.153 77.3468 155.583 77.3468H169.319L177.605 69.0601C177.757 68.9081 177.96 68.832 178.163 68.832H188.046C188.477 68.832 188.832 69.1868 188.832 69.6176C188.832 70.0484 188.477 70.4032 188.046 70.4032H178.492L170.206 78.6899C170.079 78.842 169.876 78.918 169.648 78.918Z" fill="#004340"/>
<path d="M172.612 82.7701H154.999C154.569 82.7701 154.214 82.4153 154.214 81.9845C154.214 81.5537 154.569 81.1989 154.999 81.1989H172.282L178.795 74.6861C178.947 74.534 179.15 74.458 179.353 74.458H183.914C184.345 74.458 184.7 74.8128 184.7 75.2436C184.7 75.6744 184.345 76.0292 183.914 76.0292H179.657L173.144 82.542C173.017 82.6687 172.815 82.7701 172.612 82.7701Z" fill="#004340"/>
<path d="M190.655 72.4292C189.059 72.4292 187.741 71.1367 187.741 69.5149C187.741 67.9184 189.034 66.6006 190.655 66.6006C192.252 66.6006 193.57 67.893 193.57 69.5149C193.57 71.1367 192.252 72.4292 190.655 72.4292ZM190.655 68.1971C189.921 68.1971 189.338 68.78 189.338 69.5149C189.338 70.2498 189.921 70.8326 190.655 70.8326C191.39 70.8326 191.973 70.2498 191.973 69.5149C191.973 68.8053 191.39 68.1971 190.655 68.1971Z" fill="#004340"/>
<path d="M146.156 67.311C145.953 67.311 145.75 67.235 145.598 67.0829C145.294 66.7788 145.294 66.272 145.598 65.9679L151.883 59.6832C152.035 59.5311 152.238 59.4551 152.44 59.4551H158.244C158.674 59.4551 159.029 59.8099 159.029 60.2407C159.029 60.6715 158.674 61.0263 158.244 61.0263H152.77L146.713 67.0829C146.561 67.235 146.358 67.311 146.156 67.311Z" fill="#004340"/>
<path d="M165.389 68.0955C161.056 68.0955 157.508 64.573 157.508 60.2143C157.508 55.8555 161.03 52.333 165.389 52.333C169.722 52.333 173.27 55.8555 173.27 60.2143C173.27 64.573 169.722 68.0955 165.389 68.0955ZM165.389 53.9295C161.917 53.9295 159.104 56.7424 159.104 60.2143C159.104 63.6861 161.917 66.499 165.389 66.499C168.861 66.499 171.674 63.6861 171.674 60.2143C171.674 56.7424 168.836 53.9295 165.389 53.9295Z" fill="#004340"/>
<path d="M201.526 96.5039H189.033C188.83 96.5039 188.627 96.4279 188.475 96.2758L178.009 85.8098C170.001 85.7084 157.356 85.607 156.241 85.7844C155.861 85.8858 155.455 85.7084 155.303 85.3536C155.126 84.9481 155.303 84.492 155.708 84.3146C155.962 84.1879 156.241 84.0612 167.442 84.1372C172.89 84.1626 178.339 84.2386 178.389 84.2386C178.592 84.2386 178.795 84.3146 178.947 84.4666L189.413 94.9327H201.577C202.008 94.9327 202.362 95.2875 202.362 95.7183C202.362 96.1491 201.957 96.5039 201.526 96.5039Z" fill="#004340"/>
<path d="M213.868 108.086C206.899 108.086 201.223 102.409 201.223 95.4404C201.223 88.4714 206.899 82.7949 213.868 82.7949C220.837 82.7949 226.514 88.4714 226.514 95.4404C226.514 102.409 220.837 108.086 213.868 108.086ZM213.868 84.3914C207.761 84.3914 202.819 89.3584 202.819 95.4404C202.819 101.548 207.786 106.489 213.868 106.489C219.975 106.489 224.917 101.522 224.917 95.4404C224.917 89.3331 219.95 84.3914 213.868 84.3914Z" fill="#004340"/>
<path d="M215.288 102.713V95.6937C217.138 95.2122 218.481 93.565 218.481 91.5631C218.481 89.2063 216.58 87.3057 214.223 87.3057C211.866 87.3057 209.966 89.2063 209.966 91.5631C209.966 93.6411 211.461 95.3643 213.438 95.7444V97.7464H212.373C211.968 97.7464 211.638 98.0759 211.638 98.4813V98.5067C211.638 98.9121 211.968 99.2416 212.373 99.2416H213.438V101.092H211.765C211.36 101.092 211.03 101.421 211.03 101.826V101.852C211.03 102.257 211.36 102.587 211.765 102.587H213.412V102.739C213.412 103.246 213.818 103.651 214.325 103.651H214.35C214.857 103.626 215.288 103.22 215.288 102.713ZM211.588 91.5631C211.588 90.1186 212.753 88.9275 214.223 88.9275C215.693 88.9275 216.859 90.0932 216.859 91.5631C216.859 93.0075 215.693 94.1986 214.223 94.1986C212.753 94.1986 211.588 93.0075 211.588 91.5631Z" fill="#004340"/>
<defs>
<linearGradient id="paint0_linear_340_4240" x1="55.0149" y1="38.3636" x2="18.3301" y2="37.5179" gradientUnits="userSpaceOnUse">
<stop stop-color="#4D4D4D"/>
<stop offset="1" stop-color="#B3B3B3"/>
</linearGradient>
<linearGradient id="paint1_linear_340_4240" x1="53.5485" y1="5.45686" x2="40.8759" y2="25.8521" gradientUnits="userSpaceOnUse">
<stop stop-color="#4D4D4D"/>
<stop offset="1" stop-color="#B3B3B3"/>
</linearGradient>
<linearGradient id="paint2_linear_340_4240" x1="54.7421" y1="6.37944" x2="42.0696" y2="26.7746" gradientUnits="userSpaceOnUse">
<stop stop-color="#4D4D4D"/>
<stop offset="1" stop-color="#B3B3B3"/>
</linearGradient>
<linearGradient id="paint3_linear_340_4240" x1="55.9313" y1="7.29902" x2="43.2587" y2="27.694" gradientUnits="userSpaceOnUse">
<stop stop-color="#4D4D4D"/>
<stop offset="1" stop-color="#B3B3B3"/>
</linearGradient>
<linearGradient id="paint4_linear_340_4240" x1="57.1249" y1="8.22157" x2="44.4523" y2="28.6165" gradientUnits="userSpaceOnUse">
<stop stop-color="#4D4D4D"/>
<stop offset="1" stop-color="#B3B3B3"/>
</linearGradient>
<linearGradient id="paint5_linear_340_4240" x1="56.1332" y1="6.93287" x2="43.4606" y2="27.3278" gradientUnits="userSpaceOnUse">
<stop stop-color="#4D4D4D"/>
<stop offset="1" stop-color="#B3B3B3"/>
</linearGradient>
<linearGradient id="paint6_linear_340_4240" x1="57.3268" y1="7.85539" x2="44.6542" y2="28.2503" gradientUnits="userSpaceOnUse">
<stop stop-color="#4D4D4D"/>
<stop offset="1" stop-color="#B3B3B3"/>
</linearGradient>
<linearGradient id="paint7_linear_340_4240" x1="58.5184" y1="8.77561" x2="45.8458" y2="29.1705" gradientUnits="userSpaceOnUse">
<stop stop-color="#4D4D4D"/>
<stop offset="1" stop-color="#B3B3B3"/>
</linearGradient>
<linearGradient id="paint8_linear_340_4240" x1="59.7183" y1="9.70179" x2="47.0457" y2="30.097" gradientUnits="userSpaceOnUse">
<stop stop-color="#4D4D4D"/>
<stop offset="1" stop-color="#B3B3B3"/>
</linearGradient>
<linearGradient id="paint9_linear_340_4240" x1="58.5955" y1="8.33232" x2="45.9229" y2="28.7275" gradientUnits="userSpaceOnUse">
<stop stop-color="#4D4D4D"/>
<stop offset="1" stop-color="#B3B3B3"/>
</linearGradient>
<linearGradient id="paint10_linear_340_4240" x1="59.7891" y1="9.25584" x2="47.1165" y2="29.651" gradientUnits="userSpaceOnUse">
<stop stop-color="#4D4D4D"/>
<stop offset="1" stop-color="#B3B3B3"/>
</linearGradient>
<linearGradient id="paint11_linear_340_4240" x1="60.9808" y1="10.1761" x2="48.3082" y2="30.571" gradientUnits="userSpaceOnUse">
<stop stop-color="#4D4D4D"/>
<stop offset="1" stop-color="#B3B3B3"/>
</linearGradient>
<linearGradient id="paint12_linear_340_4240" x1="62.1809" y1="11.1027" x2="49.508" y2="31.4976" gradientUnits="userSpaceOnUse">
<stop stop-color="#4D4D4D"/>
<stop offset="1" stop-color="#B3B3B3"/>
</linearGradient>
<linearGradient id="paint13_linear_340_4240" x1="61.0087" y1="9.68789" x2="48.3362" y2="30.0828" gradientUnits="userSpaceOnUse">
<stop stop-color="#4D4D4D"/>
<stop offset="1" stop-color="#B3B3B3"/>
</linearGradient>
<linearGradient id="paint14_linear_340_4240" x1="62.2" y1="10.6086" x2="49.5271" y2="31.0039" gradientUnits="userSpaceOnUse">
<stop stop-color="#4D4D4D"/>
<stop offset="1" stop-color="#B3B3B3"/>
</linearGradient>
<linearGradient id="paint15_linear_340_4240" x1="63.3914" y1="11.5288" x2="50.7187" y2="31.924" gradientUnits="userSpaceOnUse">
<stop stop-color="#4D4D4D"/>
<stop offset="1" stop-color="#B3B3B3"/>
</linearGradient>
<linearGradient id="paint16_linear_340_4240" x1="64.5851" y1="12.4524" x2="51.9125" y2="32.8474" gradientUnits="userSpaceOnUse">
<stop stop-color="#4D4D4D"/>
<stop offset="1" stop-color="#B3B3B3"/>
</linearGradient>
<linearGradient id="paint17_linear_340_4240" x1="27.564" y1="20.8931" x2="18.2598" y2="45.8982" gradientUnits="userSpaceOnUse">
<stop stop-color="#1A1A1A"/>
<stop offset="1" stop-color="#333333"/>
</linearGradient>
<linearGradient id="paint18_linear_340_4240" x1="26.3102" y1="24.0352" x2="18.9092" y2="40.7404" gradientUnits="userSpaceOnUse">
<stop stop-color="#1A1A1A"/>
<stop offset="1" stop-color="#333333"/>
</linearGradient>
<linearGradient id="paint19_linear_340_4240" x1="27.2934" y1="24.4719" x2="19.8922" y2="41.1771" gradientUnits="userSpaceOnUse">
<stop stop-color="#1A1A1A"/>
<stop offset="1" stop-color="#333333"/>
</linearGradient>
<linearGradient id="paint20_linear_340_4240" x1="202.961" y1="120.133" x2="192.291" y2="129.309" gradientUnits="userSpaceOnUse">
<stop stop-color="#4D4D4D"/>
<stop offset="1" stop-color="#B3B3B3"/>
</linearGradient>
<linearGradient id="paint21_linear_340_4240" x1="183.12" y1="134.185" x2="177.699" y2="144.456" gradientUnits="userSpaceOnUse">
<stop stop-color="#E6E6E6"/>
<stop offset="1" stop-color="#4D4D4D"/>
</linearGradient>
<linearGradient id="paint22_linear_340_4240" x1="187.118" y1="135.145" x2="184.55" y2="140.01" gradientUnits="userSpaceOnUse">
<stop stop-color="#E6E6E6"/>
<stop offset="1" stop-color="#4D4D4D"/>
</linearGradient>
<linearGradient id="paint23_linear_340_4240" x1="178.06" y1="135.147" x2="180.627" y2="140.012" gradientUnits="userSpaceOnUse">
<stop stop-color="#E6E6E6"/>
<stop offset="1" stop-color="#4D4D4D"/>
</linearGradient>
<linearGradient id="paint24_linear_340_4240" x1="44.2425" y1="110.433" x2="27.7734" y2="121.788" gradientUnits="userSpaceOnUse">
<stop stop-color="#4D4D4D"/>
<stop offset="1" stop-color="#B3B3B3"/>
</linearGradient>
<linearGradient id="paint25_linear_340_4240" x1="36.2505" y1="115.738" x2="39.0966" y2="115.738" gradientUnits="userSpaceOnUse">
<stop stop-color="#DAE3FE"/>
<stop offset="1" stop-color="#E9EFFD"/>
</linearGradient>
<linearGradient id="paint26_linear_340_4240" x1="46.9368" y1="115.752" x2="49.8321" y2="115.752" gradientUnits="userSpaceOnUse">
<stop stop-color="#DAE3FE"/>
<stop offset="1" stop-color="#E9EFFD"/>
</linearGradient>
<linearGradient id="paint27_linear_340_4240" x1="45.7685" y1="105.438" x2="49.8281" y2="105.438" gradientUnits="userSpaceOnUse">
<stop stop-color="#DAE3FE"/>
<stop offset="1" stop-color="#E9EFFD"/>
</linearGradient>
<linearGradient id="paint28_linear_340_4240" x1="36.2538" y1="105.298" x2="39.827" y2="105.298" gradientUnits="userSpaceOnUse">
<stop stop-color="#DAE3FE"/>
<stop offset="1" stop-color="#E9EFFD"/>
</linearGradient>
<linearGradient id="paint29_linear_340_4240" x1="41.8788" y1="104.512" x2="45.4859" y2="104.512" gradientUnits="userSpaceOnUse">
<stop stop-color="#DAE3FE"/>
<stop offset="1" stop-color="#E9EFFD"/>
</linearGradient>
<linearGradient id="paint30_linear_340_4240" x1="40.4989" y1="105.483" x2="46.8675" y2="105.483" gradientUnits="userSpaceOnUse">
<stop stop-color="#DAE3FE"/>
<stop offset="1" stop-color="#E9EFFD"/>
</linearGradient>
<linearGradient id="paint31_linear_340_4240" x1="39.706" y1="106.211" x2="47.2064" y2="106.211" gradientUnits="userSpaceOnUse">
<stop stop-color="#DAE3FE"/>
<stop offset="1" stop-color="#E9EFFD"/>
</linearGradient>
<linearGradient id="paint32_linear_340_4240" x1="38.483" y1="110.198" x2="45.4583" y2="110.198" gradientUnits="userSpaceOnUse">
<stop stop-color="#DAE3FE"/>
<stop offset="1" stop-color="#E9EFFD"/>
</linearGradient>
<linearGradient id="paint33_linear_340_4240" x1="38.8864" y1="111.265" x2="45.9308" y2="111.265" gradientUnits="userSpaceOnUse">
<stop stop-color="#DAE3FE"/>
<stop offset="1" stop-color="#E9EFFD"/>
</linearGradient>
<linearGradient id="paint34_linear_340_4240" x1="38.4919" y1="109.244" x2="47.9202" y2="109.244" gradientUnits="userSpaceOnUse">
<stop stop-color="#DAE3FE"/>
<stop offset="1" stop-color="#E9EFFD"/>
</linearGradient>
<linearGradient id="paint35_linear_340_4240" x1="38.5071" y1="108.44" x2="47.9068" y2="108.44" gradientUnits="userSpaceOnUse">
<stop stop-color="#DAE3FE"/>
<stop offset="1" stop-color="#E9EFFD"/>
</linearGradient>
<linearGradient id="paint36_linear_340_4240" x1="38.7448" y1="107.29" x2="47.831" y2="107.29" gradientUnits="userSpaceOnUse">
<stop stop-color="#DAE3FE"/>
<stop offset="1" stop-color="#E9EFFD"/>
</linearGradient>
<linearGradient id="paint37_linear_340_4240" x1="39.1806" y1="112.376" x2="47.8447" y2="112.376" gradientUnits="userSpaceOnUse">
<stop stop-color="#DAE3FE"/>
<stop offset="1" stop-color="#E9EFFD"/>
</linearGradient>
<linearGradient id="paint38_linear_340_4240" x1="39.5353" y1="113.312" x2="47.7465" y2="113.312" gradientUnits="userSpaceOnUse">
<stop stop-color="#DAE3FE"/>
<stop offset="1" stop-color="#E9EFFD"/>
</linearGradient>
<linearGradient id="paint39_linear_340_4240" x1="39.9726" y1="114.188" x2="46.5536" y2="114.188" gradientUnits="userSpaceOnUse">
<stop stop-color="#DAE3FE"/>
<stop offset="1" stop-color="#E9EFFD"/>
</linearGradient>
<linearGradient id="paint40_linear_340_4240" x1="41.8171" y1="114.645" x2="46.5079" y2="114.645" gradientUnits="userSpaceOnUse">
<stop stop-color="#DAE3FE"/>
<stop offset="1" stop-color="#E9EFFD"/>
</linearGradient>
<linearGradient id="paint41_linear_340_4240" x1="40.4984" y1="115.464" x2="46.027" y2="115.464" gradientUnits="userSpaceOnUse">
<stop stop-color="#DAE3FE"/>
<stop offset="1" stop-color="#E9EFFD"/>
</linearGradient>
<linearGradient id="paint42_linear_340_4240" x1="41.3131" y1="116.463" x2="44.6709" y2="116.463" gradientUnits="userSpaceOnUse">
<stop stop-color="#DAE3FE"/>
<stop offset="1" stop-color="#E9EFFD"/>
</linearGradient>
</defs>
</svg>
