<svg width="53" height="52" viewBox="0 0 53 52" fill="none" xmlns="http://www.w3.org/2000/svg">
<g clip-path="url(#clip0_521_28998)">
<path d="M40.4463 12.3154H12.5518V39.6837H40.4463V12.3154Z" fill="white"/>
<path d="M40.4482 52.0002L53.001 39.6844L46.7246 38.6338L40.4482 39.6844L39.3027 45.317L40.4482 52.0002Z" fill="#EA4335"/>
<path d="M0 39.6844V47.8949C0 50.1632 1.87239 52.0002 4.1841 52.0002H12.5527L13.8415 45.8423L12.5527 39.6844L5.71386 38.6338L0 39.6844Z" fill="#188038"/>
<path d="M53.001 12.3159V4.10516C53.001 1.83706 51.1286 0 48.8169 0H40.4482C39.6847 3.05419 39.3029 5.30183 39.3027 6.74294C39.3027 8.18391 39.6846 10.0416 40.4482 12.3159C43.2245 13.0959 45.3166 13.4859 46.7246 13.4859C48.1325 13.4859 50.2247 13.096 53.001 12.3159Z" fill="#1967D2"/>
<path d="M53.001 12.3154H40.4482V39.6837H53.001V12.3154Z" fill="#FBBC04"/>
<path d="M40.4463 39.6846H12.5518V52.0004H40.4463V39.6846Z" fill="#34A853"/>
<path d="M40.4473 0H4.18431C1.87239 0 0 1.83706 0 4.10516V39.6841H12.5527V12.3159H40.4473V0Z" fill="#4285F4"/>
<path d="M18.2757 33.5463C17.2331 32.8553 16.5112 31.8461 16.1172 30.5116L18.5372 29.5334C18.7566 30.3544 19.1402 30.9907 19.6879 31.4423C20.2317 31.8939 20.8942 32.1163 21.6683 32.1163C22.4597 32.1163 23.1396 31.8802 23.708 31.408C24.2765 30.9359 24.5624 30.3339 24.5624 29.6053C24.5624 28.8594 24.2626 28.2504 23.6629 27.7784C23.0631 27.3063 22.3099 27.0703 21.4104 27.0703H20.0121V24.7201H21.2673C22.0413 24.7201 22.6933 24.5148 23.2233 24.104C23.7533 23.6937 24.0183 23.1325 24.0183 22.4175C24.0183 21.7813 23.7813 21.2749 23.3072 20.8953C22.8331 20.5154 22.2331 20.3239 21.5043 20.3239C20.793 20.3239 20.2282 20.5087 19.8098 20.8815C19.3915 21.2553 19.0771 21.7274 18.8962 22.2534L16.5008 21.2749C16.818 20.3923 17.4004 19.6123 18.2546 18.9384C19.1088 18.2644 20.2003 17.9258 21.5253 17.9258C22.5051 17.9258 23.3873 18.1106 24.1684 18.4834C24.9493 18.8563 25.563 19.3728 26.0058 20.0298C26.4489 20.6899 26.6683 21.4289 26.6683 22.2499C26.6683 23.088 26.4627 23.7963 26.0514 24.3778C25.64 24.9594 25.1342 25.404 24.5345 25.7154V25.8556C25.3089 26.1689 25.9816 26.6834 26.4801 27.3439C26.9857 28.0109 27.2404 28.808 27.2404 29.7387C27.2404 30.669 26.9996 31.5004 26.5184 32.229C26.0373 32.9578 25.3715 33.5325 24.5274 33.9499C23.6802 34.3673 22.7283 34.5796 21.6718 34.5796C20.4479 34.5828 19.3183 34.2373 18.2757 33.5463ZM33.1397 21.764L30.4829 23.649L29.1544 21.6718L33.9208 18.2985H35.7479V34.2099H33.1397V21.764Z" fill="#4285F4"/>
</g>
<defs>
<clipPath id="clip0_521_28998">
<rect width="53" height="52" fill="white"/>
</clipPath>
</defs>
</svg>
