<svg width="141" height="36" viewBox="0 0 141 36" fill="none" xmlns="http://www.w3.org/2000/svg">
<g clip-path="url(#clip0_521_28988)">
<path d="M33.0209 24.6682L33.0007 24.6091L45.5046 13.7952V8.58494H25.4444V13.7952H37.4267L37.4463 13.8451L25.0645 24.6682V29.8784H45.706V24.6687L33.0209 24.6682ZM58.0214 8.08917C55.7077 8.08917 53.8219 8.41831 52.3646 9.07814C51.0068 9.65277 49.8631 10.5995 49.0818 11.7956C48.3344 12.9994 47.865 14.339 47.7045 15.7263L53.7909 16.5348C54.0114 15.3092 54.4518 14.4411 55.1122 13.9294C55.8631 13.3943 56.7884 13.1239 57.728 13.1652C58.9632 13.1652 59.8593 13.4768 60.4163 14.1012C60.9683 14.725 61.2486 15.589 61.2486 16.7281V17.2959H55.3963C52.4174 17.2959 50.2773 17.9197 48.9757 19.1679C47.6745 20.4156 47.0251 22.0633 47.0272 24.1102C47.0272 26.2064 47.6767 27.7668 48.9762 28.7902C50.2751 29.8131 51.9089 30.3217 53.8769 30.3156C56.3185 30.3156 58.1973 29.522 59.5115 27.9344C60.2876 26.9593 60.842 25.8431 61.1398 24.6559H61.3608L62.1997 29.8661H67.715V16.6716C67.715 13.9448 66.9545 11.8327 65.4329 10.3356C63.9119 8.83745 61.4408 8.08866 58.0214 8.08866V8.08917ZM59.9508 24.3529C59.0754 25.0426 57.9294 25.3856 56.5026 25.3856C55.3266 25.3856 54.51 25.1912 54.0522 24.8024C53.8291 24.6185 53.6516 24.3903 53.5323 24.1343C53.413 23.8782 53.3548 23.6005 53.3619 23.3208C53.3489 23.0569 53.3929 22.7933 53.4912 22.546C53.5894 22.2987 53.7399 22.0729 53.9335 21.8823C54.1427 21.6968 54.3896 21.5534 54.6592 21.4605C54.9288 21.3677 55.2154 21.3275 55.5019 21.3423H61.2584V21.7013C61.2701 22.2084 61.1582 22.7113 60.9315 23.1712C60.7048 23.631 60.3692 24.035 59.9508 24.3529ZM101.065 8.58494H94.5491V29.8815H101.065V8.58494ZM139.537 8.58494C137.697 8.58494 136.246 9.19848 135.185 10.4261C134.423 11.3076 133.844 12.6108 133.448 14.3347H133.256L132.404 8.58494H126.839V29.8784H133.356V18.9586C133.356 17.5819 133.697 16.526 134.379 15.7921C135.062 15.0577 136.321 14.6905 138.157 14.6905H140.631V8.58494H139.537ZM120.372 9.28077C118.851 8.42603 116.932 7.99968 114.616 8.00174C110.97 8.00174 108.116 8.98197 106.056 10.9435C103.995 12.9049 102.965 15.6091 102.965 19.0558C102.912 21.1394 103.393 23.2041 104.368 25.074C105.26 26.7402 106.649 28.1232 108.364 29.052C110.09 29.9941 112.143 30.4663 114.524 30.4683C116.582 30.4683 118.302 30.169 119.682 29.5699C120.98 29.0318 122.11 28.1885 122.965 27.1203C123.779 26.0719 124.383 24.892 124.748 23.6386L119.134 22.1539C118.898 22.9688 118.443 23.7124 117.813 24.3128C117.179 24.9115 116.116 25.2113 114.626 25.2113C112.854 25.2113 111.532 24.732 110.663 23.7728C110.031 23.0801 109.636 22.0911 109.461 20.809H124.834C124.897 20.2099 124.93 19.7074 124.93 19.3021V17.9758C124.967 16.1946 124.578 14.4285 123.791 12.8093C123.054 11.3344 121.862 10.1045 120.372 9.28077ZM114.428 13.0777C117.07 13.0777 118.568 14.3059 118.923 16.7626H109.576C109.724 15.9428 110.084 15.17 110.623 14.5126C111.479 13.554 112.748 13.0757 114.428 13.0777ZM97.8782 0.00202615C97.388 -0.0138374 96.8994 0.0635814 96.4415 0.229679C95.9836 0.395776 95.5658 0.647161 95.2128 0.968883C94.8651 1.29405 94.5926 1.68377 94.4124 2.11343C94.2322 2.54309 94.1483 3.00337 94.1659 3.46523C94.1481 3.93008 94.2321 4.39338 94.4125 4.82619C94.5929 5.25899 94.8659 5.65198 95.2144 5.9806C95.5626 6.30947 95.9789 6.56695 96.4372 6.73694C96.8956 6.90693 97.3861 6.98577 97.8782 6.96854C98.3671 6.98593 98.8545 6.90698 99.3093 6.73671C99.7642 6.56645 100.177 6.3086 100.52 5.97957C100.861 5.64722 101.128 5.25304 101.303 4.82082C101.478 4.3886 101.559 3.92729 101.541 3.46471C101.564 3.00503 101.485 2.54591 101.309 2.11676C101.133 1.6876 100.864 1.29786 100.52 0.972483C100.175 0.646828 99.7627 0.3926 99.3085 0.226034C98.8542 0.0594674 98.3682 -0.0157749 97.8814 0.00511186L97.8782 0.00202615ZM84.4167 8.00174C82.1972 8.00174 80.4138 8.66003 79.0664 9.9766C78.0685 10.9517 77.3368 12.4081 76.8702 14.3444H76.6623L75.8097 8.59471H70.2449V36H76.7608V24.7119H76.9987C77.1974 25.4647 77.4762 26.1965 77.8311 26.8961C78.3823 28.0358 79.2864 28.9909 80.4241 29.6352C81.6032 30.2433 82.9317 30.5458 84.2746 30.512C87.0026 30.512 89.0795 29.5081 90.5064 27.5014C91.9333 25.4941 92.647 22.6933 92.647 19.099C92.647 15.6276 91.9562 12.9101 90.5761 10.9465C89.1955 8.98351 87.1426 8.00174 84.4167 8.00174ZM85.0771 23.4329C84.3171 24.4728 83.1287 24.9927 81.5102 24.9927C80.843 25.0218 80.178 24.9003 79.5704 24.6382C78.9628 24.3762 78.43 23.9811 78.0162 23.4859C77.1724 22.4856 76.7521 21.1155 76.7548 19.3767V18.9715C76.7548 17.2054 77.1751 15.8533 78.0162 14.9153C78.8568 13.9772 80.0223 13.5133 81.5102 13.5236C83.1575 13.5236 84.3536 14.0173 85.1005 15.0058C85.8469 15.9937 86.2198 17.3715 86.2198 19.1396C86.2247 20.9679 85.8458 22.3992 85.0836 23.4329H85.0771Z" fill="#201515"/>
<path d="M22.5437 24.668H0V29.8849H22.5437V24.668Z" fill="#FF4F00"/>
</g>
<defs>
<clipPath id="clip0_521_28988">
<rect width="141" height="36" fill="white"/>
</clipPath>
</defs>
</svg>
