<svg width="21" height="21" viewBox="0 0 21 21" fill="none" xmlns="http://www.w3.org/2000/svg">
<g clip-path="url(#clip0_77_1929)">
<path d="M10 2.10977C8.80653 2.10977 7.66193 2.55226 6.81802 3.33992C5.97411 4.12757 5.5 5.19586 5.5 6.30977C5.5 7.42367 5.97411 8.49196 6.81802 9.27961C7.66193 10.0673 8.80653 10.5098 10 10.5098C11.1935 10.5098 12.3381 10.0673 13.182 9.27961C14.0259 8.49196 14.5 7.42367 14.5 6.30977C14.5 5.19586 14.0259 4.12757 13.182 3.33992C12.3381 2.55226 11.1935 2.10977 10 2.10977ZM3.25 6.30977C3.25 4.6389 3.96116 3.03647 5.22703 1.85499C6.4929 0.673514 8.20979 0.00976563 10 0.00976562C11.7902 0.00976563 13.5071 0.673514 14.773 1.85499C16.0388 3.03647 16.75 4.6389 16.75 6.30977C16.75 7.98063 16.0388 9.58306 14.773 10.7645C13.5071 11.946 11.7902 12.6098 10 12.6098C8.20979 12.6098 6.4929 11.946 5.22703 10.7645C3.96116 9.58306 3.25 7.98063 3.25 6.30977ZM6.0625 16.8098C4.645 16.8098 3.25 18.0834 3.25 19.9598C3.25 20.2382 3.13147 20.5053 2.9205 20.7022C2.70952 20.8991 2.42337 21.0098 2.125 21.0098C1.82663 21.0098 1.54048 20.8991 1.3295 20.7022C1.11853 20.5053 1 20.2382 1 19.9598C1 17.1962 3.12962 14.7098 6.0625 14.7098H13.9375C16.8704 14.7098 19 17.1962 19 19.9598C19 20.2382 18.8815 20.5053 18.6705 20.7022C18.4595 20.8991 18.1734 21.0098 17.875 21.0098C17.5766 21.0098 17.2905 20.8991 17.0795 20.7022C16.8685 20.5053 16.75 20.2382 16.75 19.9598C16.75 18.0834 15.355 16.8098 13.9375 16.8098H6.0625Z" fill="#747474" stroke="#E2E2E2" stroke-width="0.508676"/>
</g>
<defs>
<clipPath id="clip0_77_1929">
<rect width="21" height="21" fill="white"/>
</clipPath>
</defs>
</svg>
